%TF.GenerationSoftware,KiCad,Pcbnew,9.0.7*%
%TF.CreationDate,2026-02-16T10:58:25+00:00*%
%TF.ProjectId,DeltaBot,44656c74-6142-46f7-942e-6b696361645f,rev?*%
%TF.SameCoordinates,Original*%
%TF.FileFunction,Copper,L1,Top*%
%TF.FilePolarity,Positive*%
%FSLAX46Y46*%
G04 Gerber Fmt 4.6, Leading zero omitted, Abs format (unit mm)*
G04 Created by KiCad (PCBNEW 9.0.7) date 2026-02-16 10:58:25*
%MOMM*%
%LPD*%
G01*
G04 APERTURE LIST*
G04 Aperture macros list*
%AMRoundRect*
0 Rectangle with rounded corners*
0 $1 Rounding radius*
0 $2 $3 $4 $5 $6 $7 $8 $9 X,Y pos of 4 corners*
0 Add a 4 corners polygon primitive as box body*
4,1,4,$2,$3,$4,$5,$6,$7,$8,$9,$2,$3,0*
0 Add four circle primitives for the rounded corners*
1,1,$1+$1,$2,$3*
1,1,$1+$1,$4,$5*
1,1,$1+$1,$6,$7*
1,1,$1+$1,$8,$9*
0 Add four rect primitives between the rounded corners*
20,1,$1+$1,$2,$3,$4,$5,0*
20,1,$1+$1,$4,$5,$6,$7,0*
20,1,$1+$1,$6,$7,$8,$9,0*
20,1,$1+$1,$8,$9,$2,$3,0*%
G04 Aperture macros list end*
%TA.AperFunction,Conductor*%
%ADD10C,0.200000*%
%TD*%
%TA.AperFunction,SMDPad,CuDef*%
%ADD11RoundRect,0.250000X-0.450000X0.350000X-0.450000X-0.350000X0.450000X-0.350000X0.450000X0.350000X0*%
%TD*%
%TA.AperFunction,SMDPad,CuDef*%
%ADD12RoundRect,0.250000X-0.450000X0.325000X-0.450000X-0.325000X0.450000X-0.325000X0.450000X0.325000X0*%
%TD*%
%TA.AperFunction,SMDPad,CuDef*%
%ADD13RoundRect,0.250000X-0.550000X1.500000X-0.550000X-1.500000X0.550000X-1.500000X0.550000X1.500000X0*%
%TD*%
%TA.AperFunction,SMDPad,CuDef*%
%ADD14RoundRect,0.125000X0.875000X0.875000X-0.875000X0.875000X-0.875000X-0.875000X0.875000X-0.875000X0*%
%TD*%
%TA.AperFunction,SMDPad,CuDef*%
%ADD15RoundRect,0.250000X0.750000X2.000000X-0.750000X2.000000X-0.750000X-2.000000X0.750000X-2.000000X0*%
%TD*%
%TA.AperFunction,SMDPad,CuDef*%
%ADD16RoundRect,0.250000X0.750000X0.750000X-0.750000X0.750000X-0.750000X-0.750000X0.750000X-0.750000X0*%
%TD*%
%TA.AperFunction,SMDPad,CuDef*%
%ADD17RoundRect,0.687500X3.312500X2.062500X-3.312500X2.062500X-3.312500X-2.062500X3.312500X-2.062500X0*%
%TD*%
%TA.AperFunction,SMDPad,CuDef*%
%ADD18RoundRect,0.250000X-0.337500X-0.475000X0.337500X-0.475000X0.337500X0.475000X-0.337500X0.475000X0*%
%TD*%
%TA.AperFunction,ComponentPad*%
%ADD19R,2.000000X2.000000*%
%TD*%
%TA.AperFunction,ComponentPad*%
%ADD20C,2.000000*%
%TD*%
%TA.AperFunction,SMDPad,CuDef*%
%ADD21RoundRect,0.250000X-1.500000X-0.550000X1.500000X-0.550000X1.500000X0.550000X-1.500000X0.550000X0*%
%TD*%
%TA.AperFunction,ComponentPad*%
%ADD22RoundRect,0.250001X-0.949999X-0.949999X0.949999X-0.949999X0.949999X0.949999X-0.949999X0.949999X0*%
%TD*%
%TA.AperFunction,ComponentPad*%
%ADD23C,2.400000*%
%TD*%
%TA.AperFunction,ComponentPad*%
%ADD24C,1.879600*%
%TD*%
%TA.AperFunction,ComponentPad*%
%ADD25R,3.500000X3.500000*%
%TD*%
%TA.AperFunction,ComponentPad*%
%ADD26C,3.500000*%
%TD*%
%TA.AperFunction,ComponentPad*%
%ADD27C,3.000000*%
%TD*%
%TA.AperFunction,ViaPad*%
%ADD28C,2.000000*%
%TD*%
%TA.AperFunction,Conductor*%
%ADD29C,0.500000*%
%TD*%
%TA.AperFunction,Conductor*%
%ADD30C,2.000000*%
%TD*%
%TA.AperFunction,Conductor*%
%ADD31C,1.000000*%
%TD*%
%TA.AperFunction,Profile*%
%ADD32C,0.100000*%
%TD*%
G04 APERTURE END LIST*
D10*
%TO.N,GND*%
X59400000Y-69200000D02*
X57200000Y-71200000D01*
X55600000Y-71200000D01*
X53400000Y-68000000D01*
X53200000Y-65600000D01*
X55000000Y-62200000D01*
X59800000Y-62200000D01*
X59400000Y-69200000D01*
%TA.AperFunction,Conductor*%
G36*
X59400000Y-69200000D02*
G01*
X57200000Y-71200000D01*
X55600000Y-71200000D01*
X53400000Y-68000000D01*
X53200000Y-65600000D01*
X55000000Y-62200000D01*
X59800000Y-62200000D01*
X59400000Y-69200000D01*
G37*
%TD.AperFunction*%
%TD*%
D11*
%TO.P,R12,1*%
%TO.N,+5V*%
X139200000Y-85775000D03*
%TO.P,R12,2*%
%TO.N,Net-(D1-K)*%
X139200000Y-87775000D03*
%TD*%
D12*
%TO.P,D1,1,K*%
%TO.N,Net-(D1-K)*%
X139200000Y-89975000D03*
%TO.P,D1,2,A*%
%TO.N,GND*%
X139200000Y-92025000D03*
%TD*%
D13*
%TO.P,C2,1*%
%TO.N,+5V*%
X109750000Y-80300000D03*
%TO.P,C2,2*%
%TO.N,GND*%
X109750000Y-85700000D03*
%TD*%
D14*
%TO.P,U2,1,IN+*%
%TO.N,+9V*%
X116750000Y-92750000D03*
D15*
%TO.P,U2,2,IN-*%
%TO.N,GND*%
X116750000Y-86500000D03*
D16*
%TO.P,U2,3,OUT+*%
%TO.N,+5V*%
X116750000Y-80250000D03*
D17*
%TO.P,U2,4,OUT-*%
%TO.N,GND*%
X125250000Y-87500000D03*
%TD*%
D18*
%TO.P,C8,1*%
%TO.N,+5V*%
X51212500Y-66750000D03*
%TO.P,C8,2*%
%TO.N,GND*%
X53287500Y-66750000D03*
%TD*%
D19*
%TO.P,J3,1,Pin_1*%
%TO.N,PWM_L*%
X146420000Y-145750000D03*
D20*
%TO.P,J3,2,Pin_2*%
%TO.N,+5V*%
X148960000Y-145750000D03*
%TO.P,J3,3,Pin_3*%
%TO.N,GND*%
X151500000Y-145750000D03*
%TD*%
D21*
%TO.P,C4,1*%
%TO.N,+5V*%
X147600000Y-138250000D03*
%TO.P,C4,2*%
%TO.N,GND*%
X153000000Y-138250000D03*
%TD*%
%TO.P,C6,1*%
%TO.N,+5V*%
X51700000Y-62200000D03*
%TO.P,C6,2*%
%TO.N,GND*%
X57100000Y-62200000D03*
%TD*%
D19*
%TO.P,U1,1,3.3V*%
%TO.N,+3.3V*%
X51305000Y-74105000D03*
D20*
%TO.P,U1,2,5V1*%
%TO.N,+5V*%
X51305000Y-71565000D03*
%TO.P,U1,3,I2C7_SDA*%
%TO.N,SDA*%
X53845000Y-74105000D03*
%TO.P,U1,4,5V2*%
%TO.N,+5V*%
X53845000Y-71565000D03*
%TO.P,U1,5,I2C7_SCL*%
%TO.N,SCL*%
X56385000Y-74105000D03*
%TO.P,U1,6,GND1*%
%TO.N,GND*%
X56385000Y-71565000D03*
%TO.P,U1,7,GPIO2_B3*%
%TO.N,unconnected-(U1-GPIO2_B3-Pad7)*%
X58925000Y-74105000D03*
%TO.P,U1,8,GPIO4_C3*%
%TO.N,LIDAR_TX*%
X58925000Y-71565000D03*
%TO.P,U1,9,GND8*%
%TO.N,GND*%
X61465000Y-74105000D03*
%TO.P,U1,10,GPIO4_C4*%
%TO.N,LIDAR_RX*%
X61465000Y-71565000D03*
%TO.P,U1,11,GPIO4_C2*%
%TO.N,unconnected-(U1-GPIO4_C2-Pad11)*%
X64005000Y-74105000D03*
%TO.P,U1,12,GPIO4_A3*%
%TO.N,unconnected-(U1-GPIO4_A3-Pad12)*%
X64005000Y-71565000D03*
%TO.P,U1,13,GPIO4_C6*%
%TO.N,unconnected-(U1-GPIO4_C6-Pad13)*%
X66545000Y-74105000D03*
%TO.P,U1,14,GND2*%
%TO.N,GND*%
X66545000Y-71565000D03*
%TO.P,U1,15,GPIO4_D0*%
%TO.N,unconnected-(U1-GPIO4_D0-Pad15)*%
X69085000Y-74105000D03*
%TO.P,U1,16,GPIO4_D2*%
%TO.N,unconnected-(U1-GPIO4_D2-Pad16)*%
X69085000Y-71565000D03*
%TO.P,U1,17,3.3V1*%
%TO.N,unconnected-(U1-3.3V1-Pad17)*%
X71625000Y-74105000D03*
%TO.P,U1,18,GPIO4_D4*%
%TO.N,unconnected-(U1-GPIO4_D4-Pad18)*%
X71625000Y-71565000D03*
%TO.P,U1,19,GPIO1_B0*%
%TO.N,unconnected-(U1-GPIO1_B0-Pad19)*%
X74165000Y-74105000D03*
%TO.P,U1,20,GND3*%
%TO.N,GND*%
X74165000Y-71565000D03*
%TO.P,U1,21,GPIO1_A7*%
%TO.N,unconnected-(U1-GPIO1_A7-Pad21)*%
X76705000Y-74105000D03*
%TO.P,U1,22,GPIO4_D5*%
%TO.N,unconnected-(U1-GPIO4_D5-Pad22)*%
X76705000Y-71565000D03*
%TO.P,U1,23,GPIO1_B1*%
%TO.N,unconnected-(U1-GPIO1_B1-Pad23)*%
X79245000Y-74105000D03*
%TO.P,U1,24,GPIO1_B2*%
%TO.N,unconnected-(U1-GPIO1_B2-Pad24)*%
X79245000Y-71565000D03*
%TO.P,U1,25,GND7*%
%TO.N,GND*%
X81785000Y-74105000D03*
%TO.P,U1,26,ADC_IN0*%
%TO.N,unconnected-(U1-ADC_IN0-Pad26)*%
X81785000Y-71565000D03*
%TO.P,U1,27,GPIO2_A0*%
%TO.N,unconnected-(U1-GPIO2_A0-Pad27)*%
X84325000Y-74105000D03*
%TO.P,U1,28,GPIO2_A1*%
%TO.N,unconnected-(U1-GPIO2_A1-Pad28)*%
X84325000Y-71565000D03*
%TO.P,U1,29,GPIO2_B2*%
%TO.N,unconnected-(U1-GPIO2_B2-Pad29)*%
X86865000Y-74105000D03*
%TO.P,U1,30,GND4*%
%TO.N,GND*%
X86865000Y-71565000D03*
%TO.P,U1,31,GPIO2_B1*%
%TO.N,unconnected-(U1-GPIO2_B1-Pad31)*%
X89405000Y-74105000D03*
%TO.P,U1,32,GPIO3_C0*%
%TO.N,PWM_R*%
X89405000Y-71565000D03*
%TO.P,U1,33,GPIO2_B4*%
%TO.N,PWM_L*%
X91945000Y-74105000D03*
%TO.P,U1,34,GND5*%
%TO.N,GND*%
X91945000Y-71565000D03*
%TO.P,U1,35,GPIO4_A5*%
%TO.N,unconnected-(U1-GPIO4_A5-Pad35)*%
X94485000Y-74105000D03*
%TO.P,U1,36,GPIO4_A4*%
%TO.N,unconnected-(U1-GPIO4_A4-Pad36)*%
X94485000Y-71565000D03*
%TO.P,U1,37,GPIO4_D6*%
%TO.N,unconnected-(U1-GPIO4_D6-Pad37)*%
X97025000Y-74105000D03*
%TO.P,U1,38,GPIO4_A6*%
%TO.N,ALERT*%
X97025000Y-71565000D03*
%TO.P,U1,39,GND6*%
%TO.N,GND*%
X99565000Y-74105000D03*
%TO.P,U1,40,GPIO4_A7*%
%TO.N,ADDR*%
X99565000Y-71565000D03*
%TD*%
D22*
%TO.P,C1,1*%
%TO.N,+5V*%
X117000000Y-59250000D03*
D23*
%TO.P,C1,2*%
%TO.N,GND*%
X124500000Y-59250000D03*
%TD*%
D24*
%TO.P,J1,1,VCC*%
%TO.N,Net-(J1-VCC)*%
X93030800Y-90186800D03*
%TO.P,J1,2,GND_USB*%
%TO.N,shunt*%
X90490800Y-90186800D03*
%TD*%
D19*
%TO.P,J5,1,VCC*%
%TO.N,+5V*%
X140220000Y-96000000D03*
D20*
%TO.P,J5,2,TX*%
%TO.N,LIDAR_TX*%
X140220000Y-98540000D03*
%TO.P,J5,3,RX*%
%TO.N,LIDAR_RX*%
X140220000Y-101080000D03*
%TO.P,J5,4,GND*%
%TO.N,GND*%
X140220000Y-103620000D03*
%TO.P,J5,5,Pin_5*%
%TO.N,unconnected-(J5-Pin_5-Pad5)*%
X140220000Y-106160000D03*
%TD*%
D25*
%TO.P,SW1,1,A*%
%TO.N,Net-(SW1-A)*%
X106750000Y-114500000D03*
D26*
%TO.P,SW1,2,B*%
%TO.N,Net-(J1-VCC)*%
X106750000Y-109801000D03*
%TO.P,SW1,3,C*%
%TO.N,unconnected-(SW1-C-Pad3)*%
X106750000Y-105102000D03*
%TD*%
D19*
%TO.P,J4,1,Pin_1*%
%TO.N,PWM_R*%
X151710000Y-66000000D03*
D20*
%TO.P,J4,2,Pin_2*%
%TO.N,+5V*%
X154250000Y-66000000D03*
%TO.P,J4,3,Pin_3*%
%TO.N,GND*%
X156790000Y-66000000D03*
%TD*%
D27*
%TO.P,F1,1*%
%TO.N,+9V*%
X117000000Y-98500000D03*
%TO.P,F1,2*%
%TO.N,Net-(SW1-A)*%
X117000000Y-121000000D03*
%TD*%
D28*
%TO.N,+5V*%
X117000000Y-77250000D03*
X117000000Y-75250000D03*
X117000000Y-73250000D03*
%TO.N,PWM_R*%
X106500000Y-66000000D03*
%TO.N,+3.3V*%
X66500000Y-87750000D03*
X85250000Y-89250000D03*
%TO.N,GND*%
X146400000Y-112800000D03*
X77200000Y-67800000D03*
X112400000Y-90600000D03*
X97400000Y-85000000D03*
X125400000Y-96400000D03*
X56600000Y-66800000D03*
X81600000Y-78400000D03*
%TD*%
D29*
%TO.N,PWM_L*%
X92734000Y-74830288D02*
X92734000Y-74105000D01*
X108250000Y-95750000D02*
X108250000Y-89000000D01*
X146420000Y-145750000D02*
X144750000Y-144080000D01*
X137451000Y-124951000D02*
X108250000Y-95750000D01*
X144750000Y-126000000D02*
X143701000Y-124951000D01*
X144750000Y-144080000D02*
X144750000Y-126000000D01*
X92734000Y-74105000D02*
X91945000Y-74105000D01*
X95106000Y-75856000D02*
X93759712Y-75856000D01*
X108250000Y-89000000D02*
X95106000Y-75856000D01*
X93759712Y-75856000D02*
X92734000Y-74830288D01*
X143701000Y-124951000D02*
X137451000Y-124951000D01*
D30*
%TO.N,+5V*%
X117000000Y-80000000D02*
X116750000Y-80250000D01*
X51212500Y-71472500D02*
X51305000Y-71565000D01*
D29*
X131250000Y-75250000D02*
X139200000Y-83200000D01*
D30*
X117000000Y-73250000D02*
X117000000Y-75250000D01*
D29*
X117000000Y-75250000D02*
X131250000Y-75250000D01*
D31*
X133250000Y-80750000D02*
X129750000Y-77250000D01*
X147600000Y-138250000D02*
X148960000Y-139610000D01*
X133250000Y-108750000D02*
X133250000Y-80750000D01*
X146100000Y-136750000D02*
X146100000Y-121600000D01*
D30*
X51500000Y-66462500D02*
X51212500Y-66750000D01*
D31*
X147600000Y-138250000D02*
X146100000Y-136750000D01*
D30*
X117000000Y-59250000D02*
X53500000Y-59250000D01*
X53500000Y-59250000D02*
X51500000Y-61250000D01*
X117000000Y-75250000D02*
X117000000Y-80000000D01*
X51212500Y-66750000D02*
X51212500Y-71472500D01*
D31*
X129750000Y-77250000D02*
X117000000Y-77250000D01*
D30*
X51500000Y-61250000D02*
X51500000Y-66462500D01*
D29*
X116750000Y-75500000D02*
X117000000Y-75250000D01*
D31*
X148960000Y-139610000D02*
X148960000Y-145750000D01*
D30*
X116700000Y-80300000D02*
X116750000Y-80250000D01*
D29*
X139200000Y-83200000D02*
X139200000Y-85775000D01*
D30*
X117000000Y-59250000D02*
X117000000Y-73250000D01*
X109750000Y-80300000D02*
X116700000Y-80300000D01*
D31*
X146100000Y-121600000D02*
X133250000Y-108750000D01*
D30*
X51305000Y-71565000D02*
X53845000Y-71565000D01*
D29*
%TO.N,PWM_R*%
X89405000Y-71565000D02*
X94970000Y-66000000D01*
X94970000Y-66000000D02*
X106500000Y-66000000D01*
D30*
%TO.N,+9V*%
X117000000Y-98500000D02*
X117000000Y-93000000D01*
X117000000Y-93000000D02*
X116750000Y-92750000D01*
D29*
%TO.N,Net-(D1-K)*%
X139200000Y-87775000D02*
X139200000Y-89975000D01*
%TO.N,+3.3V*%
X83750000Y-87750000D02*
X85250000Y-89250000D01*
X64950000Y-87750000D02*
X66500000Y-87750000D01*
X66500000Y-87750000D02*
X83750000Y-87750000D01*
X51305000Y-74105000D02*
X64950000Y-87750000D01*
%TD*%
%TA.AperFunction,Conductor*%
%TO.N,GND*%
G36*
X38123322Y-50253332D02*
G01*
X38190341Y-50273077D01*
X38236048Y-50325923D01*
X38245929Y-50395090D01*
X38216846Y-50458620D01*
X38189182Y-50482324D01*
X38155859Y-50503263D01*
X37914326Y-50695879D01*
X37695879Y-50914326D01*
X37503264Y-51155858D01*
X37338903Y-51417437D01*
X37204868Y-51695763D01*
X37204862Y-51695777D01*
X37102835Y-51987352D01*
X37102831Y-51987364D01*
X37034089Y-52288544D01*
X37034086Y-52288562D01*
X36999500Y-52595528D01*
X36999500Y-52904471D01*
X37034086Y-53211437D01*
X37034089Y-53211455D01*
X37102831Y-53512635D01*
X37102835Y-53512647D01*
X37204862Y-53804222D01*
X37204868Y-53804236D01*
X37338903Y-54082562D01*
X37338905Y-54082565D01*
X37503265Y-54344143D01*
X37590287Y-54453265D01*
X37693400Y-54582565D01*
X37695880Y-54585674D01*
X37914326Y-54804120D01*
X38155857Y-54996735D01*
X38417435Y-55161095D01*
X38695771Y-55295135D01*
X38695777Y-55295137D01*
X38987352Y-55397164D01*
X38987364Y-55397168D01*
X39288548Y-55465911D01*
X39288554Y-55465911D01*
X39288562Y-55465913D01*
X39493206Y-55488970D01*
X39595529Y-55500499D01*
X39595532Y-55500500D01*
X39595535Y-55500500D01*
X39904468Y-55500500D01*
X39904469Y-55500499D01*
X40061356Y-55482822D01*
X40211437Y-55465913D01*
X40211442Y-55465912D01*
X40211452Y-55465911D01*
X40512636Y-55397168D01*
X40804229Y-55295135D01*
X41082565Y-55161095D01*
X41344143Y-54996735D01*
X41585674Y-54804120D01*
X41804120Y-54585674D01*
X41996735Y-54344143D01*
X42161095Y-54082565D01*
X42295135Y-53804229D01*
X42397168Y-53512636D01*
X42465911Y-53211452D01*
X42478973Y-53095528D01*
X42500499Y-52904471D01*
X42500500Y-52904467D01*
X42500500Y-52595532D01*
X42500499Y-52595528D01*
X42465913Y-52288562D01*
X42465910Y-52288544D01*
X42444733Y-52195763D01*
X42397168Y-51987364D01*
X42372699Y-51917437D01*
X42295137Y-51695777D01*
X42295135Y-51695771D01*
X42161095Y-51417435D01*
X41996735Y-51155857D01*
X41804120Y-50914326D01*
X41585674Y-50695880D01*
X41344143Y-50503265D01*
X41330250Y-50494535D01*
X41315522Y-50485281D01*
X41269231Y-50432946D01*
X41258583Y-50363892D01*
X41286958Y-50300044D01*
X41345348Y-50261672D01*
X41381602Y-50256287D01*
X131048975Y-50337606D01*
X131115997Y-50357351D01*
X131161704Y-50410197D01*
X131171585Y-50479364D01*
X131142502Y-50542894D01*
X131083690Y-50580615D01*
X131076456Y-50582497D01*
X130987361Y-50602832D01*
X130987352Y-50602835D01*
X130695777Y-50704862D01*
X130695763Y-50704868D01*
X130417437Y-50838903D01*
X130155858Y-51003264D01*
X129914326Y-51195879D01*
X129695879Y-51414326D01*
X129503264Y-51655858D01*
X129338903Y-51917437D01*
X129204868Y-52195763D01*
X129204862Y-52195777D01*
X129102835Y-52487352D01*
X129102831Y-52487364D01*
X129034089Y-52788544D01*
X129034086Y-52788562D01*
X128999500Y-53095528D01*
X128999500Y-53404471D01*
X129034086Y-53711437D01*
X129034089Y-53711455D01*
X129102831Y-54012635D01*
X129102835Y-54012647D01*
X129204862Y-54304222D01*
X129204868Y-54304236D01*
X129338903Y-54582562D01*
X129378688Y-54645879D01*
X129503265Y-54844143D01*
X129695880Y-55085674D01*
X129914326Y-55304120D01*
X130155857Y-55496735D01*
X130417435Y-55661095D01*
X130695771Y-55795135D01*
X130695777Y-55795137D01*
X130987352Y-55897164D01*
X130987364Y-55897168D01*
X131288548Y-55965911D01*
X131288554Y-55965911D01*
X131288562Y-55965913D01*
X131493206Y-55988970D01*
X131595529Y-56000499D01*
X131595532Y-56000500D01*
X131595535Y-56000500D01*
X131904468Y-56000500D01*
X131904469Y-56000499D01*
X132061356Y-55982822D01*
X132211437Y-55965913D01*
X132211442Y-55965912D01*
X132211452Y-55965911D01*
X132512636Y-55897168D01*
X132804229Y-55795135D01*
X133082565Y-55661095D01*
X133344143Y-55496735D01*
X133585674Y-55304120D01*
X133804120Y-55085674D01*
X133996735Y-54844143D01*
X134161095Y-54582565D01*
X134295135Y-54304229D01*
X134397168Y-54012636D01*
X134465911Y-53711452D01*
X134500500Y-53404465D01*
X134500500Y-53095535D01*
X134488970Y-52993206D01*
X134465913Y-52788562D01*
X134465910Y-52788544D01*
X134397168Y-52487364D01*
X134397164Y-52487352D01*
X134295137Y-52195777D01*
X134295135Y-52195771D01*
X134161095Y-51917435D01*
X133996735Y-51655857D01*
X133804120Y-51414326D01*
X133585674Y-51195880D01*
X133344143Y-51003265D01*
X133082565Y-50838905D01*
X133082562Y-50838903D01*
X132804236Y-50704868D01*
X132804222Y-50704862D01*
X132512647Y-50602835D01*
X132512635Y-50602831D01*
X132429138Y-50583774D01*
X132368159Y-50549665D01*
X132335301Y-50488004D01*
X132340996Y-50418367D01*
X132383436Y-50362863D01*
X132449146Y-50339115D01*
X132456839Y-50338883D01*
X198275614Y-50398573D01*
X198342634Y-50418318D01*
X198388341Y-50471164D01*
X198399500Y-50522573D01*
X198399500Y-147875500D01*
X198379815Y-147942539D01*
X198327011Y-147988294D01*
X198275500Y-147999500D01*
X144124500Y-147999500D01*
X144057461Y-147979815D01*
X144011706Y-147927011D01*
X144000500Y-147875500D01*
X144000500Y-144691230D01*
X144020185Y-144624191D01*
X144072989Y-144578436D01*
X144142147Y-144568492D01*
X144205703Y-144597517D01*
X144212181Y-144603549D01*
X144883181Y-145274548D01*
X144916666Y-145335871D01*
X144919500Y-145362229D01*
X144919500Y-146797870D01*
X144919501Y-146797876D01*
X144925908Y-146857483D01*
X144976202Y-146992328D01*
X144976206Y-146992335D01*
X145062452Y-147107544D01*
X145062455Y-147107547D01*
X145177664Y-147193793D01*
X145177671Y-147193797D01*
X145312517Y-147244091D01*
X145312516Y-147244091D01*
X145319444Y-147244835D01*
X145372127Y-147250500D01*
X146291905Y-147250499D01*
X146291919Y-147250500D01*
X146301908Y-147250500D01*
X146548082Y-147250500D01*
X146548094Y-147250499D01*
X147467871Y-147250499D01*
X147467872Y-147250499D01*
X147527483Y-147244091D01*
X147662331Y-147193796D01*
X147777546Y-147107546D01*
X147863796Y-146992331D01*
X147863797Y-146992326D01*
X147868047Y-146984546D01*
X147871380Y-146986366D01*
X147902292Y-146944766D01*
X147967669Y-146920116D01*
X148035994Y-146934725D01*
X148049835Y-146943446D01*
X148173567Y-147033343D01*
X148272991Y-147084002D01*
X148384003Y-147140566D01*
X148384005Y-147140566D01*
X148384008Y-147140568D01*
X148504412Y-147179689D01*
X148608631Y-147213553D01*
X148841903Y-147250500D01*
X148841908Y-147250500D01*
X149078097Y-147250500D01*
X149311368Y-147213553D01*
X149312870Y-147213065D01*
X149535992Y-147140568D01*
X149746433Y-147033343D01*
X149937510Y-146894517D01*
X150104517Y-146727510D01*
X150151370Y-146663022D01*
X150155713Y-146658199D01*
X150180150Y-146643142D01*
X150202877Y-146625618D01*
X150210393Y-146624509D01*
X150215199Y-146621549D01*
X150228730Y-146621806D01*
X150257594Y-146617551D01*
X150277340Y-146619105D01*
X151017037Y-145879408D01*
X151034075Y-145942993D01*
X151099901Y-146057007D01*
X151192993Y-146150099D01*
X151307007Y-146215925D01*
X151370590Y-146232962D01*
X150630893Y-146972658D01*
X150713828Y-147032914D01*
X150924197Y-147140102D01*
X151148752Y-147213065D01*
X151148751Y-147213065D01*
X151381948Y-147250000D01*
X151618052Y-147250000D01*
X151851247Y-147213065D01*
X152075802Y-147140102D01*
X152286163Y-147032918D01*
X152286169Y-147032914D01*
X152369104Y-146972658D01*
X152369105Y-146972658D01*
X151629408Y-146232962D01*
X151692993Y-146215925D01*
X151807007Y-146150099D01*
X151900099Y-146057007D01*
X151965925Y-145942993D01*
X151982962Y-145879409D01*
X152722658Y-146619105D01*
X152722658Y-146619104D01*
X152782914Y-146536169D01*
X152782918Y-146536163D01*
X152890102Y-146325802D01*
X152963065Y-146101247D01*
X153000000Y-145868052D01*
X153000000Y-145631947D01*
X152963065Y-145398752D01*
X152890102Y-145174197D01*
X152782914Y-144963828D01*
X152722658Y-144880894D01*
X152722658Y-144880893D01*
X151982962Y-145620590D01*
X151965925Y-145557007D01*
X151900099Y-145442993D01*
X151807007Y-145349901D01*
X151692993Y-145284075D01*
X151629409Y-145267037D01*
X152369105Y-144527340D01*
X152369104Y-144527338D01*
X152286174Y-144467087D01*
X152075802Y-144359897D01*
X151851247Y-144286934D01*
X151851248Y-144286934D01*
X151618052Y-144250000D01*
X151381948Y-144250000D01*
X151148752Y-144286934D01*
X150924197Y-144359897D01*
X150713830Y-144467084D01*
X150630894Y-144527340D01*
X151370591Y-145267037D01*
X151307007Y-145284075D01*
X151192993Y-145349901D01*
X151099901Y-145442993D01*
X151034075Y-145557007D01*
X151017037Y-145620590D01*
X150277340Y-144880893D01*
X150257593Y-144882448D01*
X150253812Y-144881653D01*
X150250128Y-144882809D01*
X150219901Y-144874530D01*
X150189215Y-144868084D01*
X150185384Y-144865076D01*
X150182740Y-144864352D01*
X150173234Y-144855536D01*
X150155649Y-144841730D01*
X150151342Y-144836939D01*
X150104517Y-144772490D01*
X149994483Y-144662456D01*
X149992285Y-144660011D01*
X149981415Y-144637314D01*
X149971706Y-144626110D01*
X149969063Y-144613960D01*
X149963334Y-144603469D01*
X149962792Y-144598431D01*
X149962105Y-144596996D01*
X149962391Y-144594705D01*
X149960500Y-144577111D01*
X149960500Y-143645528D01*
X192249500Y-143645528D01*
X192249500Y-143954471D01*
X192284086Y-144261437D01*
X192284089Y-144261455D01*
X192352831Y-144562635D01*
X192352835Y-144562647D01*
X192454862Y-144854222D01*
X192454868Y-144854236D01*
X192588903Y-145132562D01*
X192588905Y-145132565D01*
X192753265Y-145394143D01*
X192945880Y-145635674D01*
X193164326Y-145854120D01*
X193405857Y-146046735D01*
X193667435Y-146211095D01*
X193945771Y-146345135D01*
X193945777Y-146345137D01*
X194237352Y-146447164D01*
X194237364Y-146447168D01*
X194538548Y-146515911D01*
X194538554Y-146515911D01*
X194538562Y-146515913D01*
X194718290Y-146536163D01*
X194845529Y-146550499D01*
X194845532Y-146550500D01*
X194845535Y-146550500D01*
X195154468Y-146550500D01*
X195154469Y-146550499D01*
X195311356Y-146532822D01*
X195461437Y-146515913D01*
X195461442Y-146515912D01*
X195461452Y-146515911D01*
X195762636Y-146447168D01*
X196054229Y-146345135D01*
X196332565Y-146211095D01*
X196594143Y-146046735D01*
X196835674Y-145854120D01*
X197054120Y-145635674D01*
X197246735Y-145394143D01*
X197411095Y-145132565D01*
X197545135Y-144854229D01*
X197647168Y-144562636D01*
X197715911Y-144261452D01*
X197717202Y-144250000D01*
X197750499Y-143954471D01*
X197750500Y-143954467D01*
X197750500Y-143645532D01*
X197750499Y-143645528D01*
X197715913Y-143338562D01*
X197715910Y-143338544D01*
X197647168Y-143037364D01*
X197647164Y-143037352D01*
X197545137Y-142745777D01*
X197545135Y-142745771D01*
X197411095Y-142467435D01*
X197246735Y-142205857D01*
X197054120Y-141964326D01*
X196835674Y-141745880D01*
X196594143Y-141553265D01*
X196332565Y-141388905D01*
X196332562Y-141388903D01*
X196054236Y-141254868D01*
X196054222Y-141254862D01*
X195762647Y-141152835D01*
X195762635Y-141152831D01*
X195461455Y-141084089D01*
X195461437Y-141084086D01*
X195154471Y-141049500D01*
X195154465Y-141049500D01*
X194845535Y-141049500D01*
X194845528Y-141049500D01*
X194538562Y-141084086D01*
X194538544Y-141084089D01*
X194237364Y-141152831D01*
X194237352Y-141152835D01*
X193945777Y-141254862D01*
X193945763Y-141254868D01*
X193667437Y-141388903D01*
X193405858Y-141553264D01*
X193164326Y-141745879D01*
X192945879Y-141964326D01*
X192753264Y-142205858D01*
X192588903Y-142467437D01*
X192454868Y-142745763D01*
X192454862Y-142745777D01*
X192352835Y-143037352D01*
X192352831Y-143037364D01*
X192284089Y-143338544D01*
X192284086Y-143338562D01*
X192249500Y-143645528D01*
X149960500Y-143645528D01*
X149960500Y-139511458D01*
X149955200Y-139484816D01*
X149955200Y-139484814D01*
X149951685Y-139467142D01*
X149922051Y-139318164D01*
X149878097Y-139212051D01*
X149846632Y-139136086D01*
X149830218Y-139111521D01*
X149826334Y-139103335D01*
X149822220Y-139077426D01*
X149814381Y-139052391D01*
X149816272Y-139039963D01*
X149815378Y-139034330D01*
X149818059Y-139028222D01*
X149820654Y-139011175D01*
X149839999Y-138952797D01*
X149850500Y-138850009D01*
X149850500Y-138849986D01*
X150750001Y-138849986D01*
X150760494Y-138952697D01*
X150815641Y-139119119D01*
X150815643Y-139119124D01*
X150907684Y-139268345D01*
X151031654Y-139392315D01*
X151180875Y-139484356D01*
X151180880Y-139484358D01*
X151347302Y-139539505D01*
X151347309Y-139539506D01*
X151450019Y-139549999D01*
X152749999Y-139549999D01*
X153250000Y-139549999D01*
X154549972Y-139549999D01*
X154549986Y-139549998D01*
X154652697Y-139539505D01*
X154819119Y-139484358D01*
X154819124Y-139484356D01*
X154968345Y-139392315D01*
X155092315Y-139268345D01*
X155184356Y-139119124D01*
X155184358Y-139119119D01*
X155239505Y-138952697D01*
X155239506Y-138952690D01*
X155249999Y-138849986D01*
X155250000Y-138849973D01*
X155250000Y-138500000D01*
X153250000Y-138500000D01*
X153250000Y-139549999D01*
X152749999Y-139549999D01*
X152750000Y-139549998D01*
X152750000Y-138500000D01*
X150750001Y-138500000D01*
X150750001Y-138849986D01*
X149850500Y-138849986D01*
X149850499Y-137650013D01*
X150750000Y-137650013D01*
X150750000Y-138000000D01*
X152750000Y-138000000D01*
X153250000Y-138000000D01*
X155249999Y-138000000D01*
X155249999Y-137650028D01*
X155249998Y-137650013D01*
X155239505Y-137547302D01*
X155184358Y-137380880D01*
X155184356Y-137380875D01*
X155092315Y-137231654D01*
X154968345Y-137107684D01*
X154819124Y-137015643D01*
X154819119Y-137015641D01*
X154652697Y-136960494D01*
X154652690Y-136960493D01*
X154549986Y-136950000D01*
X153250000Y-136950000D01*
X153250000Y-138000000D01*
X152750000Y-138000000D01*
X152750000Y-136950000D01*
X151450028Y-136950000D01*
X151450012Y-136950001D01*
X151347302Y-136960494D01*
X151180880Y-137015641D01*
X151180875Y-137015643D01*
X151031654Y-137107684D01*
X150907684Y-137231654D01*
X150815643Y-137380875D01*
X150815641Y-137380880D01*
X150760494Y-137547302D01*
X150760493Y-137547309D01*
X150750000Y-137650013D01*
X149850499Y-137650013D01*
X149850499Y-137649992D01*
X149839999Y-137547203D01*
X149784814Y-137380666D01*
X149692712Y-137231344D01*
X149568656Y-137107288D01*
X149419334Y-137015186D01*
X149252797Y-136960001D01*
X149252795Y-136960000D01*
X149150016Y-136949500D01*
X149150009Y-136949500D01*
X147765783Y-136949500D01*
X147698744Y-136929815D01*
X147678102Y-136913181D01*
X147136819Y-136371898D01*
X147103334Y-136310575D01*
X147100500Y-136284217D01*
X147100500Y-131145528D01*
X192249500Y-131145528D01*
X192249500Y-131454471D01*
X192284086Y-131761437D01*
X192284089Y-131761455D01*
X192352831Y-132062635D01*
X192352835Y-132062647D01*
X192454862Y-132354222D01*
X192454868Y-132354236D01*
X192588903Y-132632562D01*
X192588905Y-132632565D01*
X192753265Y-132894143D01*
X192945880Y-133135674D01*
X193164326Y-133354120D01*
X193405857Y-133546735D01*
X193667435Y-133711095D01*
X193945771Y-133845135D01*
X193945777Y-133845137D01*
X194237352Y-133947164D01*
X194237364Y-133947168D01*
X194538548Y-134015911D01*
X194538554Y-134015911D01*
X194538562Y-134015913D01*
X194743206Y-134038970D01*
X194845529Y-134050499D01*
X194845532Y-134050500D01*
X194845535Y-134050500D01*
X195154468Y-134050500D01*
X195154469Y-134050499D01*
X195311356Y-134032822D01*
X195461437Y-134015913D01*
X195461442Y-134015912D01*
X195461452Y-134015911D01*
X195762636Y-133947168D01*
X196054229Y-133845135D01*
X196332565Y-133711095D01*
X196594143Y-133546735D01*
X196835674Y-133354120D01*
X197054120Y-133135674D01*
X197246735Y-132894143D01*
X197411095Y-132632565D01*
X197545135Y-132354229D01*
X197647168Y-132062636D01*
X197715911Y-131761452D01*
X197750500Y-131454465D01*
X197750500Y-131145535D01*
X197715911Y-130838548D01*
X197647168Y-130537364D01*
X197545135Y-130245771D01*
X197411095Y-129967435D01*
X197246735Y-129705857D01*
X197054120Y-129464326D01*
X196835674Y-129245880D01*
X196594143Y-129053265D01*
X196332565Y-128888905D01*
X196332562Y-128888903D01*
X196054236Y-128754868D01*
X196054222Y-128754862D01*
X195762647Y-128652835D01*
X195762635Y-128652831D01*
X195461455Y-128584089D01*
X195461437Y-128584086D01*
X195154471Y-128549500D01*
X195154465Y-128549500D01*
X194845535Y-128549500D01*
X194845528Y-128549500D01*
X194538562Y-128584086D01*
X194538544Y-128584089D01*
X194237364Y-128652831D01*
X194237352Y-128652835D01*
X193945777Y-128754862D01*
X193945763Y-128754868D01*
X193667437Y-128888903D01*
X193405858Y-129053264D01*
X193164326Y-129245879D01*
X192945879Y-129464326D01*
X192753264Y-129705858D01*
X192588903Y-129967437D01*
X192454868Y-130245763D01*
X192454862Y-130245777D01*
X192352835Y-130537352D01*
X192352831Y-130537364D01*
X192284089Y-130838544D01*
X192284086Y-130838562D01*
X192249500Y-131145528D01*
X147100500Y-131145528D01*
X147100500Y-122352486D01*
X148849500Y-122352486D01*
X148849500Y-122647513D01*
X148869319Y-122798046D01*
X148888007Y-122939993D01*
X148964361Y-123224951D01*
X148964364Y-123224961D01*
X149077254Y-123497500D01*
X149077258Y-123497510D01*
X149224761Y-123752993D01*
X149404352Y-123987040D01*
X149404358Y-123987047D01*
X149612952Y-124195641D01*
X149612959Y-124195647D01*
X149847006Y-124375238D01*
X150102489Y-124522741D01*
X150102490Y-124522741D01*
X150102493Y-124522743D01*
X150375048Y-124635639D01*
X150660007Y-124711993D01*
X150952494Y-124750500D01*
X150952501Y-124750500D01*
X151247499Y-124750500D01*
X151247506Y-124750500D01*
X151539993Y-124711993D01*
X151824952Y-124635639D01*
X152097507Y-124522743D01*
X152352994Y-124375238D01*
X152587042Y-124195646D01*
X152795646Y-123987042D01*
X152975238Y-123752994D01*
X153122743Y-123497507D01*
X153235639Y-123224952D01*
X153311993Y-122939993D01*
X153350500Y-122647506D01*
X153350500Y-122352494D01*
X153350499Y-122352486D01*
X191849500Y-122352486D01*
X191849500Y-122647513D01*
X191869319Y-122798046D01*
X191888007Y-122939993D01*
X191964361Y-123224951D01*
X191964364Y-123224961D01*
X192077254Y-123497500D01*
X192077258Y-123497510D01*
X192224761Y-123752993D01*
X192404352Y-123987040D01*
X192404358Y-123987047D01*
X192612952Y-124195641D01*
X192612959Y-124195647D01*
X192847006Y-124375238D01*
X193102489Y-124522741D01*
X193102490Y-124522741D01*
X193102493Y-124522743D01*
X193375048Y-124635639D01*
X193660007Y-124711993D01*
X193952494Y-124750500D01*
X193952501Y-124750500D01*
X194247499Y-124750500D01*
X194247506Y-124750500D01*
X194539993Y-124711993D01*
X194824952Y-124635639D01*
X195097507Y-124522743D01*
X195352994Y-124375238D01*
X195587042Y-124195646D01*
X195795646Y-123987042D01*
X195975238Y-123752994D01*
X196122743Y-123497507D01*
X196235639Y-123224952D01*
X196311993Y-122939993D01*
X196350500Y-122647506D01*
X196350500Y-122352494D01*
X196311993Y-122060007D01*
X196235639Y-121775048D01*
X196122743Y-121502493D01*
X196122144Y-121501456D01*
X195975238Y-121247006D01*
X195795647Y-121012959D01*
X195795641Y-121012952D01*
X195587047Y-120804358D01*
X195587040Y-120804352D01*
X195352993Y-120624761D01*
X195097510Y-120477258D01*
X195097500Y-120477254D01*
X194824961Y-120364364D01*
X194824954Y-120364362D01*
X194824952Y-120364361D01*
X194539993Y-120288007D01*
X194491113Y-120281571D01*
X194247513Y-120249500D01*
X194247506Y-120249500D01*
X193952494Y-120249500D01*
X193952486Y-120249500D01*
X193674085Y-120286153D01*
X193660007Y-120288007D01*
X193407853Y-120355571D01*
X193375048Y-120364361D01*
X193375038Y-120364364D01*
X193102499Y-120477254D01*
X193102489Y-120477258D01*
X192847006Y-120624761D01*
X192612959Y-120804352D01*
X192612952Y-120804358D01*
X192404358Y-121012952D01*
X192404352Y-121012959D01*
X192224761Y-121247006D01*
X192077258Y-121502489D01*
X192077254Y-121502499D01*
X191964364Y-121775038D01*
X191964361Y-121775048D01*
X191909954Y-121978101D01*
X191888008Y-122060004D01*
X191888006Y-122060015D01*
X191849500Y-122352486D01*
X153350499Y-122352486D01*
X153311993Y-122060007D01*
X153235639Y-121775048D01*
X153122743Y-121502493D01*
X153122144Y-121501456D01*
X152975238Y-121247006D01*
X152795647Y-121012959D01*
X152795641Y-121012952D01*
X152587047Y-120804358D01*
X152587040Y-120804352D01*
X152352993Y-120624761D01*
X152097510Y-120477258D01*
X152097500Y-120477254D01*
X151824961Y-120364364D01*
X151824954Y-120364362D01*
X151824952Y-120364361D01*
X151539993Y-120288007D01*
X151491113Y-120281571D01*
X151247513Y-120249500D01*
X151247506Y-120249500D01*
X150952494Y-120249500D01*
X150952486Y-120249500D01*
X150674085Y-120286153D01*
X150660007Y-120288007D01*
X150407853Y-120355571D01*
X150375048Y-120364361D01*
X150375038Y-120364364D01*
X150102499Y-120477254D01*
X150102489Y-120477258D01*
X149847006Y-120624761D01*
X149612959Y-120804352D01*
X149612952Y-120804358D01*
X149404358Y-121012952D01*
X149404352Y-121012959D01*
X149224761Y-121247006D01*
X149077258Y-121502489D01*
X149077254Y-121502499D01*
X148964364Y-121775038D01*
X148964361Y-121775048D01*
X148909954Y-121978101D01*
X148888008Y-122060004D01*
X148888006Y-122060015D01*
X148849500Y-122352486D01*
X147100500Y-122352486D01*
X147100500Y-121501456D01*
X147062052Y-121308170D01*
X147062051Y-121308169D01*
X147062051Y-121308165D01*
X147062049Y-121308160D01*
X146986635Y-121126092D01*
X146986628Y-121126079D01*
X146877140Y-120962219D01*
X146877139Y-120962218D01*
X146737782Y-120822861D01*
X146737781Y-120822860D01*
X134286819Y-108371898D01*
X134253334Y-108310575D01*
X134250500Y-108284217D01*
X134250500Y-94952135D01*
X138719500Y-94952135D01*
X138719500Y-97047870D01*
X138719501Y-97047876D01*
X138725908Y-97107483D01*
X138776202Y-97242328D01*
X138776206Y-97242335D01*
X138862452Y-97357544D01*
X138862455Y-97357547D01*
X138977664Y-97443793D01*
X138985454Y-97448047D01*
X138983646Y-97451357D01*
X139025351Y-97482449D01*
X139049897Y-97547865D01*
X139035180Y-97616167D01*
X139026549Y-97629840D01*
X138936659Y-97753563D01*
X138829433Y-97964003D01*
X138756446Y-98188631D01*
X138719500Y-98421902D01*
X138719500Y-98658097D01*
X138756446Y-98891368D01*
X138829433Y-99115996D01*
X138936657Y-99326433D01*
X139075483Y-99517510D01*
X139242490Y-99684517D01*
X139277127Y-99709683D01*
X139319792Y-99765013D01*
X139325771Y-99834626D01*
X139293165Y-99896421D01*
X139277130Y-99910315D01*
X139259365Y-99923222D01*
X139242488Y-99935484D01*
X139075485Y-100102487D01*
X139075485Y-100102488D01*
X139075483Y-100102490D01*
X139028669Y-100166924D01*
X138936657Y-100293566D01*
X138829433Y-100504003D01*
X138756446Y-100728631D01*
X138719500Y-100961902D01*
X138719500Y-101198097D01*
X138756446Y-101431368D01*
X138829433Y-101655996D01*
X138936657Y-101866433D01*
X139075483Y-102057510D01*
X139242490Y-102224517D01*
X139301716Y-102267547D01*
X139344381Y-102322875D01*
X139352448Y-102377593D01*
X139350893Y-102397340D01*
X140090591Y-103137037D01*
X140027007Y-103154075D01*
X139912993Y-103219901D01*
X139819901Y-103312993D01*
X139754075Y-103427007D01*
X139737037Y-103490591D01*
X138997340Y-102750894D01*
X138937084Y-102833830D01*
X138829897Y-103044197D01*
X138756934Y-103268752D01*
X138720000Y-103501947D01*
X138720000Y-103738052D01*
X138756934Y-103971247D01*
X138829897Y-104195802D01*
X138937087Y-104406174D01*
X138997338Y-104489104D01*
X138997340Y-104489105D01*
X139737037Y-103749408D01*
X139754075Y-103812993D01*
X139819901Y-103927007D01*
X139912993Y-104020099D01*
X140027007Y-104085925D01*
X140090590Y-104102962D01*
X139350893Y-104842658D01*
X139352448Y-104862405D01*
X139338084Y-104930783D01*
X139301717Y-104972451D01*
X139242490Y-105015482D01*
X139075485Y-105182487D01*
X139075485Y-105182488D01*
X139075483Y-105182490D01*
X139026798Y-105249499D01*
X138936657Y-105373566D01*
X138829433Y-105584003D01*
X138756446Y-105808631D01*
X138719500Y-106041902D01*
X138719500Y-106278097D01*
X138756446Y-106511368D01*
X138829433Y-106735996D01*
X138936657Y-106946433D01*
X139075483Y-107137510D01*
X139242490Y-107304517D01*
X139433567Y-107443343D01*
X139515357Y-107485017D01*
X139644003Y-107550566D01*
X139644005Y-107550566D01*
X139644008Y-107550568D01*
X139762305Y-107589005D01*
X139868631Y-107623553D01*
X140101903Y-107660500D01*
X140101908Y-107660500D01*
X140338097Y-107660500D01*
X140571368Y-107623553D01*
X140795992Y-107550568D01*
X140796126Y-107550500D01*
X140808411Y-107544240D01*
X141006433Y-107443343D01*
X141197510Y-107304517D01*
X141364517Y-107137510D01*
X141503343Y-106946433D01*
X141610568Y-106735992D01*
X141683553Y-106511368D01*
X141720500Y-106278097D01*
X141720500Y-106041902D01*
X141683553Y-105808631D01*
X141610566Y-105584003D01*
X141503342Y-105373566D01*
X141364517Y-105182490D01*
X141197510Y-105015483D01*
X141138282Y-104972451D01*
X141095617Y-104917122D01*
X141087550Y-104862404D01*
X141089104Y-104842657D01*
X140349408Y-104102962D01*
X140412993Y-104085925D01*
X140527007Y-104020099D01*
X140620099Y-103927007D01*
X140685925Y-103812993D01*
X140702962Y-103749409D01*
X141442658Y-104489105D01*
X141442658Y-104489104D01*
X141502914Y-104406169D01*
X141502918Y-104406163D01*
X141610102Y-104195802D01*
X141683065Y-103971247D01*
X141720000Y-103738052D01*
X141720000Y-103501947D01*
X141683065Y-103268752D01*
X141610102Y-103044197D01*
X141502914Y-102833828D01*
X141442658Y-102750894D01*
X141442658Y-102750893D01*
X140702962Y-103490590D01*
X140685925Y-103427007D01*
X140620099Y-103312993D01*
X140527007Y-103219901D01*
X140412993Y-103154075D01*
X140349409Y-103137037D01*
X141089105Y-102397340D01*
X141087551Y-102377594D01*
X141101915Y-102309216D01*
X141138284Y-102267547D01*
X141197510Y-102224517D01*
X141364517Y-102057510D01*
X141503343Y-101866433D01*
X141610568Y-101655992D01*
X141683553Y-101431368D01*
X141720500Y-101198097D01*
X141720500Y-100961902D01*
X141683553Y-100728631D01*
X141610566Y-100504003D01*
X141505625Y-100298046D01*
X141503343Y-100293567D01*
X141364517Y-100102490D01*
X141197510Y-99935483D01*
X141162872Y-99910317D01*
X141120207Y-99854989D01*
X141114228Y-99785375D01*
X141146833Y-99723580D01*
X141162873Y-99709682D01*
X141197510Y-99684517D01*
X141364517Y-99517510D01*
X141503343Y-99326433D01*
X141610568Y-99115992D01*
X141683553Y-98891368D01*
X141683593Y-98891114D01*
X141720500Y-98658097D01*
X141720500Y-98421902D01*
X141683553Y-98188631D01*
X141610566Y-97964003D01*
X141503342Y-97753566D01*
X141503340Y-97753563D01*
X141413449Y-97629839D01*
X141389970Y-97564035D01*
X141405795Y-97495981D01*
X141454744Y-97448410D01*
X141454546Y-97448047D01*
X141455851Y-97447334D01*
X141455901Y-97447286D01*
X141456111Y-97447192D01*
X141462326Y-97443797D01*
X141462331Y-97443796D01*
X141577546Y-97357546D01*
X141663796Y-97242331D01*
X141714091Y-97107483D01*
X141720500Y-97047873D01*
X141720500Y-96105494D01*
X141720500Y-95881908D01*
X141720500Y-95874313D01*
X141720499Y-95874295D01*
X141720499Y-94952129D01*
X141720498Y-94952123D01*
X141720497Y-94952116D01*
X141714091Y-94892517D01*
X141663796Y-94757669D01*
X141663795Y-94757668D01*
X141663793Y-94757664D01*
X141577547Y-94642455D01*
X141577544Y-94642452D01*
X141462335Y-94556206D01*
X141462328Y-94556202D01*
X141327482Y-94505908D01*
X141327483Y-94505908D01*
X141267883Y-94499501D01*
X141267881Y-94499500D01*
X141267873Y-94499500D01*
X140338094Y-94499500D01*
X140338092Y-94499500D01*
X140101908Y-94499500D01*
X140101904Y-94499500D01*
X139172129Y-94499500D01*
X139172123Y-94499501D01*
X139112516Y-94505908D01*
X138977671Y-94556202D01*
X138977664Y-94556206D01*
X138862455Y-94642452D01*
X138862452Y-94642455D01*
X138776206Y-94757664D01*
X138776202Y-94757671D01*
X138725908Y-94892517D01*
X138719501Y-94952116D01*
X138719501Y-94952123D01*
X138719500Y-94952135D01*
X134250500Y-94952135D01*
X134250500Y-92399986D01*
X138000001Y-92399986D01*
X138010494Y-92502697D01*
X138065641Y-92669119D01*
X138065643Y-92669124D01*
X138157684Y-92818345D01*
X138281654Y-92942315D01*
X138430875Y-93034356D01*
X138430880Y-93034358D01*
X138597302Y-93089505D01*
X138597309Y-93089506D01*
X138700019Y-93099999D01*
X138949999Y-93099999D01*
X139450000Y-93099999D01*
X139699972Y-93099999D01*
X139699986Y-93099998D01*
X139802697Y-93089505D01*
X139969119Y-93034358D01*
X139969124Y-93034356D01*
X140118345Y-92942315D01*
X140242315Y-92818345D01*
X140334356Y-92669124D01*
X140334358Y-92669119D01*
X140389505Y-92502697D01*
X140389506Y-92502690D01*
X140399999Y-92399986D01*
X140400000Y-92399973D01*
X140400000Y-92275000D01*
X139450000Y-92275000D01*
X139450000Y-93099999D01*
X138949999Y-93099999D01*
X138950000Y-93099998D01*
X138950000Y-92275000D01*
X138000001Y-92275000D01*
X138000001Y-92399986D01*
X134250500Y-92399986D01*
X134250500Y-80651456D01*
X134212052Y-80458170D01*
X134212051Y-80458166D01*
X134212051Y-80458165D01*
X134195452Y-80418092D01*
X134167815Y-80351369D01*
X134155756Y-80322256D01*
X134136635Y-80276091D01*
X134136628Y-80276079D01*
X134027140Y-80112219D01*
X134027139Y-80112218D01*
X133887782Y-79972861D01*
X133887781Y-79972860D01*
X130534208Y-76619288D01*
X130534206Y-76619285D01*
X130534206Y-76619286D01*
X130527139Y-76612219D01*
X130527139Y-76612218D01*
X130387782Y-76472861D01*
X130387781Y-76472860D01*
X130387780Y-76472859D01*
X130223920Y-76363371D01*
X130223911Y-76363366D01*
X130151315Y-76333296D01*
X130095165Y-76310038D01*
X130041836Y-76287949D01*
X130041832Y-76287948D01*
X130041828Y-76287946D01*
X129945188Y-76268724D01*
X129848544Y-76249500D01*
X129848541Y-76249500D01*
X118624500Y-76249500D01*
X118615814Y-76246949D01*
X118606853Y-76248238D01*
X118582812Y-76237259D01*
X118557461Y-76229815D01*
X118551533Y-76222974D01*
X118543297Y-76219213D01*
X118529007Y-76196978D01*
X118511706Y-76177011D01*
X118509418Y-76166496D01*
X118505523Y-76160435D01*
X118500500Y-76125500D01*
X118500500Y-76124500D01*
X118520185Y-76057461D01*
X118572989Y-76011706D01*
X118624500Y-76000500D01*
X130887770Y-76000500D01*
X130954809Y-76020185D01*
X130975451Y-76036819D01*
X138413181Y-83474549D01*
X138446666Y-83535872D01*
X138449500Y-83562230D01*
X138449500Y-84659362D01*
X138429815Y-84726401D01*
X138390598Y-84764899D01*
X138322288Y-84807033D01*
X138281342Y-84832289D01*
X138157289Y-84956342D01*
X138065187Y-85105663D01*
X138065186Y-85105666D01*
X138010001Y-85272203D01*
X138010001Y-85272204D01*
X138010000Y-85272204D01*
X137999500Y-85374983D01*
X137999500Y-86175001D01*
X137999501Y-86175019D01*
X138010000Y-86277796D01*
X138010001Y-86277799D01*
X138065185Y-86444331D01*
X138065187Y-86444336D01*
X138157289Y-86593657D01*
X138250951Y-86687319D01*
X138284436Y-86748642D01*
X138279452Y-86818334D01*
X138250951Y-86862681D01*
X138157289Y-86956342D01*
X138065187Y-87105663D01*
X138065185Y-87105668D01*
X138044846Y-87167048D01*
X138010001Y-87272203D01*
X138010001Y-87272204D01*
X138010000Y-87272204D01*
X137999500Y-87374983D01*
X137999500Y-88175001D01*
X137999501Y-88175019D01*
X138010000Y-88277796D01*
X138010001Y-88277799D01*
X138028278Y-88332954D01*
X138065186Y-88444334D01*
X138157288Y-88593656D01*
X138281344Y-88717712D01*
X138384084Y-88781082D01*
X138385509Y-88781961D01*
X138432233Y-88833909D01*
X138443456Y-88902872D01*
X138415612Y-88966954D01*
X138385509Y-88993039D01*
X138281342Y-89057289D01*
X138157289Y-89181342D01*
X138065187Y-89330663D01*
X138065185Y-89330668D01*
X138052685Y-89368390D01*
X138010001Y-89497203D01*
X138010001Y-89497204D01*
X138010000Y-89497204D01*
X137999500Y-89599983D01*
X137999500Y-90350001D01*
X137999501Y-90350019D01*
X138010000Y-90452796D01*
X138010001Y-90452799D01*
X138036691Y-90533342D01*
X138065186Y-90619334D01*
X138157288Y-90768656D01*
X138281344Y-90892712D01*
X138284628Y-90894737D01*
X138284653Y-90894753D01*
X138286445Y-90896746D01*
X138287011Y-90897193D01*
X138286934Y-90897289D01*
X138331379Y-90946699D01*
X138342603Y-91015661D01*
X138314761Y-91079744D01*
X138284665Y-91105826D01*
X138281660Y-91107679D01*
X138281655Y-91107683D01*
X138157684Y-91231654D01*
X138065643Y-91380875D01*
X138065641Y-91380880D01*
X138010494Y-91547302D01*
X138010493Y-91547309D01*
X138000000Y-91650013D01*
X138000000Y-91775000D01*
X140399999Y-91775000D01*
X140399999Y-91650028D01*
X140399998Y-91650013D01*
X140389505Y-91547302D01*
X140334358Y-91380880D01*
X140334356Y-91380875D01*
X140242315Y-91231654D01*
X140118344Y-91107683D01*
X140118341Y-91107681D01*
X140115339Y-91105829D01*
X140113713Y-91104021D01*
X140112677Y-91103202D01*
X140112817Y-91103024D01*
X140068617Y-91053880D01*
X140057397Y-90984917D01*
X140085243Y-90920836D01*
X140115344Y-90894754D01*
X140118656Y-90892712D01*
X140242712Y-90768656D01*
X140334814Y-90619334D01*
X140389999Y-90452797D01*
X140400500Y-90350009D01*
X140400499Y-89599992D01*
X140389999Y-89497203D01*
X140334814Y-89330666D01*
X140242712Y-89181344D01*
X140118656Y-89057288D01*
X140118655Y-89057287D01*
X140014491Y-88993039D01*
X139967766Y-88941091D01*
X139956543Y-88872129D01*
X139984386Y-88808046D01*
X140014491Y-88781961D01*
X140015916Y-88781082D01*
X140118656Y-88717712D01*
X140242712Y-88593656D01*
X140334814Y-88444334D01*
X140389999Y-88277797D01*
X140400500Y-88175009D01*
X140400499Y-87374992D01*
X140389999Y-87272203D01*
X140334814Y-87105666D01*
X140242712Y-86956344D01*
X140149049Y-86862681D01*
X140115564Y-86801358D01*
X140120548Y-86731666D01*
X140149049Y-86687319D01*
X140242712Y-86593656D01*
X140334814Y-86444334D01*
X140389999Y-86277797D01*
X140400500Y-86175009D01*
X140400499Y-85374992D01*
X140389999Y-85272203D01*
X140334814Y-85105666D01*
X140242712Y-84956344D01*
X140118656Y-84832288D01*
X140009402Y-84764900D01*
X139962679Y-84712953D01*
X139950500Y-84659362D01*
X139950500Y-83126079D01*
X139921659Y-82981092D01*
X139921658Y-82981091D01*
X139921658Y-82981087D01*
X139865084Y-82844505D01*
X139832186Y-82795270D01*
X139832185Y-82795268D01*
X139782956Y-82721589D01*
X139782952Y-82721584D01*
X136413854Y-79352486D01*
X148849500Y-79352486D01*
X148849500Y-79647513D01*
X148881571Y-79891113D01*
X148888007Y-79939993D01*
X148964361Y-80224951D01*
X148964364Y-80224961D01*
X149077254Y-80497500D01*
X149077258Y-80497510D01*
X149224761Y-80752993D01*
X149404352Y-80987040D01*
X149404358Y-80987047D01*
X149612952Y-81195641D01*
X149612959Y-81195647D01*
X149847006Y-81375238D01*
X150102489Y-81522741D01*
X150102490Y-81522741D01*
X150102493Y-81522743D01*
X150375048Y-81635639D01*
X150660007Y-81711993D01*
X150938415Y-81748646D01*
X150952478Y-81750498D01*
X150952494Y-81750500D01*
X150952501Y-81750500D01*
X151247499Y-81750500D01*
X151247506Y-81750500D01*
X151539993Y-81711993D01*
X151824952Y-81635639D01*
X152097507Y-81522743D01*
X152352994Y-81375238D01*
X152587042Y-81195646D01*
X152795646Y-80987042D01*
X152975238Y-80752994D01*
X153122743Y-80497507D01*
X153235639Y-80224952D01*
X153311993Y-79939993D01*
X153350500Y-79647506D01*
X153350500Y-79352494D01*
X153350499Y-79352486D01*
X191849500Y-79352486D01*
X191849500Y-79647513D01*
X191881571Y-79891113D01*
X191888007Y-79939993D01*
X191964361Y-80224951D01*
X191964364Y-80224961D01*
X192077254Y-80497500D01*
X192077258Y-80497510D01*
X192224761Y-80752993D01*
X192404352Y-80987040D01*
X192404358Y-80987047D01*
X192612952Y-81195641D01*
X192612959Y-81195647D01*
X192847006Y-81375238D01*
X193102489Y-81522741D01*
X193102490Y-81522741D01*
X193102493Y-81522743D01*
X193375048Y-81635639D01*
X193660007Y-81711993D01*
X193938415Y-81748646D01*
X193952478Y-81750498D01*
X193952494Y-81750500D01*
X193952501Y-81750500D01*
X194247499Y-81750500D01*
X194247506Y-81750500D01*
X194539993Y-81711993D01*
X194824952Y-81635639D01*
X195097507Y-81522743D01*
X195352994Y-81375238D01*
X195587042Y-81195646D01*
X195795646Y-80987042D01*
X195975238Y-80752994D01*
X196122743Y-80497507D01*
X196235639Y-80224952D01*
X196311993Y-79939993D01*
X196350500Y-79647506D01*
X196350500Y-79352494D01*
X196311993Y-79060007D01*
X196235639Y-78775048D01*
X196225260Y-78749992D01*
X196182683Y-78647202D01*
X196122743Y-78502493D01*
X196110142Y-78480668D01*
X195975238Y-78247006D01*
X195795647Y-78012959D01*
X195795641Y-78012952D01*
X195587047Y-77804358D01*
X195587040Y-77804352D01*
X195352993Y-77624761D01*
X195097510Y-77477258D01*
X195097500Y-77477254D01*
X194824961Y-77364364D01*
X194824954Y-77364362D01*
X194824952Y-77364361D01*
X194539993Y-77288007D01*
X194491113Y-77281571D01*
X194247513Y-77249500D01*
X194247506Y-77249500D01*
X193952494Y-77249500D01*
X193952486Y-77249500D01*
X193674085Y-77286153D01*
X193660007Y-77288007D01*
X193375048Y-77364361D01*
X193375038Y-77364364D01*
X193102499Y-77477254D01*
X193102489Y-77477258D01*
X192847006Y-77624761D01*
X192612959Y-77804352D01*
X192612952Y-77804358D01*
X192404358Y-78012952D01*
X192404352Y-78012959D01*
X192224761Y-78247006D01*
X192077258Y-78502489D01*
X192077254Y-78502499D01*
X191964364Y-78775038D01*
X191964361Y-78775048D01*
X191888008Y-79060004D01*
X191888006Y-79060015D01*
X191849500Y-79352486D01*
X153350499Y-79352486D01*
X153311993Y-79060007D01*
X153235639Y-78775048D01*
X153225260Y-78749992D01*
X153182683Y-78647202D01*
X153122743Y-78502493D01*
X153110142Y-78480668D01*
X152975238Y-78247006D01*
X152795647Y-78012959D01*
X152795641Y-78012952D01*
X152587047Y-77804358D01*
X152587040Y-77804352D01*
X152352993Y-77624761D01*
X152097510Y-77477258D01*
X152097500Y-77477254D01*
X151824961Y-77364364D01*
X151824954Y-77364362D01*
X151824952Y-77364361D01*
X151539993Y-77288007D01*
X151491113Y-77281571D01*
X151247513Y-77249500D01*
X151247506Y-77249500D01*
X150952494Y-77249500D01*
X150952486Y-77249500D01*
X150674085Y-77286153D01*
X150660007Y-77288007D01*
X150375048Y-77364361D01*
X150375038Y-77364364D01*
X150102499Y-77477254D01*
X150102489Y-77477258D01*
X149847006Y-77624761D01*
X149612959Y-77804352D01*
X149612952Y-77804358D01*
X149404358Y-78012952D01*
X149404352Y-78012959D01*
X149224761Y-78247006D01*
X149077258Y-78502489D01*
X149077254Y-78502499D01*
X148964364Y-78775038D01*
X148964361Y-78775048D01*
X148888008Y-79060004D01*
X148888006Y-79060015D01*
X148849500Y-79352486D01*
X136413854Y-79352486D01*
X131728417Y-74667049D01*
X131645095Y-74611376D01*
X131645094Y-74611375D01*
X131605500Y-74584919D01*
X131605488Y-74584912D01*
X131468917Y-74528343D01*
X131468907Y-74528340D01*
X131323920Y-74499500D01*
X131323918Y-74499500D01*
X118624500Y-74499500D01*
X118557461Y-74479815D01*
X118511706Y-74427011D01*
X118500500Y-74375500D01*
X118500500Y-72531491D01*
X136474500Y-72531491D01*
X136474500Y-72868508D01*
X136512231Y-73203381D01*
X136512233Y-73203397D01*
X136587223Y-73531953D01*
X136587227Y-73531965D01*
X136698532Y-73850054D01*
X136844752Y-74153683D01*
X136844754Y-74153686D01*
X137024054Y-74439039D01*
X137234175Y-74702523D01*
X137472477Y-74940825D01*
X137735961Y-75150946D01*
X138021314Y-75330246D01*
X138324949Y-75476469D01*
X138563848Y-75560063D01*
X138643034Y-75587772D01*
X138643046Y-75587776D01*
X138971606Y-75662767D01*
X139306492Y-75700499D01*
X139306493Y-75700500D01*
X139306496Y-75700500D01*
X139643507Y-75700500D01*
X139643507Y-75700499D01*
X139978394Y-75662767D01*
X140306954Y-75587776D01*
X140625051Y-75476469D01*
X140928686Y-75330246D01*
X141214039Y-75150946D01*
X141477523Y-74940825D01*
X141715825Y-74702523D01*
X141925946Y-74439039D01*
X142105246Y-74153686D01*
X142251469Y-73850051D01*
X142362776Y-73531954D01*
X142437767Y-73203394D01*
X142475500Y-72868504D01*
X142475500Y-72531496D01*
X142437767Y-72196606D01*
X142362776Y-71868046D01*
X142355470Y-71847168D01*
X142319768Y-71745137D01*
X142251469Y-71549949D01*
X142105246Y-71246314D01*
X141925946Y-70960961D01*
X141715825Y-70697477D01*
X141477523Y-70459175D01*
X141214039Y-70249054D01*
X140972372Y-70097204D01*
X140928683Y-70069752D01*
X140625054Y-69923532D01*
X140306965Y-69812227D01*
X140306953Y-69812223D01*
X139978397Y-69737233D01*
X139978381Y-69737231D01*
X139643508Y-69699500D01*
X139643504Y-69699500D01*
X139306496Y-69699500D01*
X139306491Y-69699500D01*
X138971618Y-69737231D01*
X138971602Y-69737233D01*
X138643046Y-69812223D01*
X138643034Y-69812227D01*
X138324945Y-69923532D01*
X138021316Y-70069752D01*
X137735962Y-70249053D01*
X137472477Y-70459174D01*
X137234174Y-70697477D01*
X137024053Y-70960962D01*
X136844752Y-71246316D01*
X136698532Y-71549945D01*
X136587227Y-71868034D01*
X136587223Y-71868046D01*
X136512233Y-72196602D01*
X136512231Y-72196618D01*
X136474500Y-72531491D01*
X118500500Y-72531491D01*
X118500500Y-69045528D01*
X190849500Y-69045528D01*
X190849500Y-69354471D01*
X190884086Y-69661437D01*
X190884089Y-69661455D01*
X190952831Y-69962635D01*
X190952835Y-69962647D01*
X191054862Y-70254222D01*
X191054868Y-70254236D01*
X191188903Y-70532562D01*
X191188905Y-70532565D01*
X191353265Y-70794143D01*
X191545880Y-71035674D01*
X191764326Y-71254120D01*
X192005857Y-71446735D01*
X192267435Y-71611095D01*
X192545771Y-71745135D01*
X192545777Y-71745137D01*
X192837352Y-71847164D01*
X192837364Y-71847168D01*
X193138548Y-71915911D01*
X193138554Y-71915911D01*
X193138562Y-71915913D01*
X193343206Y-71938970D01*
X193445529Y-71950499D01*
X193445532Y-71950500D01*
X193445535Y-71950500D01*
X193754468Y-71950500D01*
X193754469Y-71950499D01*
X193911356Y-71932822D01*
X194061437Y-71915913D01*
X194061442Y-71915912D01*
X194061452Y-71915911D01*
X194362636Y-71847168D01*
X194654229Y-71745135D01*
X194932565Y-71611095D01*
X195194143Y-71446735D01*
X195435674Y-71254120D01*
X195654120Y-71035674D01*
X195846735Y-70794143D01*
X196011095Y-70532565D01*
X196145135Y-70254229D01*
X196247168Y-69962636D01*
X196315911Y-69661452D01*
X196350500Y-69354465D01*
X196350500Y-69045535D01*
X196315911Y-68738548D01*
X196247168Y-68437364D01*
X196145135Y-68145771D01*
X196011095Y-67867435D01*
X195846735Y-67605857D01*
X195654120Y-67364326D01*
X195435674Y-67145880D01*
X195194143Y-66953265D01*
X195013485Y-66839750D01*
X194932562Y-66788903D01*
X194654236Y-66654868D01*
X194654222Y-66654862D01*
X194362647Y-66552835D01*
X194362635Y-66552831D01*
X194061455Y-66484089D01*
X194061437Y-66484086D01*
X193754471Y-66449500D01*
X193754465Y-66449500D01*
X193445535Y-66449500D01*
X193445528Y-66449500D01*
X193138562Y-66484086D01*
X193138544Y-66484089D01*
X192837364Y-66552831D01*
X192837352Y-66552835D01*
X192545777Y-66654862D01*
X192545763Y-66654868D01*
X192267437Y-66788903D01*
X192005858Y-66953264D01*
X191764326Y-67145879D01*
X191545879Y-67364326D01*
X191353264Y-67605858D01*
X191188903Y-67867437D01*
X191054868Y-68145763D01*
X191054862Y-68145777D01*
X190952835Y-68437352D01*
X190952831Y-68437364D01*
X190884089Y-68738544D01*
X190884086Y-68738562D01*
X190849500Y-69045528D01*
X118500500Y-69045528D01*
X118500500Y-64952135D01*
X150209500Y-64952135D01*
X150209500Y-67047870D01*
X150209501Y-67047876D01*
X150215908Y-67107483D01*
X150266202Y-67242328D01*
X150266206Y-67242335D01*
X150352452Y-67357544D01*
X150352455Y-67357547D01*
X150467664Y-67443793D01*
X150467671Y-67443797D01*
X150602517Y-67494091D01*
X150602516Y-67494091D01*
X150609444Y-67494835D01*
X150662127Y-67500500D01*
X151581905Y-67500499D01*
X151581919Y-67500500D01*
X151591908Y-67500500D01*
X151838082Y-67500500D01*
X151838094Y-67500499D01*
X152757871Y-67500499D01*
X152757872Y-67500499D01*
X152817483Y-67494091D01*
X152952331Y-67443796D01*
X153067546Y-67357546D01*
X153153796Y-67242331D01*
X153153797Y-67242326D01*
X153158047Y-67234546D01*
X153161380Y-67236366D01*
X153192292Y-67194766D01*
X153257669Y-67170116D01*
X153325994Y-67184725D01*
X153339835Y-67193446D01*
X153463567Y-67283343D01*
X153562991Y-67334002D01*
X153674003Y-67390566D01*
X153674005Y-67390566D01*
X153674008Y-67390568D01*
X153794412Y-67429689D01*
X153898631Y-67463553D01*
X154131903Y-67500500D01*
X154131908Y-67500500D01*
X154368097Y-67500500D01*
X154601368Y-67463553D01*
X154602870Y-67463065D01*
X154825992Y-67390568D01*
X155036433Y-67283343D01*
X155227510Y-67144517D01*
X155394517Y-66977510D01*
X155441370Y-66913022D01*
X155445713Y-66908199D01*
X155470150Y-66893142D01*
X155492877Y-66875618D01*
X155500393Y-66874509D01*
X155505199Y-66871549D01*
X155518730Y-66871806D01*
X155547594Y-66867551D01*
X155567340Y-66869105D01*
X156307037Y-66129408D01*
X156324075Y-66192993D01*
X156389901Y-66307007D01*
X156482993Y-66400099D01*
X156597007Y-66465925D01*
X156660590Y-66482962D01*
X155920893Y-67222658D01*
X156003828Y-67282914D01*
X156214197Y-67390102D01*
X156438752Y-67463065D01*
X156438751Y-67463065D01*
X156671948Y-67500000D01*
X156908052Y-67500000D01*
X157141247Y-67463065D01*
X157365802Y-67390102D01*
X157576163Y-67282918D01*
X157576169Y-67282914D01*
X157659104Y-67222658D01*
X157659105Y-67222658D01*
X156919408Y-66482962D01*
X156982993Y-66465925D01*
X157097007Y-66400099D01*
X157190099Y-66307007D01*
X157255925Y-66192993D01*
X157272962Y-66129409D01*
X158012658Y-66869105D01*
X158012658Y-66869104D01*
X158072914Y-66786169D01*
X158072918Y-66786163D01*
X158180102Y-66575802D01*
X158253065Y-66351247D01*
X158290000Y-66118052D01*
X158290000Y-65881947D01*
X158253065Y-65648752D01*
X158180102Y-65424197D01*
X158072914Y-65213828D01*
X158012658Y-65130894D01*
X158012658Y-65130893D01*
X157272962Y-65870590D01*
X157255925Y-65807007D01*
X157190099Y-65692993D01*
X157097007Y-65599901D01*
X156982993Y-65534075D01*
X156919409Y-65517037D01*
X157659105Y-64777340D01*
X157659104Y-64777338D01*
X157576174Y-64717087D01*
X157365802Y-64609897D01*
X157141247Y-64536934D01*
X157141248Y-64536934D01*
X156908052Y-64500000D01*
X156671948Y-64500000D01*
X156438752Y-64536934D01*
X156214197Y-64609897D01*
X156003830Y-64717084D01*
X155920894Y-64777340D01*
X156660591Y-65517037D01*
X156597007Y-65534075D01*
X156482993Y-65599901D01*
X156389901Y-65692993D01*
X156324075Y-65807007D01*
X156307037Y-65870590D01*
X155567340Y-65130893D01*
X155547593Y-65132448D01*
X155543860Y-65131663D01*
X155540222Y-65132808D01*
X155509936Y-65124537D01*
X155479215Y-65118084D01*
X155475429Y-65115114D01*
X155472821Y-65114402D01*
X155463431Y-65105701D01*
X155445712Y-65091800D01*
X155441370Y-65086978D01*
X155394517Y-65022490D01*
X155227510Y-64855483D01*
X155036433Y-64716657D01*
X154825996Y-64609433D01*
X154601368Y-64536446D01*
X154368097Y-64499500D01*
X154368092Y-64499500D01*
X154131908Y-64499500D01*
X154131903Y-64499500D01*
X153898631Y-64536446D01*
X153674003Y-64609433D01*
X153463563Y-64716659D01*
X153339840Y-64806549D01*
X153274034Y-64830029D01*
X153205980Y-64814203D01*
X153158410Y-64765255D01*
X153158047Y-64765454D01*
X153157334Y-64764148D01*
X153157285Y-64764098D01*
X153157187Y-64763880D01*
X153153793Y-64757664D01*
X153067547Y-64642455D01*
X153067544Y-64642452D01*
X152952335Y-64556206D01*
X152952328Y-64556202D01*
X152817482Y-64505908D01*
X152817483Y-64505908D01*
X152757883Y-64499501D01*
X152757881Y-64499500D01*
X152757873Y-64499500D01*
X151828094Y-64499500D01*
X151828092Y-64499500D01*
X151591908Y-64499500D01*
X151591904Y-64499500D01*
X150662129Y-64499500D01*
X150662123Y-64499501D01*
X150602516Y-64505908D01*
X150467671Y-64556202D01*
X150467664Y-64556206D01*
X150352455Y-64642452D01*
X150352452Y-64642455D01*
X150266206Y-64757664D01*
X150266202Y-64757671D01*
X150215908Y-64892517D01*
X150209501Y-64952116D01*
X150209500Y-64952135D01*
X118500500Y-64952135D01*
X118500500Y-60762228D01*
X118520091Y-60695334D01*
X118527328Y-60684037D01*
X118542711Y-60668655D01*
X118634814Y-60519334D01*
X118689999Y-60352797D01*
X118700500Y-60250008D01*
X118700500Y-59138575D01*
X122800000Y-59138575D01*
X122800000Y-59361424D01*
X122829085Y-59582354D01*
X122829088Y-59582367D01*
X122886763Y-59797618D01*
X122972045Y-60003502D01*
X122972054Y-60003520D01*
X123083464Y-60196491D01*
X123083473Y-60196504D01*
X123134040Y-60262403D01*
X123134043Y-60262403D01*
X123935387Y-59461059D01*
X123940889Y-59481591D01*
X124019881Y-59618408D01*
X124131592Y-59730119D01*
X124268409Y-59809111D01*
X124288940Y-59814612D01*
X123487595Y-60615955D01*
X123487595Y-60615956D01*
X123553507Y-60666533D01*
X123746485Y-60777949D01*
X123746497Y-60777954D01*
X123952381Y-60863236D01*
X124167632Y-60920911D01*
X124167645Y-60920914D01*
X124388575Y-60950000D01*
X124611425Y-60950000D01*
X124832354Y-60920914D01*
X124832367Y-60920911D01*
X125047618Y-60863236D01*
X125253502Y-60777954D01*
X125253514Y-60777949D01*
X125446498Y-60666530D01*
X125512403Y-60615957D01*
X125512404Y-60615956D01*
X124711059Y-59814612D01*
X124731591Y-59809111D01*
X124868408Y-59730119D01*
X124980119Y-59618408D01*
X125059111Y-59481591D01*
X125064612Y-59461059D01*
X125865956Y-60262404D01*
X125865957Y-60262403D01*
X125916530Y-60196498D01*
X126027949Y-60003514D01*
X126027954Y-60003502D01*
X126113236Y-59797618D01*
X126170911Y-59582367D01*
X126170914Y-59582354D01*
X126200000Y-59361424D01*
X126200000Y-59138575D01*
X126170914Y-58917645D01*
X126170911Y-58917632D01*
X126113236Y-58702381D01*
X126027954Y-58496497D01*
X126027949Y-58496485D01*
X125916533Y-58303507D01*
X125865956Y-58237595D01*
X125865955Y-58237595D01*
X125064612Y-59038939D01*
X125059111Y-59018409D01*
X124980119Y-58881592D01*
X124868408Y-58769881D01*
X124731591Y-58690889D01*
X124711058Y-58685387D01*
X125512403Y-57884043D01*
X125512403Y-57884040D01*
X125446504Y-57833473D01*
X125446491Y-57833464D01*
X125253520Y-57722054D01*
X125253502Y-57722045D01*
X125047618Y-57636763D01*
X124832367Y-57579088D01*
X124832354Y-57579085D01*
X124611425Y-57550000D01*
X124388575Y-57550000D01*
X124167645Y-57579085D01*
X124167632Y-57579088D01*
X123952381Y-57636763D01*
X123746497Y-57722045D01*
X123746479Y-57722054D01*
X123553511Y-57833462D01*
X123487595Y-57884042D01*
X124288941Y-58685387D01*
X124268409Y-58690889D01*
X124131592Y-58769881D01*
X124019881Y-58881592D01*
X123940889Y-59018409D01*
X123935387Y-59038940D01*
X123134042Y-58237595D01*
X123083462Y-58303511D01*
X122972054Y-58496479D01*
X122972045Y-58496497D01*
X122886763Y-58702381D01*
X122829088Y-58917632D01*
X122829085Y-58917645D01*
X122800000Y-59138575D01*
X118700500Y-59138575D01*
X118700500Y-58249992D01*
X118689999Y-58147203D01*
X118634814Y-57980666D01*
X118560036Y-57859433D01*
X118542713Y-57831348D01*
X118542710Y-57831344D01*
X118418655Y-57707289D01*
X118418651Y-57707286D01*
X118269337Y-57615187D01*
X118269335Y-57615186D01*
X118186065Y-57587593D01*
X118102797Y-57560001D01*
X118102795Y-57560000D01*
X118000015Y-57549500D01*
X118000008Y-57549500D01*
X115999992Y-57549500D01*
X115999984Y-57549500D01*
X115897204Y-57560000D01*
X115897203Y-57560001D01*
X115730664Y-57615186D01*
X115730662Y-57615187D01*
X115581348Y-57707286D01*
X115581344Y-57707289D01*
X115575453Y-57713181D01*
X115514130Y-57746666D01*
X115487772Y-57749500D01*
X53381903Y-57749500D01*
X53148634Y-57786446D01*
X52924005Y-57859433D01*
X52713565Y-57966657D01*
X52522488Y-58105484D01*
X50355484Y-60272488D01*
X50216657Y-60463565D01*
X50112157Y-60668659D01*
X50109432Y-60674007D01*
X50050393Y-60855710D01*
X50010955Y-60913385D01*
X49971467Y-60935097D01*
X49880666Y-60965186D01*
X49731342Y-61057289D01*
X49607289Y-61181342D01*
X49515187Y-61330663D01*
X49515185Y-61330668D01*
X49515115Y-61330880D01*
X49460001Y-61497203D01*
X49460001Y-61497204D01*
X49460000Y-61497204D01*
X49449500Y-61599983D01*
X49449500Y-62800001D01*
X49449501Y-62800018D01*
X49460000Y-62902796D01*
X49460001Y-62902799D01*
X49515115Y-63069119D01*
X49515186Y-63069334D01*
X49607288Y-63218656D01*
X49731344Y-63342712D01*
X49880666Y-63434814D01*
X49914500Y-63446025D01*
X49971947Y-63485796D01*
X49998772Y-63550311D01*
X49999500Y-63563732D01*
X49999500Y-65826457D01*
X49979815Y-65893496D01*
X49975818Y-65899343D01*
X49929157Y-65963565D01*
X49848328Y-66122203D01*
X49821933Y-66174003D01*
X49748946Y-66398631D01*
X49712000Y-66631902D01*
X49712000Y-71590597D01*
X49748946Y-71823868D01*
X49821933Y-72048496D01*
X49929157Y-72258934D01*
X50061159Y-72440618D01*
X50067984Y-72450011D01*
X50085580Y-72467607D01*
X50119065Y-72528930D01*
X50114081Y-72598622D01*
X50072209Y-72654555D01*
X50067538Y-72657557D01*
X49947455Y-72747452D01*
X49947452Y-72747455D01*
X49861206Y-72862664D01*
X49861202Y-72862671D01*
X49810908Y-72997517D01*
X49804501Y-73057116D01*
X49804500Y-73057135D01*
X49804500Y-75152870D01*
X49804501Y-75152876D01*
X49810908Y-75212483D01*
X49861202Y-75347328D01*
X49861206Y-75347335D01*
X49947452Y-75462544D01*
X49947455Y-75462547D01*
X50062664Y-75548793D01*
X50062671Y-75548797D01*
X50197517Y-75599091D01*
X50197516Y-75599091D01*
X50204444Y-75599835D01*
X50257127Y-75605500D01*
X51176905Y-75605499D01*
X51176919Y-75605500D01*
X51186908Y-75605500D01*
X51433082Y-75605500D01*
X51433094Y-75605499D01*
X51692769Y-75605499D01*
X51759808Y-75625184D01*
X51780450Y-75641818D01*
X64471586Y-88332954D01*
X64501058Y-88352645D01*
X64545270Y-88382186D01*
X64594505Y-88415084D01*
X64594506Y-88415084D01*
X64594507Y-88415085D01*
X64594509Y-88415086D01*
X64731082Y-88471656D01*
X64731087Y-88471658D01*
X64731091Y-88471658D01*
X64731092Y-88471659D01*
X64876079Y-88500500D01*
X64876082Y-88500500D01*
X64876083Y-88500500D01*
X65023917Y-88500500D01*
X65127369Y-88500500D01*
X65194408Y-88520185D01*
X65227685Y-88551613D01*
X65355483Y-88727510D01*
X65522490Y-88894517D01*
X65713567Y-89033343D01*
X65760560Y-89057287D01*
X65924003Y-89140566D01*
X65924005Y-89140566D01*
X65924008Y-89140568D01*
X66044412Y-89179689D01*
X66148631Y-89213553D01*
X66381903Y-89250500D01*
X66381908Y-89250500D01*
X66618097Y-89250500D01*
X66851368Y-89213553D01*
X66880538Y-89204075D01*
X67075992Y-89140568D01*
X67286433Y-89033343D01*
X67477510Y-88894517D01*
X67644517Y-88727510D01*
X67772313Y-88551613D01*
X67827643Y-88508949D01*
X67872631Y-88500500D01*
X83387770Y-88500500D01*
X83454809Y-88520185D01*
X83475451Y-88536819D01*
X83616932Y-88678300D01*
X83748719Y-88810086D01*
X83782204Y-88871409D01*
X83783511Y-88917165D01*
X83749500Y-89131902D01*
X83749500Y-89368097D01*
X83786446Y-89601368D01*
X83859433Y-89825996D01*
X83951615Y-90006911D01*
X83966657Y-90036433D01*
X84105483Y-90227510D01*
X84272490Y-90394517D01*
X84463567Y-90533343D01*
X84476713Y-90540041D01*
X84674003Y-90640566D01*
X84674005Y-90640566D01*
X84674008Y-90640568D01*
X84794412Y-90679689D01*
X84898631Y-90713553D01*
X85131903Y-90750500D01*
X85131908Y-90750500D01*
X85368097Y-90750500D01*
X85601368Y-90713553D01*
X85825992Y-90640568D01*
X86036433Y-90533343D01*
X86227510Y-90394517D01*
X86394517Y-90227510D01*
X86510356Y-90068072D01*
X88982300Y-90068072D01*
X88982300Y-90305527D01*
X89019443Y-90540041D01*
X89092819Y-90765867D01*
X89184958Y-90946699D01*
X89200615Y-90977427D01*
X89340180Y-91169522D01*
X89508078Y-91337420D01*
X89700173Y-91476985D01*
X89800128Y-91527914D01*
X89911732Y-91584780D01*
X89911734Y-91584780D01*
X89911737Y-91584782D01*
X90032784Y-91624112D01*
X90137558Y-91658156D01*
X90372073Y-91695300D01*
X90372078Y-91695300D01*
X90609527Y-91695300D01*
X90844041Y-91658156D01*
X90869056Y-91650028D01*
X91069863Y-91584782D01*
X91281427Y-91476985D01*
X91473522Y-91337420D01*
X91641420Y-91169522D01*
X91660481Y-91143287D01*
X91715810Y-91100620D01*
X91785424Y-91094640D01*
X91847219Y-91127246D01*
X91861119Y-91143287D01*
X91880176Y-91169518D01*
X91880180Y-91169522D01*
X92048078Y-91337420D01*
X92240173Y-91476985D01*
X92340128Y-91527914D01*
X92451732Y-91584780D01*
X92451734Y-91584780D01*
X92451737Y-91584782D01*
X92572784Y-91624112D01*
X92677558Y-91658156D01*
X92912073Y-91695300D01*
X92912078Y-91695300D01*
X93149527Y-91695300D01*
X93384041Y-91658156D01*
X93409056Y-91650028D01*
X93609863Y-91584782D01*
X93821427Y-91476985D01*
X94013522Y-91337420D01*
X94181420Y-91169522D01*
X94320985Y-90977427D01*
X94428782Y-90765863D01*
X94502156Y-90540041D01*
X94515974Y-90452796D01*
X94539300Y-90305527D01*
X94539300Y-90068072D01*
X94502156Y-89833558D01*
X94428780Y-89607732D01*
X94320984Y-89396172D01*
X94300799Y-89368390D01*
X94181420Y-89204078D01*
X94013522Y-89036180D01*
X93821427Y-88896615D01*
X93817304Y-88894514D01*
X93609867Y-88788819D01*
X93384041Y-88715443D01*
X93149527Y-88678300D01*
X93149522Y-88678300D01*
X92912078Y-88678300D01*
X92912073Y-88678300D01*
X92677558Y-88715443D01*
X92451732Y-88788819D01*
X92240172Y-88896615D01*
X92048075Y-89036182D01*
X91880182Y-89204075D01*
X91880175Y-89204084D01*
X91861117Y-89230315D01*
X91805787Y-89272981D01*
X91736174Y-89278959D01*
X91674379Y-89246353D01*
X91660483Y-89230315D01*
X91641424Y-89204084D01*
X91641420Y-89204078D01*
X91473522Y-89036180D01*
X91281427Y-88896615D01*
X91277304Y-88894514D01*
X91069867Y-88788819D01*
X90844041Y-88715443D01*
X90609527Y-88678300D01*
X90609522Y-88678300D01*
X90372078Y-88678300D01*
X90372073Y-88678300D01*
X90137558Y-88715443D01*
X89911732Y-88788819D01*
X89700172Y-88896615D01*
X89508075Y-89036182D01*
X89340182Y-89204075D01*
X89200615Y-89396172D01*
X89092819Y-89607732D01*
X89019443Y-89833558D01*
X88982300Y-90068072D01*
X86510356Y-90068072D01*
X86533343Y-90036433D01*
X86640568Y-89825992D01*
X86713553Y-89601368D01*
X86713773Y-89599980D01*
X86750500Y-89368097D01*
X86750500Y-89131902D01*
X86713553Y-88898631D01*
X86675359Y-88781082D01*
X86640568Y-88674008D01*
X86640566Y-88674005D01*
X86640566Y-88674003D01*
X86570470Y-88536433D01*
X86533343Y-88463567D01*
X86394517Y-88272490D01*
X86227510Y-88105483D01*
X86036433Y-87966657D01*
X86003738Y-87949998D01*
X85825996Y-87859433D01*
X85601368Y-87786446D01*
X85368097Y-87749500D01*
X85368092Y-87749500D01*
X85131908Y-87749500D01*
X85131903Y-87749500D01*
X84917165Y-87783511D01*
X84847871Y-87774556D01*
X84810086Y-87748719D01*
X84228421Y-87167052D01*
X84228420Y-87167051D01*
X84142910Y-87109916D01*
X84142909Y-87109915D01*
X84105500Y-87084919D01*
X84105488Y-87084912D01*
X83968917Y-87028343D01*
X83968907Y-87028340D01*
X83823920Y-86999500D01*
X83823918Y-86999500D01*
X67872631Y-86999500D01*
X67805592Y-86979815D01*
X67772313Y-86948386D01*
X67729863Y-86889959D01*
X67644517Y-86772490D01*
X67477510Y-86605483D01*
X67286433Y-86466657D01*
X67242616Y-86444331D01*
X67075996Y-86359433D01*
X66851368Y-86286446D01*
X66618097Y-86249500D01*
X66618092Y-86249500D01*
X66381908Y-86249500D01*
X66381903Y-86249500D01*
X66148631Y-86286446D01*
X65924003Y-86359433D01*
X65713566Y-86466657D01*
X65604550Y-86545862D01*
X65522490Y-86605483D01*
X65522488Y-86605485D01*
X65522487Y-86605485D01*
X65355486Y-86772486D01*
X65305476Y-86841317D01*
X65250145Y-86883981D01*
X65180531Y-86889959D01*
X65118737Y-86857351D01*
X65117478Y-86856110D01*
X54052108Y-75790740D01*
X54018623Y-75729417D01*
X54023607Y-75659725D01*
X54065479Y-75603792D01*
X54120386Y-75580587D01*
X54196368Y-75568553D01*
X54420992Y-75495568D01*
X54631433Y-75388343D01*
X54822510Y-75249517D01*
X54989517Y-75082510D01*
X55014682Y-75047872D01*
X55070011Y-75005207D01*
X55139625Y-74999228D01*
X55201420Y-75031833D01*
X55215315Y-75047870D01*
X55240483Y-75082510D01*
X55407490Y-75249517D01*
X55598567Y-75388343D01*
X55697991Y-75439002D01*
X55809003Y-75495566D01*
X55809005Y-75495566D01*
X55809008Y-75495568D01*
X55929412Y-75534689D01*
X56033631Y-75568553D01*
X56266903Y-75605500D01*
X56266908Y-75605500D01*
X56503097Y-75605500D01*
X56736368Y-75568553D01*
X56756687Y-75561951D01*
X56960992Y-75495568D01*
X57171433Y-75388343D01*
X57362510Y-75249517D01*
X57529517Y-75082510D01*
X57554682Y-75047872D01*
X57610011Y-75005207D01*
X57679625Y-74999228D01*
X57741420Y-75031833D01*
X57755315Y-75047870D01*
X57780483Y-75082510D01*
X57947490Y-75249517D01*
X58138567Y-75388343D01*
X58237991Y-75439002D01*
X58349003Y-75495566D01*
X58349005Y-75495566D01*
X58349008Y-75495568D01*
X58469412Y-75534689D01*
X58573631Y-75568553D01*
X58806903Y-75605500D01*
X58806908Y-75605500D01*
X59043097Y-75605500D01*
X59276368Y-75568553D01*
X59296687Y-75561951D01*
X59500992Y-75495568D01*
X59711433Y-75388343D01*
X59902510Y-75249517D01*
X60069517Y-75082510D01*
X60116370Y-75018022D01*
X60120713Y-75013199D01*
X60145150Y-74998142D01*
X60167877Y-74980618D01*
X60175393Y-74979509D01*
X60180199Y-74976549D01*
X60193730Y-74976806D01*
X60222594Y-74972551D01*
X60242340Y-74974105D01*
X60982037Y-74234408D01*
X60999075Y-74297993D01*
X61064901Y-74412007D01*
X61157993Y-74505099D01*
X61272007Y-74570925D01*
X61335590Y-74587962D01*
X60595893Y-75327658D01*
X60678828Y-75387914D01*
X60889197Y-75495102D01*
X61113752Y-75568065D01*
X61113751Y-75568065D01*
X61346948Y-75605000D01*
X61583052Y-75605000D01*
X61816247Y-75568065D01*
X62040802Y-75495102D01*
X62251163Y-75387918D01*
X62251169Y-75387914D01*
X62334104Y-75327658D01*
X62334105Y-75327658D01*
X61594408Y-74587962D01*
X61657993Y-74570925D01*
X61772007Y-74505099D01*
X61865099Y-74412007D01*
X61930925Y-74297993D01*
X61947962Y-74234409D01*
X62687657Y-74974104D01*
X62707404Y-74972550D01*
X62775781Y-74986914D01*
X62817451Y-75023282D01*
X62860483Y-75082510D01*
X63027490Y-75249517D01*
X63218567Y-75388343D01*
X63317991Y-75439002D01*
X63429003Y-75495566D01*
X63429005Y-75495566D01*
X63429008Y-75495568D01*
X63549412Y-75534689D01*
X63653631Y-75568553D01*
X63886903Y-75605500D01*
X63886908Y-75605500D01*
X64123097Y-75605500D01*
X64356368Y-75568553D01*
X64376687Y-75561951D01*
X64580992Y-75495568D01*
X64791433Y-75388343D01*
X64982510Y-75249517D01*
X65149517Y-75082510D01*
X65174682Y-75047872D01*
X65230011Y-75005207D01*
X65299625Y-74999228D01*
X65361420Y-75031833D01*
X65375315Y-75047870D01*
X65400483Y-75082510D01*
X65567490Y-75249517D01*
X65758567Y-75388343D01*
X65857991Y-75439002D01*
X65969003Y-75495566D01*
X65969005Y-75495566D01*
X65969008Y-75495568D01*
X66089412Y-75534689D01*
X66193631Y-75568553D01*
X66426903Y-75605500D01*
X66426908Y-75605500D01*
X66663097Y-75605500D01*
X66896368Y-75568553D01*
X66916687Y-75561951D01*
X67120992Y-75495568D01*
X67331433Y-75388343D01*
X67522510Y-75249517D01*
X67689517Y-75082510D01*
X67714682Y-75047872D01*
X67770011Y-75005207D01*
X67839625Y-74999228D01*
X67901420Y-75031833D01*
X67915315Y-75047870D01*
X67940483Y-75082510D01*
X68107490Y-75249517D01*
X68298567Y-75388343D01*
X68397991Y-75439002D01*
X68509003Y-75495566D01*
X68509005Y-75495566D01*
X68509008Y-75495568D01*
X68629412Y-75534689D01*
X68733631Y-75568553D01*
X68966903Y-75605500D01*
X68966908Y-75605500D01*
X69203097Y-75605500D01*
X69436368Y-75568553D01*
X69456687Y-75561951D01*
X69660992Y-75495568D01*
X69871433Y-75388343D01*
X70062510Y-75249517D01*
X70229517Y-75082510D01*
X70254682Y-75047872D01*
X70310011Y-75005207D01*
X70379625Y-74999228D01*
X70441420Y-75031833D01*
X70455315Y-75047870D01*
X70480483Y-75082510D01*
X70647490Y-75249517D01*
X70838567Y-75388343D01*
X70937991Y-75439002D01*
X71049003Y-75495566D01*
X71049005Y-75495566D01*
X71049008Y-75495568D01*
X71169412Y-75534689D01*
X71273631Y-75568553D01*
X71506903Y-75605500D01*
X71506908Y-75605500D01*
X71743097Y-75605500D01*
X71976368Y-75568553D01*
X71996687Y-75561951D01*
X72200992Y-75495568D01*
X72411433Y-75388343D01*
X72602510Y-75249517D01*
X72769517Y-75082510D01*
X72794682Y-75047872D01*
X72850011Y-75005207D01*
X72919625Y-74999228D01*
X72981420Y-75031833D01*
X72995315Y-75047870D01*
X73020483Y-75082510D01*
X73187490Y-75249517D01*
X73378567Y-75388343D01*
X73477991Y-75439002D01*
X73589003Y-75495566D01*
X73589005Y-75495566D01*
X73589008Y-75495568D01*
X73709412Y-75534689D01*
X73813631Y-75568553D01*
X74046903Y-75605500D01*
X74046908Y-75605500D01*
X74283097Y-75605500D01*
X74516368Y-75568553D01*
X74536687Y-75561951D01*
X74740992Y-75495568D01*
X74951433Y-75388343D01*
X75142510Y-75249517D01*
X75309517Y-75082510D01*
X75334682Y-75047872D01*
X75390011Y-75005207D01*
X75459625Y-74999228D01*
X75521420Y-75031833D01*
X75535315Y-75047870D01*
X75560483Y-75082510D01*
X75727490Y-75249517D01*
X75918567Y-75388343D01*
X76017991Y-75439002D01*
X76129003Y-75495566D01*
X76129005Y-75495566D01*
X76129008Y-75495568D01*
X76249412Y-75534689D01*
X76353631Y-75568553D01*
X76586903Y-75605500D01*
X76586908Y-75605500D01*
X76823097Y-75605500D01*
X77056368Y-75568553D01*
X77076687Y-75561951D01*
X77280992Y-75495568D01*
X77491433Y-75388343D01*
X77682510Y-75249517D01*
X77849517Y-75082510D01*
X77874682Y-75047872D01*
X77930011Y-75005207D01*
X77999625Y-74999228D01*
X78061420Y-75031833D01*
X78075315Y-75047870D01*
X78100483Y-75082510D01*
X78267490Y-75249517D01*
X78458567Y-75388343D01*
X78557991Y-75439002D01*
X78669003Y-75495566D01*
X78669005Y-75495566D01*
X78669008Y-75495568D01*
X78789412Y-75534689D01*
X78893631Y-75568553D01*
X79126903Y-75605500D01*
X79126908Y-75605500D01*
X79363097Y-75605500D01*
X79596368Y-75568553D01*
X79616687Y-75561951D01*
X79820992Y-75495568D01*
X80031433Y-75388343D01*
X80222510Y-75249517D01*
X80389517Y-75082510D01*
X80436370Y-75018022D01*
X80440713Y-75013199D01*
X80465150Y-74998142D01*
X80487877Y-74980618D01*
X80495393Y-74979509D01*
X80500199Y-74976549D01*
X80513730Y-74976806D01*
X80542594Y-74972551D01*
X80562340Y-74974105D01*
X81302037Y-74234408D01*
X81319075Y-74297993D01*
X81384901Y-74412007D01*
X81477993Y-74505099D01*
X81592007Y-74570925D01*
X81655590Y-74587962D01*
X80915893Y-75327658D01*
X80998828Y-75387914D01*
X81209197Y-75495102D01*
X81433752Y-75568065D01*
X81433751Y-75568065D01*
X81666948Y-75605000D01*
X81903052Y-75605000D01*
X82136247Y-75568065D01*
X82360802Y-75495102D01*
X82571163Y-75387918D01*
X82571169Y-75387914D01*
X82654104Y-75327658D01*
X82654105Y-75327658D01*
X81914408Y-74587962D01*
X81977993Y-74570925D01*
X82092007Y-74505099D01*
X82185099Y-74412007D01*
X82250925Y-74297993D01*
X82267962Y-74234409D01*
X83007657Y-74974104D01*
X83027404Y-74972550D01*
X83095781Y-74986914D01*
X83137451Y-75023282D01*
X83180483Y-75082510D01*
X83347490Y-75249517D01*
X83538567Y-75388343D01*
X83637991Y-75439002D01*
X83749003Y-75495566D01*
X83749005Y-75495566D01*
X83749008Y-75495568D01*
X83869412Y-75534689D01*
X83973631Y-75568553D01*
X84206903Y-75605500D01*
X84206908Y-75605500D01*
X84443097Y-75605500D01*
X84676368Y-75568553D01*
X84696687Y-75561951D01*
X84900992Y-75495568D01*
X85111433Y-75388343D01*
X85302510Y-75249517D01*
X85469517Y-75082510D01*
X85494682Y-75047872D01*
X85550011Y-75005207D01*
X85619625Y-74999228D01*
X85681420Y-75031833D01*
X85695315Y-75047870D01*
X85720483Y-75082510D01*
X85887490Y-75249517D01*
X86078567Y-75388343D01*
X86177991Y-75439002D01*
X86289003Y-75495566D01*
X86289005Y-75495566D01*
X86289008Y-75495568D01*
X86409412Y-75534689D01*
X86513631Y-75568553D01*
X86746903Y-75605500D01*
X86746908Y-75605500D01*
X86983097Y-75605500D01*
X87216368Y-75568553D01*
X87236687Y-75561951D01*
X87440992Y-75495568D01*
X87651433Y-75388343D01*
X87842510Y-75249517D01*
X88009517Y-75082510D01*
X88034682Y-75047872D01*
X88090011Y-75005207D01*
X88159625Y-74999228D01*
X88221420Y-75031833D01*
X88235315Y-75047870D01*
X88260483Y-75082510D01*
X88427490Y-75249517D01*
X88618567Y-75388343D01*
X88717991Y-75439002D01*
X88829003Y-75495566D01*
X88829005Y-75495566D01*
X88829008Y-75495568D01*
X88949412Y-75534689D01*
X89053631Y-75568553D01*
X89286903Y-75605500D01*
X89286908Y-75605500D01*
X89523097Y-75605500D01*
X89756368Y-75568553D01*
X89776687Y-75561951D01*
X89980992Y-75495568D01*
X90191433Y-75388343D01*
X90382510Y-75249517D01*
X90549517Y-75082510D01*
X90574682Y-75047872D01*
X90630011Y-75005207D01*
X90699625Y-74999228D01*
X90761420Y-75031833D01*
X90775315Y-75047870D01*
X90800483Y-75082510D01*
X90967490Y-75249517D01*
X91158567Y-75388343D01*
X91257991Y-75439002D01*
X91369003Y-75495566D01*
X91369005Y-75495566D01*
X91369008Y-75495568D01*
X91489412Y-75534689D01*
X91593631Y-75568553D01*
X91826903Y-75605500D01*
X91826908Y-75605500D01*
X92063097Y-75605500D01*
X92296362Y-75568554D01*
X92296362Y-75568553D01*
X92296368Y-75568553D01*
X92310543Y-75563946D01*
X92380382Y-75561951D01*
X92436541Y-75594197D01*
X93281296Y-76438952D01*
X93332043Y-76472859D01*
X93332045Y-76472861D01*
X93332046Y-76472861D01*
X93404210Y-76521080D01*
X93404223Y-76521087D01*
X93540794Y-76577656D01*
X93540799Y-76577658D01*
X93540803Y-76577658D01*
X93540804Y-76577659D01*
X93685791Y-76606500D01*
X93685794Y-76606500D01*
X93685795Y-76606500D01*
X93833630Y-76606500D01*
X94743770Y-76606500D01*
X94810809Y-76626185D01*
X94831451Y-76642819D01*
X107463181Y-89274549D01*
X107496666Y-89335872D01*
X107499500Y-89362230D01*
X107499500Y-90122130D01*
X107479815Y-90189169D01*
X107427011Y-90234924D01*
X107357853Y-90244868D01*
X107294297Y-90215843D01*
X107270506Y-90188102D01*
X107269388Y-90186322D01*
X107261667Y-90174035D01*
X107075985Y-89941198D01*
X106865402Y-89730615D01*
X106632565Y-89544933D01*
X106380402Y-89386488D01*
X106380399Y-89386486D01*
X106112085Y-89257273D01*
X105830987Y-89158913D01*
X105830989Y-89158913D01*
X105613228Y-89109211D01*
X105540643Y-89092644D01*
X105540640Y-89092643D01*
X105540628Y-89092641D01*
X105244711Y-89059300D01*
X105244705Y-89059300D01*
X104946895Y-89059300D01*
X104946888Y-89059300D01*
X104650971Y-89092641D01*
X104650957Y-89092644D01*
X104360611Y-89158913D01*
X104079514Y-89257273D01*
X103811200Y-89386486D01*
X103559036Y-89544932D01*
X103326198Y-89730614D01*
X103115614Y-89941198D01*
X102929932Y-90174036D01*
X102771486Y-90426200D01*
X102642273Y-90694514D01*
X102543913Y-90975611D01*
X102477644Y-91265957D01*
X102477641Y-91265971D01*
X102444300Y-91561888D01*
X102444300Y-91859711D01*
X102477641Y-92155628D01*
X102477644Y-92155642D01*
X102543913Y-92445988D01*
X102642273Y-92727085D01*
X102771486Y-92995399D01*
X102771488Y-92995402D01*
X102929933Y-93247565D01*
X103115615Y-93480402D01*
X103326198Y-93690985D01*
X103559035Y-93876667D01*
X103811198Y-94035112D01*
X104079516Y-94164327D01*
X104360611Y-94262686D01*
X104360613Y-94262686D01*
X104360614Y-94262687D01*
X104650957Y-94328956D01*
X104650966Y-94328957D01*
X104650971Y-94328958D01*
X104848249Y-94351185D01*
X104946889Y-94362299D01*
X104946892Y-94362300D01*
X104946895Y-94362300D01*
X105244708Y-94362300D01*
X105244709Y-94362299D01*
X105395949Y-94345258D01*
X105540628Y-94328958D01*
X105540631Y-94328957D01*
X105540643Y-94328956D01*
X105830986Y-94262687D01*
X106112084Y-94164327D01*
X106380402Y-94035112D01*
X106632565Y-93876667D01*
X106865402Y-93690985D01*
X107075985Y-93480402D01*
X107261667Y-93247565D01*
X107261670Y-93247559D01*
X107261672Y-93247558D01*
X107270505Y-93233500D01*
X107322838Y-93187207D01*
X107391891Y-93176557D01*
X107455740Y-93204931D01*
X107494114Y-93263319D01*
X107499500Y-93299469D01*
X107499500Y-95823918D01*
X107499500Y-95823920D01*
X107499499Y-95823920D01*
X107528340Y-95968907D01*
X107528343Y-95968917D01*
X107584914Y-96105492D01*
X107617812Y-96154727D01*
X107617813Y-96154730D01*
X107667046Y-96228414D01*
X107667052Y-96228421D01*
X136868049Y-125429416D01*
X136972584Y-125533951D01*
X136972585Y-125533952D01*
X137095498Y-125616080D01*
X137095511Y-125616087D01*
X137232082Y-125672656D01*
X137232087Y-125672658D01*
X137232091Y-125672658D01*
X137232092Y-125672659D01*
X137377079Y-125701500D01*
X137377082Y-125701500D01*
X143338770Y-125701500D01*
X143405809Y-125721185D01*
X143426451Y-125737819D01*
X143963181Y-126274549D01*
X143996666Y-126335872D01*
X143999500Y-126362230D01*
X143999500Y-127099462D01*
X143979815Y-127166501D01*
X143927011Y-127212256D01*
X143857853Y-127222200D01*
X143794297Y-127193175D01*
X143768113Y-127161462D01*
X143666924Y-126986196D01*
X143507281Y-126778148D01*
X143507274Y-126778140D01*
X143321860Y-126592726D01*
X143321851Y-126592718D01*
X143113803Y-126433075D01*
X142886700Y-126301958D01*
X142886690Y-126301953D01*
X142644428Y-126201605D01*
X142644421Y-126201603D01*
X142644419Y-126201602D01*
X142391116Y-126133730D01*
X142333339Y-126126123D01*
X142131127Y-126099500D01*
X142131120Y-126099500D01*
X42131120Y-126099500D01*
X41868880Y-126099500D01*
X41868872Y-126099500D01*
X41637772Y-126129926D01*
X41608884Y-126133730D01*
X41355581Y-126201602D01*
X41355571Y-126201605D01*
X41113309Y-126301953D01*
X41113299Y-126301958D01*
X40886196Y-126433075D01*
X40678148Y-126592718D01*
X40492718Y-126778148D01*
X40333075Y-126986196D01*
X40201958Y-127213299D01*
X40201953Y-127213309D01*
X40101605Y-127455571D01*
X40101602Y-127455581D01*
X40033730Y-127708885D01*
X39999500Y-127968872D01*
X39999500Y-147875500D01*
X39979815Y-147942539D01*
X39927011Y-147988294D01*
X39875500Y-147999500D01*
X35124500Y-147999500D01*
X35057461Y-147979815D01*
X35011706Y-147927011D01*
X35000500Y-147875500D01*
X35000500Y-121531491D01*
X42624500Y-121531491D01*
X42624500Y-121868508D01*
X42662231Y-122203381D01*
X42662233Y-122203397D01*
X42737223Y-122531953D01*
X42737227Y-122531965D01*
X42848532Y-122850054D01*
X42994752Y-123153683D01*
X42994754Y-123153686D01*
X43174054Y-123439039D01*
X43384175Y-123702523D01*
X43622477Y-123940825D01*
X43885961Y-124150946D01*
X44171314Y-124330246D01*
X44474949Y-124476469D01*
X44713848Y-124560063D01*
X44793034Y-124587772D01*
X44793046Y-124587776D01*
X45121606Y-124662767D01*
X45456492Y-124700499D01*
X45456493Y-124700500D01*
X45456496Y-124700500D01*
X45793507Y-124700500D01*
X45793507Y-124700499D01*
X46128394Y-124662767D01*
X46456954Y-124587776D01*
X46775051Y-124476469D01*
X47078686Y-124330246D01*
X47364039Y-124150946D01*
X47627523Y-123940825D01*
X47865825Y-123702523D01*
X48075946Y-123439039D01*
X48255246Y-123153686D01*
X48401469Y-122850051D01*
X48512776Y-122531954D01*
X48587767Y-122203394D01*
X48625500Y-121868504D01*
X48625500Y-121531496D01*
X48587767Y-121196606D01*
X48512776Y-120868046D01*
X48479129Y-120771888D01*
X75774300Y-120771888D01*
X75774300Y-121069711D01*
X75807641Y-121365628D01*
X75807644Y-121365642D01*
X75873913Y-121655988D01*
X75972273Y-121937085D01*
X76101486Y-122205399D01*
X76101488Y-122205402D01*
X76259933Y-122457565D01*
X76445615Y-122690402D01*
X76656198Y-122900985D01*
X76889035Y-123086667D01*
X77141198Y-123245112D01*
X77409516Y-123374327D01*
X77690611Y-123472686D01*
X77690613Y-123472686D01*
X77690614Y-123472687D01*
X77980957Y-123538956D01*
X77980966Y-123538957D01*
X77980971Y-123538958D01*
X78178249Y-123561185D01*
X78276889Y-123572299D01*
X78276892Y-123572300D01*
X78276895Y-123572300D01*
X78574708Y-123572300D01*
X78574709Y-123572299D01*
X78725949Y-123555258D01*
X78870628Y-123538958D01*
X78870631Y-123538957D01*
X78870643Y-123538956D01*
X79160986Y-123472687D01*
X79442084Y-123374327D01*
X79710402Y-123245112D01*
X79962565Y-123086667D01*
X80195402Y-122900985D01*
X80405985Y-122690402D01*
X80591667Y-122457565D01*
X80750112Y-122205402D01*
X80879327Y-121937084D01*
X80977687Y-121655986D01*
X81043956Y-121365643D01*
X81077300Y-121069705D01*
X81077300Y-120771895D01*
X81077299Y-120771888D01*
X102444300Y-120771888D01*
X102444300Y-121069711D01*
X102477641Y-121365628D01*
X102477644Y-121365642D01*
X102543913Y-121655988D01*
X102642273Y-121937085D01*
X102771486Y-122205399D01*
X102771488Y-122205402D01*
X102929933Y-122457565D01*
X103115615Y-122690402D01*
X103326198Y-122900985D01*
X103559035Y-123086667D01*
X103811198Y-123245112D01*
X104079516Y-123374327D01*
X104360611Y-123472686D01*
X104360613Y-123472686D01*
X104360614Y-123472687D01*
X104650957Y-123538956D01*
X104650966Y-123538957D01*
X104650971Y-123538958D01*
X104848249Y-123561185D01*
X104946889Y-123572299D01*
X104946892Y-123572300D01*
X104946895Y-123572300D01*
X105244708Y-123572300D01*
X105244709Y-123572299D01*
X105395949Y-123555258D01*
X105540628Y-123538958D01*
X105540631Y-123538957D01*
X105540643Y-123538956D01*
X105830986Y-123472687D01*
X106112084Y-123374327D01*
X106380402Y-123245112D01*
X106632565Y-123086667D01*
X106865402Y-122900985D01*
X107075985Y-122690402D01*
X107261667Y-122457565D01*
X107420112Y-122205402D01*
X107549327Y-121937084D01*
X107647687Y-121655986D01*
X107713956Y-121365643D01*
X107747300Y-121069705D01*
X107747300Y-120868872D01*
X114999500Y-120868872D01*
X114999500Y-121131127D01*
X115008123Y-121196618D01*
X115033730Y-121391116D01*
X115071344Y-121531493D01*
X115101602Y-121644418D01*
X115101605Y-121644428D01*
X115201953Y-121886690D01*
X115201958Y-121886700D01*
X115333075Y-122113803D01*
X115492718Y-122321851D01*
X115492726Y-122321860D01*
X115678140Y-122507274D01*
X115678148Y-122507281D01*
X115886196Y-122666924D01*
X116113299Y-122798041D01*
X116113309Y-122798046D01*
X116238868Y-122850054D01*
X116355581Y-122898398D01*
X116608884Y-122966270D01*
X116868880Y-123000500D01*
X116868887Y-123000500D01*
X117131113Y-123000500D01*
X117131120Y-123000500D01*
X117391116Y-122966270D01*
X117644419Y-122898398D01*
X117886697Y-122798043D01*
X118113803Y-122666924D01*
X118321851Y-122507282D01*
X118321855Y-122507277D01*
X118321860Y-122507274D01*
X118507274Y-122321860D01*
X118507277Y-122321855D01*
X118507282Y-122321851D01*
X118666924Y-122113803D01*
X118798043Y-121886697D01*
X118898398Y-121644419D01*
X118966270Y-121391116D01*
X119000500Y-121131120D01*
X119000500Y-120868880D01*
X118966270Y-120608884D01*
X118898398Y-120355581D01*
X118898394Y-120355571D01*
X118798046Y-120113309D01*
X118798041Y-120113299D01*
X118666924Y-119886196D01*
X118507281Y-119678148D01*
X118507274Y-119678140D01*
X118321860Y-119492726D01*
X118321851Y-119492718D01*
X118113803Y-119333075D01*
X117886700Y-119201958D01*
X117886690Y-119201953D01*
X117644428Y-119101605D01*
X117644421Y-119101603D01*
X117644419Y-119101602D01*
X117391116Y-119033730D01*
X117333339Y-119026123D01*
X117131127Y-118999500D01*
X117131120Y-118999500D01*
X116868880Y-118999500D01*
X116868872Y-118999500D01*
X116637772Y-119029926D01*
X116608884Y-119033730D01*
X116474440Y-119069754D01*
X116355581Y-119101602D01*
X116355571Y-119101605D01*
X116113309Y-119201953D01*
X116113299Y-119201958D01*
X115886196Y-119333075D01*
X115678148Y-119492718D01*
X115492718Y-119678148D01*
X115333075Y-119886196D01*
X115201958Y-120113299D01*
X115201953Y-120113309D01*
X115101605Y-120355571D01*
X115101602Y-120355581D01*
X115033730Y-120608885D01*
X114999500Y-120868872D01*
X107747300Y-120868872D01*
X107747300Y-120771895D01*
X107722293Y-120549949D01*
X107713958Y-120475971D01*
X107713957Y-120475966D01*
X107713956Y-120475957D01*
X107647687Y-120185614D01*
X107549327Y-119904516D01*
X107420112Y-119636198D01*
X107261667Y-119384035D01*
X107075985Y-119151198D01*
X106865402Y-118940615D01*
X106843979Y-118923531D01*
X106704404Y-118812223D01*
X106632565Y-118754933D01*
X106380402Y-118596488D01*
X106380399Y-118596486D01*
X106112085Y-118467273D01*
X105830987Y-118368913D01*
X105830989Y-118368913D01*
X105613228Y-118319211D01*
X105540643Y-118302644D01*
X105540640Y-118302643D01*
X105540628Y-118302641D01*
X105244711Y-118269300D01*
X105244705Y-118269300D01*
X104946895Y-118269300D01*
X104946888Y-118269300D01*
X104650971Y-118302641D01*
X104650957Y-118302644D01*
X104360611Y-118368913D01*
X104079514Y-118467273D01*
X103811200Y-118596486D01*
X103559036Y-118754932D01*
X103326198Y-118940614D01*
X103115614Y-119151198D01*
X102929932Y-119384036D01*
X102771486Y-119636200D01*
X102642273Y-119904514D01*
X102543913Y-120185611D01*
X102477644Y-120475957D01*
X102477641Y-120475971D01*
X102444300Y-120771888D01*
X81077299Y-120771888D01*
X81052293Y-120549949D01*
X81043958Y-120475971D01*
X81043957Y-120475966D01*
X81043956Y-120475957D01*
X80977687Y-120185614D01*
X80879327Y-119904516D01*
X80750112Y-119636198D01*
X80591667Y-119384035D01*
X80405985Y-119151198D01*
X80195402Y-118940615D01*
X80173979Y-118923531D01*
X80034404Y-118812223D01*
X79962565Y-118754933D01*
X79710402Y-118596488D01*
X79710399Y-118596486D01*
X79442085Y-118467273D01*
X79160987Y-118368913D01*
X79160989Y-118368913D01*
X78943228Y-118319211D01*
X78870643Y-118302644D01*
X78870640Y-118302643D01*
X78870628Y-118302641D01*
X78574711Y-118269300D01*
X78574705Y-118269300D01*
X78276895Y-118269300D01*
X78276888Y-118269300D01*
X77980971Y-118302641D01*
X77980957Y-118302644D01*
X77690611Y-118368913D01*
X77409514Y-118467273D01*
X77141200Y-118596486D01*
X76889036Y-118754932D01*
X76656198Y-118940614D01*
X76445614Y-119151198D01*
X76259932Y-119384036D01*
X76101486Y-119636200D01*
X75972273Y-119904514D01*
X75873913Y-120185611D01*
X75807644Y-120475957D01*
X75807641Y-120475971D01*
X75774300Y-120771888D01*
X48479129Y-120771888D01*
X48401469Y-120549949D01*
X48255246Y-120246314D01*
X48075946Y-119960961D01*
X47865825Y-119697477D01*
X47627523Y-119459175D01*
X47364039Y-119249054D01*
X47078686Y-119069754D01*
X47078683Y-119069752D01*
X46775054Y-118923532D01*
X46456965Y-118812227D01*
X46456953Y-118812223D01*
X46128397Y-118737233D01*
X46128381Y-118737231D01*
X45793508Y-118699500D01*
X45793504Y-118699500D01*
X45456496Y-118699500D01*
X45456491Y-118699500D01*
X45121618Y-118737231D01*
X45121602Y-118737233D01*
X44793046Y-118812223D01*
X44793034Y-118812227D01*
X44474945Y-118923532D01*
X44171316Y-119069752D01*
X43885962Y-119249053D01*
X43622477Y-119459174D01*
X43384174Y-119697477D01*
X43174053Y-119960962D01*
X42994752Y-120246316D01*
X42848532Y-120549945D01*
X42737227Y-120868034D01*
X42737223Y-120868046D01*
X42662233Y-121196602D01*
X42662231Y-121196618D01*
X42624500Y-121531491D01*
X35000500Y-121531491D01*
X35000500Y-113095528D01*
X36999500Y-113095528D01*
X36999500Y-113404471D01*
X37034086Y-113711437D01*
X37034089Y-113711455D01*
X37102831Y-114012635D01*
X37102835Y-114012647D01*
X37204862Y-114304222D01*
X37204868Y-114304236D01*
X37338903Y-114582562D01*
X37338905Y-114582565D01*
X37503265Y-114844143D01*
X37695880Y-115085674D01*
X37914326Y-115304120D01*
X38155857Y-115496735D01*
X38417435Y-115661095D01*
X38695771Y-115795135D01*
X38695777Y-115795137D01*
X38987352Y-115897164D01*
X38987364Y-115897168D01*
X39288548Y-115965911D01*
X39288554Y-115965911D01*
X39288562Y-115965913D01*
X39493206Y-115988970D01*
X39595529Y-116000499D01*
X39595532Y-116000500D01*
X39595535Y-116000500D01*
X39904468Y-116000500D01*
X39904469Y-116000499D01*
X40061356Y-115982822D01*
X40211437Y-115965913D01*
X40211442Y-115965912D01*
X40211452Y-115965911D01*
X40512636Y-115897168D01*
X40804229Y-115795135D01*
X41082565Y-115661095D01*
X41344143Y-115496735D01*
X41585674Y-115304120D01*
X41804120Y-115085674D01*
X41996735Y-114844143D01*
X42161095Y-114582565D01*
X42295135Y-114304229D01*
X42397168Y-114012636D01*
X42465911Y-113711452D01*
X42500500Y-113404465D01*
X42500500Y-113095535D01*
X42465911Y-112788548D01*
X42397168Y-112487364D01*
X42363957Y-112392454D01*
X42316178Y-112255908D01*
X42295135Y-112195771D01*
X42161095Y-111917435D01*
X41996735Y-111655857D01*
X41804120Y-111414326D01*
X41585674Y-111195880D01*
X41344143Y-111003265D01*
X41082565Y-110838905D01*
X41082562Y-110838903D01*
X40804236Y-110704868D01*
X40804222Y-110704862D01*
X40512647Y-110602835D01*
X40512635Y-110602831D01*
X40211455Y-110534089D01*
X40211437Y-110534086D01*
X39904471Y-110499500D01*
X39904465Y-110499500D01*
X39595535Y-110499500D01*
X39595528Y-110499500D01*
X39288562Y-110534086D01*
X39288544Y-110534089D01*
X38987364Y-110602831D01*
X38987352Y-110602835D01*
X38695777Y-110704862D01*
X38695763Y-110704868D01*
X38417437Y-110838903D01*
X38155858Y-111003264D01*
X37914326Y-111195879D01*
X37695879Y-111414326D01*
X37503264Y-111655858D01*
X37338903Y-111917437D01*
X37204868Y-112195763D01*
X37204862Y-112195777D01*
X37102835Y-112487352D01*
X37102831Y-112487364D01*
X37034089Y-112788544D01*
X37034086Y-112788562D01*
X36999500Y-113095528D01*
X35000500Y-113095528D01*
X35000500Y-104954486D01*
X104499500Y-104954486D01*
X104499500Y-105249513D01*
X104515833Y-105373566D01*
X104538007Y-105541993D01*
X104549265Y-105584008D01*
X104614361Y-105826951D01*
X104614364Y-105826961D01*
X104727254Y-106099500D01*
X104727258Y-106099510D01*
X104874761Y-106354993D01*
X105054352Y-106589040D01*
X105054358Y-106589047D01*
X105262952Y-106797641D01*
X105262959Y-106797647D01*
X105497006Y-106977238D01*
X105752489Y-107124741D01*
X105752490Y-107124741D01*
X105752493Y-107124743D01*
X106025048Y-107237639D01*
X106310007Y-107313993D01*
X106420661Y-107328561D01*
X106484557Y-107356828D01*
X106523028Y-107415152D01*
X106523859Y-107485017D01*
X106486787Y-107544240D01*
X106423581Y-107574019D01*
X106420661Y-107574438D01*
X106310007Y-107589007D01*
X106181079Y-107623553D01*
X106025048Y-107665361D01*
X106025038Y-107665364D01*
X105752499Y-107778254D01*
X105752489Y-107778258D01*
X105497006Y-107925761D01*
X105262959Y-108105352D01*
X105262952Y-108105358D01*
X105054358Y-108313952D01*
X105054352Y-108313959D01*
X104874761Y-108548006D01*
X104727258Y-108803489D01*
X104727254Y-108803499D01*
X104614364Y-109076038D01*
X104614361Y-109076048D01*
X104538008Y-109361004D01*
X104538006Y-109361015D01*
X104499500Y-109653486D01*
X104499500Y-109948513D01*
X104528594Y-110169494D01*
X104538007Y-110240993D01*
X104614361Y-110525951D01*
X104614364Y-110525961D01*
X104727254Y-110798500D01*
X104727258Y-110798510D01*
X104874761Y-111053993D01*
X105054352Y-111288040D01*
X105054358Y-111288047D01*
X105262952Y-111496641D01*
X105262959Y-111496647D01*
X105497006Y-111676238D01*
X105752489Y-111823741D01*
X105752490Y-111823741D01*
X105752493Y-111823743D01*
X106025048Y-111936639D01*
X106282887Y-112005726D01*
X106342546Y-112042090D01*
X106373075Y-112104937D01*
X106364780Y-112174312D01*
X106320295Y-112228190D01*
X106253743Y-112249465D01*
X106250792Y-112249500D01*
X104952129Y-112249500D01*
X104952123Y-112249501D01*
X104892516Y-112255908D01*
X104757671Y-112306202D01*
X104757664Y-112306206D01*
X104642455Y-112392452D01*
X104642452Y-112392455D01*
X104556206Y-112507664D01*
X104556202Y-112507671D01*
X104505908Y-112642517D01*
X104499501Y-112702116D01*
X104499501Y-112702123D01*
X104499500Y-112702135D01*
X104499500Y-116297870D01*
X104499501Y-116297876D01*
X104505908Y-116357483D01*
X104556202Y-116492328D01*
X104556206Y-116492335D01*
X104642452Y-116607544D01*
X104642455Y-116607547D01*
X104757664Y-116693793D01*
X104757671Y-116693797D01*
X104892517Y-116744091D01*
X104892516Y-116744091D01*
X104899444Y-116744835D01*
X104952127Y-116750500D01*
X106594881Y-116750499D01*
X106594899Y-116750500D01*
X106602494Y-116750500D01*
X106905102Y-116750500D01*
X106905118Y-116750499D01*
X108547871Y-116750499D01*
X108547872Y-116750499D01*
X108607483Y-116744091D01*
X108742331Y-116693796D01*
X108857546Y-116607546D01*
X108943796Y-116492331D01*
X108994091Y-116357483D01*
X109000500Y-116297873D01*
X109000500Y-114582565D01*
X109000500Y-114352494D01*
X109000500Y-114346381D01*
X109000499Y-114346359D01*
X109000499Y-112702129D01*
X109000498Y-112702123D01*
X109000497Y-112702116D01*
X108994091Y-112642517D01*
X108943796Y-112507669D01*
X108943795Y-112507668D01*
X108943793Y-112507664D01*
X108857547Y-112392455D01*
X108857544Y-112392452D01*
X108742335Y-112306206D01*
X108742328Y-112306202D01*
X108607482Y-112255908D01*
X108607483Y-112255908D01*
X108547883Y-112249501D01*
X108547881Y-112249500D01*
X108547873Y-112249500D01*
X107249209Y-112249500D01*
X107182170Y-112229815D01*
X107136415Y-112177011D01*
X107126471Y-112107853D01*
X107155496Y-112044297D01*
X107214274Y-112006523D01*
X107217079Y-112005735D01*
X107474952Y-111936639D01*
X107747507Y-111823743D01*
X108002994Y-111676238D01*
X108237042Y-111496646D01*
X108445646Y-111288042D01*
X108625238Y-111053994D01*
X108772743Y-110798507D01*
X108885639Y-110525952D01*
X108961993Y-110240993D01*
X109000500Y-109948506D01*
X109000500Y-109653494D01*
X108994717Y-109609568D01*
X114499500Y-109609568D01*
X114499500Y-109890431D01*
X114530942Y-110169494D01*
X114530945Y-110169512D01*
X114593439Y-110443317D01*
X114593443Y-110443329D01*
X114686200Y-110708411D01*
X114808053Y-110961442D01*
X114808055Y-110961445D01*
X114957477Y-111199248D01*
X115132584Y-111418825D01*
X115331175Y-111617416D01*
X115550752Y-111792523D01*
X115788555Y-111941945D01*
X116041592Y-112063801D01*
X116240680Y-112133465D01*
X116306670Y-112156556D01*
X116306682Y-112156560D01*
X116580491Y-112219055D01*
X116580497Y-112219055D01*
X116580505Y-112219057D01*
X116766547Y-112240018D01*
X116859569Y-112250499D01*
X116859572Y-112250500D01*
X116859575Y-112250500D01*
X117140428Y-112250500D01*
X117140429Y-112250499D01*
X117283055Y-112234429D01*
X117419494Y-112219057D01*
X117419499Y-112219056D01*
X117419509Y-112219055D01*
X117693318Y-112156560D01*
X117958408Y-112063801D01*
X118211445Y-111941945D01*
X118449248Y-111792523D01*
X118668825Y-111617416D01*
X118867416Y-111418825D01*
X119042523Y-111199248D01*
X119191945Y-110961445D01*
X119313801Y-110708408D01*
X119406560Y-110443318D01*
X119469055Y-110169509D01*
X119500500Y-109890425D01*
X119500500Y-109609575D01*
X119475510Y-109387780D01*
X119469057Y-109330505D01*
X119469054Y-109330487D01*
X119444729Y-109223914D01*
X119406560Y-109056682D01*
X119401362Y-109041828D01*
X119317965Y-108803493D01*
X119313801Y-108791592D01*
X119191945Y-108538555D01*
X119042523Y-108300752D01*
X118867416Y-108081175D01*
X118668825Y-107882584D01*
X118449248Y-107707477D01*
X118260703Y-107589006D01*
X118211442Y-107558053D01*
X117958411Y-107436200D01*
X117693329Y-107343443D01*
X117693317Y-107343439D01*
X117419512Y-107280945D01*
X117419494Y-107280942D01*
X117140431Y-107249500D01*
X117140425Y-107249500D01*
X116859575Y-107249500D01*
X116859568Y-107249500D01*
X116580505Y-107280942D01*
X116580487Y-107280945D01*
X116306682Y-107343439D01*
X116306670Y-107343443D01*
X116041588Y-107436200D01*
X115788557Y-107558053D01*
X115550753Y-107707476D01*
X115331175Y-107882583D01*
X115132583Y-108081175D01*
X114957476Y-108300753D01*
X114808053Y-108538557D01*
X114686200Y-108791588D01*
X114593443Y-109056670D01*
X114593439Y-109056682D01*
X114530945Y-109330487D01*
X114530942Y-109330505D01*
X114499500Y-109609568D01*
X108994717Y-109609568D01*
X108961993Y-109361007D01*
X108885639Y-109076048D01*
X108772743Y-108803493D01*
X108625238Y-108548006D01*
X108490105Y-108371898D01*
X108445647Y-108313959D01*
X108445641Y-108313952D01*
X108237047Y-108105358D01*
X108237040Y-108105352D01*
X108002993Y-107925761D01*
X107747510Y-107778258D01*
X107747500Y-107778254D01*
X107474961Y-107665364D01*
X107474954Y-107665362D01*
X107474952Y-107665361D01*
X107189993Y-107589007D01*
X107189987Y-107589006D01*
X107189982Y-107589005D01*
X107079339Y-107574439D01*
X107015442Y-107546172D01*
X106976971Y-107487848D01*
X106976140Y-107417983D01*
X107013212Y-107358760D01*
X107076418Y-107328981D01*
X107079339Y-107328561D01*
X107189993Y-107313993D01*
X107474952Y-107237639D01*
X107747507Y-107124743D01*
X108002994Y-106977238D01*
X108237042Y-106797646D01*
X108445646Y-106589042D01*
X108625238Y-106354994D01*
X108772743Y-106099507D01*
X108885639Y-105826952D01*
X108961993Y-105541993D01*
X109000500Y-105249506D01*
X109000500Y-104954494D01*
X108961993Y-104662007D01*
X108885639Y-104377048D01*
X108772743Y-104104493D01*
X108625238Y-103849006D01*
X108445646Y-103614958D01*
X108445641Y-103614952D01*
X108237047Y-103406358D01*
X108237040Y-103406352D01*
X108002993Y-103226761D01*
X107747510Y-103079258D01*
X107747500Y-103079254D01*
X107474961Y-102966364D01*
X107474954Y-102966362D01*
X107474952Y-102966361D01*
X107189993Y-102890007D01*
X107141113Y-102883571D01*
X106897513Y-102851500D01*
X106897506Y-102851500D01*
X106602494Y-102851500D01*
X106602486Y-102851500D01*
X106324085Y-102888153D01*
X106310007Y-102890007D01*
X106025048Y-102966361D01*
X106025038Y-102966364D01*
X105752499Y-103079254D01*
X105752489Y-103079258D01*
X105497006Y-103226761D01*
X105262959Y-103406352D01*
X105262952Y-103406358D01*
X105054358Y-103614952D01*
X105054352Y-103614959D01*
X104874761Y-103849006D01*
X104727258Y-104104489D01*
X104727254Y-104104499D01*
X104614364Y-104377038D01*
X104614361Y-104377048D01*
X104538008Y-104662004D01*
X104538006Y-104662015D01*
X104499500Y-104954486D01*
X35000500Y-104954486D01*
X35000500Y-91561888D01*
X75774300Y-91561888D01*
X75774300Y-91859711D01*
X75807641Y-92155628D01*
X75807644Y-92155642D01*
X75873913Y-92445988D01*
X75972273Y-92727085D01*
X76101486Y-92995399D01*
X76101488Y-92995402D01*
X76259933Y-93247565D01*
X76445615Y-93480402D01*
X76656198Y-93690985D01*
X76889035Y-93876667D01*
X77141198Y-94035112D01*
X77409516Y-94164327D01*
X77690611Y-94262686D01*
X77690613Y-94262686D01*
X77690614Y-94262687D01*
X77980957Y-94328956D01*
X77980966Y-94328957D01*
X77980971Y-94328958D01*
X78178249Y-94351185D01*
X78276889Y-94362299D01*
X78276892Y-94362300D01*
X78276895Y-94362300D01*
X78574708Y-94362300D01*
X78574709Y-94362299D01*
X78725949Y-94345258D01*
X78870628Y-94328958D01*
X78870631Y-94328957D01*
X78870643Y-94328956D01*
X79160986Y-94262687D01*
X79442084Y-94164327D01*
X79710402Y-94035112D01*
X79962565Y-93876667D01*
X80195402Y-93690985D01*
X80405985Y-93480402D01*
X80591667Y-93247565D01*
X80750112Y-92995402D01*
X80879327Y-92727084D01*
X80977687Y-92445986D01*
X81043956Y-92155643D01*
X81046266Y-92135146D01*
X81077299Y-91859711D01*
X81077300Y-91859707D01*
X81077300Y-91561892D01*
X81077299Y-91561888D01*
X81075656Y-91547309D01*
X81043956Y-91265957D01*
X80977687Y-90975614D01*
X80879327Y-90694516D01*
X80750112Y-90426198D01*
X80591667Y-90174035D01*
X80405985Y-89941198D01*
X80195402Y-89730615D01*
X79962565Y-89544933D01*
X79710402Y-89386488D01*
X79710399Y-89386486D01*
X79442085Y-89257273D01*
X79160987Y-89158913D01*
X79160989Y-89158913D01*
X78943228Y-89109211D01*
X78870643Y-89092644D01*
X78870640Y-89092643D01*
X78870628Y-89092641D01*
X78574711Y-89059300D01*
X78574705Y-89059300D01*
X78276895Y-89059300D01*
X78276888Y-89059300D01*
X77980971Y-89092641D01*
X77980957Y-89092644D01*
X77690611Y-89158913D01*
X77409514Y-89257273D01*
X77141200Y-89386486D01*
X76889036Y-89544932D01*
X76656198Y-89730614D01*
X76445614Y-89941198D01*
X76259932Y-90174036D01*
X76101486Y-90426200D01*
X75972273Y-90694514D01*
X75873913Y-90975611D01*
X75807644Y-91265957D01*
X75807641Y-91265971D01*
X75774300Y-91561888D01*
X35000500Y-91561888D01*
X35000500Y-72531491D01*
X42624500Y-72531491D01*
X42624500Y-72868508D01*
X42662231Y-73203381D01*
X42662233Y-73203397D01*
X42737223Y-73531953D01*
X42737227Y-73531965D01*
X42848532Y-73850054D01*
X42994752Y-74153683D01*
X42994754Y-74153686D01*
X43174054Y-74439039D01*
X43384175Y-74702523D01*
X43622477Y-74940825D01*
X43885961Y-75150946D01*
X44171314Y-75330246D01*
X44474949Y-75476469D01*
X44713848Y-75560063D01*
X44793034Y-75587772D01*
X44793046Y-75587776D01*
X45121606Y-75662767D01*
X45456492Y-75700499D01*
X45456493Y-75700500D01*
X45456496Y-75700500D01*
X45793507Y-75700500D01*
X45793507Y-75700499D01*
X46128394Y-75662767D01*
X46456954Y-75587776D01*
X46775051Y-75476469D01*
X47078686Y-75330246D01*
X47364039Y-75150946D01*
X47627523Y-74940825D01*
X47865825Y-74702523D01*
X48075946Y-74439039D01*
X48255246Y-74153686D01*
X48401469Y-73850051D01*
X48512776Y-73531954D01*
X48587767Y-73203394D01*
X48625500Y-72868504D01*
X48625500Y-72531496D01*
X48587767Y-72196606D01*
X48512776Y-71868046D01*
X48505470Y-71847168D01*
X48469768Y-71745137D01*
X48401469Y-71549949D01*
X48255246Y-71246314D01*
X48075946Y-70960961D01*
X47865825Y-70697477D01*
X47627523Y-70459175D01*
X47364039Y-70249054D01*
X47122372Y-70097204D01*
X47078683Y-70069752D01*
X46775054Y-69923532D01*
X46456965Y-69812227D01*
X46456953Y-69812223D01*
X46128397Y-69737233D01*
X46128381Y-69737231D01*
X45793508Y-69699500D01*
X45793504Y-69699500D01*
X45456496Y-69699500D01*
X45456491Y-69699500D01*
X45121618Y-69737231D01*
X45121602Y-69737233D01*
X44793046Y-69812223D01*
X44793034Y-69812227D01*
X44474945Y-69923532D01*
X44171316Y-70069752D01*
X43885962Y-70249053D01*
X43622477Y-70459174D01*
X43384174Y-70697477D01*
X43174053Y-70960962D01*
X42994752Y-71246316D01*
X42848532Y-71549945D01*
X42737227Y-71868034D01*
X42737223Y-71868046D01*
X42662233Y-72196602D01*
X42662231Y-72196618D01*
X42624500Y-72531491D01*
X35000500Y-72531491D01*
X35000500Y-56545528D01*
X190849500Y-56545528D01*
X190849500Y-56854471D01*
X190884086Y-57161437D01*
X190884089Y-57161455D01*
X190952831Y-57462635D01*
X190952835Y-57462647D01*
X191054862Y-57754222D01*
X191054868Y-57754236D01*
X191188903Y-58032562D01*
X191188905Y-58032565D01*
X191353265Y-58294143D01*
X191545880Y-58535674D01*
X191764326Y-58754120D01*
X192005857Y-58946735D01*
X192267435Y-59111095D01*
X192545771Y-59245135D01*
X192559677Y-59250001D01*
X192837352Y-59347164D01*
X192837364Y-59347168D01*
X193138548Y-59415911D01*
X193138554Y-59415911D01*
X193138562Y-59415913D01*
X193343206Y-59438970D01*
X193445529Y-59450499D01*
X193445532Y-59450500D01*
X193445535Y-59450500D01*
X193754468Y-59450500D01*
X193754469Y-59450499D01*
X193911356Y-59432822D01*
X194061437Y-59415913D01*
X194061442Y-59415912D01*
X194061452Y-59415911D01*
X194362636Y-59347168D01*
X194654229Y-59245135D01*
X194932565Y-59111095D01*
X195194143Y-58946735D01*
X195435674Y-58754120D01*
X195654120Y-58535674D01*
X195846735Y-58294143D01*
X196011095Y-58032565D01*
X196145135Y-57754229D01*
X196247168Y-57462636D01*
X196315911Y-57161452D01*
X196350500Y-56854465D01*
X196350500Y-56545535D01*
X196315911Y-56238548D01*
X196247168Y-55937364D01*
X196233101Y-55897164D01*
X196145137Y-55645777D01*
X196145135Y-55645771D01*
X196011095Y-55367435D01*
X195846735Y-55105857D01*
X195654120Y-54864326D01*
X195435674Y-54645880D01*
X195194143Y-54453265D01*
X194932565Y-54288905D01*
X194932562Y-54288903D01*
X194654236Y-54154868D01*
X194654222Y-54154862D01*
X194362647Y-54052835D01*
X194362635Y-54052831D01*
X194061455Y-53984089D01*
X194061437Y-53984086D01*
X193754471Y-53949500D01*
X193754465Y-53949500D01*
X193445535Y-53949500D01*
X193445528Y-53949500D01*
X193138562Y-53984086D01*
X193138544Y-53984089D01*
X192837364Y-54052831D01*
X192837352Y-54052835D01*
X192545777Y-54154862D01*
X192545763Y-54154868D01*
X192267437Y-54288903D01*
X192005858Y-54453264D01*
X191764326Y-54645879D01*
X191545879Y-54864326D01*
X191353264Y-55105858D01*
X191188903Y-55367437D01*
X191054868Y-55645763D01*
X191054862Y-55645777D01*
X190952835Y-55937352D01*
X190952831Y-55937364D01*
X190884089Y-56238544D01*
X190884086Y-56238562D01*
X190849500Y-56545528D01*
X35000500Y-56545528D01*
X35000500Y-50374613D01*
X35020185Y-50307574D01*
X35072989Y-50261819D01*
X35124609Y-50250613D01*
X38123322Y-50253332D01*
G37*
%TD.AperFunction*%
%TA.AperFunction,Conductor*%
G36*
X55259480Y-60770185D02*
G01*
X55305235Y-60822989D01*
X55315179Y-60892147D01*
X55286154Y-60955703D01*
X55257538Y-60980039D01*
X55131654Y-61057684D01*
X55007684Y-61181654D01*
X54915643Y-61330875D01*
X54915641Y-61330880D01*
X54860494Y-61497302D01*
X54860493Y-61497309D01*
X54850000Y-61600013D01*
X54850000Y-61950000D01*
X59349999Y-61950000D01*
X59349999Y-61600028D01*
X59349998Y-61600013D01*
X59339505Y-61497302D01*
X59284358Y-61330880D01*
X59284356Y-61330875D01*
X59192315Y-61181654D01*
X59068345Y-61057684D01*
X58942462Y-60980039D01*
X58895738Y-60928091D01*
X58884515Y-60859128D01*
X58912359Y-60795046D01*
X58970427Y-60756190D01*
X59007559Y-60750500D01*
X115375500Y-60750500D01*
X115442539Y-60770185D01*
X115488294Y-60822989D01*
X115499500Y-60874500D01*
X115499500Y-78675500D01*
X115479815Y-78742539D01*
X115427011Y-78788294D01*
X115375500Y-78799500D01*
X111167535Y-78799500D01*
X111100496Y-78779815D01*
X111054741Y-78727011D01*
X111044177Y-78688102D01*
X111043663Y-78683071D01*
X111039999Y-78647203D01*
X110984814Y-78480666D01*
X110892712Y-78331344D01*
X110768656Y-78207288D01*
X110619334Y-78115186D01*
X110452797Y-78060001D01*
X110452795Y-78060000D01*
X110350010Y-78049500D01*
X109149998Y-78049500D01*
X109149981Y-78049501D01*
X109047203Y-78060000D01*
X109047200Y-78060001D01*
X108880668Y-78115185D01*
X108880663Y-78115187D01*
X108731342Y-78207289D01*
X108607289Y-78331342D01*
X108515187Y-78480663D01*
X108515185Y-78480668D01*
X108507953Y-78502493D01*
X108460001Y-78647203D01*
X108460001Y-78647204D01*
X108460000Y-78647204D01*
X108449500Y-78749983D01*
X108449500Y-79517468D01*
X108435985Y-79573763D01*
X108359434Y-79724003D01*
X108286446Y-79948631D01*
X108249500Y-80181902D01*
X108249500Y-80418097D01*
X108286446Y-80651368D01*
X108359433Y-80875996D01*
X108435985Y-81026236D01*
X108449500Y-81082531D01*
X108449500Y-81850001D01*
X108449501Y-81850019D01*
X108460000Y-81952796D01*
X108460001Y-81952799D01*
X108515185Y-82119331D01*
X108515186Y-82119334D01*
X108607288Y-82268656D01*
X108731344Y-82392712D01*
X108880666Y-82484814D01*
X109047203Y-82539999D01*
X109149991Y-82550500D01*
X110350008Y-82550499D01*
X110452797Y-82539999D01*
X110619334Y-82484814D01*
X110768656Y-82392712D01*
X110892712Y-82268656D01*
X110984814Y-82119334D01*
X111039999Y-81952797D01*
X111044177Y-81911896D01*
X111070573Y-81847207D01*
X111127753Y-81807055D01*
X111167535Y-81800500D01*
X116818097Y-81800500D01*
X116947689Y-81779973D01*
X117051368Y-81763553D01*
X117066077Y-81758773D01*
X117072866Y-81756568D01*
X117111183Y-81750499D01*
X117550002Y-81750499D01*
X117550008Y-81750499D01*
X117652797Y-81739999D01*
X117819334Y-81684814D01*
X117968656Y-81592712D01*
X118092712Y-81468656D01*
X118184814Y-81319334D01*
X118239999Y-81152797D01*
X118250500Y-81050009D01*
X118250499Y-80871929D01*
X118270183Y-80804890D01*
X118274183Y-80799041D01*
X118283342Y-80786435D01*
X118300381Y-80752994D01*
X118390568Y-80575992D01*
X118416069Y-80497507D01*
X118428852Y-80458166D01*
X118441873Y-80418092D01*
X118463553Y-80351368D01*
X118490394Y-80181902D01*
X118500500Y-80118097D01*
X118500500Y-78374500D01*
X118520185Y-78307461D01*
X118572989Y-78261706D01*
X118624500Y-78250500D01*
X129284218Y-78250500D01*
X129351257Y-78270185D01*
X129371899Y-78286819D01*
X132213181Y-81128101D01*
X132246666Y-81189424D01*
X132249500Y-81215782D01*
X132249500Y-108848544D01*
X132287947Y-109041828D01*
X132287950Y-109041840D01*
X132302120Y-109076048D01*
X132363366Y-109223911D01*
X132363371Y-109223920D01*
X132472859Y-109387780D01*
X132472860Y-109387781D01*
X132472861Y-109387782D01*
X132612218Y-109527139D01*
X132612219Y-109527139D01*
X132619286Y-109534206D01*
X132619285Y-109534206D01*
X132619289Y-109534209D01*
X145063181Y-121978101D01*
X145096666Y-122039424D01*
X145099500Y-122065782D01*
X145099500Y-124988769D01*
X145079815Y-125055808D01*
X145027011Y-125101563D01*
X144957853Y-125111507D01*
X144894297Y-125082482D01*
X144887819Y-125076450D01*
X144179421Y-124368052D01*
X144179414Y-124368046D01*
X144105729Y-124318812D01*
X144105729Y-124318813D01*
X144056491Y-124285913D01*
X143919917Y-124229343D01*
X143919907Y-124229340D01*
X143774920Y-124200500D01*
X143774918Y-124200500D01*
X141506273Y-124200500D01*
X141439234Y-124180815D01*
X141393479Y-124128011D01*
X141383535Y-124058853D01*
X141412560Y-123995297D01*
X141428960Y-123979553D01*
X141444853Y-123966877D01*
X141477523Y-123940825D01*
X141715825Y-123702523D01*
X141925946Y-123439039D01*
X142105246Y-123153686D01*
X142251469Y-122850051D01*
X142362776Y-122531954D01*
X142437767Y-122203394D01*
X142475500Y-121868504D01*
X142475500Y-121531496D01*
X142437767Y-121196606D01*
X142362776Y-120868046D01*
X142346965Y-120822862D01*
X142277647Y-120624762D01*
X142251469Y-120549949D01*
X142105246Y-120246314D01*
X141925946Y-119960961D01*
X141715825Y-119697477D01*
X141477523Y-119459175D01*
X141214039Y-119249054D01*
X140928686Y-119069754D01*
X140928683Y-119069752D01*
X140625054Y-118923532D01*
X140306965Y-118812227D01*
X140306953Y-118812223D01*
X139978397Y-118737233D01*
X139978381Y-118737231D01*
X139643508Y-118699500D01*
X139643504Y-118699500D01*
X139306496Y-118699500D01*
X139306491Y-118699500D01*
X138971618Y-118737231D01*
X138971602Y-118737233D01*
X138643046Y-118812223D01*
X138643034Y-118812227D01*
X138324945Y-118923532D01*
X138021316Y-119069752D01*
X137735962Y-119249053D01*
X137472477Y-119459174D01*
X137234174Y-119697477D01*
X137024053Y-119960962D01*
X136844752Y-120246316D01*
X136698532Y-120549945D01*
X136587227Y-120868034D01*
X136587223Y-120868046D01*
X136512233Y-121196602D01*
X136512231Y-121196618D01*
X136474500Y-121531491D01*
X136474500Y-121868508D01*
X136512231Y-122203381D01*
X136512233Y-122203397D01*
X136587223Y-122531953D01*
X136587227Y-122531965D01*
X136673638Y-122778912D01*
X136677200Y-122848691D01*
X136642472Y-122909318D01*
X136580478Y-122941546D01*
X136510903Y-122935141D01*
X136468916Y-122907548D01*
X126656896Y-113095528D01*
X128999500Y-113095528D01*
X128999500Y-113404471D01*
X129034086Y-113711437D01*
X129034089Y-113711455D01*
X129102831Y-114012635D01*
X129102835Y-114012647D01*
X129204862Y-114304222D01*
X129204868Y-114304236D01*
X129338903Y-114582562D01*
X129338905Y-114582565D01*
X129503265Y-114844143D01*
X129695880Y-115085674D01*
X129914326Y-115304120D01*
X130155857Y-115496735D01*
X130417435Y-115661095D01*
X130695771Y-115795135D01*
X130695777Y-115795137D01*
X130987352Y-115897164D01*
X130987364Y-115897168D01*
X131288548Y-115965911D01*
X131288554Y-115965911D01*
X131288562Y-115965913D01*
X131493206Y-115988970D01*
X131595529Y-116000499D01*
X131595532Y-116000500D01*
X131595535Y-116000500D01*
X131904468Y-116000500D01*
X131904469Y-116000499D01*
X132061356Y-115982822D01*
X132211437Y-115965913D01*
X132211442Y-115965912D01*
X132211452Y-115965911D01*
X132512636Y-115897168D01*
X132804229Y-115795135D01*
X133082565Y-115661095D01*
X133344143Y-115496735D01*
X133585674Y-115304120D01*
X133804120Y-115085674D01*
X133996735Y-114844143D01*
X134161095Y-114582565D01*
X134295135Y-114304229D01*
X134397168Y-114012636D01*
X134465911Y-113711452D01*
X134500500Y-113404465D01*
X134500500Y-113095535D01*
X134465911Y-112788548D01*
X134397168Y-112487364D01*
X134363957Y-112392454D01*
X134316178Y-112255908D01*
X134295135Y-112195771D01*
X134161095Y-111917435D01*
X133996735Y-111655857D01*
X133804120Y-111414326D01*
X133585674Y-111195880D01*
X133344143Y-111003265D01*
X133082565Y-110838905D01*
X133082562Y-110838903D01*
X132804236Y-110704868D01*
X132804222Y-110704862D01*
X132512647Y-110602835D01*
X132512635Y-110602831D01*
X132211455Y-110534089D01*
X132211437Y-110534086D01*
X131904471Y-110499500D01*
X131904465Y-110499500D01*
X131595535Y-110499500D01*
X131595528Y-110499500D01*
X131288562Y-110534086D01*
X131288544Y-110534089D01*
X130987364Y-110602831D01*
X130987352Y-110602835D01*
X130695777Y-110704862D01*
X130695763Y-110704868D01*
X130417437Y-110838903D01*
X130155858Y-111003264D01*
X129914326Y-111195879D01*
X129695879Y-111414326D01*
X129503264Y-111655858D01*
X129338903Y-111917437D01*
X129204868Y-112195763D01*
X129204862Y-112195777D01*
X129102835Y-112487352D01*
X129102831Y-112487364D01*
X129034089Y-112788544D01*
X129034086Y-112788562D01*
X128999500Y-113095528D01*
X126656896Y-113095528D01*
X111930240Y-98368872D01*
X114999500Y-98368872D01*
X114999500Y-98631127D01*
X115026123Y-98833339D01*
X115033730Y-98891116D01*
X115033798Y-98891368D01*
X115101602Y-99144418D01*
X115101605Y-99144428D01*
X115201953Y-99386690D01*
X115201958Y-99386700D01*
X115333075Y-99613803D01*
X115492718Y-99821851D01*
X115492726Y-99821860D01*
X115678140Y-100007274D01*
X115678148Y-100007281D01*
X115886196Y-100166924D01*
X116113299Y-100298041D01*
X116113309Y-100298046D01*
X116355571Y-100398394D01*
X116355581Y-100398398D01*
X116608884Y-100466270D01*
X116868880Y-100500500D01*
X116868887Y-100500500D01*
X117131113Y-100500500D01*
X117131120Y-100500500D01*
X117391116Y-100466270D01*
X117644419Y-100398398D01*
X117886697Y-100298043D01*
X118113803Y-100166924D01*
X118321851Y-100007282D01*
X118321855Y-100007277D01*
X118321860Y-100007274D01*
X118507274Y-99821860D01*
X118507277Y-99821855D01*
X118507282Y-99821851D01*
X118666924Y-99613803D01*
X118798043Y-99386697D01*
X118898398Y-99144419D01*
X118966270Y-98891116D01*
X119000500Y-98631120D01*
X119000500Y-98368880D01*
X118966270Y-98108884D01*
X118898398Y-97855581D01*
X118898394Y-97855571D01*
X118798046Y-97613309D01*
X118798041Y-97613299D01*
X118666927Y-97386201D01*
X118644939Y-97357546D01*
X118526123Y-97202703D01*
X118500930Y-97137536D01*
X118500500Y-97127218D01*
X118500500Y-92881902D01*
X118463553Y-92648631D01*
X118449395Y-92605059D01*
X118390568Y-92424008D01*
X118377638Y-92398632D01*
X118283343Y-92213566D01*
X118269045Y-92193887D01*
X118264949Y-92186162D01*
X118259622Y-92160151D01*
X118250701Y-92135146D01*
X118250499Y-92128069D01*
X118250499Y-91811849D01*
X118250498Y-91811824D01*
X118247709Y-91776379D01*
X118247709Y-91776373D01*
X118203618Y-91624610D01*
X118123170Y-91488580D01*
X118123168Y-91488578D01*
X118123165Y-91488574D01*
X118011425Y-91376834D01*
X118011416Y-91376827D01*
X117875390Y-91296382D01*
X117875385Y-91296380D01*
X117723633Y-91252292D01*
X117723620Y-91252290D01*
X117688170Y-91249500D01*
X117688163Y-91249500D01*
X116868094Y-91249500D01*
X116868092Y-91249500D01*
X116631908Y-91249500D01*
X116631904Y-91249500D01*
X115811849Y-91249500D01*
X115811824Y-91249501D01*
X115776372Y-91252291D01*
X115624614Y-91296380D01*
X115624609Y-91296382D01*
X115488583Y-91376827D01*
X115488574Y-91376834D01*
X115376834Y-91488574D01*
X115376827Y-91488583D01*
X115296382Y-91624609D01*
X115296380Y-91624614D01*
X115252292Y-91776366D01*
X115252290Y-91776379D01*
X115249500Y-91811829D01*
X115249500Y-93688150D01*
X115249501Y-93688175D01*
X115252291Y-93723627D01*
X115296380Y-93875385D01*
X115296382Y-93875390D01*
X115376827Y-94011416D01*
X115376834Y-94011425D01*
X115463181Y-94097772D01*
X115496666Y-94159095D01*
X115499500Y-94185453D01*
X115499500Y-97127218D01*
X115479815Y-97194257D01*
X115473882Y-97202695D01*
X115443469Y-97242331D01*
X115333072Y-97386201D01*
X115201958Y-97613299D01*
X115201953Y-97613309D01*
X115101605Y-97855571D01*
X115101602Y-97855581D01*
X115033730Y-98108885D01*
X114999500Y-98368872D01*
X111930240Y-98368872D01*
X109036819Y-95475451D01*
X109003334Y-95414128D01*
X109000500Y-95387770D01*
X109000500Y-89635793D01*
X120750000Y-89635793D01*
X120756348Y-89727261D01*
X120756349Y-89727270D01*
X120806733Y-89941485D01*
X120806735Y-89941491D01*
X120895629Y-90142817D01*
X121020001Y-90324379D01*
X121020006Y-90324385D01*
X121175614Y-90479993D01*
X121175620Y-90479998D01*
X121357182Y-90604370D01*
X121558508Y-90693264D01*
X121558514Y-90693266D01*
X121772729Y-90743650D01*
X121772738Y-90743651D01*
X121864206Y-90750000D01*
X125000000Y-90750000D01*
X125500000Y-90750000D01*
X128635794Y-90750000D01*
X128727261Y-90743651D01*
X128727270Y-90743650D01*
X128941485Y-90693266D01*
X128941491Y-90693264D01*
X129142817Y-90604370D01*
X129324379Y-90479998D01*
X129324385Y-90479993D01*
X129479993Y-90324385D01*
X129479998Y-90324379D01*
X129604370Y-90142817D01*
X129693264Y-89941491D01*
X129693266Y-89941485D01*
X129743650Y-89727270D01*
X129743651Y-89727261D01*
X129750000Y-89635793D01*
X129750000Y-87750000D01*
X125500000Y-87750000D01*
X125500000Y-90750000D01*
X125000000Y-90750000D01*
X125000000Y-87750000D01*
X120750000Y-87750000D01*
X120750000Y-89635793D01*
X109000500Y-89635793D01*
X109000500Y-88926079D01*
X108971659Y-88781092D01*
X108971658Y-88781091D01*
X108971658Y-88781087D01*
X108945407Y-88717712D01*
X108915085Y-88644507D01*
X108915084Y-88644505D01*
X108881108Y-88593656D01*
X108881107Y-88593654D01*
X108881106Y-88593652D01*
X108851930Y-88549986D01*
X115250001Y-88549986D01*
X115260494Y-88652697D01*
X115315641Y-88819119D01*
X115315643Y-88819124D01*
X115407684Y-88968345D01*
X115531654Y-89092315D01*
X115680875Y-89184356D01*
X115680880Y-89184358D01*
X115847302Y-89239505D01*
X115847309Y-89239506D01*
X115950019Y-89249999D01*
X116499999Y-89249999D01*
X117000000Y-89249999D01*
X117549972Y-89249999D01*
X117549986Y-89249998D01*
X117652697Y-89239505D01*
X117819119Y-89184358D01*
X117819124Y-89184356D01*
X117968345Y-89092315D01*
X118092315Y-88968345D01*
X118184356Y-88819124D01*
X118184358Y-88819119D01*
X118239505Y-88652697D01*
X118239506Y-88652690D01*
X118249999Y-88549986D01*
X118250000Y-88549973D01*
X118250000Y-86750000D01*
X117000000Y-86750000D01*
X117000000Y-89249999D01*
X116499999Y-89249999D01*
X116500000Y-89249998D01*
X116500000Y-86750000D01*
X115250001Y-86750000D01*
X115250001Y-88549986D01*
X108851930Y-88549986D01*
X108832953Y-88521585D01*
X108832947Y-88521578D01*
X107561355Y-87249986D01*
X108450001Y-87249986D01*
X108460494Y-87352697D01*
X108515641Y-87519119D01*
X108515643Y-87519124D01*
X108607684Y-87668345D01*
X108731654Y-87792315D01*
X108880875Y-87884356D01*
X108880880Y-87884358D01*
X109047302Y-87939505D01*
X109047309Y-87939506D01*
X109150019Y-87949999D01*
X109499999Y-87949999D01*
X110000000Y-87949999D01*
X110349972Y-87949999D01*
X110349986Y-87949998D01*
X110452697Y-87939505D01*
X110619119Y-87884358D01*
X110619124Y-87884356D01*
X110768345Y-87792315D01*
X110892315Y-87668345D01*
X110984356Y-87519124D01*
X110984358Y-87519119D01*
X111039505Y-87352697D01*
X111039506Y-87352690D01*
X111049999Y-87249986D01*
X111050000Y-87249973D01*
X111050000Y-85950000D01*
X110000000Y-85950000D01*
X110000000Y-87949999D01*
X109499999Y-87949999D01*
X109500000Y-87949998D01*
X109500000Y-85950000D01*
X108450001Y-85950000D01*
X108450001Y-87249986D01*
X107561355Y-87249986D01*
X104461382Y-84150013D01*
X108450000Y-84150013D01*
X108450000Y-85450000D01*
X109500000Y-85450000D01*
X110000000Y-85450000D01*
X111049999Y-85450000D01*
X111049999Y-84450013D01*
X115250000Y-84450013D01*
X115250000Y-86250000D01*
X116500000Y-86250000D01*
X117000000Y-86250000D01*
X118249999Y-86250000D01*
X118249999Y-85364206D01*
X120750000Y-85364206D01*
X120750000Y-87250000D01*
X125000000Y-87250000D01*
X125500000Y-87250000D01*
X129750000Y-87250000D01*
X129750000Y-85364206D01*
X129743651Y-85272738D01*
X129743650Y-85272729D01*
X129693266Y-85058514D01*
X129693264Y-85058508D01*
X129604370Y-84857182D01*
X129479998Y-84675620D01*
X129479993Y-84675614D01*
X129324385Y-84520006D01*
X129324379Y-84520001D01*
X129142817Y-84395629D01*
X128941491Y-84306735D01*
X128941485Y-84306733D01*
X128727270Y-84256349D01*
X128727261Y-84256348D01*
X128635794Y-84250000D01*
X125500000Y-84250000D01*
X125500000Y-87250000D01*
X125000000Y-87250000D01*
X125000000Y-84250000D01*
X121864206Y-84250000D01*
X121772738Y-84256348D01*
X121772729Y-84256349D01*
X121558514Y-84306733D01*
X121558508Y-84306735D01*
X121357182Y-84395629D01*
X121175620Y-84520001D01*
X121175614Y-84520006D01*
X121020006Y-84675614D01*
X121020001Y-84675620D01*
X120895629Y-84857182D01*
X120806735Y-85058508D01*
X120806733Y-85058514D01*
X120756349Y-85272729D01*
X120756348Y-85272738D01*
X120750000Y-85364206D01*
X118249999Y-85364206D01*
X118249999Y-84450028D01*
X118249998Y-84450013D01*
X118239505Y-84347302D01*
X118184358Y-84180880D01*
X118184356Y-84180875D01*
X118092315Y-84031654D01*
X117968345Y-83907684D01*
X117819124Y-83815643D01*
X117819119Y-83815641D01*
X117652697Y-83760494D01*
X117652690Y-83760493D01*
X117549986Y-83750000D01*
X117000000Y-83750000D01*
X117000000Y-86250000D01*
X116500000Y-86250000D01*
X116500000Y-83750000D01*
X115950028Y-83750000D01*
X115950012Y-83750001D01*
X115847302Y-83760494D01*
X115680880Y-83815641D01*
X115680875Y-83815643D01*
X115531654Y-83907684D01*
X115407684Y-84031654D01*
X115315643Y-84180875D01*
X115315641Y-84180880D01*
X115260494Y-84347302D01*
X115260493Y-84347309D01*
X115250000Y-84450013D01*
X111049999Y-84450013D01*
X111049999Y-84150028D01*
X111049998Y-84150013D01*
X111039505Y-84047302D01*
X110984358Y-83880880D01*
X110984356Y-83880875D01*
X110892315Y-83731654D01*
X110768345Y-83607684D01*
X110619124Y-83515643D01*
X110619119Y-83515641D01*
X110452697Y-83460494D01*
X110452690Y-83460493D01*
X110349986Y-83450000D01*
X110000000Y-83450000D01*
X110000000Y-85450000D01*
X109500000Y-85450000D01*
X109500000Y-83450000D01*
X109150028Y-83450000D01*
X109150012Y-83450001D01*
X109047302Y-83460494D01*
X108880880Y-83515641D01*
X108880875Y-83515643D01*
X108731654Y-83607684D01*
X108607684Y-83731654D01*
X108515643Y-83880875D01*
X108515641Y-83880880D01*
X108460494Y-84047302D01*
X108460493Y-84047309D01*
X108450000Y-84150013D01*
X104461382Y-84150013D01*
X95599379Y-75288010D01*
X95597411Y-75284406D01*
X95593941Y-75282212D01*
X95580805Y-75253995D01*
X95565894Y-75226687D01*
X95566186Y-75222592D01*
X95564454Y-75218870D01*
X95568658Y-75188035D01*
X95570878Y-75156995D01*
X95573497Y-75152543D01*
X95573893Y-75149641D01*
X95582888Y-75136584D01*
X95592758Y-75119811D01*
X95595925Y-75116101D01*
X95629517Y-75082510D01*
X95657545Y-75043932D01*
X95660698Y-75040240D01*
X95686040Y-75023691D01*
X95710011Y-75005207D01*
X95715004Y-75004778D01*
X95719199Y-75002039D01*
X95749463Y-75001818D01*
X95779625Y-74999228D01*
X95784057Y-75001566D01*
X95789067Y-75001530D01*
X95814644Y-75017705D01*
X95841420Y-75031833D01*
X95846797Y-75038039D01*
X95848119Y-75038875D01*
X95848812Y-75040364D01*
X95855315Y-75047870D01*
X95880483Y-75082510D01*
X96047490Y-75249517D01*
X96238567Y-75388343D01*
X96337991Y-75439002D01*
X96449003Y-75495566D01*
X96449005Y-75495566D01*
X96449008Y-75495568D01*
X96569412Y-75534689D01*
X96673631Y-75568553D01*
X96906903Y-75605500D01*
X96906908Y-75605500D01*
X97143097Y-75605500D01*
X97376368Y-75568553D01*
X97396687Y-75561951D01*
X97600992Y-75495568D01*
X97811433Y-75388343D01*
X98002510Y-75249517D01*
X98169517Y-75082510D01*
X98216370Y-75018022D01*
X98220713Y-75013199D01*
X98245150Y-74998142D01*
X98267877Y-74980618D01*
X98275393Y-74979509D01*
X98280199Y-74976549D01*
X98293730Y-74976806D01*
X98322594Y-74972551D01*
X98342340Y-74974105D01*
X99082037Y-74234408D01*
X99099075Y-74297993D01*
X99164901Y-74412007D01*
X99257993Y-74505099D01*
X99372007Y-74570925D01*
X99435590Y-74587962D01*
X98695893Y-75327658D01*
X98778828Y-75387914D01*
X98989197Y-75495102D01*
X99213752Y-75568065D01*
X99213751Y-75568065D01*
X99446948Y-75605000D01*
X99683052Y-75605000D01*
X99916247Y-75568065D01*
X100140802Y-75495102D01*
X100351163Y-75387918D01*
X100351169Y-75387914D01*
X100434104Y-75327658D01*
X100434105Y-75327658D01*
X99694408Y-74587962D01*
X99757993Y-74570925D01*
X99872007Y-74505099D01*
X99965099Y-74412007D01*
X100030925Y-74297993D01*
X100047962Y-74234409D01*
X100787658Y-74974105D01*
X100787658Y-74974104D01*
X100847914Y-74891169D01*
X100847918Y-74891163D01*
X100955102Y-74680802D01*
X101028065Y-74456247D01*
X101065000Y-74223052D01*
X101065000Y-73986947D01*
X101028065Y-73753752D01*
X100955102Y-73529197D01*
X100847914Y-73318828D01*
X100787658Y-73235894D01*
X100787658Y-73235893D01*
X100047962Y-73975590D01*
X100030925Y-73912007D01*
X99965099Y-73797993D01*
X99872007Y-73704901D01*
X99757993Y-73639075D01*
X99694409Y-73622037D01*
X100434105Y-72882340D01*
X100432551Y-72862594D01*
X100446915Y-72794216D01*
X100483284Y-72752547D01*
X100542510Y-72709517D01*
X100709517Y-72542510D01*
X100848343Y-72351433D01*
X100955568Y-72140992D01*
X101028553Y-71916368D01*
X101035579Y-71872007D01*
X101065500Y-71683097D01*
X101065500Y-71446902D01*
X101028553Y-71213631D01*
X100955566Y-70989003D01*
X100848342Y-70778566D01*
X100834999Y-70760201D01*
X100709517Y-70587490D01*
X100542510Y-70420483D01*
X100351433Y-70281657D01*
X100140996Y-70174433D01*
X99916368Y-70101446D01*
X99683097Y-70064500D01*
X99683092Y-70064500D01*
X99446908Y-70064500D01*
X99446903Y-70064500D01*
X99213631Y-70101446D01*
X98989003Y-70174433D01*
X98778566Y-70281657D01*
X98695047Y-70342338D01*
X98587490Y-70420483D01*
X98587488Y-70420485D01*
X98587487Y-70420485D01*
X98420484Y-70587488D01*
X98395318Y-70622127D01*
X98339987Y-70664792D01*
X98270374Y-70670771D01*
X98208579Y-70638165D01*
X98194682Y-70622127D01*
X98169517Y-70587490D01*
X98002510Y-70420483D01*
X97811433Y-70281657D01*
X97600996Y-70174433D01*
X97376368Y-70101446D01*
X97143097Y-70064500D01*
X97143092Y-70064500D01*
X96906908Y-70064500D01*
X96906903Y-70064500D01*
X96673631Y-70101446D01*
X96449003Y-70174433D01*
X96238566Y-70281657D01*
X96155047Y-70342338D01*
X96047490Y-70420483D01*
X96047488Y-70420485D01*
X96047487Y-70420485D01*
X95880484Y-70587488D01*
X95855318Y-70622127D01*
X95799987Y-70664792D01*
X95730374Y-70670771D01*
X95668579Y-70638165D01*
X95654682Y-70622127D01*
X95629517Y-70587490D01*
X95462510Y-70420483D01*
X95271433Y-70281657D01*
X95060996Y-70174433D01*
X94836368Y-70101446D01*
X94603097Y-70064500D01*
X94603092Y-70064500D01*
X94366908Y-70064500D01*
X94366903Y-70064500D01*
X94133631Y-70101446D01*
X93909003Y-70174433D01*
X93698566Y-70281657D01*
X93615047Y-70342338D01*
X93507490Y-70420483D01*
X93507488Y-70420485D01*
X93507487Y-70420485D01*
X93340482Y-70587490D01*
X93297451Y-70646717D01*
X93242120Y-70689382D01*
X93187405Y-70697448D01*
X93167658Y-70695893D01*
X92427962Y-71435590D01*
X92410925Y-71372007D01*
X92345099Y-71257993D01*
X92252007Y-71164901D01*
X92137993Y-71099075D01*
X92074407Y-71082037D01*
X92814105Y-70342340D01*
X92814104Y-70342338D01*
X92731174Y-70282087D01*
X92520802Y-70174897D01*
X92296247Y-70101934D01*
X92296249Y-70101934D01*
X92219952Y-70089850D01*
X92156818Y-70059920D01*
X92119887Y-70000609D01*
X92120885Y-69930746D01*
X92151668Y-69879698D01*
X95244548Y-66786819D01*
X95305871Y-66753334D01*
X95332229Y-66750500D01*
X105127369Y-66750500D01*
X105194408Y-66770185D01*
X105227685Y-66801613D01*
X105355483Y-66977510D01*
X105522490Y-67144517D01*
X105713567Y-67283343D01*
X105812991Y-67334002D01*
X105924003Y-67390566D01*
X105924005Y-67390566D01*
X105924008Y-67390568D01*
X106044412Y-67429689D01*
X106148631Y-67463553D01*
X106381903Y-67500500D01*
X106381908Y-67500500D01*
X106618097Y-67500500D01*
X106851368Y-67463553D01*
X106852870Y-67463065D01*
X107075992Y-67390568D01*
X107286433Y-67283343D01*
X107477510Y-67144517D01*
X107644517Y-66977510D01*
X107783343Y-66786433D01*
X107890568Y-66575992D01*
X107963553Y-66351368D01*
X107991645Y-66174003D01*
X108000500Y-66118095D01*
X108000500Y-65881902D01*
X107963553Y-65648631D01*
X107903236Y-65462996D01*
X107890568Y-65424008D01*
X107890566Y-65424005D01*
X107890566Y-65424003D01*
X107816346Y-65278340D01*
X107783343Y-65213567D01*
X107644517Y-65022490D01*
X107477510Y-64855483D01*
X107286433Y-64716657D01*
X107075996Y-64609433D01*
X106851368Y-64536446D01*
X106618097Y-64499500D01*
X106618092Y-64499500D01*
X106381908Y-64499500D01*
X106381903Y-64499500D01*
X106148631Y-64536446D01*
X105924003Y-64609433D01*
X105713566Y-64716657D01*
X105646404Y-64765454D01*
X105522490Y-64855483D01*
X105522488Y-64855485D01*
X105522487Y-64855485D01*
X105355485Y-65022487D01*
X105355485Y-65022488D01*
X105355483Y-65022490D01*
X105276723Y-65130894D01*
X105227687Y-65198386D01*
X105172357Y-65241051D01*
X105127369Y-65249500D01*
X94896080Y-65249500D01*
X94751092Y-65278340D01*
X94751082Y-65278343D01*
X94614511Y-65334912D01*
X94614498Y-65334919D01*
X94491584Y-65417048D01*
X94491580Y-65417051D01*
X89844911Y-70063719D01*
X89783588Y-70097204D01*
X89737832Y-70098511D01*
X89523097Y-70064500D01*
X89523092Y-70064500D01*
X89286908Y-70064500D01*
X89286903Y-70064500D01*
X89053631Y-70101446D01*
X88829003Y-70174433D01*
X88618566Y-70281657D01*
X88535047Y-70342338D01*
X88427490Y-70420483D01*
X88427488Y-70420485D01*
X88427487Y-70420485D01*
X88260482Y-70587490D01*
X88217451Y-70646717D01*
X88162120Y-70689382D01*
X88107405Y-70697448D01*
X88087658Y-70695893D01*
X87347962Y-71435590D01*
X87330925Y-71372007D01*
X87265099Y-71257993D01*
X87172007Y-71164901D01*
X87057993Y-71099075D01*
X86994409Y-71082037D01*
X87734105Y-70342340D01*
X87734104Y-70342338D01*
X87651174Y-70282087D01*
X87440802Y-70174897D01*
X87216247Y-70101934D01*
X87216248Y-70101934D01*
X86983052Y-70065000D01*
X86746948Y-70065000D01*
X86513752Y-70101934D01*
X86289197Y-70174897D01*
X86078830Y-70282084D01*
X85995894Y-70342340D01*
X86735591Y-71082037D01*
X86672007Y-71099075D01*
X86557993Y-71164901D01*
X86464901Y-71257993D01*
X86399075Y-71372007D01*
X86382037Y-71435590D01*
X85642340Y-70695893D01*
X85622593Y-70697448D01*
X85618860Y-70696663D01*
X85615222Y-70697808D01*
X85584936Y-70689537D01*
X85554215Y-70683084D01*
X85550429Y-70680114D01*
X85547821Y-70679402D01*
X85538431Y-70670701D01*
X85520712Y-70656800D01*
X85516370Y-70651978D01*
X85469517Y-70587490D01*
X85302510Y-70420483D01*
X85111433Y-70281657D01*
X84900996Y-70174433D01*
X84676368Y-70101446D01*
X84443097Y-70064500D01*
X84443092Y-70064500D01*
X84206908Y-70064500D01*
X84206903Y-70064500D01*
X83973631Y-70101446D01*
X83749003Y-70174433D01*
X83538566Y-70281657D01*
X83455047Y-70342338D01*
X83347490Y-70420483D01*
X83347488Y-70420485D01*
X83347487Y-70420485D01*
X83180484Y-70587488D01*
X83155318Y-70622127D01*
X83099987Y-70664792D01*
X83030374Y-70670771D01*
X82968579Y-70638165D01*
X82954682Y-70622127D01*
X82929517Y-70587490D01*
X82762510Y-70420483D01*
X82571433Y-70281657D01*
X82360996Y-70174433D01*
X82136368Y-70101446D01*
X81903097Y-70064500D01*
X81903092Y-70064500D01*
X81666908Y-70064500D01*
X81666903Y-70064500D01*
X81433631Y-70101446D01*
X81209003Y-70174433D01*
X80998566Y-70281657D01*
X80915047Y-70342338D01*
X80807490Y-70420483D01*
X80807488Y-70420485D01*
X80807487Y-70420485D01*
X80640484Y-70587488D01*
X80615318Y-70622127D01*
X80559987Y-70664792D01*
X80490374Y-70670771D01*
X80428579Y-70638165D01*
X80414682Y-70622127D01*
X80389517Y-70587490D01*
X80222510Y-70420483D01*
X80031433Y-70281657D01*
X79820996Y-70174433D01*
X79596368Y-70101446D01*
X79363097Y-70064500D01*
X79363092Y-70064500D01*
X79126908Y-70064500D01*
X79126903Y-70064500D01*
X78893631Y-70101446D01*
X78669003Y-70174433D01*
X78458566Y-70281657D01*
X78375047Y-70342338D01*
X78267490Y-70420483D01*
X78267488Y-70420485D01*
X78267487Y-70420485D01*
X78100484Y-70587488D01*
X78075318Y-70622127D01*
X78019987Y-70664792D01*
X77950374Y-70670771D01*
X77888579Y-70638165D01*
X77874682Y-70622127D01*
X77849517Y-70587490D01*
X77682510Y-70420483D01*
X77491433Y-70281657D01*
X77280996Y-70174433D01*
X77056368Y-70101446D01*
X76823097Y-70064500D01*
X76823092Y-70064500D01*
X76586908Y-70064500D01*
X76586903Y-70064500D01*
X76353631Y-70101446D01*
X76129003Y-70174433D01*
X75918566Y-70281657D01*
X75835047Y-70342338D01*
X75727490Y-70420483D01*
X75727488Y-70420485D01*
X75727487Y-70420485D01*
X75560482Y-70587490D01*
X75517451Y-70646717D01*
X75462120Y-70689382D01*
X75407405Y-70697448D01*
X75387658Y-70695893D01*
X74647962Y-71435590D01*
X74630925Y-71372007D01*
X74565099Y-71257993D01*
X74472007Y-71164901D01*
X74357993Y-71099075D01*
X74294409Y-71082037D01*
X75034105Y-70342340D01*
X75034104Y-70342338D01*
X74951174Y-70282087D01*
X74740802Y-70174897D01*
X74516247Y-70101934D01*
X74516248Y-70101934D01*
X74283052Y-70065000D01*
X74046948Y-70065000D01*
X73813752Y-70101934D01*
X73589197Y-70174897D01*
X73378830Y-70282084D01*
X73295894Y-70342340D01*
X74035591Y-71082037D01*
X73972007Y-71099075D01*
X73857993Y-71164901D01*
X73764901Y-71257993D01*
X73699075Y-71372007D01*
X73682037Y-71435590D01*
X72942340Y-70695893D01*
X72922593Y-70697448D01*
X72918860Y-70696663D01*
X72915222Y-70697808D01*
X72884936Y-70689537D01*
X72854215Y-70683084D01*
X72850429Y-70680114D01*
X72847821Y-70679402D01*
X72838431Y-70670701D01*
X72820712Y-70656800D01*
X72816370Y-70651978D01*
X72769517Y-70587490D01*
X72602510Y-70420483D01*
X72411433Y-70281657D01*
X72200996Y-70174433D01*
X71976368Y-70101446D01*
X71743097Y-70064500D01*
X71743092Y-70064500D01*
X71506908Y-70064500D01*
X71506903Y-70064500D01*
X71273631Y-70101446D01*
X71049003Y-70174433D01*
X70838566Y-70281657D01*
X70755047Y-70342338D01*
X70647490Y-70420483D01*
X70647488Y-70420485D01*
X70647487Y-70420485D01*
X70480484Y-70587488D01*
X70455318Y-70622127D01*
X70399987Y-70664792D01*
X70330374Y-70670771D01*
X70268579Y-70638165D01*
X70254682Y-70622127D01*
X70229517Y-70587490D01*
X70062510Y-70420483D01*
X69871433Y-70281657D01*
X69660996Y-70174433D01*
X69436368Y-70101446D01*
X69203097Y-70064500D01*
X69203092Y-70064500D01*
X68966908Y-70064500D01*
X68966903Y-70064500D01*
X68733631Y-70101446D01*
X68509003Y-70174433D01*
X68298566Y-70281657D01*
X68215047Y-70342338D01*
X68107490Y-70420483D01*
X68107488Y-70420485D01*
X68107487Y-70420485D01*
X67940482Y-70587490D01*
X67897451Y-70646717D01*
X67842120Y-70689382D01*
X67787405Y-70697448D01*
X67767658Y-70695893D01*
X67027962Y-71435590D01*
X67010925Y-71372007D01*
X66945099Y-71257993D01*
X66852007Y-71164901D01*
X66737993Y-71099075D01*
X66674409Y-71082037D01*
X67414105Y-70342340D01*
X67414104Y-70342338D01*
X67331174Y-70282087D01*
X67120802Y-70174897D01*
X66896247Y-70101934D01*
X66896248Y-70101934D01*
X66663052Y-70065000D01*
X66426948Y-70065000D01*
X66193752Y-70101934D01*
X65969197Y-70174897D01*
X65758830Y-70282084D01*
X65675894Y-70342340D01*
X66415591Y-71082037D01*
X66352007Y-71099075D01*
X66237993Y-71164901D01*
X66144901Y-71257993D01*
X66079075Y-71372007D01*
X66062037Y-71435590D01*
X65322340Y-70695893D01*
X65302593Y-70697448D01*
X65298860Y-70696663D01*
X65295222Y-70697808D01*
X65264936Y-70689537D01*
X65234215Y-70683084D01*
X65230429Y-70680114D01*
X65227821Y-70679402D01*
X65218431Y-70670701D01*
X65200712Y-70656800D01*
X65196370Y-70651978D01*
X65149517Y-70587490D01*
X64982510Y-70420483D01*
X64791433Y-70281657D01*
X64580996Y-70174433D01*
X64356368Y-70101446D01*
X64123097Y-70064500D01*
X64123092Y-70064500D01*
X63886908Y-70064500D01*
X63886903Y-70064500D01*
X63653631Y-70101446D01*
X63429003Y-70174433D01*
X63218566Y-70281657D01*
X63135047Y-70342338D01*
X63027490Y-70420483D01*
X63027488Y-70420485D01*
X63027487Y-70420485D01*
X62860484Y-70587488D01*
X62835318Y-70622127D01*
X62779987Y-70664792D01*
X62710374Y-70670771D01*
X62648579Y-70638165D01*
X62634682Y-70622127D01*
X62609517Y-70587490D01*
X62442510Y-70420483D01*
X62251433Y-70281657D01*
X62040996Y-70174433D01*
X61816368Y-70101446D01*
X61583097Y-70064500D01*
X61583092Y-70064500D01*
X61346908Y-70064500D01*
X61346903Y-70064500D01*
X61113631Y-70101446D01*
X60889003Y-70174433D01*
X60678566Y-70281657D01*
X60595047Y-70342338D01*
X60487490Y-70420483D01*
X60487488Y-70420485D01*
X60487487Y-70420485D01*
X60320484Y-70587488D01*
X60295318Y-70622127D01*
X60239987Y-70664792D01*
X60170374Y-70670771D01*
X60108579Y-70638165D01*
X60094682Y-70622127D01*
X60069517Y-70587490D01*
X59902510Y-70420483D01*
X59711433Y-70281657D01*
X59500996Y-70174433D01*
X59276368Y-70101446D01*
X59043097Y-70064500D01*
X59043092Y-70064500D01*
X58806908Y-70064500D01*
X58806903Y-70064500D01*
X58573631Y-70101446D01*
X58349003Y-70174433D01*
X58138566Y-70281657D01*
X58055047Y-70342338D01*
X57947490Y-70420483D01*
X57947488Y-70420485D01*
X57947487Y-70420485D01*
X57780482Y-70587490D01*
X57737451Y-70646717D01*
X57682120Y-70689382D01*
X57627405Y-70697448D01*
X57607658Y-70695893D01*
X56867962Y-71435590D01*
X56850925Y-71372007D01*
X56785099Y-71257993D01*
X56692007Y-71164901D01*
X56577993Y-71099075D01*
X56514409Y-71082037D01*
X57254105Y-70342340D01*
X57254104Y-70342338D01*
X57171174Y-70282087D01*
X56960802Y-70174897D01*
X56736247Y-70101934D01*
X56736248Y-70101934D01*
X56503052Y-70065000D01*
X56266948Y-70065000D01*
X56033752Y-70101934D01*
X55809197Y-70174897D01*
X55598830Y-70282084D01*
X55515894Y-70342340D01*
X56255591Y-71082037D01*
X56192007Y-71099075D01*
X56077993Y-71164901D01*
X55984901Y-71257993D01*
X55919075Y-71372007D01*
X55902037Y-71435590D01*
X55162340Y-70695893D01*
X55142593Y-70697448D01*
X55138860Y-70696663D01*
X55135222Y-70697808D01*
X55104936Y-70689537D01*
X55074215Y-70683084D01*
X55070429Y-70680114D01*
X55067821Y-70679402D01*
X55058431Y-70670701D01*
X55040712Y-70656800D01*
X55036370Y-70651978D01*
X54989517Y-70587490D01*
X54822510Y-70420483D01*
X54631433Y-70281657D01*
X54420996Y-70174433D01*
X54196368Y-70101446D01*
X53963097Y-70064500D01*
X53963092Y-70064500D01*
X52837000Y-70064500D01*
X52769961Y-70044815D01*
X52724206Y-69992011D01*
X52713000Y-69940500D01*
X52713000Y-68093207D01*
X52732685Y-68026168D01*
X52785489Y-67980413D01*
X52849603Y-67969849D01*
X52900019Y-67974999D01*
X53037499Y-67974999D01*
X53537500Y-67974999D01*
X53674972Y-67974999D01*
X53674986Y-67974998D01*
X53777697Y-67964505D01*
X53944119Y-67909358D01*
X53944124Y-67909356D01*
X54093345Y-67817315D01*
X54217315Y-67693345D01*
X54309356Y-67544124D01*
X54309358Y-67544119D01*
X54364505Y-67377697D01*
X54364506Y-67377690D01*
X54374999Y-67274986D01*
X54375000Y-67274973D01*
X54375000Y-67000000D01*
X53537500Y-67000000D01*
X53537500Y-67974999D01*
X53037499Y-67974999D01*
X53037500Y-67974998D01*
X53037500Y-66500000D01*
X53537500Y-66500000D01*
X54374999Y-66500000D01*
X54374999Y-66225028D01*
X54374998Y-66225013D01*
X54364505Y-66122302D01*
X54309358Y-65955880D01*
X54309356Y-65955875D01*
X54217315Y-65806654D01*
X54093345Y-65682684D01*
X53944124Y-65590643D01*
X53944119Y-65590641D01*
X53777697Y-65535494D01*
X53777690Y-65535493D01*
X53674986Y-65525000D01*
X53537500Y-65525000D01*
X53537500Y-66500000D01*
X53037500Y-66500000D01*
X53037500Y-65525000D01*
X53036819Y-65524319D01*
X53003334Y-65462996D01*
X53000500Y-65436638D01*
X53000500Y-63624499D01*
X53020185Y-63557460D01*
X53072989Y-63511705D01*
X53124500Y-63500499D01*
X53250002Y-63500499D01*
X53250008Y-63500499D01*
X53352797Y-63489999D01*
X53519334Y-63434814D01*
X53668656Y-63342712D01*
X53792712Y-63218656D01*
X53884814Y-63069334D01*
X53939999Y-62902797D01*
X53950500Y-62800009D01*
X53950500Y-62799986D01*
X54850001Y-62799986D01*
X54860494Y-62902697D01*
X54915641Y-63069119D01*
X54915643Y-63069124D01*
X55007684Y-63218345D01*
X55131654Y-63342315D01*
X55280875Y-63434356D01*
X55280880Y-63434358D01*
X55447302Y-63489505D01*
X55447309Y-63489506D01*
X55550019Y-63499999D01*
X56849999Y-63499999D01*
X57350000Y-63499999D01*
X58649972Y-63499999D01*
X58649986Y-63499998D01*
X58752697Y-63489505D01*
X58919119Y-63434358D01*
X58919124Y-63434356D01*
X59068345Y-63342315D01*
X59192315Y-63218345D01*
X59284356Y-63069124D01*
X59284358Y-63069119D01*
X59339505Y-62902697D01*
X59339506Y-62902690D01*
X59349999Y-62799986D01*
X59350000Y-62799973D01*
X59350000Y-62450000D01*
X57350000Y-62450000D01*
X57350000Y-63499999D01*
X56849999Y-63499999D01*
X56850000Y-63499998D01*
X56850000Y-62450000D01*
X54850001Y-62450000D01*
X54850001Y-62799986D01*
X53950500Y-62799986D01*
X53950499Y-61599992D01*
X53939999Y-61497203D01*
X53884814Y-61330666D01*
X53805258Y-61201685D01*
X53786819Y-61134294D01*
X53807742Y-61067631D01*
X53823117Y-61048909D01*
X53936930Y-60935097D01*
X54085208Y-60786819D01*
X54146531Y-60753334D01*
X54172889Y-60750500D01*
X55192441Y-60750500D01*
X55259480Y-60770185D01*
G37*
%TD.AperFunction*%
%TA.AperFunction,Conductor*%
G36*
X60281420Y-72491833D02*
G01*
X60295315Y-72507870D01*
X60320483Y-72542510D01*
X60487490Y-72709517D01*
X60546716Y-72752547D01*
X60589381Y-72807875D01*
X60597448Y-72862593D01*
X60595893Y-72882340D01*
X61335591Y-73622037D01*
X61272007Y-73639075D01*
X61157993Y-73704901D01*
X61064901Y-73797993D01*
X60999075Y-73912007D01*
X60982037Y-73975590D01*
X60242340Y-73235893D01*
X60222593Y-73237448D01*
X60154215Y-73223084D01*
X60112547Y-73186716D01*
X60069517Y-73127490D01*
X59902510Y-72960483D01*
X59867872Y-72935317D01*
X59825207Y-72879989D01*
X59819228Y-72810375D01*
X59851833Y-72748580D01*
X59867873Y-72734682D01*
X59902510Y-72709517D01*
X60069517Y-72542510D01*
X60094682Y-72507872D01*
X60150011Y-72465207D01*
X60219625Y-72459228D01*
X60281420Y-72491833D01*
G37*
%TD.AperFunction*%
%TA.AperFunction,Conductor*%
G36*
X62821420Y-72491833D02*
G01*
X62835315Y-72507870D01*
X62860483Y-72542510D01*
X63027490Y-72709517D01*
X63062127Y-72734683D01*
X63104792Y-72790013D01*
X63110771Y-72859626D01*
X63078165Y-72921421D01*
X63062130Y-72935315D01*
X63044365Y-72948222D01*
X63027488Y-72960484D01*
X62860482Y-73127490D01*
X62817451Y-73186717D01*
X62762120Y-73229382D01*
X62707405Y-73237448D01*
X62687658Y-73235893D01*
X61947962Y-73975590D01*
X61930925Y-73912007D01*
X61865099Y-73797993D01*
X61772007Y-73704901D01*
X61657993Y-73639075D01*
X61594409Y-73622037D01*
X62334105Y-72882340D01*
X62332551Y-72862594D01*
X62346915Y-72794216D01*
X62383284Y-72752547D01*
X62442510Y-72709517D01*
X62609517Y-72542510D01*
X62634682Y-72507872D01*
X62690011Y-72465207D01*
X62759625Y-72459228D01*
X62821420Y-72491833D01*
G37*
%TD.AperFunction*%
%TA.AperFunction,Conductor*%
G36*
X80601420Y-72491833D02*
G01*
X80615315Y-72507870D01*
X80640483Y-72542510D01*
X80807490Y-72709517D01*
X80866716Y-72752547D01*
X80909381Y-72807875D01*
X80917448Y-72862593D01*
X80915893Y-72882340D01*
X81655591Y-73622037D01*
X81592007Y-73639075D01*
X81477993Y-73704901D01*
X81384901Y-73797993D01*
X81319075Y-73912007D01*
X81302037Y-73975590D01*
X80562340Y-73235893D01*
X80542593Y-73237448D01*
X80474215Y-73223084D01*
X80432547Y-73186716D01*
X80389517Y-73127490D01*
X80222510Y-72960483D01*
X80187872Y-72935317D01*
X80145207Y-72879989D01*
X80139228Y-72810375D01*
X80171833Y-72748580D01*
X80187873Y-72734682D01*
X80222510Y-72709517D01*
X80389517Y-72542510D01*
X80414682Y-72507872D01*
X80470011Y-72465207D01*
X80539625Y-72459228D01*
X80601420Y-72491833D01*
G37*
%TD.AperFunction*%
%TA.AperFunction,Conductor*%
G36*
X83141420Y-72491833D02*
G01*
X83155315Y-72507870D01*
X83180483Y-72542510D01*
X83347490Y-72709517D01*
X83382127Y-72734683D01*
X83424792Y-72790013D01*
X83430771Y-72859626D01*
X83398165Y-72921421D01*
X83382130Y-72935315D01*
X83364365Y-72948222D01*
X83347488Y-72960484D01*
X83180482Y-73127490D01*
X83137451Y-73186717D01*
X83082120Y-73229382D01*
X83027405Y-73237448D01*
X83007658Y-73235893D01*
X82267962Y-73975590D01*
X82250925Y-73912007D01*
X82185099Y-73797993D01*
X82092007Y-73704901D01*
X81977993Y-73639075D01*
X81914409Y-73622037D01*
X82654105Y-72882340D01*
X82652551Y-72862594D01*
X82666915Y-72794216D01*
X82703284Y-72752547D01*
X82762510Y-72709517D01*
X82929517Y-72542510D01*
X82954682Y-72507872D01*
X83010011Y-72465207D01*
X83079625Y-72459228D01*
X83141420Y-72491833D01*
G37*
%TD.AperFunction*%
%TA.AperFunction,Conductor*%
G36*
X98381420Y-72491833D02*
G01*
X98395315Y-72507870D01*
X98420483Y-72542510D01*
X98587490Y-72709517D01*
X98646716Y-72752547D01*
X98689381Y-72807875D01*
X98697448Y-72862593D01*
X98695893Y-72882340D01*
X99435591Y-73622037D01*
X99372007Y-73639075D01*
X99257993Y-73704901D01*
X99164901Y-73797993D01*
X99099075Y-73912007D01*
X99082037Y-73975590D01*
X98342340Y-73235893D01*
X98322593Y-73237448D01*
X98254215Y-73223084D01*
X98212547Y-73186716D01*
X98169517Y-73127490D01*
X98002510Y-72960483D01*
X97967872Y-72935317D01*
X97925207Y-72879989D01*
X97919228Y-72810375D01*
X97951833Y-72748580D01*
X97967873Y-72734682D01*
X98002510Y-72709517D01*
X98169517Y-72542510D01*
X98194682Y-72507872D01*
X98250011Y-72465207D01*
X98319625Y-72459228D01*
X98381420Y-72491833D01*
G37*
%TD.AperFunction*%
%TA.AperFunction,Conductor*%
G36*
X55919075Y-71757993D02*
G01*
X55984901Y-71872007D01*
X56077993Y-71965099D01*
X56192007Y-72030925D01*
X56255590Y-72047962D01*
X55515893Y-72787658D01*
X55517448Y-72807405D01*
X55503084Y-72875783D01*
X55466717Y-72917451D01*
X55407490Y-72960482D01*
X55240484Y-73127488D01*
X55215318Y-73162127D01*
X55159987Y-73204792D01*
X55090374Y-73210771D01*
X55028579Y-73178165D01*
X55014682Y-73162127D01*
X54989517Y-73127490D01*
X54822510Y-72960483D01*
X54787872Y-72935317D01*
X54745207Y-72879989D01*
X54739228Y-72810375D01*
X54771833Y-72748580D01*
X54787873Y-72734682D01*
X54822510Y-72709517D01*
X54989517Y-72542510D01*
X55032547Y-72483283D01*
X55087877Y-72440618D01*
X55142594Y-72432551D01*
X55162340Y-72434105D01*
X55902037Y-71694408D01*
X55919075Y-71757993D01*
G37*
%TD.AperFunction*%
%TA.AperFunction,Conductor*%
G36*
X57607657Y-72434104D02*
G01*
X57627404Y-72432550D01*
X57695781Y-72446914D01*
X57737452Y-72483283D01*
X57770616Y-72528930D01*
X57780483Y-72542510D01*
X57947490Y-72709517D01*
X57982127Y-72734683D01*
X58024792Y-72790013D01*
X58030771Y-72859626D01*
X57998165Y-72921421D01*
X57982130Y-72935315D01*
X57964365Y-72948222D01*
X57947488Y-72960484D01*
X57780484Y-73127488D01*
X57755318Y-73162127D01*
X57699987Y-73204792D01*
X57630374Y-73210771D01*
X57568579Y-73178165D01*
X57554682Y-73162127D01*
X57529517Y-73127490D01*
X57362510Y-72960483D01*
X57303282Y-72917451D01*
X57260617Y-72862122D01*
X57252550Y-72807404D01*
X57254104Y-72787657D01*
X56514408Y-72047962D01*
X56577993Y-72030925D01*
X56692007Y-71965099D01*
X56785099Y-71872007D01*
X56850925Y-71757993D01*
X56867962Y-71694409D01*
X57607657Y-72434104D01*
G37*
%TD.AperFunction*%
%TA.AperFunction,Conductor*%
G36*
X66079075Y-71757993D02*
G01*
X66144901Y-71872007D01*
X66237993Y-71965099D01*
X66352007Y-72030925D01*
X66415590Y-72047962D01*
X65675893Y-72787658D01*
X65677448Y-72807405D01*
X65663084Y-72875783D01*
X65626717Y-72917451D01*
X65567490Y-72960482D01*
X65400484Y-73127488D01*
X65375318Y-73162127D01*
X65319987Y-73204792D01*
X65250374Y-73210771D01*
X65188579Y-73178165D01*
X65174682Y-73162127D01*
X65149517Y-73127490D01*
X64982510Y-72960483D01*
X64947872Y-72935317D01*
X64905207Y-72879989D01*
X64899228Y-72810375D01*
X64931833Y-72748580D01*
X64947873Y-72734682D01*
X64982510Y-72709517D01*
X65149517Y-72542510D01*
X65192547Y-72483283D01*
X65247877Y-72440618D01*
X65302594Y-72432551D01*
X65322340Y-72434105D01*
X66062037Y-71694408D01*
X66079075Y-71757993D01*
G37*
%TD.AperFunction*%
%TA.AperFunction,Conductor*%
G36*
X67767657Y-72434104D02*
G01*
X67787404Y-72432550D01*
X67855781Y-72446914D01*
X67897452Y-72483283D01*
X67930616Y-72528930D01*
X67940483Y-72542510D01*
X68107490Y-72709517D01*
X68142127Y-72734683D01*
X68184792Y-72790013D01*
X68190771Y-72859626D01*
X68158165Y-72921421D01*
X68142130Y-72935315D01*
X68124365Y-72948222D01*
X68107488Y-72960484D01*
X67940484Y-73127488D01*
X67915318Y-73162127D01*
X67859987Y-73204792D01*
X67790374Y-73210771D01*
X67728579Y-73178165D01*
X67714682Y-73162127D01*
X67689517Y-73127490D01*
X67522510Y-72960483D01*
X67463282Y-72917451D01*
X67420617Y-72862122D01*
X67412550Y-72807404D01*
X67414104Y-72787657D01*
X66674408Y-72047962D01*
X66737993Y-72030925D01*
X66852007Y-71965099D01*
X66945099Y-71872007D01*
X67010925Y-71757993D01*
X67027962Y-71694408D01*
X67767657Y-72434104D01*
G37*
%TD.AperFunction*%
%TA.AperFunction,Conductor*%
G36*
X73699075Y-71757993D02*
G01*
X73764901Y-71872007D01*
X73857993Y-71965099D01*
X73972007Y-72030925D01*
X74035590Y-72047962D01*
X73295893Y-72787658D01*
X73297448Y-72807405D01*
X73283084Y-72875783D01*
X73246717Y-72917451D01*
X73187490Y-72960482D01*
X73020484Y-73127488D01*
X72995318Y-73162127D01*
X72939987Y-73204792D01*
X72870374Y-73210771D01*
X72808579Y-73178165D01*
X72794682Y-73162127D01*
X72769517Y-73127490D01*
X72602510Y-72960483D01*
X72567872Y-72935317D01*
X72525207Y-72879989D01*
X72519228Y-72810375D01*
X72551833Y-72748580D01*
X72567873Y-72734682D01*
X72602510Y-72709517D01*
X72769517Y-72542510D01*
X72812547Y-72483283D01*
X72867877Y-72440618D01*
X72922594Y-72432551D01*
X72942340Y-72434105D01*
X73682037Y-71694408D01*
X73699075Y-71757993D01*
G37*
%TD.AperFunction*%
%TA.AperFunction,Conductor*%
G36*
X75387657Y-72434104D02*
G01*
X75407404Y-72432550D01*
X75475781Y-72446914D01*
X75517452Y-72483283D01*
X75550616Y-72528930D01*
X75560483Y-72542510D01*
X75727490Y-72709517D01*
X75762127Y-72734683D01*
X75804792Y-72790013D01*
X75810771Y-72859626D01*
X75778165Y-72921421D01*
X75762130Y-72935315D01*
X75744365Y-72948222D01*
X75727488Y-72960484D01*
X75560484Y-73127488D01*
X75535318Y-73162127D01*
X75479987Y-73204792D01*
X75410374Y-73210771D01*
X75348579Y-73178165D01*
X75334682Y-73162127D01*
X75309517Y-73127490D01*
X75142510Y-72960483D01*
X75083282Y-72917451D01*
X75040617Y-72862122D01*
X75032550Y-72807404D01*
X75034104Y-72787657D01*
X74294408Y-72047962D01*
X74357993Y-72030925D01*
X74472007Y-71965099D01*
X74565099Y-71872007D01*
X74630925Y-71757993D01*
X74647962Y-71694409D01*
X75387657Y-72434104D01*
G37*
%TD.AperFunction*%
%TA.AperFunction,Conductor*%
G36*
X86399075Y-71757993D02*
G01*
X86464901Y-71872007D01*
X86557993Y-71965099D01*
X86672007Y-72030925D01*
X86735590Y-72047962D01*
X85995893Y-72787658D01*
X85997448Y-72807405D01*
X85983084Y-72875783D01*
X85946717Y-72917451D01*
X85887490Y-72960482D01*
X85720484Y-73127488D01*
X85695318Y-73162127D01*
X85639987Y-73204792D01*
X85570374Y-73210771D01*
X85508579Y-73178165D01*
X85494682Y-73162127D01*
X85469517Y-73127490D01*
X85302510Y-72960483D01*
X85267872Y-72935317D01*
X85225207Y-72879989D01*
X85219228Y-72810375D01*
X85251833Y-72748580D01*
X85267873Y-72734682D01*
X85302510Y-72709517D01*
X85469517Y-72542510D01*
X85512547Y-72483283D01*
X85567877Y-72440618D01*
X85622594Y-72432551D01*
X85642340Y-72434105D01*
X86382037Y-71694408D01*
X86399075Y-71757993D01*
G37*
%TD.AperFunction*%
%TA.AperFunction,Conductor*%
G36*
X88087657Y-72434104D02*
G01*
X88107404Y-72432550D01*
X88175781Y-72446914D01*
X88217452Y-72483283D01*
X88250616Y-72528930D01*
X88260483Y-72542510D01*
X88427490Y-72709517D01*
X88462127Y-72734683D01*
X88504792Y-72790013D01*
X88510771Y-72859626D01*
X88478165Y-72921421D01*
X88462130Y-72935315D01*
X88444365Y-72948222D01*
X88427488Y-72960484D01*
X88260484Y-73127488D01*
X88235318Y-73162127D01*
X88179987Y-73204792D01*
X88110374Y-73210771D01*
X88048579Y-73178165D01*
X88034682Y-73162127D01*
X88009517Y-73127490D01*
X87842510Y-72960483D01*
X87783282Y-72917451D01*
X87740617Y-72862122D01*
X87732550Y-72807404D01*
X87734104Y-72787657D01*
X86994408Y-72047962D01*
X87057993Y-72030925D01*
X87172007Y-71965099D01*
X87265099Y-71872007D01*
X87330925Y-71757993D01*
X87347962Y-71694409D01*
X88087657Y-72434104D01*
G37*
%TD.AperFunction*%
%TA.AperFunction,Conductor*%
G36*
X91479075Y-71757993D02*
G01*
X91544901Y-71872007D01*
X91637993Y-71965099D01*
X91752007Y-72030925D01*
X91815590Y-72047962D01*
X91075893Y-72787658D01*
X91077448Y-72807405D01*
X91063084Y-72875783D01*
X91026717Y-72917451D01*
X90967490Y-72960482D01*
X90800484Y-73127488D01*
X90775318Y-73162127D01*
X90719987Y-73204792D01*
X90650374Y-73210771D01*
X90588579Y-73178165D01*
X90574682Y-73162127D01*
X90549517Y-73127490D01*
X90382510Y-72960483D01*
X90347872Y-72935317D01*
X90305207Y-72879989D01*
X90299228Y-72810375D01*
X90331833Y-72748580D01*
X90347873Y-72734682D01*
X90382510Y-72709517D01*
X90549517Y-72542510D01*
X90592547Y-72483283D01*
X90647877Y-72440618D01*
X90702594Y-72432551D01*
X90722340Y-72434105D01*
X91462037Y-71694407D01*
X91479075Y-71757993D01*
G37*
%TD.AperFunction*%
%TA.AperFunction,Conductor*%
G36*
X93167657Y-72434104D02*
G01*
X93187404Y-72432550D01*
X93255781Y-72446914D01*
X93297452Y-72483283D01*
X93330616Y-72528930D01*
X93340483Y-72542510D01*
X93507490Y-72709517D01*
X93542127Y-72734683D01*
X93584792Y-72790013D01*
X93590771Y-72859626D01*
X93558165Y-72921421D01*
X93542130Y-72935315D01*
X93524365Y-72948222D01*
X93507488Y-72960484D01*
X93340484Y-73127488D01*
X93315318Y-73162127D01*
X93259987Y-73204792D01*
X93190374Y-73210771D01*
X93128579Y-73178165D01*
X93114682Y-73162127D01*
X93089517Y-73127490D01*
X92922510Y-72960483D01*
X92863282Y-72917451D01*
X92820617Y-72862122D01*
X92812550Y-72807404D01*
X92814104Y-72787657D01*
X92074408Y-72047962D01*
X92137993Y-72030925D01*
X92252007Y-71965099D01*
X92345099Y-71872007D01*
X92410925Y-71757993D01*
X92427962Y-71694409D01*
X93167657Y-72434104D01*
G37*
%TD.AperFunction*%
%TD*%
D32*
X33000000Y-48250000D02*
X35000000Y-48250000D01*
X142000000Y-150000000D02*
X142000000Y-128100000D01*
X42000000Y-150000000D02*
X33000000Y-150000000D01*
X33000000Y-150000000D02*
X33000000Y-48250000D01*
X42000000Y-128100000D02*
X42000000Y-150000000D01*
X200400000Y-48400000D02*
X200400000Y-150000000D01*
X142000000Y-150000000D02*
X200400000Y-150000000D01*
X142000000Y-128100000D02*
X42000000Y-128100000D01*
X200400000Y-48400000D02*
X35000000Y-48250000D01*
M02*
