M48
; DRILL file {KiCad 9.0.7} date 2026-04-02T01:51:09+0100
; FORMAT={-:-/ absolute / metric / decimal}
; #@! TF.CreationDate,2026-04-02T01:51:09+01:00
; #@! TF.GenerationSoftware,Kicad,Pcbnew,9.0.7
; #@! TF.FileFunction,Plated,1,2,PTH
FMAT,2
METRIC
; #@! TA.AperFunction,Plated,PTH,ViaDrill
T1C1.000
; #@! TA.AperFunction,Plated,PTH,ComponentDrill
T2C1.000
; #@! TA.AperFunction,Plated,PTH,ComponentDrill
T3C1.016
; #@! TA.AperFunction,Plated,PTH,ComponentDrill
T4C1.200
; #@! TA.AperFunction,Plated,PTH,ComponentDrill
T5C1.300
; #@! TA.AperFunction,Plated,PTH,ComponentDrill
T6C2.500
%
G90
G05
T1
X59.5Y-67.0
X60.5Y-78.5
X61.25Y-87.75
X74.25Y-68.5
X75.0Y-87.75
X81.6Y-78.4
X96.25Y-104.75
X107.5Y-98.25
X110.0Y-77.75
X130.0Y-73.5
X130.0Y-75.0
X130.0Y-76.5
X132.0Y-120.5
X135.25Y-100.75
T2
X51.305Y-71.565
X51.305Y-74.105
X53.845Y-71.565
X53.845Y-74.105
X56.385Y-71.565
X56.385Y-74.105
X58.925Y-71.565
X58.925Y-74.105
X61.465Y-71.565
X61.465Y-74.105
X64.005Y-71.565
X64.005Y-74.105
X66.545Y-71.565
X66.545Y-74.105
X69.085Y-71.565
X69.085Y-74.105
X71.625Y-71.565
X71.625Y-74.105
X74.165Y-71.565
X74.165Y-74.105
X76.705Y-71.565
X76.705Y-74.105
X79.245Y-71.565
X79.245Y-74.105
X81.785Y-71.565
X81.785Y-74.105
X84.325Y-71.565
X84.325Y-74.105
X86.865Y-71.565
X86.865Y-74.105
X89.405Y-71.565
X89.405Y-74.105
X91.945Y-71.565
X91.945Y-74.105
X94.485Y-71.565
X94.485Y-74.105
X97.025Y-71.565
X97.025Y-74.105
X99.565Y-71.565
X99.565Y-74.105
X135.25Y-60.21
X135.25Y-62.75
X135.25Y-65.29
X140.22Y-96.0
X140.22Y-98.54
X140.22Y-101.08
X140.22Y-103.62
X140.22Y-106.16
X146.0Y-132.25
X146.0Y-134.79
X146.0Y-137.33
T3
X90.491Y-90.187
X93.031Y-90.187
T4
X118.75Y-53.25
X118.75Y-60.75
T5
X122.25Y-98.25
X122.25Y-120.75
T6
X106.75Y-105.102
X106.75Y-109.801
X106.75Y-114.5
M30
