%TF.GenerationSoftware,KiCad,Pcbnew,9.0.7*%
%TF.CreationDate,2026-02-17T17:32:57+00:00*%
%TF.ProjectId,DeltaBot,44656c74-6142-46f7-942e-6b696361645f,rev?*%
%TF.SameCoordinates,Original*%
%TF.FileFunction,Copper,L2,Bot*%
%TF.FilePolarity,Positive*%
%FSLAX46Y46*%
G04 Gerber Fmt 4.6, Leading zero omitted, Abs format (unit mm)*
G04 Created by KiCad (PCBNEW 9.0.7) date 2026-02-17 17:32:57*
%MOMM*%
%LPD*%
G01*
G04 APERTURE LIST*
G04 Aperture macros list*
%AMRoundRect*
0 Rectangle with rounded corners*
0 $1 Rounding radius*
0 $2 $3 $4 $5 $6 $7 $8 $9 X,Y pos of 4 corners*
0 Add a 4 corners polygon primitive as box body*
4,1,4,$2,$3,$4,$5,$6,$7,$8,$9,$2,$3,0*
0 Add four circle primitives for the rounded corners*
1,1,$1+$1,$2,$3*
1,1,$1+$1,$4,$5*
1,1,$1+$1,$6,$7*
1,1,$1+$1,$8,$9*
0 Add four rect primitives between the rounded corners*
20,1,$1+$1,$2,$3,$4,$5,0*
20,1,$1+$1,$4,$5,$6,$7,0*
20,1,$1+$1,$6,$7,$8,$9,0*
20,1,$1+$1,$8,$9,$2,$3,0*%
G04 Aperture macros list end*
%TA.AperFunction,ComponentPad*%
%ADD10R,2.000000X2.000000*%
%TD*%
%TA.AperFunction,ComponentPad*%
%ADD11C,2.000000*%
%TD*%
%TA.AperFunction,ComponentPad*%
%ADD12RoundRect,0.250001X-0.949999X-0.949999X0.949999X-0.949999X0.949999X0.949999X-0.949999X0.949999X0*%
%TD*%
%TA.AperFunction,ComponentPad*%
%ADD13C,2.400000*%
%TD*%
%TA.AperFunction,SMDPad,CuDef*%
%ADD14RoundRect,0.250000X-0.475000X0.337500X-0.475000X-0.337500X0.475000X-0.337500X0.475000X0.337500X0*%
%TD*%
%TA.AperFunction,SMDPad,CuDef*%
%ADD15RoundRect,0.250000X0.350000X0.450000X-0.350000X0.450000X-0.350000X-0.450000X0.350000X-0.450000X0*%
%TD*%
%TA.AperFunction,SMDPad,CuDef*%
%ADD16RoundRect,0.250000X-0.337500X-0.475000X0.337500X-0.475000X0.337500X0.475000X-0.337500X0.475000X0*%
%TD*%
%TA.AperFunction,ComponentPad*%
%ADD17C,1.879600*%
%TD*%
%TA.AperFunction,SMDPad,CuDef*%
%ADD18RoundRect,0.250000X-0.450000X0.350000X-0.450000X-0.350000X0.450000X-0.350000X0.450000X0.350000X0*%
%TD*%
%TA.AperFunction,SMDPad,CuDef*%
%ADD19RoundRect,0.250000X0.337500X0.475000X-0.337500X0.475000X-0.337500X-0.475000X0.337500X-0.475000X0*%
%TD*%
%TA.AperFunction,SMDPad,CuDef*%
%ADD20RoundRect,0.250000X-0.350000X-0.450000X0.350000X-0.450000X0.350000X0.450000X-0.350000X0.450000X0*%
%TD*%
%TA.AperFunction,SMDPad,CuDef*%
%ADD21R,0.300000X1.400000*%
%TD*%
%TA.AperFunction,SMDPad,CuDef*%
%ADD22RoundRect,0.250000X-1.500000X-0.550000X1.500000X-0.550000X1.500000X0.550000X-1.500000X0.550000X0*%
%TD*%
%TA.AperFunction,ComponentPad*%
%ADD23R,3.500000X3.500000*%
%TD*%
%TA.AperFunction,ComponentPad*%
%ADD24C,3.500000*%
%TD*%
%TA.AperFunction,SMDPad,CuDef*%
%ADD25RoundRect,0.250000X-0.550000X1.500000X-0.550000X-1.500000X0.550000X-1.500000X0.550000X1.500000X0*%
%TD*%
%TA.AperFunction,ComponentPad*%
%ADD26C,3.000000*%
%TD*%
%TA.AperFunction,SMDPad,CuDef*%
%ADD27RoundRect,0.250000X0.475000X-0.337500X0.475000X0.337500X-0.475000X0.337500X-0.475000X-0.337500X0*%
%TD*%
%TA.AperFunction,SMDPad,CuDef*%
%ADD28RoundRect,0.250000X0.450000X-0.350000X0.450000X0.350000X-0.450000X0.350000X-0.450000X-0.350000X0*%
%TD*%
%TA.AperFunction,ViaPad*%
%ADD29C,2.000000*%
%TD*%
%TA.AperFunction,Conductor*%
%ADD30C,1.000000*%
%TD*%
%TA.AperFunction,Conductor*%
%ADD31C,0.250000*%
%TD*%
%TA.AperFunction,Conductor*%
%ADD32C,0.500000*%
%TD*%
%TA.AperFunction,Conductor*%
%ADD33C,2.000000*%
%TD*%
%TA.AperFunction,Profile*%
%ADD34C,0.100000*%
%TD*%
G04 APERTURE END LIST*
D10*
%TO.P,J3,1,Pin_1*%
%TO.N,PWM_L*%
X146420000Y-145750000D03*
D11*
%TO.P,J3,2,Pin_2*%
%TO.N,+5V*%
X148960000Y-145750000D03*
%TO.P,J3,3,Pin_3*%
%TO.N,GND*%
X151500000Y-145750000D03*
%TD*%
D10*
%TO.P,U1,1,3.3V*%
%TO.N,+3.3V*%
X51305000Y-74105000D03*
D11*
%TO.P,U1,2,5V1*%
%TO.N,+5V*%
X51305000Y-71565000D03*
%TO.P,U1,3,I2C7_SDA*%
%TO.N,SDA*%
X53845000Y-74105000D03*
%TO.P,U1,4,5V2*%
%TO.N,+5V*%
X53845000Y-71565000D03*
%TO.P,U1,5,I2C7_SCL*%
%TO.N,SCL*%
X56385000Y-74105000D03*
%TO.P,U1,6,GND1*%
%TO.N,GND*%
X56385000Y-71565000D03*
%TO.P,U1,7,GPIO2_B3*%
%TO.N,unconnected-(U1-GPIO2_B3-Pad7)*%
X58925000Y-74105000D03*
%TO.P,U1,8,GPIO4_C3*%
%TO.N,LIDAR_TX*%
X58925000Y-71565000D03*
%TO.P,U1,9,GND8*%
%TO.N,GND*%
X61465000Y-74105000D03*
%TO.P,U1,10,GPIO4_C4*%
%TO.N,LIDAR_RX*%
X61465000Y-71565000D03*
%TO.P,U1,11,GPIO4_C2*%
%TO.N,unconnected-(U1-GPIO4_C2-Pad11)*%
X64005000Y-74105000D03*
%TO.P,U1,12,GPIO4_A3*%
%TO.N,unconnected-(U1-GPIO4_A3-Pad12)*%
X64005000Y-71565000D03*
%TO.P,U1,13,GPIO4_C6*%
%TO.N,unconnected-(U1-GPIO4_C6-Pad13)*%
X66545000Y-74105000D03*
%TO.P,U1,14,GND2*%
%TO.N,GND*%
X66545000Y-71565000D03*
%TO.P,U1,15,GPIO4_D0*%
%TO.N,unconnected-(U1-GPIO4_D0-Pad15)*%
X69085000Y-74105000D03*
%TO.P,U1,16,GPIO4_D2*%
%TO.N,unconnected-(U1-GPIO4_D2-Pad16)*%
X69085000Y-71565000D03*
%TO.P,U1,17,3.3V1*%
%TO.N,unconnected-(U1-3.3V1-Pad17)*%
X71625000Y-74105000D03*
%TO.P,U1,18,GPIO4_D4*%
%TO.N,unconnected-(U1-GPIO4_D4-Pad18)*%
X71625000Y-71565000D03*
%TO.P,U1,19,GPIO1_B0*%
%TO.N,unconnected-(U1-GPIO1_B0-Pad19)*%
X74165000Y-74105000D03*
%TO.P,U1,20,GND3*%
%TO.N,GND*%
X74165000Y-71565000D03*
%TO.P,U1,21,GPIO1_A7*%
%TO.N,unconnected-(U1-GPIO1_A7-Pad21)*%
X76705000Y-74105000D03*
%TO.P,U1,22,GPIO4_D5*%
%TO.N,unconnected-(U1-GPIO4_D5-Pad22)*%
X76705000Y-71565000D03*
%TO.P,U1,23,GPIO1_B1*%
%TO.N,unconnected-(U1-GPIO1_B1-Pad23)*%
X79245000Y-74105000D03*
%TO.P,U1,24,GPIO1_B2*%
%TO.N,unconnected-(U1-GPIO1_B2-Pad24)*%
X79245000Y-71565000D03*
%TO.P,U1,25,GND7*%
%TO.N,GND*%
X81785000Y-74105000D03*
%TO.P,U1,26,ADC_IN0*%
%TO.N,unconnected-(U1-ADC_IN0-Pad26)*%
X81785000Y-71565000D03*
%TO.P,U1,27,GPIO2_A0*%
%TO.N,unconnected-(U1-GPIO2_A0-Pad27)*%
X84325000Y-74105000D03*
%TO.P,U1,28,GPIO2_A1*%
%TO.N,unconnected-(U1-GPIO2_A1-Pad28)*%
X84325000Y-71565000D03*
%TO.P,U1,29,GPIO2_B2*%
%TO.N,unconnected-(U1-GPIO2_B2-Pad29)*%
X86865000Y-74105000D03*
%TO.P,U1,30,GND4*%
%TO.N,GND*%
X86865000Y-71565000D03*
%TO.P,U1,31,GPIO2_B1*%
%TO.N,unconnected-(U1-GPIO2_B1-Pad31)*%
X89405000Y-74105000D03*
%TO.P,U1,32,GPIO3_C0*%
%TO.N,PWM_R*%
X89405000Y-71565000D03*
%TO.P,U1,33,GPIO2_B4*%
%TO.N,PWM_L*%
X91945000Y-74105000D03*
%TO.P,U1,34,GND5*%
%TO.N,GND*%
X91945000Y-71565000D03*
%TO.P,U1,35,GPIO4_A5*%
%TO.N,unconnected-(U1-GPIO4_A5-Pad35)*%
X94485000Y-74105000D03*
%TO.P,U1,36,GPIO4_A4*%
%TO.N,unconnected-(U1-GPIO4_A4-Pad36)*%
X94485000Y-71565000D03*
%TO.P,U1,37,GPIO4_D6*%
%TO.N,unconnected-(U1-GPIO4_D6-Pad37)*%
X97025000Y-74105000D03*
%TO.P,U1,38,GPIO4_A6*%
%TO.N,ALERT*%
X97025000Y-71565000D03*
%TO.P,U1,39,GND6*%
%TO.N,GND*%
X99565000Y-74105000D03*
%TO.P,U1,40,GPIO4_A7*%
%TO.N,ADDR*%
X99565000Y-71565000D03*
%TD*%
D12*
%TO.P,C1,1*%
%TO.N,+5V*%
X117000000Y-59250000D03*
D13*
%TO.P,C1,2*%
%TO.N,GND*%
X124500000Y-59250000D03*
%TD*%
D14*
%TO.P,C3,1*%
%TO.N,+5V*%
X145500000Y-96062500D03*
%TO.P,C3,2*%
%TO.N,GND*%
X145500000Y-98137500D03*
%TD*%
D15*
%TO.P,R11,1*%
%TO.N,Net-(R10-Pad2)*%
X84500000Y-110190474D03*
%TO.P,R11,2*%
%TO.N,GND*%
X82500000Y-110190474D03*
%TD*%
D14*
%TO.P,C9,1*%
%TO.N,Net-(IC1-AIN0)*%
X94000000Y-99500000D03*
%TO.P,C9,2*%
%TO.N,GND*%
X94000000Y-101575000D03*
%TD*%
D16*
%TO.P,C10,1*%
%TO.N,Net-(IC1-AIN1)*%
X88962500Y-97750000D03*
%TO.P,C10,2*%
%TO.N,GND*%
X91037500Y-97750000D03*
%TD*%
D17*
%TO.P,J1,1,VCC*%
%TO.N,Net-(J1-VCC)*%
X93030800Y-90186800D03*
%TO.P,J1,2,GND_USB*%
%TO.N,shunt*%
X90490800Y-90186800D03*
%TD*%
D18*
%TO.P,R5,1*%
%TO.N,Net-(IC1-AIN3)*%
X89000000Y-107940474D03*
%TO.P,R5,2*%
%TO.N,Net-(R10-Pad2)*%
X89000000Y-109940474D03*
%TD*%
D19*
%TO.P,C14,1*%
%TO.N,Net-(IC1-AIN0)*%
X91037500Y-99750000D03*
%TO.P,C14,2*%
%TO.N,Net-(IC1-AIN1)*%
X88962500Y-99750000D03*
%TD*%
D18*
%TO.P,R10,1*%
%TO.N,+9V*%
X94250000Y-108000000D03*
%TO.P,R10,2*%
%TO.N,Net-(R10-Pad2)*%
X94250000Y-110000000D03*
%TD*%
D20*
%TO.P,R8,1*%
%TO.N,+3.3V*%
X81500000Y-103500000D03*
%TO.P,R8,2*%
%TO.N,SDA*%
X83500000Y-103500000D03*
%TD*%
D10*
%TO.P,J5,1,VCC*%
%TO.N,+5V*%
X140220000Y-96000000D03*
D11*
%TO.P,J5,2,TX*%
%TO.N,LIDAR_TX*%
X140220000Y-98540000D03*
%TO.P,J5,3,RX*%
%TO.N,LIDAR_RX*%
X140220000Y-101080000D03*
%TO.P,J5,4,GND*%
%TO.N,GND*%
X140220000Y-103620000D03*
%TO.P,J5,5,Pin_5*%
%TO.N,unconnected-(J5-Pin_5-Pad5)*%
X140220000Y-106160000D03*
%TD*%
D21*
%TO.P,IC1,1,ADDR*%
%TO.N,ADDR*%
X85250000Y-98550000D03*
%TO.P,IC1,2,ALERT/RDY*%
%TO.N,ALERT*%
X85750000Y-98550000D03*
%TO.P,IC1,3,GND*%
%TO.N,GND*%
X86250000Y-98550000D03*
%TO.P,IC1,4,AIN0*%
%TO.N,Net-(IC1-AIN0)*%
X86750000Y-98550000D03*
%TO.P,IC1,5,AIN1*%
%TO.N,Net-(IC1-AIN1)*%
X87250000Y-98550000D03*
%TO.P,IC1,6,AIN2*%
%TO.N,Net-(IC1-AIN2)*%
X87250000Y-102950000D03*
%TO.P,IC1,7,AIN3*%
%TO.N,Net-(IC1-AIN3)*%
X86750000Y-102950000D03*
%TO.P,IC1,8,VDD*%
%TO.N,+5V*%
X86250000Y-102950000D03*
%TO.P,IC1,9,SDA*%
%TO.N,SDA*%
X85750000Y-102950000D03*
%TO.P,IC1,10,SCL*%
%TO.N,SCL*%
X85250000Y-102950000D03*
%TD*%
D22*
%TO.P,C5,1*%
%TO.N,+5V*%
X151266750Y-72750000D03*
%TO.P,C5,2*%
%TO.N,GND*%
X156666750Y-72750000D03*
%TD*%
D15*
%TO.P,R3,1*%
%TO.N,GND*%
X91000000Y-95750000D03*
%TO.P,R3,2*%
%TO.N,Net-(IC1-AIN1)*%
X89000000Y-95750000D03*
%TD*%
D16*
%TO.P,C11,1*%
%TO.N,Net-(IC1-AIN2)*%
X89000000Y-105250000D03*
%TO.P,C11,2*%
%TO.N,GND*%
X91075000Y-105250000D03*
%TD*%
D19*
%TO.P,C15,1*%
%TO.N,Net-(IC1-AIN3)*%
X91037500Y-102700000D03*
%TO.P,C15,2*%
%TO.N,Net-(IC1-AIN2)*%
X88962500Y-102700000D03*
%TD*%
D23*
%TO.P,SW1,1,A*%
%TO.N,Net-(SW1-A)*%
X106750000Y-114500000D03*
D24*
%TO.P,SW1,2,B*%
%TO.N,Net-(J1-VCC)*%
X106750000Y-109801000D03*
%TO.P,SW1,3,C*%
%TO.N,unconnected-(SW1-C-Pad3)*%
X106750000Y-105102000D03*
%TD*%
D18*
%TO.P,R1,1*%
%TO.N,Net-(IC1-AIN2)*%
X91000000Y-107940474D03*
%TO.P,R1,2*%
%TO.N,GND*%
X91000000Y-109940474D03*
%TD*%
%TO.P,R2,1*%
%TO.N,shunt*%
X94000000Y-95787500D03*
%TO.P,R2,2*%
%TO.N,Net-(IC1-AIN0)*%
X94000000Y-97787500D03*
%TD*%
D20*
%TO.P,R7,1*%
%TO.N,+3.3V*%
X81500000Y-100750000D03*
%TO.P,R7,2*%
%TO.N,SCL*%
X83500000Y-100750000D03*
%TD*%
D10*
%TO.P,J4,1,Pin_1*%
%TO.N,PWM_R*%
X151710000Y-66000000D03*
D11*
%TO.P,J4,2,Pin_2*%
%TO.N,+5V*%
X154250000Y-66000000D03*
%TO.P,J4,3,Pin_3*%
%TO.N,GND*%
X156790000Y-66000000D03*
%TD*%
D15*
%TO.P,R6,1*%
%TO.N,ALERT*%
X87250000Y-96250000D03*
%TO.P,R6,2*%
%TO.N,+3.3V*%
X85250000Y-96250000D03*
%TD*%
D25*
%TO.P,C7,1*%
%TO.N,+5V*%
X151000000Y-95900000D03*
%TO.P,C7,2*%
%TO.N,GND*%
X151000000Y-101300000D03*
%TD*%
D26*
%TO.P,F1,1*%
%TO.N,+9V*%
X117000000Y-98500000D03*
%TO.P,F1,2*%
%TO.N,Net-(SW1-A)*%
X117000000Y-121000000D03*
%TD*%
D27*
%TO.P,C12,1*%
%TO.N,GND*%
X84500000Y-107537500D03*
%TO.P,C12,2*%
%TO.N,+5V*%
X84500000Y-105462500D03*
%TD*%
D15*
%TO.P,R9,1*%
%TO.N,shunt*%
X90500000Y-92250000D03*
%TO.P,R9,2*%
%TO.N,GND*%
X88500000Y-92250000D03*
%TD*%
D14*
%TO.P,C13,1*%
%TO.N,Net-(IC1-AIN3)*%
X87000000Y-107940474D03*
%TO.P,C13,2*%
%TO.N,GND*%
X87000000Y-110015474D03*
%TD*%
D28*
%TO.P,R4,1*%
%TO.N,GND*%
X83250000Y-98500000D03*
%TO.P,R4,2*%
%TO.N,ADDR*%
X83250000Y-96500000D03*
%TD*%
D29*
%TO.N,+5V*%
X117000000Y-77250000D03*
X117000000Y-75250000D03*
X117000000Y-73250000D03*
%TO.N,PWM_R*%
X106500000Y-66000000D03*
%TO.N,+3.3V*%
X66500000Y-87750000D03*
X85000000Y-89200000D03*
%TO.N,GND*%
X146400000Y-112800000D03*
X77200000Y-67800000D03*
X112400000Y-90600000D03*
X97400000Y-85000000D03*
X125400000Y-96400000D03*
X56600000Y-66800000D03*
X81600000Y-78400000D03*
%TD*%
D30*
%TO.N,+9V*%
X117000000Y-98500000D02*
X121000000Y-102500000D01*
X121000000Y-102500000D02*
X121000000Y-124000000D01*
X121000000Y-124000000D02*
X120000000Y-125000000D01*
X102700000Y-125000000D02*
X97000000Y-119300000D01*
X120000000Y-125000000D02*
X102700000Y-125000000D01*
X97000000Y-119300000D02*
X97000000Y-110359526D01*
X97000000Y-110359526D02*
X94640474Y-108000000D01*
X94640474Y-108000000D02*
X94250000Y-108000000D01*
D31*
%TO.N,Net-(IC1-AIN2)*%
X89000000Y-105250000D02*
X89000000Y-102737500D01*
X89000000Y-102737500D02*
X88962500Y-102700000D01*
X88962500Y-102700000D02*
X87500000Y-102700000D01*
X87500000Y-102700000D02*
X87250000Y-102950000D01*
%TO.N,Net-(IC1-AIN3)*%
X86750000Y-102950000D02*
X86750000Y-101948000D01*
X86750000Y-101948000D02*
X87198000Y-101500000D01*
X87198000Y-101500000D02*
X89837500Y-101500000D01*
X89837500Y-101500000D02*
X91037500Y-102700000D01*
D32*
%TO.N,ALERT*%
X97025000Y-71565000D02*
X97000000Y-71540000D01*
X100400000Y-81200000D02*
X92300000Y-81200000D01*
X97000000Y-71540000D02*
X97000000Y-70750000D01*
X97000000Y-70750000D02*
X98500000Y-69250000D01*
X98500000Y-69250000D02*
X101250000Y-69250000D01*
X101250000Y-69250000D02*
X104750000Y-72750000D01*
X104750000Y-72750000D02*
X104750000Y-76850000D01*
X104750000Y-76850000D02*
X100400000Y-81200000D01*
X86900000Y-86600000D02*
X86900000Y-95900000D01*
X92300000Y-81200000D02*
X86900000Y-86600000D01*
X86900000Y-95900000D02*
X87250000Y-96250000D01*
%TO.N,+3.3V*%
X85250000Y-96250000D02*
X85250000Y-89450000D01*
X85250000Y-89450000D02*
X85000000Y-89200000D01*
%TO.N,+5V*%
X51305000Y-71565000D02*
X50296948Y-71565000D01*
X50296948Y-71565000D02*
X49000000Y-72861948D01*
X49000000Y-72861948D02*
X49000000Y-83000000D01*
X49000000Y-83000000D02*
X71462500Y-105462500D01*
X71462500Y-105462500D02*
X84500000Y-105462500D01*
D31*
%TO.N,SDA*%
X85750000Y-102950000D02*
X85750000Y-103952000D01*
X85750000Y-103952000D02*
X85452000Y-104250000D01*
X85452000Y-104250000D02*
X84250000Y-104250000D01*
X84250000Y-104250000D02*
X83500000Y-103500000D01*
D33*
%TO.N,Net-(J1-VCC)*%
X93030800Y-90186800D02*
X97436800Y-90186800D01*
X100500000Y-93250000D02*
X100500000Y-105500000D01*
X104801000Y-109801000D02*
X106750000Y-109801000D01*
X100500000Y-105500000D02*
X104801000Y-109801000D01*
X97436800Y-90186800D02*
X100500000Y-93250000D01*
D32*
%TO.N,LIDAR_TX*%
X100250000Y-63500000D02*
X135290000Y-98540000D01*
X58925000Y-71565000D02*
X66990000Y-63500000D01*
X135290000Y-98540000D02*
X140220000Y-98540000D01*
X66990000Y-63500000D02*
X100250000Y-63500000D01*
D31*
%TO.N,Net-(IC1-AIN0)*%
X86750000Y-98550000D02*
X86750000Y-100250000D01*
X87500000Y-101000000D02*
X89500000Y-101000000D01*
X93750000Y-99750000D02*
X94000000Y-99500000D01*
X86750000Y-100250000D02*
X87500000Y-101000000D01*
X91037500Y-99750000D02*
X93750000Y-99750000D01*
D30*
X94000000Y-97787500D02*
X94000000Y-99500000D01*
D31*
X91075000Y-99712500D02*
X91037500Y-99750000D01*
X89500000Y-101000000D02*
X90750000Y-99750000D01*
X90750000Y-99750000D02*
X91037500Y-99750000D01*
D32*
%TO.N,+5V*%
X140220000Y-96000000D02*
X145437500Y-96000000D01*
D30*
X120000000Y-76250000D02*
X147766750Y-76250000D01*
D31*
X85037500Y-105462500D02*
X84500000Y-105462500D01*
D32*
X117000000Y-77250000D02*
X117500000Y-77250000D01*
D30*
X117000000Y-73250000D02*
X120000000Y-76250000D01*
X117000000Y-75250000D02*
X117250000Y-75500000D01*
D32*
X145937500Y-96062500D02*
X146100000Y-95900000D01*
X145437500Y-96000000D02*
X145500000Y-96062500D01*
X145500000Y-96062500D02*
X145937500Y-96062500D01*
D31*
X86250000Y-104250000D02*
X85037500Y-105462500D01*
D32*
X117500000Y-77250000D02*
X136250000Y-96000000D01*
D30*
X154250000Y-69766750D02*
X151266750Y-72750000D01*
D32*
X136250000Y-96000000D02*
X140220000Y-96000000D01*
X146100000Y-95900000D02*
X151000000Y-95900000D01*
D31*
X86250000Y-104250000D02*
X86250000Y-102950000D01*
D30*
X154250000Y-66000000D02*
X154250000Y-69766750D01*
X147766750Y-76250000D02*
X151266750Y-72750000D01*
D32*
%TO.N,LIDAR_RX*%
X68499000Y-64501000D02*
X63030000Y-69970000D01*
X140220000Y-101080000D02*
X135080000Y-101080000D01*
X63030000Y-70000000D02*
X61465000Y-71565000D01*
X63030000Y-69970000D02*
X63030000Y-70000000D01*
X135080000Y-101080000D02*
X98501000Y-64501000D01*
X98501000Y-64501000D02*
X68499000Y-64501000D01*
D31*
%TO.N,Net-(IC1-AIN1)*%
X88450000Y-99750000D02*
X87250000Y-98550000D01*
X88962500Y-99750000D02*
X88450000Y-99750000D01*
X89000000Y-95750000D02*
X89000000Y-97712500D01*
X88050000Y-97750000D02*
X87250000Y-98550000D01*
X88962500Y-97750000D02*
X88050000Y-97750000D01*
%TO.N,Net-(IC1-AIN2)*%
X87300000Y-103000000D02*
X87250000Y-102950000D01*
X89000000Y-105250000D02*
X91000000Y-107250000D01*
X91000000Y-107250000D02*
X91000000Y-107940474D01*
D32*
%TO.N,PWM_R*%
X151710000Y-66000000D02*
X106750000Y-66000000D01*
D31*
%TO.N,Net-(IC1-AIN3)*%
X86750000Y-102950000D02*
X86750000Y-103952000D01*
X89000000Y-107940474D02*
X87000000Y-107940474D01*
X87000000Y-104202000D02*
X87000000Y-107940474D01*
X86750000Y-103952000D02*
X87000000Y-104202000D01*
%TO.N,SDA*%
X53845000Y-74105000D02*
X53845000Y-82095000D01*
X73750000Y-102000000D02*
X82000000Y-102000000D01*
X53845000Y-82095000D02*
X73750000Y-102000000D01*
X82000000Y-102000000D02*
X83500000Y-103500000D01*
%TO.N,ALERT*%
X87048000Y-96250000D02*
X85750000Y-97548000D01*
X85750000Y-97548000D02*
X85750000Y-98550000D01*
X87250000Y-96250000D02*
X87048000Y-96250000D01*
%TO.N,SCL*%
X56605000Y-74105000D02*
X83250000Y-100750000D01*
X83500000Y-100750000D02*
X85250000Y-102500000D01*
X83250000Y-100750000D02*
X83500000Y-100750000D01*
X85250000Y-102500000D02*
X85250000Y-102950000D01*
X56385000Y-74105000D02*
X56605000Y-74105000D01*
%TO.N,ADDR*%
X85250000Y-98500000D02*
X83250000Y-96500000D01*
D32*
X101315000Y-71565000D02*
X103000000Y-73250000D01*
D31*
X85250000Y-98550000D02*
X85250000Y-98500000D01*
D32*
X103000000Y-73250000D02*
X103000000Y-76600000D01*
X83250000Y-87500000D02*
X83250000Y-96500000D01*
X99800000Y-79800000D02*
X90950000Y-79800000D01*
X99565000Y-71565000D02*
X101315000Y-71565000D01*
X103000000Y-76600000D02*
X99800000Y-79800000D01*
X90950000Y-79800000D02*
X83250000Y-87500000D01*
D31*
%TO.N,Net-(R10-Pad2)*%
X89926000Y-109014474D02*
X92264474Y-109014474D01*
X93250000Y-110000000D02*
X94250000Y-110000000D01*
X84500000Y-110190474D02*
X85588500Y-109101974D01*
X88161500Y-109101974D02*
X89000000Y-109940474D01*
X89000000Y-109940474D02*
X89926000Y-109014474D01*
X92264474Y-109014474D02*
X93250000Y-110000000D01*
X85588500Y-109101974D02*
X88161500Y-109101974D01*
D32*
%TO.N,+3.3V*%
X78000000Y-100750000D02*
X81500000Y-100750000D01*
X72500000Y-103500000D02*
X81500000Y-103500000D01*
X66500000Y-89250000D02*
X78000000Y-100750000D01*
X51305000Y-74105000D02*
X51305000Y-82305000D01*
X66500000Y-87750000D02*
X66500000Y-89250000D01*
X51305000Y-82305000D02*
X72500000Y-103500000D01*
D31*
%TO.N,GND*%
X84500000Y-99750000D02*
X83250000Y-98500000D01*
X86250000Y-99552000D02*
X86052000Y-99750000D01*
X86052000Y-99750000D02*
X84500000Y-99750000D01*
X86250000Y-98550000D02*
X86250000Y-99552000D01*
D30*
%TO.N,shunt*%
X92250000Y-92250000D02*
X94000000Y-94000000D01*
X90490800Y-92240800D02*
X90500000Y-92250000D01*
X94000000Y-94000000D02*
X94000000Y-95787500D01*
X90490800Y-90186800D02*
X90490800Y-92240800D01*
X90500000Y-92250000D02*
X92250000Y-92250000D01*
D33*
%TO.N,Net-(SW1-A)*%
X110500000Y-114500000D02*
X117000000Y-121000000D01*
X106750000Y-114500000D02*
X110500000Y-114500000D01*
%TD*%
%TA.AperFunction,Conductor*%
%TO.N,GND*%
G36*
X101138837Y-72035314D02*
G01*
X101171809Y-72058912D01*
X102513181Y-73400284D01*
X102546666Y-73461607D01*
X102549500Y-73487965D01*
X102549500Y-76362035D01*
X102529815Y-76429074D01*
X102513181Y-76449716D01*
X99649716Y-79313181D01*
X99588393Y-79346666D01*
X99562035Y-79349500D01*
X90890691Y-79349500D01*
X90821944Y-79367920D01*
X90776112Y-79380201D01*
X90776107Y-79380204D01*
X90732695Y-79405267D01*
X90732696Y-79405268D01*
X90673389Y-79439508D01*
X90673383Y-79439513D01*
X82889513Y-87223383D01*
X82889509Y-87223389D01*
X82830201Y-87326112D01*
X82830200Y-87326117D01*
X82799500Y-87440691D01*
X82799500Y-95584908D01*
X82779815Y-95651947D01*
X82727011Y-95697702D01*
X82716456Y-95701949D01*
X82587117Y-95747207D01*
X82477850Y-95827850D01*
X82397207Y-95937117D01*
X82397206Y-95937119D01*
X82352353Y-96065298D01*
X82352353Y-96065300D01*
X82349500Y-96095730D01*
X82349500Y-96904269D01*
X82352353Y-96934699D01*
X82352353Y-96934701D01*
X82396940Y-97062119D01*
X82397207Y-97062882D01*
X82459765Y-97147646D01*
X82477851Y-97172151D01*
X82560601Y-97233223D01*
X82602852Y-97288870D01*
X82608311Y-97358526D01*
X82575244Y-97420076D01*
X82525974Y-97450698D01*
X82480883Y-97465640D01*
X82480875Y-97465643D01*
X82331654Y-97557684D01*
X82207684Y-97681654D01*
X82115643Y-97830875D01*
X82115641Y-97830880D01*
X82060494Y-97997302D01*
X82060493Y-97997309D01*
X82050000Y-98100013D01*
X82050000Y-98250000D01*
X84488311Y-98250000D01*
X84555350Y-98269685D01*
X84575992Y-98286319D01*
X84863181Y-98573508D01*
X84896666Y-98634831D01*
X84899500Y-98661189D01*
X84899500Y-99269752D01*
X84911131Y-99328229D01*
X84911132Y-99328230D01*
X84955447Y-99394552D01*
X85021769Y-99438867D01*
X85021770Y-99438868D01*
X85080247Y-99450499D01*
X85080250Y-99450500D01*
X85080252Y-99450500D01*
X85419750Y-99450500D01*
X85475808Y-99439349D01*
X85484084Y-99439345D01*
X85488842Y-99437469D01*
X85523799Y-99439328D01*
X85524087Y-99439328D01*
X85580252Y-99450500D01*
X85580506Y-99450500D01*
X85586677Y-99451722D01*
X85612449Y-99465175D01*
X85639416Y-99476027D01*
X85645815Y-99482592D01*
X85648616Y-99484054D01*
X85650557Y-99487457D01*
X85661856Y-99499048D01*
X85742812Y-99607190D01*
X85857906Y-99693350D01*
X85857913Y-99693354D01*
X85992620Y-99743596D01*
X85992627Y-99743598D01*
X86052155Y-99749999D01*
X86052172Y-99750000D01*
X86100000Y-99750000D01*
X86100000Y-99280915D01*
X86101490Y-99275841D01*
X86100500Y-99275841D01*
X86100500Y-98674000D01*
X86120185Y-98606961D01*
X86172989Y-98561206D01*
X86224500Y-98550000D01*
X86275500Y-98550000D01*
X86342539Y-98569685D01*
X86388294Y-98622489D01*
X86399500Y-98674000D01*
X86399500Y-99270747D01*
X86400000Y-99280915D01*
X86400000Y-99759825D01*
X86421666Y-99799504D01*
X86424500Y-99825862D01*
X86424500Y-100207147D01*
X86424500Y-100292853D01*
X86426141Y-100298978D01*
X86446682Y-100375640D01*
X86456773Y-100393117D01*
X86489535Y-100449862D01*
X86489537Y-100449864D01*
X87062060Y-101022387D01*
X87074018Y-101044287D01*
X87089461Y-101063892D01*
X87090474Y-101074424D01*
X87095545Y-101083710D01*
X87093764Y-101108601D01*
X87096156Y-101133440D01*
X87091315Y-101142846D01*
X87090561Y-101153402D01*
X87075605Y-101173379D01*
X87064189Y-101195568D01*
X87051531Y-101205537D01*
X87048689Y-101209335D01*
X87036463Y-101217407D01*
X87035812Y-101217783D01*
X87035250Y-101218108D01*
X87031653Y-101220185D01*
X86998138Y-101239535D01*
X86998135Y-101239537D01*
X86489537Y-101748135D01*
X86489535Y-101748138D01*
X86446682Y-101822361D01*
X86434873Y-101866433D01*
X86434873Y-101866434D01*
X86434872Y-101866433D01*
X86424500Y-101905143D01*
X86424500Y-101925500D01*
X86404815Y-101992539D01*
X86352011Y-102038294D01*
X86300500Y-102049500D01*
X86080252Y-102049500D01*
X86024190Y-102060651D01*
X85975810Y-102060651D01*
X85919748Y-102049500D01*
X85580252Y-102049500D01*
X85524190Y-102060651D01*
X85491135Y-102062716D01*
X85479334Y-102061870D01*
X85478231Y-102061133D01*
X85419748Y-102049500D01*
X85306746Y-102049500D01*
X85302323Y-102049183D01*
X85273574Y-102038455D01*
X85244149Y-102029815D01*
X85238741Y-102025457D01*
X85236862Y-102024756D01*
X85235329Y-102022707D01*
X85223507Y-102013181D01*
X84336819Y-101126492D01*
X84303334Y-101065169D01*
X84300500Y-101038811D01*
X84300500Y-100245730D01*
X84297646Y-100215300D01*
X84297646Y-100215298D01*
X84262098Y-100113710D01*
X84252793Y-100087118D01*
X84172150Y-99977850D01*
X84062882Y-99897207D01*
X84062880Y-99897206D01*
X83934700Y-99852353D01*
X83904270Y-99849500D01*
X83904266Y-99849500D01*
X83095734Y-99849500D01*
X83095730Y-99849500D01*
X83065303Y-99852353D01*
X83031055Y-99864337D01*
X82951704Y-99892103D01*
X82935136Y-99892948D01*
X82919596Y-99898745D01*
X82900966Y-99894692D01*
X82881926Y-99895664D01*
X82866965Y-99887295D01*
X82851323Y-99883893D01*
X82823069Y-99862742D01*
X82772007Y-99811680D01*
X82738522Y-99750357D01*
X82743506Y-99680665D01*
X82785378Y-99624732D01*
X82850842Y-99600315D01*
X82859688Y-99599999D01*
X82999999Y-99599999D01*
X83500000Y-99599999D01*
X83749972Y-99599999D01*
X83749986Y-99599998D01*
X83852697Y-99589505D01*
X84019119Y-99534358D01*
X84019124Y-99534356D01*
X84168345Y-99442315D01*
X84292315Y-99318345D01*
X84384356Y-99169124D01*
X84384358Y-99169119D01*
X84439505Y-99002697D01*
X84439506Y-99002690D01*
X84449999Y-98899986D01*
X84450000Y-98899973D01*
X84450000Y-98750000D01*
X83500000Y-98750000D01*
X83500000Y-99599999D01*
X82999999Y-99599999D01*
X83000000Y-99599998D01*
X83000000Y-98750000D01*
X82050001Y-98750000D01*
X82050001Y-98790312D01*
X82030316Y-98857351D01*
X81977512Y-98903106D01*
X81908354Y-98913050D01*
X81844798Y-98884025D01*
X81838320Y-98877993D01*
X77355480Y-94395153D01*
X77321995Y-94333830D01*
X77326979Y-94264138D01*
X77368851Y-94208205D01*
X77434315Y-94183788D01*
X77484113Y-94190429D01*
X77690614Y-94262687D01*
X77980957Y-94328956D01*
X77980966Y-94328957D01*
X77980971Y-94328958D01*
X78178249Y-94351185D01*
X78276889Y-94362299D01*
X78276892Y-94362300D01*
X78276895Y-94362300D01*
X78574708Y-94362300D01*
X78574709Y-94362299D01*
X78759143Y-94341519D01*
X78870628Y-94328958D01*
X78870631Y-94328957D01*
X78870643Y-94328956D01*
X79160986Y-94262687D01*
X79442084Y-94164327D01*
X79710402Y-94035112D01*
X79962565Y-93876667D01*
X80195402Y-93690985D01*
X80405985Y-93480402D01*
X80591667Y-93247565D01*
X80750112Y-92995402D01*
X80879327Y-92727084D01*
X80977687Y-92445986D01*
X81043956Y-92155643D01*
X81077300Y-91859705D01*
X81077300Y-91561895D01*
X81057628Y-91387300D01*
X81043958Y-91265971D01*
X81043957Y-91265966D01*
X81043956Y-91265957D01*
X80977687Y-90975614D01*
X80879327Y-90694516D01*
X80750112Y-90426198D01*
X80591667Y-90174035D01*
X80405985Y-89941198D01*
X80195402Y-89730615D01*
X79962565Y-89544933D01*
X79710402Y-89386488D01*
X79710399Y-89386486D01*
X79442085Y-89257273D01*
X79160987Y-89158913D01*
X79160989Y-89158913D01*
X78943228Y-89109211D01*
X78870643Y-89092644D01*
X78870640Y-89092643D01*
X78870628Y-89092641D01*
X78574711Y-89059300D01*
X78574705Y-89059300D01*
X78276895Y-89059300D01*
X78276888Y-89059300D01*
X77980971Y-89092641D01*
X77980957Y-89092644D01*
X77690611Y-89158913D01*
X77409514Y-89257273D01*
X77141200Y-89386486D01*
X76889036Y-89544932D01*
X76656198Y-89730614D01*
X76445614Y-89941198D01*
X76259932Y-90174036D01*
X76101486Y-90426200D01*
X75972273Y-90694514D01*
X75873913Y-90975611D01*
X75807644Y-91265957D01*
X75807641Y-91265971D01*
X75774300Y-91561888D01*
X75774300Y-91859711D01*
X75807641Y-92155628D01*
X75807644Y-92155642D01*
X75873913Y-92445988D01*
X75946169Y-92652484D01*
X75949730Y-92722263D01*
X75915001Y-92782890D01*
X75853008Y-92815117D01*
X75783432Y-92808712D01*
X75741446Y-92781119D01*
X58777508Y-75817181D01*
X58744023Y-75755858D01*
X58749007Y-75686166D01*
X58790879Y-75630233D01*
X58856343Y-75605816D01*
X58865189Y-75605500D01*
X59043097Y-75605500D01*
X59276368Y-75568553D01*
X59304556Y-75559394D01*
X59500992Y-75495568D01*
X59711433Y-75388343D01*
X59902510Y-75249517D01*
X60069517Y-75082510D01*
X60116370Y-75018022D01*
X60120713Y-75013199D01*
X60145150Y-74998142D01*
X60167877Y-74980618D01*
X60175393Y-74979509D01*
X60180199Y-74976549D01*
X60193730Y-74976806D01*
X60222594Y-74972551D01*
X60242340Y-74974105D01*
X60982037Y-74234408D01*
X60999075Y-74297993D01*
X61064901Y-74412007D01*
X61157993Y-74505099D01*
X61272007Y-74570925D01*
X61335590Y-74587962D01*
X60595893Y-75327658D01*
X60678828Y-75387914D01*
X60889197Y-75495102D01*
X61113752Y-75568065D01*
X61113751Y-75568065D01*
X61346948Y-75605000D01*
X61583052Y-75605000D01*
X61816247Y-75568065D01*
X62040802Y-75495102D01*
X62251163Y-75387918D01*
X62251169Y-75387914D01*
X62334104Y-75327658D01*
X62334105Y-75327658D01*
X61594408Y-74587962D01*
X61657993Y-74570925D01*
X61772007Y-74505099D01*
X61865099Y-74412007D01*
X61930925Y-74297993D01*
X61947962Y-74234409D01*
X62687657Y-74974104D01*
X62707404Y-74972550D01*
X62775781Y-74986914D01*
X62817451Y-75023282D01*
X62860483Y-75082510D01*
X63027490Y-75249517D01*
X63218567Y-75388343D01*
X63256858Y-75407853D01*
X63429003Y-75495566D01*
X63429005Y-75495566D01*
X63429008Y-75495568D01*
X63484625Y-75513639D01*
X63653631Y-75568553D01*
X63886903Y-75605500D01*
X63886908Y-75605500D01*
X64123097Y-75605500D01*
X64356368Y-75568553D01*
X64384556Y-75559394D01*
X64580992Y-75495568D01*
X64791433Y-75388343D01*
X64982510Y-75249517D01*
X65149517Y-75082510D01*
X65174682Y-75047872D01*
X65230011Y-75005207D01*
X65299625Y-74999228D01*
X65361420Y-75031833D01*
X65375315Y-75047870D01*
X65400483Y-75082510D01*
X65567490Y-75249517D01*
X65758567Y-75388343D01*
X65796858Y-75407853D01*
X65969003Y-75495566D01*
X65969005Y-75495566D01*
X65969008Y-75495568D01*
X66024625Y-75513639D01*
X66193631Y-75568553D01*
X66426903Y-75605500D01*
X66426908Y-75605500D01*
X66663097Y-75605500D01*
X66896368Y-75568553D01*
X66924556Y-75559394D01*
X67120992Y-75495568D01*
X67331433Y-75388343D01*
X67522510Y-75249517D01*
X67689517Y-75082510D01*
X67714682Y-75047872D01*
X67770011Y-75005207D01*
X67839625Y-74999228D01*
X67901420Y-75031833D01*
X67915315Y-75047870D01*
X67940483Y-75082510D01*
X68107490Y-75249517D01*
X68298567Y-75388343D01*
X68336858Y-75407853D01*
X68509003Y-75495566D01*
X68509005Y-75495566D01*
X68509008Y-75495568D01*
X68564625Y-75513639D01*
X68733631Y-75568553D01*
X68966903Y-75605500D01*
X68966908Y-75605500D01*
X69203097Y-75605500D01*
X69436368Y-75568553D01*
X69464556Y-75559394D01*
X69660992Y-75495568D01*
X69871433Y-75388343D01*
X70062510Y-75249517D01*
X70229517Y-75082510D01*
X70254682Y-75047872D01*
X70310011Y-75005207D01*
X70379625Y-74999228D01*
X70441420Y-75031833D01*
X70455315Y-75047870D01*
X70480483Y-75082510D01*
X70647490Y-75249517D01*
X70838567Y-75388343D01*
X70876858Y-75407853D01*
X71049003Y-75495566D01*
X71049005Y-75495566D01*
X71049008Y-75495568D01*
X71104625Y-75513639D01*
X71273631Y-75568553D01*
X71506903Y-75605500D01*
X71506908Y-75605500D01*
X71743097Y-75605500D01*
X71976368Y-75568553D01*
X72004556Y-75559394D01*
X72200992Y-75495568D01*
X72411433Y-75388343D01*
X72602510Y-75249517D01*
X72769517Y-75082510D01*
X72794682Y-75047872D01*
X72850011Y-75005207D01*
X72919625Y-74999228D01*
X72981420Y-75031833D01*
X72995315Y-75047870D01*
X73020483Y-75082510D01*
X73187490Y-75249517D01*
X73378567Y-75388343D01*
X73416858Y-75407853D01*
X73589003Y-75495566D01*
X73589005Y-75495566D01*
X73589008Y-75495568D01*
X73644625Y-75513639D01*
X73813631Y-75568553D01*
X74046903Y-75605500D01*
X74046908Y-75605500D01*
X74283097Y-75605500D01*
X74516368Y-75568553D01*
X74544556Y-75559394D01*
X74740992Y-75495568D01*
X74951433Y-75388343D01*
X75142510Y-75249517D01*
X75309517Y-75082510D01*
X75334682Y-75047872D01*
X75390011Y-75005207D01*
X75459625Y-74999228D01*
X75521420Y-75031833D01*
X75535315Y-75047870D01*
X75560483Y-75082510D01*
X75727490Y-75249517D01*
X75918567Y-75388343D01*
X75956858Y-75407853D01*
X76129003Y-75495566D01*
X76129005Y-75495566D01*
X76129008Y-75495568D01*
X76184625Y-75513639D01*
X76353631Y-75568553D01*
X76586903Y-75605500D01*
X76586908Y-75605500D01*
X76823097Y-75605500D01*
X77056368Y-75568553D01*
X77084556Y-75559394D01*
X77280992Y-75495568D01*
X77491433Y-75388343D01*
X77682510Y-75249517D01*
X77849517Y-75082510D01*
X77874682Y-75047872D01*
X77930011Y-75005207D01*
X77999625Y-74999228D01*
X78061420Y-75031833D01*
X78075315Y-75047870D01*
X78100483Y-75082510D01*
X78267490Y-75249517D01*
X78458567Y-75388343D01*
X78496858Y-75407853D01*
X78669003Y-75495566D01*
X78669005Y-75495566D01*
X78669008Y-75495568D01*
X78724625Y-75513639D01*
X78893631Y-75568553D01*
X79126903Y-75605500D01*
X79126908Y-75605500D01*
X79363097Y-75605500D01*
X79596368Y-75568553D01*
X79624556Y-75559394D01*
X79820992Y-75495568D01*
X80031433Y-75388343D01*
X80222510Y-75249517D01*
X80389517Y-75082510D01*
X80436370Y-75018022D01*
X80440713Y-75013199D01*
X80465150Y-74998142D01*
X80487877Y-74980618D01*
X80495393Y-74979509D01*
X80500199Y-74976549D01*
X80513730Y-74976806D01*
X80542594Y-74972551D01*
X80562340Y-74974105D01*
X81302037Y-74234408D01*
X81319075Y-74297993D01*
X81384901Y-74412007D01*
X81477993Y-74505099D01*
X81592007Y-74570925D01*
X81655590Y-74587962D01*
X80915893Y-75327658D01*
X80998828Y-75387914D01*
X81209197Y-75495102D01*
X81433752Y-75568065D01*
X81433751Y-75568065D01*
X81666948Y-75605000D01*
X81903052Y-75605000D01*
X82136247Y-75568065D01*
X82360802Y-75495102D01*
X82571163Y-75387918D01*
X82571169Y-75387914D01*
X82654104Y-75327658D01*
X82654105Y-75327658D01*
X81914408Y-74587962D01*
X81977993Y-74570925D01*
X82092007Y-74505099D01*
X82185099Y-74412007D01*
X82250925Y-74297993D01*
X82267962Y-74234409D01*
X83007657Y-74974104D01*
X83027404Y-74972550D01*
X83095781Y-74986914D01*
X83137451Y-75023282D01*
X83180483Y-75082510D01*
X83347490Y-75249517D01*
X83538567Y-75388343D01*
X83576858Y-75407853D01*
X83749003Y-75495566D01*
X83749005Y-75495566D01*
X83749008Y-75495568D01*
X83804625Y-75513639D01*
X83973631Y-75568553D01*
X84206903Y-75605500D01*
X84206908Y-75605500D01*
X84443097Y-75605500D01*
X84676368Y-75568553D01*
X84704556Y-75559394D01*
X84900992Y-75495568D01*
X85111433Y-75388343D01*
X85302510Y-75249517D01*
X85469517Y-75082510D01*
X85494682Y-75047872D01*
X85550011Y-75005207D01*
X85619625Y-74999228D01*
X85681420Y-75031833D01*
X85695315Y-75047870D01*
X85720483Y-75082510D01*
X85887490Y-75249517D01*
X86078567Y-75388343D01*
X86116858Y-75407853D01*
X86289003Y-75495566D01*
X86289005Y-75495566D01*
X86289008Y-75495568D01*
X86344625Y-75513639D01*
X86513631Y-75568553D01*
X86746903Y-75605500D01*
X86746908Y-75605500D01*
X86983097Y-75605500D01*
X87216368Y-75568553D01*
X87244556Y-75559394D01*
X87440992Y-75495568D01*
X87651433Y-75388343D01*
X87842510Y-75249517D01*
X88009517Y-75082510D01*
X88034682Y-75047872D01*
X88090011Y-75005207D01*
X88159625Y-74999228D01*
X88221420Y-75031833D01*
X88235315Y-75047870D01*
X88260483Y-75082510D01*
X88427490Y-75249517D01*
X88618567Y-75388343D01*
X88656858Y-75407853D01*
X88829003Y-75495566D01*
X88829005Y-75495566D01*
X88829008Y-75495568D01*
X88884625Y-75513639D01*
X89053631Y-75568553D01*
X89286903Y-75605500D01*
X89286908Y-75605500D01*
X89523097Y-75605500D01*
X89756368Y-75568553D01*
X89784556Y-75559394D01*
X89980992Y-75495568D01*
X90191433Y-75388343D01*
X90382510Y-75249517D01*
X90549517Y-75082510D01*
X90574682Y-75047872D01*
X90630011Y-75005207D01*
X90699625Y-74999228D01*
X90761420Y-75031833D01*
X90775315Y-75047870D01*
X90800483Y-75082510D01*
X90967490Y-75249517D01*
X91158567Y-75388343D01*
X91196858Y-75407853D01*
X91369003Y-75495566D01*
X91369005Y-75495566D01*
X91369008Y-75495568D01*
X91424625Y-75513639D01*
X91593631Y-75568553D01*
X91826903Y-75605500D01*
X91826908Y-75605500D01*
X92063097Y-75605500D01*
X92296368Y-75568553D01*
X92324556Y-75559394D01*
X92520992Y-75495568D01*
X92731433Y-75388343D01*
X92922510Y-75249517D01*
X93089517Y-75082510D01*
X93114682Y-75047872D01*
X93170011Y-75005207D01*
X93239625Y-74999228D01*
X93301420Y-75031833D01*
X93315315Y-75047870D01*
X93340483Y-75082510D01*
X93507490Y-75249517D01*
X93698567Y-75388343D01*
X93736858Y-75407853D01*
X93909003Y-75495566D01*
X93909005Y-75495566D01*
X93909008Y-75495568D01*
X93964625Y-75513639D01*
X94133631Y-75568553D01*
X94366903Y-75605500D01*
X94366908Y-75605500D01*
X94603097Y-75605500D01*
X94836368Y-75568553D01*
X94864556Y-75559394D01*
X95060992Y-75495568D01*
X95271433Y-75388343D01*
X95462510Y-75249517D01*
X95629517Y-75082510D01*
X95654682Y-75047872D01*
X95710011Y-75005207D01*
X95779625Y-74999228D01*
X95841420Y-75031833D01*
X95855315Y-75047870D01*
X95880483Y-75082510D01*
X96047490Y-75249517D01*
X96238567Y-75388343D01*
X96276858Y-75407853D01*
X96449003Y-75495566D01*
X96449005Y-75495566D01*
X96449008Y-75495568D01*
X96504625Y-75513639D01*
X96673631Y-75568553D01*
X96906903Y-75605500D01*
X96906908Y-75605500D01*
X97143097Y-75605500D01*
X97376368Y-75568553D01*
X97404556Y-75559394D01*
X97600992Y-75495568D01*
X97811433Y-75388343D01*
X98002510Y-75249517D01*
X98169517Y-75082510D01*
X98216370Y-75018022D01*
X98220713Y-75013199D01*
X98245150Y-74998142D01*
X98267877Y-74980618D01*
X98275393Y-74979509D01*
X98280199Y-74976549D01*
X98293730Y-74976806D01*
X98322594Y-74972551D01*
X98342340Y-74974105D01*
X99082037Y-74234408D01*
X99099075Y-74297993D01*
X99164901Y-74412007D01*
X99257993Y-74505099D01*
X99372007Y-74570925D01*
X99435590Y-74587962D01*
X98695893Y-75327658D01*
X98778828Y-75387914D01*
X98989197Y-75495102D01*
X99213752Y-75568065D01*
X99213751Y-75568065D01*
X99446948Y-75605000D01*
X99683052Y-75605000D01*
X99916247Y-75568065D01*
X100140802Y-75495102D01*
X100351163Y-75387918D01*
X100351169Y-75387914D01*
X100434104Y-75327658D01*
X100434105Y-75327658D01*
X99694408Y-74587962D01*
X99757993Y-74570925D01*
X99872007Y-74505099D01*
X99965099Y-74412007D01*
X100030925Y-74297993D01*
X100047962Y-74234409D01*
X100787658Y-74974105D01*
X100787658Y-74974104D01*
X100847914Y-74891169D01*
X100847918Y-74891163D01*
X100955102Y-74680802D01*
X101028065Y-74456247D01*
X101065000Y-74223052D01*
X101065000Y-73986947D01*
X101028065Y-73753752D01*
X100955102Y-73529197D01*
X100847914Y-73318828D01*
X100787658Y-73235894D01*
X100787658Y-73235893D01*
X100047962Y-73975590D01*
X100030925Y-73912007D01*
X99965099Y-73797993D01*
X99872007Y-73704901D01*
X99757993Y-73639075D01*
X99694409Y-73622037D01*
X100434105Y-72882340D01*
X100432551Y-72862594D01*
X100446915Y-72794216D01*
X100483284Y-72752547D01*
X100542510Y-72709517D01*
X100709517Y-72542510D01*
X100848343Y-72351433D01*
X100955568Y-72140992D01*
X100966198Y-72108273D01*
X101005632Y-72050601D01*
X101069990Y-72023402D01*
X101138837Y-72035314D01*
G37*
%TD.AperFunction*%
%TA.AperFunction,Conductor*%
G36*
X60281420Y-72491833D02*
G01*
X60295315Y-72507870D01*
X60320483Y-72542510D01*
X60487490Y-72709517D01*
X60546716Y-72752547D01*
X60589381Y-72807875D01*
X60597448Y-72862593D01*
X60595893Y-72882340D01*
X61335591Y-73622037D01*
X61272007Y-73639075D01*
X61157993Y-73704901D01*
X61064901Y-73797993D01*
X60999075Y-73912007D01*
X60982037Y-73975590D01*
X60242340Y-73235893D01*
X60222593Y-73237448D01*
X60154215Y-73223084D01*
X60112547Y-73186716D01*
X60069517Y-73127490D01*
X59902510Y-72960483D01*
X59902460Y-72960447D01*
X59867873Y-72935318D01*
X59825207Y-72879989D01*
X59819228Y-72810375D01*
X59851833Y-72748580D01*
X59867873Y-72734682D01*
X59902510Y-72709517D01*
X60069517Y-72542510D01*
X60094682Y-72507872D01*
X60150011Y-72465207D01*
X60219625Y-72459228D01*
X60281420Y-72491833D01*
G37*
%TD.AperFunction*%
%TA.AperFunction,Conductor*%
G36*
X62821420Y-72491833D02*
G01*
X62835315Y-72507870D01*
X62860483Y-72542510D01*
X63027490Y-72709517D01*
X63062127Y-72734683D01*
X63104792Y-72790013D01*
X63110771Y-72859626D01*
X63078165Y-72921421D01*
X63062130Y-72935315D01*
X63060358Y-72936603D01*
X63027488Y-72960484D01*
X62860482Y-73127490D01*
X62817451Y-73186717D01*
X62762120Y-73229382D01*
X62707405Y-73237448D01*
X62687658Y-73235893D01*
X61947962Y-73975590D01*
X61930925Y-73912007D01*
X61865099Y-73797993D01*
X61772007Y-73704901D01*
X61657993Y-73639075D01*
X61594409Y-73622037D01*
X62334105Y-72882340D01*
X62332551Y-72862594D01*
X62346915Y-72794216D01*
X62383284Y-72752547D01*
X62442510Y-72709517D01*
X62609517Y-72542510D01*
X62634682Y-72507872D01*
X62690011Y-72465207D01*
X62759625Y-72459228D01*
X62821420Y-72491833D01*
G37*
%TD.AperFunction*%
%TA.AperFunction,Conductor*%
G36*
X80601420Y-72491833D02*
G01*
X80615315Y-72507870D01*
X80640483Y-72542510D01*
X80807490Y-72709517D01*
X80866716Y-72752547D01*
X80909381Y-72807875D01*
X80917448Y-72862593D01*
X80915893Y-72882340D01*
X81655591Y-73622037D01*
X81592007Y-73639075D01*
X81477993Y-73704901D01*
X81384901Y-73797993D01*
X81319075Y-73912007D01*
X81302037Y-73975590D01*
X80562340Y-73235893D01*
X80542593Y-73237448D01*
X80474215Y-73223084D01*
X80432547Y-73186716D01*
X80389517Y-73127490D01*
X80222510Y-72960483D01*
X80222460Y-72960447D01*
X80187873Y-72935318D01*
X80145207Y-72879989D01*
X80139228Y-72810375D01*
X80171833Y-72748580D01*
X80187873Y-72734682D01*
X80222510Y-72709517D01*
X80389517Y-72542510D01*
X80414682Y-72507872D01*
X80470011Y-72465207D01*
X80539625Y-72459228D01*
X80601420Y-72491833D01*
G37*
%TD.AperFunction*%
%TA.AperFunction,Conductor*%
G36*
X83141420Y-72491833D02*
G01*
X83155315Y-72507870D01*
X83180483Y-72542510D01*
X83347490Y-72709517D01*
X83382127Y-72734683D01*
X83424792Y-72790013D01*
X83430771Y-72859626D01*
X83398165Y-72921421D01*
X83382130Y-72935315D01*
X83380358Y-72936603D01*
X83347488Y-72960484D01*
X83180482Y-73127490D01*
X83137451Y-73186717D01*
X83082120Y-73229382D01*
X83027405Y-73237448D01*
X83007658Y-73235893D01*
X82267962Y-73975590D01*
X82250925Y-73912007D01*
X82185099Y-73797993D01*
X82092007Y-73704901D01*
X81977993Y-73639075D01*
X81914409Y-73622037D01*
X82654105Y-72882340D01*
X82652551Y-72862594D01*
X82666915Y-72794216D01*
X82703284Y-72752547D01*
X82762510Y-72709517D01*
X82929517Y-72542510D01*
X82954682Y-72507872D01*
X83010011Y-72465207D01*
X83079625Y-72459228D01*
X83141420Y-72491833D01*
G37*
%TD.AperFunction*%
%TA.AperFunction,Conductor*%
G36*
X98381420Y-72491833D02*
G01*
X98395315Y-72507870D01*
X98420483Y-72542510D01*
X98587490Y-72709517D01*
X98646716Y-72752547D01*
X98689381Y-72807875D01*
X98697448Y-72862593D01*
X98695893Y-72882340D01*
X99435591Y-73622037D01*
X99372007Y-73639075D01*
X99257993Y-73704901D01*
X99164901Y-73797993D01*
X99099075Y-73912007D01*
X99082037Y-73975590D01*
X98342340Y-73235893D01*
X98322593Y-73237448D01*
X98254215Y-73223084D01*
X98212547Y-73186716D01*
X98169517Y-73127490D01*
X98002510Y-72960483D01*
X98002460Y-72960447D01*
X97967873Y-72935318D01*
X97925207Y-72879989D01*
X97919228Y-72810375D01*
X97951833Y-72748580D01*
X97967873Y-72734682D01*
X98002510Y-72709517D01*
X98169517Y-72542510D01*
X98194682Y-72507872D01*
X98250011Y-72465207D01*
X98319625Y-72459228D01*
X98381420Y-72491833D01*
G37*
%TD.AperFunction*%
%TA.AperFunction,Conductor*%
G36*
X55919075Y-71757993D02*
G01*
X55984901Y-71872007D01*
X56077993Y-71965099D01*
X56192007Y-72030925D01*
X56255590Y-72047962D01*
X55515893Y-72787658D01*
X55517448Y-72807405D01*
X55503084Y-72875783D01*
X55466717Y-72917451D01*
X55407490Y-72960482D01*
X55240484Y-73127488D01*
X55237277Y-73131902D01*
X55222269Y-73152560D01*
X55215318Y-73162127D01*
X55159987Y-73204792D01*
X55090374Y-73210771D01*
X55028579Y-73178165D01*
X55014682Y-73162127D01*
X54989517Y-73127490D01*
X54822510Y-72960483D01*
X54822460Y-72960447D01*
X54787873Y-72935318D01*
X54745207Y-72879989D01*
X54739228Y-72810375D01*
X54771833Y-72748580D01*
X54787873Y-72734682D01*
X54822510Y-72709517D01*
X54989517Y-72542510D01*
X55032547Y-72483283D01*
X55087877Y-72440618D01*
X55142594Y-72432551D01*
X55162340Y-72434105D01*
X55902037Y-71694408D01*
X55919075Y-71757993D01*
G37*
%TD.AperFunction*%
%TA.AperFunction,Conductor*%
G36*
X57607657Y-72434104D02*
G01*
X57627404Y-72432550D01*
X57695781Y-72446914D01*
X57737451Y-72483282D01*
X57780483Y-72542510D01*
X57947490Y-72709517D01*
X57982127Y-72734683D01*
X58024792Y-72790013D01*
X58030771Y-72859626D01*
X57998165Y-72921421D01*
X57982130Y-72935315D01*
X57980358Y-72936603D01*
X57947488Y-72960484D01*
X57780484Y-73127488D01*
X57777277Y-73131902D01*
X57762269Y-73152560D01*
X57755318Y-73162127D01*
X57699987Y-73204792D01*
X57630374Y-73210771D01*
X57568579Y-73178165D01*
X57554682Y-73162127D01*
X57529517Y-73127490D01*
X57362510Y-72960483D01*
X57362460Y-72960447D01*
X57303283Y-72917452D01*
X57260617Y-72862122D01*
X57252550Y-72807404D01*
X57254104Y-72787657D01*
X56514408Y-72047962D01*
X56577993Y-72030925D01*
X56692007Y-71965099D01*
X56785099Y-71872007D01*
X56850925Y-71757993D01*
X56867962Y-71694409D01*
X57607657Y-72434104D01*
G37*
%TD.AperFunction*%
%TA.AperFunction,Conductor*%
G36*
X66079075Y-71757993D02*
G01*
X66144901Y-71872007D01*
X66237993Y-71965099D01*
X66352007Y-72030925D01*
X66415590Y-72047962D01*
X65675893Y-72787658D01*
X65677448Y-72807405D01*
X65663084Y-72875783D01*
X65626717Y-72917451D01*
X65567490Y-72960482D01*
X65400484Y-73127488D01*
X65397277Y-73131902D01*
X65382269Y-73152560D01*
X65375318Y-73162127D01*
X65319987Y-73204792D01*
X65250374Y-73210771D01*
X65188579Y-73178165D01*
X65174682Y-73162127D01*
X65149517Y-73127490D01*
X64982510Y-72960483D01*
X64982460Y-72960447D01*
X64947873Y-72935318D01*
X64905207Y-72879989D01*
X64899228Y-72810375D01*
X64931833Y-72748580D01*
X64947873Y-72734682D01*
X64982510Y-72709517D01*
X65149517Y-72542510D01*
X65192547Y-72483283D01*
X65247877Y-72440618D01*
X65302594Y-72432551D01*
X65322340Y-72434105D01*
X66062037Y-71694408D01*
X66079075Y-71757993D01*
G37*
%TD.AperFunction*%
%TA.AperFunction,Conductor*%
G36*
X67767657Y-72434104D02*
G01*
X67787404Y-72432550D01*
X67855781Y-72446914D01*
X67897451Y-72483282D01*
X67940483Y-72542510D01*
X68107490Y-72709517D01*
X68142127Y-72734683D01*
X68184792Y-72790013D01*
X68190771Y-72859626D01*
X68158165Y-72921421D01*
X68142130Y-72935315D01*
X68140358Y-72936603D01*
X68107488Y-72960484D01*
X67940484Y-73127488D01*
X67937277Y-73131902D01*
X67922269Y-73152560D01*
X67915318Y-73162127D01*
X67859987Y-73204792D01*
X67790374Y-73210771D01*
X67728579Y-73178165D01*
X67714682Y-73162127D01*
X67689517Y-73127490D01*
X67522510Y-72960483D01*
X67522460Y-72960447D01*
X67463283Y-72917452D01*
X67420617Y-72862122D01*
X67412550Y-72807404D01*
X67414104Y-72787657D01*
X66674408Y-72047962D01*
X66737993Y-72030925D01*
X66852007Y-71965099D01*
X66945099Y-71872007D01*
X67010925Y-71757993D01*
X67027962Y-71694408D01*
X67767657Y-72434104D01*
G37*
%TD.AperFunction*%
%TA.AperFunction,Conductor*%
G36*
X73699075Y-71757993D02*
G01*
X73764901Y-71872007D01*
X73857993Y-71965099D01*
X73972007Y-72030925D01*
X74035590Y-72047962D01*
X73295893Y-72787658D01*
X73297448Y-72807405D01*
X73283084Y-72875783D01*
X73246717Y-72917451D01*
X73187490Y-72960482D01*
X73020484Y-73127488D01*
X73017277Y-73131902D01*
X73002269Y-73152560D01*
X72995318Y-73162127D01*
X72939987Y-73204792D01*
X72870374Y-73210771D01*
X72808579Y-73178165D01*
X72794682Y-73162127D01*
X72769517Y-73127490D01*
X72602510Y-72960483D01*
X72602460Y-72960447D01*
X72567873Y-72935318D01*
X72525207Y-72879989D01*
X72519228Y-72810375D01*
X72551833Y-72748580D01*
X72567873Y-72734682D01*
X72602510Y-72709517D01*
X72769517Y-72542510D01*
X72812547Y-72483283D01*
X72867877Y-72440618D01*
X72922594Y-72432551D01*
X72942340Y-72434105D01*
X73682037Y-71694408D01*
X73699075Y-71757993D01*
G37*
%TD.AperFunction*%
%TA.AperFunction,Conductor*%
G36*
X75387657Y-72434104D02*
G01*
X75407404Y-72432550D01*
X75475781Y-72446914D01*
X75517451Y-72483282D01*
X75560483Y-72542510D01*
X75727490Y-72709517D01*
X75762127Y-72734683D01*
X75804792Y-72790013D01*
X75810771Y-72859626D01*
X75778165Y-72921421D01*
X75762130Y-72935315D01*
X75760358Y-72936603D01*
X75727488Y-72960484D01*
X75560484Y-73127488D01*
X75557277Y-73131902D01*
X75542269Y-73152560D01*
X75535318Y-73162127D01*
X75479987Y-73204792D01*
X75410374Y-73210771D01*
X75348579Y-73178165D01*
X75334682Y-73162127D01*
X75309517Y-73127490D01*
X75142510Y-72960483D01*
X75142460Y-72960447D01*
X75083283Y-72917452D01*
X75040617Y-72862122D01*
X75032550Y-72807404D01*
X75034104Y-72787657D01*
X74294408Y-72047962D01*
X74357993Y-72030925D01*
X74472007Y-71965099D01*
X74565099Y-71872007D01*
X74630925Y-71757993D01*
X74647962Y-71694409D01*
X75387657Y-72434104D01*
G37*
%TD.AperFunction*%
%TA.AperFunction,Conductor*%
G36*
X86399075Y-71757993D02*
G01*
X86464901Y-71872007D01*
X86557993Y-71965099D01*
X86672007Y-72030925D01*
X86735590Y-72047962D01*
X85995893Y-72787658D01*
X85997448Y-72807405D01*
X85983084Y-72875783D01*
X85946717Y-72917451D01*
X85887490Y-72960482D01*
X85720484Y-73127488D01*
X85717277Y-73131902D01*
X85702269Y-73152560D01*
X85695318Y-73162127D01*
X85639987Y-73204792D01*
X85570374Y-73210771D01*
X85508579Y-73178165D01*
X85494682Y-73162127D01*
X85469517Y-73127490D01*
X85302510Y-72960483D01*
X85302460Y-72960447D01*
X85267873Y-72935318D01*
X85225207Y-72879989D01*
X85219228Y-72810375D01*
X85251833Y-72748580D01*
X85267873Y-72734682D01*
X85302510Y-72709517D01*
X85469517Y-72542510D01*
X85512547Y-72483283D01*
X85567877Y-72440618D01*
X85622594Y-72432551D01*
X85642340Y-72434105D01*
X86382037Y-71694408D01*
X86399075Y-71757993D01*
G37*
%TD.AperFunction*%
%TA.AperFunction,Conductor*%
G36*
X88087657Y-72434104D02*
G01*
X88107404Y-72432550D01*
X88175781Y-72446914D01*
X88217451Y-72483282D01*
X88260483Y-72542510D01*
X88427490Y-72709517D01*
X88462127Y-72734683D01*
X88504792Y-72790013D01*
X88510771Y-72859626D01*
X88478165Y-72921421D01*
X88462130Y-72935315D01*
X88460358Y-72936603D01*
X88427488Y-72960484D01*
X88260484Y-73127488D01*
X88257277Y-73131902D01*
X88242269Y-73152560D01*
X88235318Y-73162127D01*
X88179987Y-73204792D01*
X88110374Y-73210771D01*
X88048579Y-73178165D01*
X88034682Y-73162127D01*
X88009517Y-73127490D01*
X87842510Y-72960483D01*
X87842460Y-72960447D01*
X87783283Y-72917452D01*
X87740617Y-72862122D01*
X87732550Y-72807404D01*
X87734104Y-72787657D01*
X86994408Y-72047962D01*
X87057993Y-72030925D01*
X87172007Y-71965099D01*
X87265099Y-71872007D01*
X87330925Y-71757993D01*
X87347962Y-71694409D01*
X88087657Y-72434104D01*
G37*
%TD.AperFunction*%
%TA.AperFunction,Conductor*%
G36*
X91479075Y-71757993D02*
G01*
X91544901Y-71872007D01*
X91637993Y-71965099D01*
X91752007Y-72030925D01*
X91815590Y-72047962D01*
X91075893Y-72787658D01*
X91077448Y-72807405D01*
X91063084Y-72875783D01*
X91026717Y-72917451D01*
X90967490Y-72960482D01*
X90800484Y-73127488D01*
X90797277Y-73131902D01*
X90782269Y-73152560D01*
X90775318Y-73162127D01*
X90719987Y-73204792D01*
X90650374Y-73210771D01*
X90588579Y-73178165D01*
X90574682Y-73162127D01*
X90549517Y-73127490D01*
X90382510Y-72960483D01*
X90382460Y-72960447D01*
X90347873Y-72935318D01*
X90305207Y-72879989D01*
X90299228Y-72810375D01*
X90331833Y-72748580D01*
X90347873Y-72734682D01*
X90382510Y-72709517D01*
X90549517Y-72542510D01*
X90592547Y-72483283D01*
X90647877Y-72440618D01*
X90702594Y-72432551D01*
X90722340Y-72434105D01*
X91462037Y-71694408D01*
X91479075Y-71757993D01*
G37*
%TD.AperFunction*%
%TA.AperFunction,Conductor*%
G36*
X93167657Y-72434104D02*
G01*
X93187404Y-72432550D01*
X93255781Y-72446914D01*
X93297451Y-72483282D01*
X93340483Y-72542510D01*
X93507490Y-72709517D01*
X93542127Y-72734683D01*
X93584792Y-72790013D01*
X93590771Y-72859626D01*
X93558165Y-72921421D01*
X93542130Y-72935315D01*
X93540358Y-72936603D01*
X93507488Y-72960484D01*
X93340484Y-73127488D01*
X93337277Y-73131902D01*
X93322269Y-73152560D01*
X93315318Y-73162127D01*
X93259987Y-73204792D01*
X93190374Y-73210771D01*
X93128579Y-73178165D01*
X93114682Y-73162127D01*
X93089517Y-73127490D01*
X92922510Y-72960483D01*
X92922460Y-72960447D01*
X92863283Y-72917452D01*
X92820617Y-72862122D01*
X92812550Y-72807404D01*
X92814104Y-72787657D01*
X92074408Y-72047962D01*
X92137993Y-72030925D01*
X92252007Y-71965099D01*
X92345099Y-71872007D01*
X92410925Y-71757993D01*
X92427962Y-71694409D01*
X93167657Y-72434104D01*
G37*
%TD.AperFunction*%
%TA.AperFunction,Conductor*%
G36*
X38123322Y-50253332D02*
G01*
X38190341Y-50273077D01*
X38236048Y-50325923D01*
X38245929Y-50395090D01*
X38216846Y-50458620D01*
X38189182Y-50482324D01*
X38155859Y-50503263D01*
X37914326Y-50695879D01*
X37695879Y-50914326D01*
X37503264Y-51155858D01*
X37338903Y-51417437D01*
X37204868Y-51695763D01*
X37204862Y-51695777D01*
X37102835Y-51987352D01*
X37102831Y-51987364D01*
X37034089Y-52288544D01*
X37034086Y-52288562D01*
X36999500Y-52595528D01*
X36999500Y-52904471D01*
X37034086Y-53211437D01*
X37034089Y-53211455D01*
X37102831Y-53512635D01*
X37102835Y-53512647D01*
X37204862Y-53804222D01*
X37204868Y-53804236D01*
X37338903Y-54082562D01*
X37338905Y-54082565D01*
X37503265Y-54344143D01*
X37590287Y-54453265D01*
X37693400Y-54582565D01*
X37695880Y-54585674D01*
X37914326Y-54804120D01*
X38155857Y-54996735D01*
X38417435Y-55161095D01*
X38695771Y-55295135D01*
X38695777Y-55295137D01*
X38987352Y-55397164D01*
X38987364Y-55397168D01*
X39288548Y-55465911D01*
X39288554Y-55465911D01*
X39288562Y-55465913D01*
X39493206Y-55488970D01*
X39595529Y-55500499D01*
X39595532Y-55500500D01*
X39595535Y-55500500D01*
X39904468Y-55500500D01*
X39904469Y-55500499D01*
X40061356Y-55482822D01*
X40211437Y-55465913D01*
X40211442Y-55465912D01*
X40211452Y-55465911D01*
X40512636Y-55397168D01*
X40804229Y-55295135D01*
X41082565Y-55161095D01*
X41344143Y-54996735D01*
X41585674Y-54804120D01*
X41804120Y-54585674D01*
X41996735Y-54344143D01*
X42161095Y-54082565D01*
X42295135Y-53804229D01*
X42397168Y-53512636D01*
X42465911Y-53211452D01*
X42478973Y-53095528D01*
X42500499Y-52904471D01*
X42500500Y-52904467D01*
X42500500Y-52595532D01*
X42500499Y-52595528D01*
X42465913Y-52288562D01*
X42465910Y-52288544D01*
X42444733Y-52195763D01*
X42397168Y-51987364D01*
X42372699Y-51917437D01*
X42295137Y-51695777D01*
X42295135Y-51695771D01*
X42161095Y-51417435D01*
X41996735Y-51155857D01*
X41804120Y-50914326D01*
X41585674Y-50695880D01*
X41344143Y-50503265D01*
X41330250Y-50494535D01*
X41315522Y-50485281D01*
X41269231Y-50432946D01*
X41258583Y-50363892D01*
X41286958Y-50300044D01*
X41345348Y-50261672D01*
X41381602Y-50256287D01*
X131048975Y-50337606D01*
X131115997Y-50357351D01*
X131161704Y-50410197D01*
X131171585Y-50479364D01*
X131142502Y-50542894D01*
X131083690Y-50580615D01*
X131076456Y-50582497D01*
X130987361Y-50602832D01*
X130987352Y-50602835D01*
X130695777Y-50704862D01*
X130695763Y-50704868D01*
X130417437Y-50838903D01*
X130155858Y-51003264D01*
X129914326Y-51195879D01*
X129695879Y-51414326D01*
X129503264Y-51655858D01*
X129338903Y-51917437D01*
X129204868Y-52195763D01*
X129204862Y-52195777D01*
X129102835Y-52487352D01*
X129102831Y-52487364D01*
X129034089Y-52788544D01*
X129034086Y-52788562D01*
X128999500Y-53095528D01*
X128999500Y-53404471D01*
X129034086Y-53711437D01*
X129034089Y-53711455D01*
X129102831Y-54012635D01*
X129102835Y-54012647D01*
X129204862Y-54304222D01*
X129204868Y-54304236D01*
X129338903Y-54582562D01*
X129378688Y-54645879D01*
X129503265Y-54844143D01*
X129695880Y-55085674D01*
X129914326Y-55304120D01*
X130155857Y-55496735D01*
X130417435Y-55661095D01*
X130695771Y-55795135D01*
X130695777Y-55795137D01*
X130987352Y-55897164D01*
X130987364Y-55897168D01*
X131288548Y-55965911D01*
X131288554Y-55965911D01*
X131288562Y-55965913D01*
X131493206Y-55988970D01*
X131595529Y-56000499D01*
X131595532Y-56000500D01*
X131595535Y-56000500D01*
X131904468Y-56000500D01*
X131904469Y-56000499D01*
X132061356Y-55982822D01*
X132211437Y-55965913D01*
X132211442Y-55965912D01*
X132211452Y-55965911D01*
X132512636Y-55897168D01*
X132804229Y-55795135D01*
X133082565Y-55661095D01*
X133344143Y-55496735D01*
X133585674Y-55304120D01*
X133804120Y-55085674D01*
X133996735Y-54844143D01*
X134161095Y-54582565D01*
X134295135Y-54304229D01*
X134397168Y-54012636D01*
X134465911Y-53711452D01*
X134500500Y-53404465D01*
X134500500Y-53095535D01*
X134488970Y-52993206D01*
X134465913Y-52788562D01*
X134465910Y-52788544D01*
X134397168Y-52487364D01*
X134397164Y-52487352D01*
X134295137Y-52195777D01*
X134295135Y-52195771D01*
X134161095Y-51917435D01*
X133996735Y-51655857D01*
X133804120Y-51414326D01*
X133585674Y-51195880D01*
X133344143Y-51003265D01*
X133082565Y-50838905D01*
X133082562Y-50838903D01*
X132804236Y-50704868D01*
X132804222Y-50704862D01*
X132512647Y-50602835D01*
X132512635Y-50602831D01*
X132429138Y-50583774D01*
X132368159Y-50549665D01*
X132335301Y-50488004D01*
X132340996Y-50418367D01*
X132383436Y-50362863D01*
X132449146Y-50339115D01*
X132456839Y-50338883D01*
X198275614Y-50398573D01*
X198342634Y-50418318D01*
X198388341Y-50471164D01*
X198399500Y-50522573D01*
X198399500Y-147875500D01*
X198379815Y-147942539D01*
X198327011Y-147988294D01*
X198275500Y-147999500D01*
X144124500Y-147999500D01*
X144057461Y-147979815D01*
X144011706Y-147927011D01*
X144000500Y-147875500D01*
X144000500Y-145631902D01*
X144919500Y-145631902D01*
X144919500Y-145868097D01*
X144956446Y-146101368D01*
X145029433Y-146325996D01*
X145136519Y-146536163D01*
X145136657Y-146536433D01*
X145195818Y-146617861D01*
X145219298Y-146683666D01*
X145219500Y-146690746D01*
X145219500Y-146769752D01*
X145231131Y-146828229D01*
X145231132Y-146828230D01*
X145275447Y-146894552D01*
X145341769Y-146938867D01*
X145341770Y-146938868D01*
X145400247Y-146950499D01*
X145400250Y-146950500D01*
X145400252Y-146950500D01*
X145479253Y-146950500D01*
X145546292Y-146970185D01*
X145552138Y-146974182D01*
X145626221Y-147028006D01*
X145633567Y-147033343D01*
X145767659Y-147101666D01*
X145844003Y-147140566D01*
X145844005Y-147140566D01*
X145844008Y-147140568D01*
X145964412Y-147179689D01*
X146068631Y-147213553D01*
X146301903Y-147250500D01*
X146301908Y-147250500D01*
X146538097Y-147250500D01*
X146771368Y-147213553D01*
X146772870Y-147213065D01*
X146995992Y-147140568D01*
X147206433Y-147033343D01*
X147244238Y-147005875D01*
X147287862Y-146974182D01*
X147353668Y-146950702D01*
X147360747Y-146950500D01*
X147439750Y-146950500D01*
X147439751Y-146950499D01*
X147454568Y-146947552D01*
X147498229Y-146938868D01*
X147498229Y-146938867D01*
X147498231Y-146938867D01*
X147564552Y-146894552D01*
X147608867Y-146828231D01*
X147614599Y-146799413D01*
X147646982Y-146737504D01*
X147707697Y-146702929D01*
X147777467Y-146706667D01*
X147823897Y-146735924D01*
X147982490Y-146894517D01*
X148173567Y-147033343D01*
X148272991Y-147084002D01*
X148384003Y-147140566D01*
X148384005Y-147140566D01*
X148384008Y-147140568D01*
X148504412Y-147179689D01*
X148608631Y-147213553D01*
X148841903Y-147250500D01*
X148841908Y-147250500D01*
X149078097Y-147250500D01*
X149311368Y-147213553D01*
X149312870Y-147213065D01*
X149535992Y-147140568D01*
X149746433Y-147033343D01*
X149937510Y-146894517D01*
X150104517Y-146727510D01*
X150151370Y-146663022D01*
X150155713Y-146658199D01*
X150180150Y-146643142D01*
X150202877Y-146625618D01*
X150210393Y-146624509D01*
X150215199Y-146621549D01*
X150228730Y-146621806D01*
X150257594Y-146617551D01*
X150277340Y-146619105D01*
X151017037Y-145879408D01*
X151034075Y-145942993D01*
X151099901Y-146057007D01*
X151192993Y-146150099D01*
X151307007Y-146215925D01*
X151370590Y-146232962D01*
X150630893Y-146972658D01*
X150713828Y-147032914D01*
X150924197Y-147140102D01*
X151148752Y-147213065D01*
X151148751Y-147213065D01*
X151381948Y-147250000D01*
X151618052Y-147250000D01*
X151851247Y-147213065D01*
X152075802Y-147140102D01*
X152286163Y-147032918D01*
X152286169Y-147032914D01*
X152369104Y-146972658D01*
X152369105Y-146972658D01*
X151629408Y-146232962D01*
X151692993Y-146215925D01*
X151807007Y-146150099D01*
X151900099Y-146057007D01*
X151965925Y-145942993D01*
X151982962Y-145879409D01*
X152722658Y-146619105D01*
X152722658Y-146619104D01*
X152782914Y-146536169D01*
X152782918Y-146536163D01*
X152890102Y-146325802D01*
X152963065Y-146101247D01*
X153000000Y-145868052D01*
X153000000Y-145631947D01*
X152963065Y-145398752D01*
X152890102Y-145174197D01*
X152782914Y-144963828D01*
X152722658Y-144880894D01*
X152722658Y-144880893D01*
X151982962Y-145620590D01*
X151965925Y-145557007D01*
X151900099Y-145442993D01*
X151807007Y-145349901D01*
X151692993Y-145284075D01*
X151629409Y-145267037D01*
X152369105Y-144527340D01*
X152369104Y-144527338D01*
X152286174Y-144467087D01*
X152075802Y-144359897D01*
X151851247Y-144286934D01*
X151851248Y-144286934D01*
X151618052Y-144250000D01*
X151381948Y-144250000D01*
X151148752Y-144286934D01*
X150924197Y-144359897D01*
X150713830Y-144467084D01*
X150630894Y-144527340D01*
X151370591Y-145267037D01*
X151307007Y-145284075D01*
X151192993Y-145349901D01*
X151099901Y-145442993D01*
X151034075Y-145557007D01*
X151017037Y-145620590D01*
X150277340Y-144880893D01*
X150257593Y-144882448D01*
X150253860Y-144881663D01*
X150250222Y-144882808D01*
X150219936Y-144874537D01*
X150189215Y-144868084D01*
X150185429Y-144865114D01*
X150182821Y-144864402D01*
X150173431Y-144855701D01*
X150155712Y-144841800D01*
X150151370Y-144836978D01*
X150104517Y-144772490D01*
X149937510Y-144605483D01*
X149746433Y-144466657D01*
X149535996Y-144359433D01*
X149311368Y-144286446D01*
X149078097Y-144249500D01*
X149078092Y-144249500D01*
X148841908Y-144249500D01*
X148841903Y-144249500D01*
X148608631Y-144286446D01*
X148384003Y-144359433D01*
X148173566Y-144466657D01*
X147982491Y-144605482D01*
X147823897Y-144764076D01*
X147762574Y-144797560D01*
X147692882Y-144792576D01*
X147636949Y-144750704D01*
X147614598Y-144700583D01*
X147608867Y-144671769D01*
X147564577Y-144605485D01*
X147564552Y-144605447D01*
X147498230Y-144561132D01*
X147498229Y-144561131D01*
X147439752Y-144549500D01*
X147439748Y-144549500D01*
X147360747Y-144549500D01*
X147293708Y-144529815D01*
X147287862Y-144525818D01*
X147206436Y-144466659D01*
X147206435Y-144466658D01*
X147206433Y-144466657D01*
X147140715Y-144433172D01*
X146995996Y-144359433D01*
X146771368Y-144286446D01*
X146538097Y-144249500D01*
X146538092Y-144249500D01*
X146301908Y-144249500D01*
X146301903Y-144249500D01*
X146068631Y-144286446D01*
X145844003Y-144359433D01*
X145633563Y-144466659D01*
X145552138Y-144525818D01*
X145486332Y-144549298D01*
X145479253Y-144549500D01*
X145400247Y-144549500D01*
X145341770Y-144561131D01*
X145341769Y-144561132D01*
X145275447Y-144605447D01*
X145231132Y-144671769D01*
X145231131Y-144671770D01*
X145219500Y-144730247D01*
X145219500Y-144809253D01*
X145199815Y-144876292D01*
X145195818Y-144882138D01*
X145136659Y-144963563D01*
X145029433Y-145174003D01*
X144956446Y-145398631D01*
X144919500Y-145631902D01*
X144000500Y-145631902D01*
X144000500Y-143645528D01*
X192249500Y-143645528D01*
X192249500Y-143954471D01*
X192284086Y-144261437D01*
X192284089Y-144261455D01*
X192352831Y-144562635D01*
X192352835Y-144562647D01*
X192454862Y-144854222D01*
X192454868Y-144854236D01*
X192588903Y-145132562D01*
X192588905Y-145132565D01*
X192753265Y-145394143D01*
X192945880Y-145635674D01*
X193164326Y-145854120D01*
X193405857Y-146046735D01*
X193667435Y-146211095D01*
X193945771Y-146345135D01*
X193945777Y-146345137D01*
X194237352Y-146447164D01*
X194237364Y-146447168D01*
X194538548Y-146515911D01*
X194538554Y-146515911D01*
X194538562Y-146515913D01*
X194718290Y-146536163D01*
X194845529Y-146550499D01*
X194845532Y-146550500D01*
X194845535Y-146550500D01*
X195154468Y-146550500D01*
X195154469Y-146550499D01*
X195311356Y-146532822D01*
X195461437Y-146515913D01*
X195461442Y-146515912D01*
X195461452Y-146515911D01*
X195762636Y-146447168D01*
X196054229Y-146345135D01*
X196332565Y-146211095D01*
X196594143Y-146046735D01*
X196835674Y-145854120D01*
X197054120Y-145635674D01*
X197246735Y-145394143D01*
X197411095Y-145132565D01*
X197545135Y-144854229D01*
X197647168Y-144562636D01*
X197715911Y-144261452D01*
X197717202Y-144250000D01*
X197750499Y-143954471D01*
X197750500Y-143954467D01*
X197750500Y-143645532D01*
X197750499Y-143645528D01*
X197715913Y-143338562D01*
X197715910Y-143338544D01*
X197647168Y-143037364D01*
X197647164Y-143037352D01*
X197545137Y-142745777D01*
X197545135Y-142745771D01*
X197411095Y-142467435D01*
X197246735Y-142205857D01*
X197054120Y-141964326D01*
X196835674Y-141745880D01*
X196594143Y-141553265D01*
X196332565Y-141388905D01*
X196332562Y-141388903D01*
X196054236Y-141254868D01*
X196054222Y-141254862D01*
X195762647Y-141152835D01*
X195762635Y-141152831D01*
X195461455Y-141084089D01*
X195461437Y-141084086D01*
X195154471Y-141049500D01*
X195154465Y-141049500D01*
X194845535Y-141049500D01*
X194845528Y-141049500D01*
X194538562Y-141084086D01*
X194538544Y-141084089D01*
X194237364Y-141152831D01*
X194237352Y-141152835D01*
X193945777Y-141254862D01*
X193945763Y-141254868D01*
X193667437Y-141388903D01*
X193405858Y-141553264D01*
X193164326Y-141745879D01*
X192945879Y-141964326D01*
X192753264Y-142205858D01*
X192588903Y-142467437D01*
X192454868Y-142745763D01*
X192454862Y-142745777D01*
X192352835Y-143037352D01*
X192352831Y-143037364D01*
X192284089Y-143338544D01*
X192284086Y-143338562D01*
X192249500Y-143645528D01*
X144000500Y-143645528D01*
X144000500Y-131145528D01*
X192249500Y-131145528D01*
X192249500Y-131454471D01*
X192284086Y-131761437D01*
X192284089Y-131761455D01*
X192352831Y-132062635D01*
X192352835Y-132062647D01*
X192454862Y-132354222D01*
X192454868Y-132354236D01*
X192588903Y-132632562D01*
X192588905Y-132632565D01*
X192753265Y-132894143D01*
X192945880Y-133135674D01*
X193164326Y-133354120D01*
X193405857Y-133546735D01*
X193667435Y-133711095D01*
X193945771Y-133845135D01*
X193945777Y-133845137D01*
X194237352Y-133947164D01*
X194237364Y-133947168D01*
X194538548Y-134015911D01*
X194538554Y-134015911D01*
X194538562Y-134015913D01*
X194743206Y-134038970D01*
X194845529Y-134050499D01*
X194845532Y-134050500D01*
X194845535Y-134050500D01*
X195154468Y-134050500D01*
X195154469Y-134050499D01*
X195311356Y-134032822D01*
X195461437Y-134015913D01*
X195461442Y-134015912D01*
X195461452Y-134015911D01*
X195762636Y-133947168D01*
X196054229Y-133845135D01*
X196332565Y-133711095D01*
X196594143Y-133546735D01*
X196835674Y-133354120D01*
X197054120Y-133135674D01*
X197246735Y-132894143D01*
X197411095Y-132632565D01*
X197545135Y-132354229D01*
X197647168Y-132062636D01*
X197715911Y-131761452D01*
X197750500Y-131454465D01*
X197750500Y-131145535D01*
X197715911Y-130838548D01*
X197647168Y-130537364D01*
X197545135Y-130245771D01*
X197411095Y-129967435D01*
X197246735Y-129705857D01*
X197054120Y-129464326D01*
X196835674Y-129245880D01*
X196594143Y-129053265D01*
X196332565Y-128888905D01*
X196332562Y-128888903D01*
X196054236Y-128754868D01*
X196054222Y-128754862D01*
X195762647Y-128652835D01*
X195762635Y-128652831D01*
X195461455Y-128584089D01*
X195461437Y-128584086D01*
X195154471Y-128549500D01*
X195154465Y-128549500D01*
X194845535Y-128549500D01*
X194845528Y-128549500D01*
X194538562Y-128584086D01*
X194538544Y-128584089D01*
X194237364Y-128652831D01*
X194237352Y-128652835D01*
X193945777Y-128754862D01*
X193945763Y-128754868D01*
X193667437Y-128888903D01*
X193405858Y-129053264D01*
X193164326Y-129245879D01*
X192945879Y-129464326D01*
X192753264Y-129705858D01*
X192588903Y-129967437D01*
X192454868Y-130245763D01*
X192454862Y-130245777D01*
X192352835Y-130537352D01*
X192352831Y-130537364D01*
X192284089Y-130838544D01*
X192284086Y-130838562D01*
X192249500Y-131145528D01*
X144000500Y-131145528D01*
X144000500Y-127968886D01*
X144000499Y-127968872D01*
X143998960Y-127957188D01*
X143966270Y-127708884D01*
X143898398Y-127455581D01*
X143898394Y-127455571D01*
X143798046Y-127213309D01*
X143798041Y-127213299D01*
X143666924Y-126986196D01*
X143507281Y-126778148D01*
X143507274Y-126778140D01*
X143321860Y-126592726D01*
X143321851Y-126592718D01*
X143113803Y-126433075D01*
X142886700Y-126301958D01*
X142886690Y-126301953D01*
X142644428Y-126201605D01*
X142644421Y-126201603D01*
X142644419Y-126201602D01*
X142391116Y-126133730D01*
X142333339Y-126126123D01*
X142131127Y-126099500D01*
X142131120Y-126099500D01*
X42131120Y-126099500D01*
X41868880Y-126099500D01*
X41868872Y-126099500D01*
X41637772Y-126129926D01*
X41608884Y-126133730D01*
X41355581Y-126201602D01*
X41355571Y-126201605D01*
X41113309Y-126301953D01*
X41113299Y-126301958D01*
X40886196Y-126433075D01*
X40678148Y-126592718D01*
X40492718Y-126778148D01*
X40333075Y-126986196D01*
X40201958Y-127213299D01*
X40201953Y-127213309D01*
X40101605Y-127455571D01*
X40101602Y-127455581D01*
X40033730Y-127708885D01*
X39999500Y-127968872D01*
X39999500Y-147875500D01*
X39979815Y-147942539D01*
X39927011Y-147988294D01*
X39875500Y-147999500D01*
X35124500Y-147999500D01*
X35057461Y-147979815D01*
X35011706Y-147927011D01*
X35000500Y-147875500D01*
X35000500Y-121531491D01*
X42624500Y-121531491D01*
X42624500Y-121868508D01*
X42662231Y-122203381D01*
X42662233Y-122203397D01*
X42737223Y-122531953D01*
X42737227Y-122531965D01*
X42848532Y-122850054D01*
X42994752Y-123153683D01*
X42994754Y-123153686D01*
X43174054Y-123439039D01*
X43384175Y-123702523D01*
X43622477Y-123940825D01*
X43885961Y-124150946D01*
X44171314Y-124330246D01*
X44474949Y-124476469D01*
X44713848Y-124560063D01*
X44793034Y-124587772D01*
X44793046Y-124587776D01*
X45121606Y-124662767D01*
X45456492Y-124700499D01*
X45456493Y-124700500D01*
X45456496Y-124700500D01*
X45793507Y-124700500D01*
X45793507Y-124700499D01*
X46128394Y-124662767D01*
X46456954Y-124587776D01*
X46775051Y-124476469D01*
X47078686Y-124330246D01*
X47364039Y-124150946D01*
X47627523Y-123940825D01*
X47865825Y-123702523D01*
X48075946Y-123439039D01*
X48255246Y-123153686D01*
X48401469Y-122850051D01*
X48512776Y-122531954D01*
X48587767Y-122203394D01*
X48625500Y-121868504D01*
X48625500Y-121531496D01*
X48587767Y-121196606D01*
X48512776Y-120868046D01*
X48479129Y-120771888D01*
X75774300Y-120771888D01*
X75774300Y-121069711D01*
X75807641Y-121365628D01*
X75807644Y-121365642D01*
X75873913Y-121655988D01*
X75972273Y-121937085D01*
X76101486Y-122205399D01*
X76101488Y-122205402D01*
X76259933Y-122457565D01*
X76384452Y-122613706D01*
X76430464Y-122671404D01*
X76445615Y-122690402D01*
X76656198Y-122900985D01*
X76889035Y-123086667D01*
X77141198Y-123245112D01*
X77409516Y-123374327D01*
X77690611Y-123472686D01*
X77690613Y-123472686D01*
X77690614Y-123472687D01*
X77980957Y-123538956D01*
X77980966Y-123538957D01*
X77980971Y-123538958D01*
X78178249Y-123561185D01*
X78276889Y-123572299D01*
X78276892Y-123572300D01*
X78276895Y-123572300D01*
X78574708Y-123572300D01*
X78574709Y-123572299D01*
X78725949Y-123555258D01*
X78870628Y-123538958D01*
X78870631Y-123538957D01*
X78870643Y-123538956D01*
X79160986Y-123472687D01*
X79442084Y-123374327D01*
X79710402Y-123245112D01*
X79962565Y-123086667D01*
X80195402Y-122900985D01*
X80405985Y-122690402D01*
X80591667Y-122457565D01*
X80750112Y-122205402D01*
X80879327Y-121937084D01*
X80977687Y-121655986D01*
X81043956Y-121365643D01*
X81047695Y-121332463D01*
X81063002Y-121196602D01*
X81077300Y-121069705D01*
X81077300Y-120771895D01*
X81052293Y-120549949D01*
X81043958Y-120475971D01*
X81043957Y-120475966D01*
X81043956Y-120475957D01*
X80977687Y-120185614D01*
X80879327Y-119904516D01*
X80750112Y-119636198D01*
X80591667Y-119384035D01*
X80405985Y-119151198D01*
X80195402Y-118940615D01*
X80173979Y-118923531D01*
X80034404Y-118812223D01*
X79962565Y-118754933D01*
X79710402Y-118596488D01*
X79710399Y-118596486D01*
X79442085Y-118467273D01*
X79160987Y-118368913D01*
X79160989Y-118368913D01*
X78943228Y-118319211D01*
X78870643Y-118302644D01*
X78870640Y-118302643D01*
X78870628Y-118302641D01*
X78574711Y-118269300D01*
X78574705Y-118269300D01*
X78276895Y-118269300D01*
X78276888Y-118269300D01*
X77980971Y-118302641D01*
X77980957Y-118302644D01*
X77690611Y-118368913D01*
X77409514Y-118467273D01*
X77141200Y-118596486D01*
X76889036Y-118754932D01*
X76656198Y-118940614D01*
X76445614Y-119151198D01*
X76259932Y-119384036D01*
X76101486Y-119636200D01*
X75972273Y-119904514D01*
X75873913Y-120185611D01*
X75807644Y-120475957D01*
X75807641Y-120475971D01*
X75774300Y-120771888D01*
X48479129Y-120771888D01*
X48401469Y-120549949D01*
X48255246Y-120246314D01*
X48075946Y-119960961D01*
X47865825Y-119697477D01*
X47627523Y-119459175D01*
X47364039Y-119249054D01*
X47078686Y-119069754D01*
X47078683Y-119069752D01*
X46775054Y-118923532D01*
X46456965Y-118812227D01*
X46456953Y-118812223D01*
X46128397Y-118737233D01*
X46128381Y-118737231D01*
X45793508Y-118699500D01*
X45793504Y-118699500D01*
X45456496Y-118699500D01*
X45456491Y-118699500D01*
X45121618Y-118737231D01*
X45121602Y-118737233D01*
X44793046Y-118812223D01*
X44793034Y-118812227D01*
X44474945Y-118923532D01*
X44171316Y-119069752D01*
X43885962Y-119249053D01*
X43622477Y-119459174D01*
X43384174Y-119697477D01*
X43174053Y-119960962D01*
X42994752Y-120246316D01*
X42848532Y-120549945D01*
X42737227Y-120868034D01*
X42737223Y-120868046D01*
X42662233Y-121196602D01*
X42662231Y-121196618D01*
X42624500Y-121531491D01*
X35000500Y-121531491D01*
X35000500Y-113095528D01*
X36999500Y-113095528D01*
X36999500Y-113404471D01*
X37034086Y-113711437D01*
X37034089Y-113711455D01*
X37102831Y-114012635D01*
X37102835Y-114012647D01*
X37204862Y-114304222D01*
X37204868Y-114304236D01*
X37338903Y-114582562D01*
X37338905Y-114582565D01*
X37503265Y-114844143D01*
X37695880Y-115085674D01*
X37914326Y-115304120D01*
X38155857Y-115496735D01*
X38417435Y-115661095D01*
X38695771Y-115795135D01*
X38695777Y-115795137D01*
X38987352Y-115897164D01*
X38987364Y-115897168D01*
X39288548Y-115965911D01*
X39288554Y-115965911D01*
X39288562Y-115965913D01*
X39493206Y-115988970D01*
X39595529Y-116000499D01*
X39595532Y-116000500D01*
X39595535Y-116000500D01*
X39904468Y-116000500D01*
X39904469Y-116000499D01*
X40061356Y-115982822D01*
X40211437Y-115965913D01*
X40211442Y-115965912D01*
X40211452Y-115965911D01*
X40512636Y-115897168D01*
X40804229Y-115795135D01*
X41082565Y-115661095D01*
X41344143Y-115496735D01*
X41585674Y-115304120D01*
X41804120Y-115085674D01*
X41996735Y-114844143D01*
X42161095Y-114582565D01*
X42295135Y-114304229D01*
X42397168Y-114012636D01*
X42465911Y-113711452D01*
X42500500Y-113404465D01*
X42500500Y-113095535D01*
X42465911Y-112788548D01*
X42397168Y-112487364D01*
X42393631Y-112477257D01*
X42322165Y-112273019D01*
X42295135Y-112195771D01*
X42161095Y-111917435D01*
X41996735Y-111655857D01*
X41804120Y-111414326D01*
X41585674Y-111195880D01*
X41344143Y-111003265D01*
X41082565Y-110838905D01*
X41082562Y-110838903D01*
X40804236Y-110704868D01*
X40804222Y-110704862D01*
X40763064Y-110690460D01*
X81400001Y-110690460D01*
X81410494Y-110793171D01*
X81465641Y-110959593D01*
X81465643Y-110959598D01*
X81557684Y-111108819D01*
X81681654Y-111232789D01*
X81830875Y-111324830D01*
X81830880Y-111324832D01*
X81997302Y-111379979D01*
X81997309Y-111379980D01*
X82100019Y-111390473D01*
X82249999Y-111390473D01*
X82250000Y-111390472D01*
X82250000Y-110440474D01*
X81400001Y-110440474D01*
X81400001Y-110690460D01*
X40763064Y-110690460D01*
X40512647Y-110602835D01*
X40512635Y-110602831D01*
X40211455Y-110534089D01*
X40211437Y-110534086D01*
X40018357Y-110512332D01*
X40018356Y-110512332D01*
X39904469Y-110499500D01*
X39904465Y-110499500D01*
X39595535Y-110499500D01*
X39595528Y-110499500D01*
X39288562Y-110534086D01*
X39288544Y-110534089D01*
X38987364Y-110602831D01*
X38987352Y-110602835D01*
X38695777Y-110704862D01*
X38695763Y-110704868D01*
X38417437Y-110838903D01*
X38155858Y-111003264D01*
X37914326Y-111195879D01*
X37695879Y-111414326D01*
X37503264Y-111655858D01*
X37338903Y-111917437D01*
X37204868Y-112195763D01*
X37204862Y-112195777D01*
X37102835Y-112487352D01*
X37102831Y-112487364D01*
X37034089Y-112788544D01*
X37034086Y-112788562D01*
X36999500Y-113095528D01*
X35000500Y-113095528D01*
X35000500Y-109690487D01*
X81400000Y-109690487D01*
X81400000Y-109940474D01*
X82250000Y-109940474D01*
X82250000Y-108990474D01*
X82100027Y-108990474D01*
X82100012Y-108990475D01*
X81997302Y-109000968D01*
X81830880Y-109056115D01*
X81830875Y-109056117D01*
X81681654Y-109148158D01*
X81557684Y-109272128D01*
X81465643Y-109421349D01*
X81465641Y-109421354D01*
X81410494Y-109587776D01*
X81410493Y-109587783D01*
X81400000Y-109690487D01*
X35000500Y-109690487D01*
X35000500Y-107924986D01*
X83275001Y-107924986D01*
X83285494Y-108027697D01*
X83340641Y-108194119D01*
X83340643Y-108194124D01*
X83432684Y-108343345D01*
X83556654Y-108467315D01*
X83705875Y-108559356D01*
X83705880Y-108559358D01*
X83872302Y-108614505D01*
X83872309Y-108614506D01*
X83975019Y-108624999D01*
X84249999Y-108624999D01*
X84750000Y-108624999D01*
X85024972Y-108624999D01*
X85024986Y-108624998D01*
X85127697Y-108614505D01*
X85294119Y-108559358D01*
X85294124Y-108559356D01*
X85443345Y-108467315D01*
X85567315Y-108343345D01*
X85659356Y-108194124D01*
X85659358Y-108194119D01*
X85714505Y-108027697D01*
X85714506Y-108027690D01*
X85724999Y-107924986D01*
X85725000Y-107924973D01*
X85725000Y-107787500D01*
X84750000Y-107787500D01*
X84750000Y-108624999D01*
X84249999Y-108624999D01*
X84250000Y-108624998D01*
X84250000Y-107787500D01*
X83275001Y-107787500D01*
X83275001Y-107924986D01*
X35000500Y-107924986D01*
X35000500Y-72531491D01*
X42624500Y-72531491D01*
X42624500Y-72868508D01*
X42662231Y-73203381D01*
X42662233Y-73203397D01*
X42737223Y-73531953D01*
X42737227Y-73531965D01*
X42848532Y-73850054D01*
X42994752Y-74153683D01*
X42994754Y-74153686D01*
X43174054Y-74439039D01*
X43384175Y-74702523D01*
X43622477Y-74940825D01*
X43885961Y-75150946D01*
X44171314Y-75330246D01*
X44474949Y-75476469D01*
X44676552Y-75547013D01*
X44793034Y-75587772D01*
X44793046Y-75587776D01*
X45121606Y-75662767D01*
X45456492Y-75700499D01*
X45456493Y-75700500D01*
X45456496Y-75700500D01*
X45793507Y-75700500D01*
X45793507Y-75700499D01*
X46128394Y-75662767D01*
X46456954Y-75587776D01*
X46775051Y-75476469D01*
X47078686Y-75330246D01*
X47364039Y-75150946D01*
X47627523Y-74940825D01*
X47865825Y-74702523D01*
X48075946Y-74439039D01*
X48255246Y-74153686D01*
X48255249Y-74153680D01*
X48313780Y-74032140D01*
X48360602Y-73980280D01*
X48428029Y-73961967D01*
X48494653Y-73983015D01*
X48539322Y-74036741D01*
X48549500Y-74085941D01*
X48549500Y-83059308D01*
X48573712Y-83149672D01*
X48580200Y-83173885D01*
X48580200Y-83173886D01*
X48580201Y-83173887D01*
X48639511Y-83276614D01*
X71185886Y-105822989D01*
X71288613Y-105882299D01*
X71312821Y-105888784D01*
X71312824Y-105888786D01*
X71312825Y-105888786D01*
X71342947Y-105896857D01*
X71403191Y-105913000D01*
X83499274Y-105913000D01*
X83566313Y-105932685D01*
X83612068Y-105985489D01*
X83616316Y-105996047D01*
X83622205Y-106012879D01*
X83622206Y-106012881D01*
X83622207Y-106012882D01*
X83702850Y-106122150D01*
X83812118Y-106202793D01*
X83876033Y-106225158D01*
X83932807Y-106265878D01*
X83958555Y-106330830D01*
X83945099Y-106399392D01*
X83896712Y-106449795D01*
X83874082Y-106459904D01*
X83705878Y-106515642D01*
X83705875Y-106515643D01*
X83556654Y-106607684D01*
X83432684Y-106731654D01*
X83340643Y-106880875D01*
X83340641Y-106880880D01*
X83285494Y-107047302D01*
X83285493Y-107047309D01*
X83275000Y-107150013D01*
X83275000Y-107287500D01*
X85724999Y-107287500D01*
X85724999Y-107150028D01*
X85724998Y-107150013D01*
X85714505Y-107047302D01*
X85659358Y-106880880D01*
X85659356Y-106880875D01*
X85567315Y-106731654D01*
X85443345Y-106607684D01*
X85294124Y-106515643D01*
X85294119Y-106515641D01*
X85125917Y-106459905D01*
X85068472Y-106420133D01*
X85041649Y-106355617D01*
X85053964Y-106286841D01*
X85101507Y-106235641D01*
X85123966Y-106225158D01*
X85123972Y-106225156D01*
X85187882Y-106202793D01*
X85297150Y-106122150D01*
X85377793Y-106012882D01*
X85412743Y-105913000D01*
X85422646Y-105884701D01*
X85422646Y-105884699D01*
X85425500Y-105854269D01*
X85425500Y-105586189D01*
X85445185Y-105519150D01*
X85461819Y-105498508D01*
X86462819Y-104497508D01*
X86524142Y-104464023D01*
X86593834Y-104469007D01*
X86649767Y-104510879D01*
X86674184Y-104576343D01*
X86674500Y-104585189D01*
X86674500Y-107028474D01*
X86654815Y-107095513D01*
X86602011Y-107141268D01*
X86550500Y-107152474D01*
X86470730Y-107152474D01*
X86440300Y-107155327D01*
X86440298Y-107155327D01*
X86312119Y-107200180D01*
X86312117Y-107200181D01*
X86202850Y-107280824D01*
X86122207Y-107390091D01*
X86122206Y-107390093D01*
X86077353Y-107518272D01*
X86077353Y-107518274D01*
X86074500Y-107548701D01*
X86074500Y-108332243D01*
X86077353Y-108362673D01*
X86077353Y-108362675D01*
X86122206Y-108490854D01*
X86122209Y-108490860D01*
X86187142Y-108578841D01*
X86211113Y-108644470D01*
X86195797Y-108712640D01*
X86146057Y-108761708D01*
X86087372Y-108776474D01*
X85545647Y-108776474D01*
X85462862Y-108798656D01*
X85462855Y-108798659D01*
X85388644Y-108841504D01*
X85388636Y-108841510D01*
X84976491Y-109253655D01*
X84915168Y-109287140D01*
X84888810Y-109289974D01*
X84095730Y-109289974D01*
X84065300Y-109292827D01*
X84065298Y-109292827D01*
X83937119Y-109337680D01*
X83937117Y-109337681D01*
X83827850Y-109418324D01*
X83766776Y-109501076D01*
X83711128Y-109543327D01*
X83641472Y-109548785D01*
X83579923Y-109515717D01*
X83549300Y-109466446D01*
X83534358Y-109421354D01*
X83534356Y-109421349D01*
X83442315Y-109272128D01*
X83318345Y-109148158D01*
X83169124Y-109056117D01*
X83169119Y-109056115D01*
X83002697Y-109000968D01*
X83002690Y-109000967D01*
X82899986Y-108990474D01*
X82750000Y-108990474D01*
X82750000Y-111390473D01*
X82899972Y-111390473D01*
X82899986Y-111390472D01*
X83002697Y-111379979D01*
X83169119Y-111324832D01*
X83169124Y-111324830D01*
X83318345Y-111232789D01*
X83442315Y-111108819D01*
X83534356Y-110959598D01*
X83534359Y-110959591D01*
X83549300Y-110914502D01*
X83589072Y-110857057D01*
X83653587Y-110830233D01*
X83722363Y-110842547D01*
X83766775Y-110879870D01*
X83827850Y-110962624D01*
X83937118Y-111043267D01*
X83967774Y-111053994D01*
X84065299Y-111088120D01*
X84095730Y-111090974D01*
X84095734Y-111090974D01*
X84904270Y-111090974D01*
X84934699Y-111088120D01*
X84934701Y-111088120D01*
X84998790Y-111065693D01*
X85062882Y-111043267D01*
X85172150Y-110962624D01*
X85252793Y-110853356D01*
X85285874Y-110758817D01*
X85297646Y-110725175D01*
X85297646Y-110725173D01*
X85300500Y-110694743D01*
X85300500Y-110402960D01*
X85775001Y-110402960D01*
X85785494Y-110505671D01*
X85840641Y-110672093D01*
X85840643Y-110672098D01*
X85932684Y-110821319D01*
X86056654Y-110945289D01*
X86205875Y-111037330D01*
X86205880Y-111037332D01*
X86372302Y-111092479D01*
X86372309Y-111092480D01*
X86475019Y-111102973D01*
X86749999Y-111102973D01*
X86750000Y-111102972D01*
X86750000Y-110265474D01*
X85775001Y-110265474D01*
X85775001Y-110402960D01*
X85300500Y-110402960D01*
X85300500Y-109901663D01*
X85320185Y-109834624D01*
X85336819Y-109813982D01*
X85563319Y-109587482D01*
X85624642Y-109553997D01*
X85694334Y-109558981D01*
X85750267Y-109600853D01*
X85774684Y-109666317D01*
X85775000Y-109675163D01*
X85775000Y-109765474D01*
X86876000Y-109765474D01*
X86943039Y-109785159D01*
X86988794Y-109837963D01*
X87000000Y-109889474D01*
X87000000Y-110015474D01*
X87126000Y-110015474D01*
X87193039Y-110035159D01*
X87238794Y-110087963D01*
X87250000Y-110139474D01*
X87250000Y-111102973D01*
X87524972Y-111102973D01*
X87524986Y-111102972D01*
X87627697Y-111092479D01*
X87794119Y-111037332D01*
X87794124Y-111037330D01*
X87943345Y-110945289D01*
X88067317Y-110821317D01*
X88135245Y-110711188D01*
X88187193Y-110664463D01*
X88256155Y-110653240D01*
X88314416Y-110676513D01*
X88333315Y-110690460D01*
X88337118Y-110693267D01*
X88370272Y-110704868D01*
X88465299Y-110738120D01*
X88495730Y-110740974D01*
X88495734Y-110740974D01*
X89504270Y-110740974D01*
X89534699Y-110738120D01*
X89534701Y-110738120D01*
X89598790Y-110715693D01*
X89662882Y-110693267D01*
X89729252Y-110644283D01*
X89794880Y-110620313D01*
X89863050Y-110635628D01*
X89908423Y-110678956D01*
X89957682Y-110758817D01*
X90081654Y-110882789D01*
X90230875Y-110974830D01*
X90230880Y-110974832D01*
X90397302Y-111029979D01*
X90397309Y-111029980D01*
X90500019Y-111040473D01*
X90749999Y-111040473D01*
X91250000Y-111040473D01*
X91499972Y-111040473D01*
X91499986Y-111040472D01*
X91602697Y-111029979D01*
X91769119Y-110974832D01*
X91769124Y-110974830D01*
X91918345Y-110882789D01*
X92042315Y-110758819D01*
X92134356Y-110609598D01*
X92134358Y-110609593D01*
X92189505Y-110443171D01*
X92189506Y-110443164D01*
X92199999Y-110340460D01*
X92200000Y-110340447D01*
X92200000Y-110190474D01*
X91250000Y-110190474D01*
X91250000Y-111040473D01*
X90749999Y-111040473D01*
X90750000Y-111040472D01*
X90750000Y-110064474D01*
X90769685Y-109997435D01*
X90822489Y-109951680D01*
X90874000Y-109940474D01*
X91000000Y-109940474D01*
X91000000Y-109814474D01*
X91019685Y-109747435D01*
X91072489Y-109701680D01*
X91124000Y-109690474D01*
X92199999Y-109690474D01*
X92207986Y-109682486D01*
X92219684Y-109642649D01*
X92272488Y-109596894D01*
X92341646Y-109586950D01*
X92405202Y-109615975D01*
X92411680Y-109622007D01*
X93050138Y-110260465D01*
X93124361Y-110303318D01*
X93207147Y-110325500D01*
X93229198Y-110325500D01*
X93296237Y-110345185D01*
X93341992Y-110397989D01*
X93349877Y-110427519D01*
X93350744Y-110427330D01*
X93352353Y-110434701D01*
X93397206Y-110562880D01*
X93397207Y-110562882D01*
X93477850Y-110672150D01*
X93587118Y-110752793D01*
X93629845Y-110767744D01*
X93715299Y-110797646D01*
X93745730Y-110800500D01*
X93745734Y-110800500D01*
X94754270Y-110800500D01*
X94784699Y-110797646D01*
X94784701Y-110797646D01*
X94848790Y-110775219D01*
X94912882Y-110752793D01*
X95022150Y-110672150D01*
X95102793Y-110562882D01*
X95125219Y-110498790D01*
X95147646Y-110434701D01*
X95147646Y-110434699D01*
X95150500Y-110404269D01*
X95150500Y-109800045D01*
X95170185Y-109733006D01*
X95222989Y-109687251D01*
X95292147Y-109677307D01*
X95355703Y-109706332D01*
X95362181Y-109712364D01*
X96263181Y-110613364D01*
X96296666Y-110674687D01*
X96299500Y-110701045D01*
X96299500Y-119231006D01*
X96299500Y-119368994D01*
X96299500Y-119368996D01*
X96299499Y-119368996D01*
X96326418Y-119504322D01*
X96326421Y-119504332D01*
X96379222Y-119631807D01*
X96455887Y-119746545D01*
X96455888Y-119746546D01*
X99356842Y-122647499D01*
X102253457Y-125544114D01*
X102299412Y-125574819D01*
X102368189Y-125620775D01*
X102458332Y-125658113D01*
X102495671Y-125673580D01*
X102522591Y-125678934D01*
X102612937Y-125696905D01*
X102631006Y-125700500D01*
X102631007Y-125700500D01*
X120068996Y-125700500D01*
X120177432Y-125678930D01*
X120204328Y-125673580D01*
X120268069Y-125647177D01*
X120331807Y-125620777D01*
X120331808Y-125620776D01*
X120331811Y-125620775D01*
X120446543Y-125544114D01*
X121544114Y-124446543D01*
X121620775Y-124331811D01*
X121621424Y-124330246D01*
X121673578Y-124204332D01*
X121673580Y-124204328D01*
X121682389Y-124160040D01*
X121700500Y-124068996D01*
X121700500Y-121531491D01*
X136474500Y-121531491D01*
X136474500Y-121868508D01*
X136512231Y-122203381D01*
X136512233Y-122203397D01*
X136587223Y-122531953D01*
X136587227Y-122531965D01*
X136698532Y-122850054D01*
X136844752Y-123153683D01*
X136844754Y-123153686D01*
X137024054Y-123439039D01*
X137234175Y-123702523D01*
X137472477Y-123940825D01*
X137735961Y-124150946D01*
X138021314Y-124330246D01*
X138324949Y-124476469D01*
X138563848Y-124560063D01*
X138643034Y-124587772D01*
X138643046Y-124587776D01*
X138971606Y-124662767D01*
X139306492Y-124700499D01*
X139306493Y-124700500D01*
X139306496Y-124700500D01*
X139643507Y-124700500D01*
X139643507Y-124700499D01*
X139978394Y-124662767D01*
X140306954Y-124587776D01*
X140625051Y-124476469D01*
X140928686Y-124330246D01*
X141214039Y-124150946D01*
X141477523Y-123940825D01*
X141715825Y-123702523D01*
X141925946Y-123439039D01*
X142105246Y-123153686D01*
X142251469Y-122850051D01*
X142362776Y-122531954D01*
X142403738Y-122352486D01*
X148849500Y-122352486D01*
X148849500Y-122647513D01*
X148876166Y-122850051D01*
X148888007Y-122939993D01*
X148964361Y-123224951D01*
X148964364Y-123224961D01*
X149077254Y-123497500D01*
X149077258Y-123497510D01*
X149224761Y-123752993D01*
X149404352Y-123987040D01*
X149404358Y-123987047D01*
X149612952Y-124195641D01*
X149612959Y-124195647D01*
X149847006Y-124375238D01*
X150102489Y-124522741D01*
X150102490Y-124522741D01*
X150102493Y-124522743D01*
X150375048Y-124635639D01*
X150660007Y-124711993D01*
X150952494Y-124750500D01*
X150952501Y-124750500D01*
X151247499Y-124750500D01*
X151247506Y-124750500D01*
X151539993Y-124711993D01*
X151824952Y-124635639D01*
X152097507Y-124522743D01*
X152352994Y-124375238D01*
X152587042Y-124195646D01*
X152795646Y-123987042D01*
X152975238Y-123752994D01*
X153122743Y-123497507D01*
X153235639Y-123224952D01*
X153311993Y-122939993D01*
X153350500Y-122647506D01*
X153350500Y-122352494D01*
X153350499Y-122352486D01*
X191849500Y-122352486D01*
X191849500Y-122647513D01*
X191876166Y-122850051D01*
X191888007Y-122939993D01*
X191964361Y-123224951D01*
X191964364Y-123224961D01*
X192077254Y-123497500D01*
X192077258Y-123497510D01*
X192224761Y-123752993D01*
X192404352Y-123987040D01*
X192404358Y-123987047D01*
X192612952Y-124195641D01*
X192612959Y-124195647D01*
X192847006Y-124375238D01*
X193102489Y-124522741D01*
X193102490Y-124522741D01*
X193102493Y-124522743D01*
X193375048Y-124635639D01*
X193660007Y-124711993D01*
X193952494Y-124750500D01*
X193952501Y-124750500D01*
X194247499Y-124750500D01*
X194247506Y-124750500D01*
X194539993Y-124711993D01*
X194824952Y-124635639D01*
X195097507Y-124522743D01*
X195352994Y-124375238D01*
X195587042Y-124195646D01*
X195795646Y-123987042D01*
X195975238Y-123752994D01*
X196122743Y-123497507D01*
X196235639Y-123224952D01*
X196311993Y-122939993D01*
X196350500Y-122647506D01*
X196350500Y-122352494D01*
X196311993Y-122060007D01*
X196235639Y-121775048D01*
X196226805Y-121753722D01*
X196186322Y-121655986D01*
X196122743Y-121502493D01*
X196024576Y-121332463D01*
X195975238Y-121247006D01*
X195795647Y-121012959D01*
X195795641Y-121012952D01*
X195587047Y-120804358D01*
X195587040Y-120804352D01*
X195352993Y-120624761D01*
X195097510Y-120477258D01*
X195097500Y-120477254D01*
X194824961Y-120364364D01*
X194824954Y-120364362D01*
X194824952Y-120364361D01*
X194539993Y-120288007D01*
X194491113Y-120281571D01*
X194247513Y-120249500D01*
X194247506Y-120249500D01*
X193952494Y-120249500D01*
X193952486Y-120249500D01*
X193674085Y-120286153D01*
X193660007Y-120288007D01*
X193375048Y-120364361D01*
X193375038Y-120364364D01*
X193102499Y-120477254D01*
X193102489Y-120477258D01*
X192847006Y-120624761D01*
X192612959Y-120804352D01*
X192612952Y-120804358D01*
X192404358Y-121012952D01*
X192404352Y-121012959D01*
X192224761Y-121247006D01*
X192077258Y-121502489D01*
X192077254Y-121502499D01*
X191964364Y-121775038D01*
X191964361Y-121775048D01*
X191918348Y-121946774D01*
X191888008Y-122060004D01*
X191888006Y-122060015D01*
X191849500Y-122352486D01*
X153350499Y-122352486D01*
X153311993Y-122060007D01*
X153235639Y-121775048D01*
X153226805Y-121753722D01*
X153186322Y-121655986D01*
X153122743Y-121502493D01*
X153024576Y-121332463D01*
X152975238Y-121247006D01*
X152795647Y-121012959D01*
X152795641Y-121012952D01*
X152587047Y-120804358D01*
X152587040Y-120804352D01*
X152352993Y-120624761D01*
X152097510Y-120477258D01*
X152097500Y-120477254D01*
X151824961Y-120364364D01*
X151824954Y-120364362D01*
X151824952Y-120364361D01*
X151539993Y-120288007D01*
X151491113Y-120281571D01*
X151247513Y-120249500D01*
X151247506Y-120249500D01*
X150952494Y-120249500D01*
X150952486Y-120249500D01*
X150674085Y-120286153D01*
X150660007Y-120288007D01*
X150375048Y-120364361D01*
X150375038Y-120364364D01*
X150102499Y-120477254D01*
X150102489Y-120477258D01*
X149847006Y-120624761D01*
X149612959Y-120804352D01*
X149612952Y-120804358D01*
X149404358Y-121012952D01*
X149404352Y-121012959D01*
X149224761Y-121247006D01*
X149077258Y-121502489D01*
X149077254Y-121502499D01*
X148964364Y-121775038D01*
X148964361Y-121775048D01*
X148918348Y-121946774D01*
X148888008Y-122060004D01*
X148888006Y-122060015D01*
X148849500Y-122352486D01*
X142403738Y-122352486D01*
X142437767Y-122203394D01*
X142475500Y-121868504D01*
X142475500Y-121531496D01*
X142437767Y-121196606D01*
X142362776Y-120868046D01*
X142340488Y-120804352D01*
X142292615Y-120667537D01*
X142251469Y-120549949D01*
X142105246Y-120246314D01*
X141925946Y-119960961D01*
X141715825Y-119697477D01*
X141477523Y-119459175D01*
X141214039Y-119249054D01*
X140928686Y-119069754D01*
X140928683Y-119069752D01*
X140625054Y-118923532D01*
X140306965Y-118812227D01*
X140306953Y-118812223D01*
X139978397Y-118737233D01*
X139978381Y-118737231D01*
X139643508Y-118699500D01*
X139643504Y-118699500D01*
X139306496Y-118699500D01*
X139306491Y-118699500D01*
X138971618Y-118737231D01*
X138971602Y-118737233D01*
X138643046Y-118812223D01*
X138643034Y-118812227D01*
X138324945Y-118923532D01*
X138021316Y-119069752D01*
X137735962Y-119249053D01*
X137472477Y-119459174D01*
X137234174Y-119697477D01*
X137024053Y-119960962D01*
X136844752Y-120246316D01*
X136698532Y-120549945D01*
X136587227Y-120868034D01*
X136587223Y-120868046D01*
X136512233Y-121196602D01*
X136512231Y-121196618D01*
X136474500Y-121531491D01*
X121700500Y-121531491D01*
X121700500Y-113095528D01*
X128999500Y-113095528D01*
X128999500Y-113404471D01*
X129034086Y-113711437D01*
X129034089Y-113711455D01*
X129102831Y-114012635D01*
X129102835Y-114012647D01*
X129204862Y-114304222D01*
X129204868Y-114304236D01*
X129338903Y-114582562D01*
X129338905Y-114582565D01*
X129503265Y-114844143D01*
X129695880Y-115085674D01*
X129914326Y-115304120D01*
X130155857Y-115496735D01*
X130417435Y-115661095D01*
X130695771Y-115795135D01*
X130695777Y-115795137D01*
X130987352Y-115897164D01*
X130987364Y-115897168D01*
X131288548Y-115965911D01*
X131288554Y-115965911D01*
X131288562Y-115965913D01*
X131493206Y-115988970D01*
X131595529Y-116000499D01*
X131595532Y-116000500D01*
X131595535Y-116000500D01*
X131904468Y-116000500D01*
X131904469Y-116000499D01*
X132061356Y-115982822D01*
X132211437Y-115965913D01*
X132211442Y-115965912D01*
X132211452Y-115965911D01*
X132512636Y-115897168D01*
X132804229Y-115795135D01*
X133082565Y-115661095D01*
X133344143Y-115496735D01*
X133585674Y-115304120D01*
X133804120Y-115085674D01*
X133996735Y-114844143D01*
X134161095Y-114582565D01*
X134295135Y-114304229D01*
X134397168Y-114012636D01*
X134465911Y-113711452D01*
X134500500Y-113404465D01*
X134500500Y-113095535D01*
X134465911Y-112788548D01*
X134397168Y-112487364D01*
X134393631Y-112477257D01*
X134322165Y-112273019D01*
X134295135Y-112195771D01*
X134161095Y-111917435D01*
X133996735Y-111655857D01*
X133804120Y-111414326D01*
X133585674Y-111195880D01*
X133344143Y-111003265D01*
X133082565Y-110838905D01*
X133082562Y-110838903D01*
X132804236Y-110704868D01*
X132804222Y-110704862D01*
X132512647Y-110602835D01*
X132512635Y-110602831D01*
X132211455Y-110534089D01*
X132211437Y-110534086D01*
X131904471Y-110499500D01*
X131904465Y-110499500D01*
X131595535Y-110499500D01*
X131595528Y-110499500D01*
X131288562Y-110534086D01*
X131288544Y-110534089D01*
X130987364Y-110602831D01*
X130987352Y-110602835D01*
X130695777Y-110704862D01*
X130695763Y-110704868D01*
X130417437Y-110838903D01*
X130155858Y-111003264D01*
X129914326Y-111195879D01*
X129695879Y-111414326D01*
X129503264Y-111655858D01*
X129338903Y-111917437D01*
X129204868Y-112195763D01*
X129204862Y-112195777D01*
X129102835Y-112487352D01*
X129102831Y-112487364D01*
X129034089Y-112788544D01*
X129034086Y-112788562D01*
X128999500Y-113095528D01*
X121700500Y-113095528D01*
X121700500Y-102431006D01*
X121700499Y-102431002D01*
X121674469Y-102300139D01*
X121673580Y-102295671D01*
X121658996Y-102260462D01*
X121620776Y-102168190D01*
X121544112Y-102053454D01*
X118648426Y-99157768D01*
X118614941Y-99096445D01*
X118616332Y-99037994D01*
X118618446Y-99030106D01*
X118671404Y-98832463D01*
X118700500Y-98611457D01*
X118700500Y-98388543D01*
X118671404Y-98167537D01*
X118613710Y-97952219D01*
X118528405Y-97746274D01*
X118416948Y-97553226D01*
X118304473Y-97406645D01*
X118281248Y-97376377D01*
X118281242Y-97376370D01*
X118123629Y-97218757D01*
X118123622Y-97218751D01*
X117946782Y-97083058D01*
X117946780Y-97083057D01*
X117946774Y-97083052D01*
X117753726Y-96971595D01*
X117753722Y-96971593D01*
X117547790Y-96886293D01*
X117547783Y-96886291D01*
X117547781Y-96886290D01*
X117332463Y-96828596D01*
X117332457Y-96828595D01*
X117332452Y-96828594D01*
X117111466Y-96799501D01*
X117111463Y-96799500D01*
X117111457Y-96799500D01*
X116888543Y-96799500D01*
X116888537Y-96799500D01*
X116888533Y-96799501D01*
X116667547Y-96828594D01*
X116667540Y-96828595D01*
X116667537Y-96828596D01*
X116585790Y-96850500D01*
X116452219Y-96886290D01*
X116452209Y-96886293D01*
X116246277Y-96971593D01*
X116246273Y-96971595D01*
X116053226Y-97083052D01*
X116053217Y-97083058D01*
X115876377Y-97218751D01*
X115876370Y-97218757D01*
X115718757Y-97376370D01*
X115718751Y-97376377D01*
X115583058Y-97553217D01*
X115583052Y-97553226D01*
X115471595Y-97746273D01*
X115471593Y-97746277D01*
X115386293Y-97952209D01*
X115386290Y-97952219D01*
X115354781Y-98069815D01*
X115328597Y-98167534D01*
X115328594Y-98167547D01*
X115299501Y-98388533D01*
X115299500Y-98388549D01*
X115299500Y-98611450D01*
X115299501Y-98611466D01*
X115328594Y-98832452D01*
X115328595Y-98832457D01*
X115328596Y-98832463D01*
X115381554Y-99030106D01*
X115386290Y-99047780D01*
X115386293Y-99047790D01*
X115459696Y-99224999D01*
X115471595Y-99253726D01*
X115583052Y-99446774D01*
X115583057Y-99446780D01*
X115583058Y-99446782D01*
X115718751Y-99623622D01*
X115718757Y-99623629D01*
X115876370Y-99781242D01*
X115876377Y-99781248D01*
X115969044Y-99852353D01*
X116053226Y-99916948D01*
X116246274Y-100028405D01*
X116331752Y-100063811D01*
X116445618Y-100110976D01*
X116452219Y-100113710D01*
X116667537Y-100171404D01*
X116888543Y-100200500D01*
X116888550Y-100200500D01*
X117111450Y-100200500D01*
X117111457Y-100200500D01*
X117332463Y-100171404D01*
X117537998Y-100116331D01*
X117607843Y-100117994D01*
X117657768Y-100148425D01*
X120263181Y-102753838D01*
X120296666Y-102815161D01*
X120299500Y-102841519D01*
X120299500Y-123658481D01*
X120279815Y-123725520D01*
X120263181Y-123746162D01*
X119746162Y-124263181D01*
X119684839Y-124296666D01*
X119658481Y-124299500D01*
X103041519Y-124299500D01*
X102974480Y-124279815D01*
X102953838Y-124263181D01*
X99462545Y-120771888D01*
X102444300Y-120771888D01*
X102444300Y-121069711D01*
X102477641Y-121365628D01*
X102477644Y-121365642D01*
X102543913Y-121655988D01*
X102642273Y-121937085D01*
X102771486Y-122205399D01*
X102771488Y-122205402D01*
X102929933Y-122457565D01*
X103054452Y-122613706D01*
X103100464Y-122671404D01*
X103115615Y-122690402D01*
X103326198Y-122900985D01*
X103559035Y-123086667D01*
X103811198Y-123245112D01*
X104079516Y-123374327D01*
X104360611Y-123472686D01*
X104360613Y-123472686D01*
X104360614Y-123472687D01*
X104650957Y-123538956D01*
X104650966Y-123538957D01*
X104650971Y-123538958D01*
X104848249Y-123561185D01*
X104946889Y-123572299D01*
X104946892Y-123572300D01*
X104946895Y-123572300D01*
X105244708Y-123572300D01*
X105244709Y-123572299D01*
X105395949Y-123555258D01*
X105540628Y-123538958D01*
X105540631Y-123538957D01*
X105540643Y-123538956D01*
X105830986Y-123472687D01*
X106112084Y-123374327D01*
X106380402Y-123245112D01*
X106632565Y-123086667D01*
X106865402Y-122900985D01*
X107075985Y-122690402D01*
X107261667Y-122457565D01*
X107420112Y-122205402D01*
X107549327Y-121937084D01*
X107647687Y-121655986D01*
X107713956Y-121365643D01*
X107717695Y-121332463D01*
X107733002Y-121196602D01*
X107747300Y-121069705D01*
X107747300Y-120771895D01*
X107722293Y-120549949D01*
X107713958Y-120475971D01*
X107713957Y-120475966D01*
X107713956Y-120475957D01*
X107647687Y-120185614D01*
X107549327Y-119904516D01*
X107420112Y-119636198D01*
X107261667Y-119384035D01*
X107075985Y-119151198D01*
X106865402Y-118940615D01*
X106843979Y-118923531D01*
X106704404Y-118812223D01*
X106632565Y-118754933D01*
X106380402Y-118596488D01*
X106380399Y-118596486D01*
X106112085Y-118467273D01*
X105830987Y-118368913D01*
X105830989Y-118368913D01*
X105613228Y-118319211D01*
X105540643Y-118302644D01*
X105540640Y-118302643D01*
X105540628Y-118302641D01*
X105244711Y-118269300D01*
X105244705Y-118269300D01*
X104946895Y-118269300D01*
X104946888Y-118269300D01*
X104650971Y-118302641D01*
X104650957Y-118302644D01*
X104360611Y-118368913D01*
X104079514Y-118467273D01*
X103811200Y-118596486D01*
X103559036Y-118754932D01*
X103326198Y-118940614D01*
X103115614Y-119151198D01*
X102929932Y-119384036D01*
X102771486Y-119636200D01*
X102642273Y-119904514D01*
X102543913Y-120185611D01*
X102477644Y-120475957D01*
X102477641Y-120475971D01*
X102444300Y-120771888D01*
X99462545Y-120771888D01*
X97736819Y-119046162D01*
X97703334Y-118984839D01*
X97700500Y-118958481D01*
X97700500Y-110290530D01*
X97673581Y-110155203D01*
X97673580Y-110155202D01*
X97673580Y-110155198D01*
X97667067Y-110139474D01*
X97620778Y-110027721D01*
X97620776Y-110027717D01*
X97620775Y-110027715D01*
X97573623Y-109957147D01*
X97544114Y-109912983D01*
X97544112Y-109912980D01*
X97544109Y-109912977D01*
X95141399Y-107510268D01*
X95112038Y-107463539D01*
X95102794Y-107437121D01*
X95102793Y-107437118D01*
X95068086Y-107390092D01*
X95022150Y-107327850D01*
X94912882Y-107247207D01*
X94912880Y-107247206D01*
X94784700Y-107202353D01*
X94754270Y-107199500D01*
X94754266Y-107199500D01*
X93745734Y-107199500D01*
X93745730Y-107199500D01*
X93715300Y-107202353D01*
X93715298Y-107202353D01*
X93587119Y-107247206D01*
X93587117Y-107247207D01*
X93477850Y-107327850D01*
X93397207Y-107437117D01*
X93397206Y-107437119D01*
X93352353Y-107565298D01*
X93352353Y-107565300D01*
X93349500Y-107595730D01*
X93349500Y-108404269D01*
X93352353Y-108434699D01*
X93352353Y-108434701D01*
X93395973Y-108559356D01*
X93397207Y-108562882D01*
X93477850Y-108672150D01*
X93587118Y-108752793D01*
X93609598Y-108760659D01*
X93715299Y-108797646D01*
X93745730Y-108800500D01*
X93745734Y-108800500D01*
X94398955Y-108800500D01*
X94428395Y-108809144D01*
X94458382Y-108815668D01*
X94463397Y-108819422D01*
X94465994Y-108820185D01*
X94486636Y-108836819D01*
X94637636Y-108987819D01*
X94671121Y-109049142D01*
X94666137Y-109118834D01*
X94624265Y-109174767D01*
X94558801Y-109199184D01*
X94549955Y-109199500D01*
X93745730Y-109199500D01*
X93715300Y-109202353D01*
X93715298Y-109202353D01*
X93587119Y-109247206D01*
X93587117Y-109247207D01*
X93477850Y-109327850D01*
X93397207Y-109437117D01*
X93392867Y-109445331D01*
X93391410Y-109444561D01*
X93356920Y-109492647D01*
X93291966Y-109518392D01*
X93223405Y-109504934D01*
X93192922Y-109482595D01*
X92464338Y-108754011D01*
X92464336Y-108754009D01*
X92427224Y-108732582D01*
X92390114Y-108711156D01*
X92348720Y-108700065D01*
X92307327Y-108688974D01*
X92307326Y-108688974D01*
X91960480Y-108688974D01*
X91893441Y-108669289D01*
X91847686Y-108616485D01*
X91837742Y-108547327D01*
X91850847Y-108507037D01*
X91852785Y-108503366D01*
X91852793Y-108503356D01*
X91887466Y-108404266D01*
X91897646Y-108375175D01*
X91897646Y-108375173D01*
X91900500Y-108344743D01*
X91900500Y-107536204D01*
X91897646Y-107505774D01*
X91897646Y-107505772D01*
X91857167Y-107390092D01*
X91852793Y-107377592D01*
X91772150Y-107268324D01*
X91662882Y-107187681D01*
X91662880Y-107187680D01*
X91534700Y-107142827D01*
X91504270Y-107139974D01*
X91504266Y-107139974D01*
X91383923Y-107139974D01*
X91316884Y-107120289D01*
X91276536Y-107077974D01*
X91260465Y-107050138D01*
X90842844Y-106632517D01*
X90809359Y-106571194D01*
X90814343Y-106501502D01*
X90825000Y-106484919D01*
X90825000Y-106474999D01*
X91325000Y-106474999D01*
X91462472Y-106474999D01*
X91462486Y-106474998D01*
X91565197Y-106464505D01*
X91731619Y-106409358D01*
X91731624Y-106409356D01*
X91880845Y-106317315D01*
X92004815Y-106193345D01*
X92096856Y-106044124D01*
X92096858Y-106044119D01*
X92152005Y-105877697D01*
X92152006Y-105877690D01*
X92162499Y-105774986D01*
X92162500Y-105774973D01*
X92162500Y-105500000D01*
X91325000Y-105500000D01*
X91325000Y-106474999D01*
X90825000Y-106474999D01*
X90825000Y-105000000D01*
X91325000Y-105000000D01*
X92162499Y-105000000D01*
X92162499Y-104725028D01*
X92162498Y-104725013D01*
X92152005Y-104622302D01*
X92096858Y-104455880D01*
X92096856Y-104455875D01*
X92004815Y-104306654D01*
X91880845Y-104182684D01*
X91731624Y-104090643D01*
X91731619Y-104090641D01*
X91565197Y-104035494D01*
X91565190Y-104035493D01*
X91462486Y-104025000D01*
X91325000Y-104025000D01*
X91325000Y-105000000D01*
X90825000Y-105000000D01*
X90825000Y-104025000D01*
X90687527Y-104025000D01*
X90687512Y-104025001D01*
X90584802Y-104035494D01*
X90418380Y-104090641D01*
X90418375Y-104090643D01*
X90269154Y-104182684D01*
X90145184Y-104306654D01*
X90053143Y-104455875D01*
X90053141Y-104455880D01*
X89997405Y-104624082D01*
X89957632Y-104681527D01*
X89893117Y-104708350D01*
X89824341Y-104696035D01*
X89773141Y-104648492D01*
X89762658Y-104626033D01*
X89748366Y-104585189D01*
X89740293Y-104562118D01*
X89659650Y-104452850D01*
X89550382Y-104372207D01*
X89550380Y-104372206D01*
X89415077Y-104324861D01*
X89415570Y-104323451D01*
X89361741Y-104293997D01*
X89328311Y-104232644D01*
X89325500Y-104206393D01*
X89325500Y-103731343D01*
X89345185Y-103664304D01*
X89397989Y-103618549D01*
X89408545Y-103614302D01*
X89414764Y-103612125D01*
X89512882Y-103577793D01*
X89622150Y-103497150D01*
X89702793Y-103387882D01*
X89728998Y-103312993D01*
X89747646Y-103259701D01*
X89747646Y-103259699D01*
X89750500Y-103229269D01*
X89750500Y-102172689D01*
X89770185Y-102105650D01*
X89822989Y-102059895D01*
X89892147Y-102049951D01*
X89955703Y-102078976D01*
X89962181Y-102085008D01*
X90213181Y-102336008D01*
X90246666Y-102397331D01*
X90249500Y-102423689D01*
X90249500Y-103229269D01*
X90252353Y-103259699D01*
X90252353Y-103259701D01*
X90297206Y-103387880D01*
X90297207Y-103387882D01*
X90377850Y-103497150D01*
X90487118Y-103577793D01*
X90529845Y-103592744D01*
X90615299Y-103622646D01*
X90645730Y-103625500D01*
X90645734Y-103625500D01*
X91429270Y-103625500D01*
X91459699Y-103622646D01*
X91459701Y-103622646D01*
X91523790Y-103600219D01*
X91587882Y-103577793D01*
X91697150Y-103497150D01*
X91777793Y-103387882D01*
X91803998Y-103312993D01*
X91822646Y-103259701D01*
X91822646Y-103259699D01*
X91825500Y-103229269D01*
X91825500Y-102170730D01*
X91822646Y-102140300D01*
X91822646Y-102140298D01*
X91783985Y-102029815D01*
X91777793Y-102012118D01*
X91741163Y-101962486D01*
X92775001Y-101962486D01*
X92785494Y-102065197D01*
X92840641Y-102231619D01*
X92840643Y-102231624D01*
X92932684Y-102380845D01*
X93056654Y-102504815D01*
X93205875Y-102596856D01*
X93205880Y-102596858D01*
X93372302Y-102652005D01*
X93372309Y-102652006D01*
X93475019Y-102662499D01*
X93749999Y-102662499D01*
X94250000Y-102662499D01*
X94524972Y-102662499D01*
X94524986Y-102662498D01*
X94627697Y-102652005D01*
X94794119Y-102596858D01*
X94794124Y-102596856D01*
X94943345Y-102504815D01*
X95067315Y-102380845D01*
X95159356Y-102231624D01*
X95159358Y-102231619D01*
X95214505Y-102065197D01*
X95214506Y-102065190D01*
X95224999Y-101962486D01*
X95225000Y-101962473D01*
X95225000Y-101825000D01*
X94250000Y-101825000D01*
X94250000Y-102662499D01*
X93749999Y-102662499D01*
X93750000Y-102662498D01*
X93750000Y-101825000D01*
X92775001Y-101825000D01*
X92775001Y-101962486D01*
X91741163Y-101962486D01*
X91697150Y-101902850D01*
X91647808Y-101866434D01*
X91587886Y-101822209D01*
X91587880Y-101822206D01*
X91459700Y-101777353D01*
X91429270Y-101774500D01*
X91429266Y-101774500D01*
X90645734Y-101774500D01*
X90645732Y-101774500D01*
X90636651Y-101775351D01*
X90568067Y-101762007D01*
X90537400Y-101739573D01*
X90037364Y-101239537D01*
X90037362Y-101239535D01*
X90037359Y-101239533D01*
X90037355Y-101239530D01*
X89976613Y-101204460D01*
X89928398Y-101153893D01*
X89915176Y-101085285D01*
X89941144Y-101020421D01*
X89950927Y-101009399D01*
X90322721Y-100637604D01*
X90384042Y-100604121D01*
X90453733Y-100609105D01*
X90484031Y-100625515D01*
X90487118Y-100627793D01*
X90615301Y-100672646D01*
X90625445Y-100673597D01*
X90645730Y-100675500D01*
X90645734Y-100675500D01*
X91429270Y-100675500D01*
X91459699Y-100672646D01*
X91459701Y-100672646D01*
X91538181Y-100645184D01*
X91587882Y-100627793D01*
X91697150Y-100547150D01*
X91777793Y-100437882D01*
X91817523Y-100324341D01*
X91822646Y-100309701D01*
X91822646Y-100309699D01*
X91825500Y-100279269D01*
X91825500Y-100199500D01*
X91845185Y-100132461D01*
X91897989Y-100086706D01*
X91949500Y-100075500D01*
X93078147Y-100075500D01*
X93145186Y-100095185D01*
X93177917Y-100125867D01*
X93202848Y-100159648D01*
X93202849Y-100159648D01*
X93202850Y-100159650D01*
X93312118Y-100240293D01*
X93376033Y-100262658D01*
X93432807Y-100303378D01*
X93458555Y-100368330D01*
X93445099Y-100436892D01*
X93396712Y-100487295D01*
X93374082Y-100497404D01*
X93205878Y-100553142D01*
X93205875Y-100553143D01*
X93056654Y-100645184D01*
X92932684Y-100769154D01*
X92840643Y-100918375D01*
X92840641Y-100918380D01*
X92785494Y-101084802D01*
X92785493Y-101084809D01*
X92775000Y-101187513D01*
X92775000Y-101325000D01*
X95224999Y-101325000D01*
X95224999Y-101187528D01*
X95224998Y-101187513D01*
X95214505Y-101084802D01*
X95159358Y-100918380D01*
X95159356Y-100918375D01*
X95067315Y-100769154D01*
X94943345Y-100645184D01*
X94794124Y-100553143D01*
X94794119Y-100553141D01*
X94625917Y-100497405D01*
X94568472Y-100457633D01*
X94541649Y-100393117D01*
X94553964Y-100324341D01*
X94601507Y-100273141D01*
X94623966Y-100262658D01*
X94672332Y-100245734D01*
X94687882Y-100240293D01*
X94797150Y-100159650D01*
X94877793Y-100050382D01*
X94909478Y-99959831D01*
X94922646Y-99922201D01*
X94922646Y-99922199D01*
X94925500Y-99891769D01*
X94925500Y-99108230D01*
X94922646Y-99077800D01*
X94922646Y-99077798D01*
X94877793Y-98949619D01*
X94877792Y-98949617D01*
X94873163Y-98943345D01*
X94797150Y-98840350D01*
X94797146Y-98840347D01*
X94750866Y-98806190D01*
X94747843Y-98802209D01*
X94743297Y-98800133D01*
X94726926Y-98774659D01*
X94708615Y-98750542D01*
X94707487Y-98744411D01*
X94705523Y-98741355D01*
X94700500Y-98706420D01*
X94700500Y-98575128D01*
X94720185Y-98508089D01*
X94750866Y-98475357D01*
X94772150Y-98459650D01*
X94852793Y-98350382D01*
X94876970Y-98281287D01*
X94897646Y-98222201D01*
X94897646Y-98222199D01*
X94900500Y-98191769D01*
X94900500Y-97383230D01*
X94897646Y-97352800D01*
X94897646Y-97352798D01*
X94852793Y-97224619D01*
X94852792Y-97224617D01*
X94772150Y-97115350D01*
X94662882Y-97034707D01*
X94662880Y-97034706D01*
X94534700Y-96989853D01*
X94504270Y-96987000D01*
X94504266Y-96987000D01*
X93495734Y-96987000D01*
X93495730Y-96987000D01*
X93465300Y-96989853D01*
X93465298Y-96989853D01*
X93337119Y-97034706D01*
X93337117Y-97034707D01*
X93227850Y-97115350D01*
X93147207Y-97224617D01*
X93147206Y-97224619D01*
X93102353Y-97352798D01*
X93102353Y-97352800D01*
X93099500Y-97383230D01*
X93099500Y-98191769D01*
X93102353Y-98222199D01*
X93102353Y-98222201D01*
X93132971Y-98309699D01*
X93147207Y-98350382D01*
X93227850Y-98459650D01*
X93249132Y-98475357D01*
X93252155Y-98479338D01*
X93256703Y-98481415D01*
X93273070Y-98506884D01*
X93291384Y-98531003D01*
X93292511Y-98537135D01*
X93294477Y-98540193D01*
X93299500Y-98575128D01*
X93299500Y-98706420D01*
X93279815Y-98773459D01*
X93249134Y-98806190D01*
X93202853Y-98840347D01*
X93202850Y-98840350D01*
X93122207Y-98949617D01*
X93122206Y-98949619D01*
X93077353Y-99077798D01*
X93077353Y-99077800D01*
X93074500Y-99108230D01*
X93074500Y-99300500D01*
X93054815Y-99367539D01*
X93002011Y-99413294D01*
X92950500Y-99424500D01*
X91949500Y-99424500D01*
X91882461Y-99404815D01*
X91836706Y-99352011D01*
X91825500Y-99300500D01*
X91825500Y-99220730D01*
X91822646Y-99190300D01*
X91822646Y-99190298D01*
X91783280Y-99077800D01*
X91777793Y-99062118D01*
X91754167Y-99030106D01*
X91730196Y-98964479D01*
X91745511Y-98896308D01*
X91788841Y-98850934D01*
X91843343Y-98817317D01*
X91967315Y-98693345D01*
X92059356Y-98544124D01*
X92059358Y-98544119D01*
X92114505Y-98377697D01*
X92114506Y-98377690D01*
X92124999Y-98274986D01*
X92125000Y-98274973D01*
X92125000Y-98000000D01*
X91161500Y-98000000D01*
X91094461Y-97980315D01*
X91048706Y-97927511D01*
X91037500Y-97876000D01*
X91037500Y-97750000D01*
X90911500Y-97750000D01*
X90844461Y-97730315D01*
X90798706Y-97677511D01*
X90787500Y-97626000D01*
X90787500Y-97080000D01*
X90786319Y-97078819D01*
X90752834Y-97017496D01*
X90750000Y-96991138D01*
X90750000Y-96395000D01*
X91250000Y-96395000D01*
X91251181Y-96396181D01*
X91284666Y-96457504D01*
X91287500Y-96483862D01*
X91287500Y-97500000D01*
X92124999Y-97500000D01*
X92124999Y-97225028D01*
X92124998Y-97225013D01*
X92114505Y-97122302D01*
X92059358Y-96955880D01*
X92059356Y-96955875D01*
X91967315Y-96806653D01*
X91962839Y-96800993D01*
X91964155Y-96799951D01*
X91934933Y-96746434D01*
X91939917Y-96676742D01*
X91950560Y-96654979D01*
X92034356Y-96519124D01*
X92034358Y-96519119D01*
X92089505Y-96352697D01*
X92089506Y-96352690D01*
X92099999Y-96249986D01*
X92100000Y-96249973D01*
X92100000Y-96000000D01*
X91250000Y-96000000D01*
X91250000Y-96395000D01*
X90750000Y-96395000D01*
X90750000Y-95500000D01*
X91250000Y-95500000D01*
X92099999Y-95500000D01*
X92099999Y-95250028D01*
X92099998Y-95250013D01*
X92089505Y-95147302D01*
X92034358Y-94980880D01*
X92034356Y-94980875D01*
X91942315Y-94831654D01*
X91818345Y-94707684D01*
X91669124Y-94615643D01*
X91669119Y-94615641D01*
X91502697Y-94560494D01*
X91502690Y-94560493D01*
X91399986Y-94550000D01*
X91250000Y-94550000D01*
X91250000Y-95500000D01*
X90750000Y-95500000D01*
X90750000Y-94550000D01*
X90600027Y-94550000D01*
X90600012Y-94550001D01*
X90497302Y-94560494D01*
X90330880Y-94615641D01*
X90330875Y-94615643D01*
X90181654Y-94707684D01*
X90057684Y-94831654D01*
X89965643Y-94980875D01*
X89965640Y-94980883D01*
X89950698Y-95025974D01*
X89910925Y-95083418D01*
X89846409Y-95110240D01*
X89777633Y-95097924D01*
X89733223Y-95060601D01*
X89672151Y-94977851D01*
X89596162Y-94921769D01*
X89562882Y-94897207D01*
X89562880Y-94897206D01*
X89434700Y-94852353D01*
X89404270Y-94849500D01*
X89404266Y-94849500D01*
X88595734Y-94849500D01*
X88595730Y-94849500D01*
X88565300Y-94852353D01*
X88565298Y-94852353D01*
X88437119Y-94897206D01*
X88437117Y-94897207D01*
X88327850Y-94977850D01*
X88247207Y-95087117D01*
X88247206Y-95087119D01*
X88202353Y-95215298D01*
X88202353Y-95215300D01*
X88199500Y-95245730D01*
X88199500Y-95476815D01*
X88179815Y-95543854D01*
X88127011Y-95589609D01*
X88057853Y-95599553D01*
X87994297Y-95570528D01*
X87975730Y-95550449D01*
X87969040Y-95541384D01*
X87922150Y-95477850D01*
X87812882Y-95397207D01*
X87812880Y-95397206D01*
X87684700Y-95352353D01*
X87654270Y-95349500D01*
X87654266Y-95349500D01*
X87474500Y-95349500D01*
X87407461Y-95329815D01*
X87361706Y-95277011D01*
X87350500Y-95225500D01*
X87350500Y-93260523D01*
X87370185Y-93193484D01*
X87422989Y-93147729D01*
X87492147Y-93137785D01*
X87555703Y-93166810D01*
X87562181Y-93172842D01*
X87681654Y-93292315D01*
X87830875Y-93384356D01*
X87830880Y-93384358D01*
X87997302Y-93439505D01*
X87997309Y-93439506D01*
X88100019Y-93449999D01*
X88249999Y-93449999D01*
X88250000Y-93449998D01*
X88250000Y-91050000D01*
X88750000Y-91050000D01*
X88750000Y-93449999D01*
X88899972Y-93449999D01*
X88899986Y-93449998D01*
X89002697Y-93439505D01*
X89169119Y-93384358D01*
X89169124Y-93384356D01*
X89318345Y-93292315D01*
X89442315Y-93168345D01*
X89534356Y-93019124D01*
X89534359Y-93019117D01*
X89549300Y-92974028D01*
X89589072Y-92916583D01*
X89653587Y-92889759D01*
X89722363Y-92902073D01*
X89766775Y-92939396D01*
X89827850Y-93022150D01*
X89937118Y-93102793D01*
X89979845Y-93117744D01*
X90065299Y-93147646D01*
X90095730Y-93150500D01*
X90095734Y-93150500D01*
X90904270Y-93150500D01*
X90934699Y-93147646D01*
X90934701Y-93147646D01*
X90998790Y-93125219D01*
X91062882Y-93102793D01*
X91172150Y-93022150D01*
X91187858Y-93000865D01*
X91243506Y-92958615D01*
X91287628Y-92950500D01*
X91908481Y-92950500D01*
X91975520Y-92970185D01*
X91996162Y-92986819D01*
X93263181Y-94253838D01*
X93296666Y-94315161D01*
X93299500Y-94341519D01*
X93299500Y-94999872D01*
X93279815Y-95066911D01*
X93249134Y-95099642D01*
X93227850Y-95115350D01*
X93147207Y-95224617D01*
X93147206Y-95224619D01*
X93102353Y-95352798D01*
X93102353Y-95352800D01*
X93099500Y-95383230D01*
X93099500Y-96191769D01*
X93102353Y-96222199D01*
X93102353Y-96222201D01*
X93142458Y-96336810D01*
X93147207Y-96350382D01*
X93227850Y-96459650D01*
X93337118Y-96540293D01*
X93379845Y-96555244D01*
X93465299Y-96585146D01*
X93495730Y-96588000D01*
X93495734Y-96588000D01*
X94504270Y-96588000D01*
X94534699Y-96585146D01*
X94534701Y-96585146D01*
X94600504Y-96562120D01*
X94662882Y-96540293D01*
X94772150Y-96459650D01*
X94852793Y-96350382D01*
X94875776Y-96284699D01*
X94897646Y-96222201D01*
X94897646Y-96222199D01*
X94900500Y-96191769D01*
X94900500Y-95383230D01*
X94897646Y-95352800D01*
X94897646Y-95352798D01*
X94860180Y-95245730D01*
X94852793Y-95224618D01*
X94772150Y-95115350D01*
X94750865Y-95099641D01*
X94708615Y-95043994D01*
X94700500Y-94999872D01*
X94700500Y-93931004D01*
X94673581Y-93795677D01*
X94673580Y-93795676D01*
X94673580Y-93795672D01*
X94653529Y-93747264D01*
X94620777Y-93668192D01*
X94544112Y-93553454D01*
X92897639Y-91906981D01*
X92864154Y-91845658D01*
X92869138Y-91775966D01*
X92911010Y-91720033D01*
X92976474Y-91695616D01*
X92985320Y-91695300D01*
X93149527Y-91695300D01*
X93384041Y-91658156D01*
X93473081Y-91629225D01*
X93609863Y-91584782D01*
X93821427Y-91476985D01*
X93912272Y-91410981D01*
X93978079Y-91387502D01*
X93985158Y-91387300D01*
X96888174Y-91387300D01*
X96955213Y-91406985D01*
X96975855Y-91423619D01*
X99263181Y-93710945D01*
X99296666Y-93772268D01*
X99299500Y-93798626D01*
X99299500Y-105594486D01*
X99329059Y-105781118D01*
X99387454Y-105960836D01*
X99458111Y-106099507D01*
X99473240Y-106129199D01*
X99584310Y-106282074D01*
X104018927Y-110716690D01*
X104171801Y-110827760D01*
X104222036Y-110853356D01*
X104340163Y-110913545D01*
X104340165Y-110913545D01*
X104340168Y-110913547D01*
X104436497Y-110944846D01*
X104519881Y-110971940D01*
X104706514Y-111001500D01*
X104706519Y-111001500D01*
X104773407Y-111001500D01*
X104840446Y-111021185D01*
X104871327Y-111051513D01*
X104872291Y-111050774D01*
X105054352Y-111288040D01*
X105054358Y-111288047D01*
X105262952Y-111496641D01*
X105262959Y-111496647D01*
X105497006Y-111676238D01*
X105752489Y-111823741D01*
X105752490Y-111823741D01*
X105752493Y-111823743D01*
X106025048Y-111936639D01*
X106310007Y-112012993D01*
X106420661Y-112027561D01*
X106484557Y-112055828D01*
X106523028Y-112114152D01*
X106523859Y-112184017D01*
X106486787Y-112243240D01*
X106423581Y-112273019D01*
X106420661Y-112273438D01*
X106310007Y-112288007D01*
X106025048Y-112364361D01*
X106025038Y-112364364D01*
X105752499Y-112477254D01*
X105752490Y-112477258D01*
X105656139Y-112532887D01*
X105594139Y-112549500D01*
X104980247Y-112549500D01*
X104921770Y-112561131D01*
X104921769Y-112561132D01*
X104855447Y-112605447D01*
X104811132Y-112671769D01*
X104811131Y-112671770D01*
X104799500Y-112730247D01*
X104799500Y-113344138D01*
X104782887Y-113406138D01*
X104727258Y-113502489D01*
X104727254Y-113502499D01*
X104614364Y-113775038D01*
X104614361Y-113775048D01*
X104538008Y-114060004D01*
X104538006Y-114060015D01*
X104499500Y-114352486D01*
X104499500Y-114647513D01*
X104525388Y-114844141D01*
X104538007Y-114939993D01*
X104538008Y-114939995D01*
X104614361Y-115224951D01*
X104614364Y-115224961D01*
X104647153Y-115304120D01*
X104727257Y-115497507D01*
X104782887Y-115593861D01*
X104799500Y-115655860D01*
X104799500Y-116269752D01*
X104811131Y-116328229D01*
X104811132Y-116328230D01*
X104855447Y-116394552D01*
X104921769Y-116438867D01*
X104921770Y-116438868D01*
X104980247Y-116450499D01*
X104980250Y-116450500D01*
X104980252Y-116450500D01*
X105594139Y-116450500D01*
X105656138Y-116467112D01*
X105752493Y-116522743D01*
X106025048Y-116635639D01*
X106310007Y-116711993D01*
X106602494Y-116750500D01*
X106602501Y-116750500D01*
X106897499Y-116750500D01*
X106897506Y-116750500D01*
X107189993Y-116711993D01*
X107474952Y-116635639D01*
X107747507Y-116522743D01*
X107843861Y-116467112D01*
X107905861Y-116450500D01*
X108519750Y-116450500D01*
X108519751Y-116450499D01*
X108534568Y-116447552D01*
X108578229Y-116438868D01*
X108578229Y-116438867D01*
X108578231Y-116438867D01*
X108644552Y-116394552D01*
X108688867Y-116328231D01*
X108688867Y-116328229D01*
X108688868Y-116328229D01*
X108700499Y-116269752D01*
X108700500Y-116269750D01*
X108700500Y-115824500D01*
X108720185Y-115757461D01*
X108772989Y-115711706D01*
X108824500Y-115700500D01*
X109951374Y-115700500D01*
X110018413Y-115720185D01*
X110039055Y-115736819D01*
X115263181Y-120960945D01*
X115296666Y-121022268D01*
X115299500Y-121048626D01*
X115299500Y-121111450D01*
X115299501Y-121111466D01*
X115328594Y-121332452D01*
X115328595Y-121332457D01*
X115328596Y-121332463D01*
X115386290Y-121547780D01*
X115386293Y-121547790D01*
X115471593Y-121753722D01*
X115471595Y-121753726D01*
X115583052Y-121946774D01*
X115583057Y-121946780D01*
X115583058Y-121946782D01*
X115718751Y-122123622D01*
X115718757Y-122123629D01*
X115876370Y-122281242D01*
X115876377Y-122281248D01*
X115927979Y-122320843D01*
X116053226Y-122416948D01*
X116246274Y-122528405D01*
X116452219Y-122613710D01*
X116667537Y-122671404D01*
X116888543Y-122700500D01*
X116888550Y-122700500D01*
X117111450Y-122700500D01*
X117111457Y-122700500D01*
X117332463Y-122671404D01*
X117547781Y-122613710D01*
X117753726Y-122528405D01*
X117946774Y-122416948D01*
X118123624Y-122281247D01*
X118281247Y-122123624D01*
X118416948Y-121946774D01*
X118528405Y-121753726D01*
X118613710Y-121547781D01*
X118671404Y-121332463D01*
X118700500Y-121111457D01*
X118700500Y-120888543D01*
X118671404Y-120667537D01*
X118613710Y-120452219D01*
X118528405Y-120246274D01*
X118416948Y-120053226D01*
X118346151Y-119960961D01*
X118281248Y-119876377D01*
X118281242Y-119876370D01*
X118123629Y-119718757D01*
X118123622Y-119718751D01*
X117946782Y-119583058D01*
X117946780Y-119583057D01*
X117946774Y-119583052D01*
X117753726Y-119471595D01*
X117753722Y-119471593D01*
X117547790Y-119386293D01*
X117547783Y-119386291D01*
X117547781Y-119386290D01*
X117332463Y-119328596D01*
X117332457Y-119328595D01*
X117332452Y-119328594D01*
X117111466Y-119299501D01*
X117111463Y-119299500D01*
X117111457Y-119299500D01*
X117111450Y-119299500D01*
X117048626Y-119299500D01*
X116981587Y-119279815D01*
X116960945Y-119263181D01*
X111282076Y-113584312D01*
X111282074Y-113584310D01*
X111129199Y-113473240D01*
X110960836Y-113387454D01*
X110781118Y-113329059D01*
X110594486Y-113299500D01*
X110594481Y-113299500D01*
X108824500Y-113299500D01*
X108757461Y-113279815D01*
X108711706Y-113227011D01*
X108700500Y-113175500D01*
X108700500Y-112730249D01*
X108700499Y-112730247D01*
X108688868Y-112671770D01*
X108688867Y-112671769D01*
X108644552Y-112605447D01*
X108578230Y-112561132D01*
X108578229Y-112561131D01*
X108519752Y-112549500D01*
X108519748Y-112549500D01*
X107905861Y-112549500D01*
X107843861Y-112532887D01*
X107747509Y-112477258D01*
X107747500Y-112477254D01*
X107474961Y-112364364D01*
X107474954Y-112364362D01*
X107474952Y-112364361D01*
X107189993Y-112288007D01*
X107189987Y-112288006D01*
X107189982Y-112288005D01*
X107079339Y-112273439D01*
X107015442Y-112245172D01*
X106976971Y-112186848D01*
X106976140Y-112116983D01*
X107013212Y-112057760D01*
X107076418Y-112027981D01*
X107079339Y-112027561D01*
X107189993Y-112012993D01*
X107474952Y-111936639D01*
X107747507Y-111823743D01*
X108002994Y-111676238D01*
X108237042Y-111496646D01*
X108445646Y-111288042D01*
X108625238Y-111053994D01*
X108772743Y-110798507D01*
X108885639Y-110525952D01*
X108961993Y-110240993D01*
X109000500Y-109948506D01*
X109000500Y-109653494D01*
X108995560Y-109615975D01*
X108994717Y-109609568D01*
X114499500Y-109609568D01*
X114499500Y-109890431D01*
X114530942Y-110169494D01*
X114530945Y-110169512D01*
X114593439Y-110443317D01*
X114593443Y-110443329D01*
X114686200Y-110708411D01*
X114808053Y-110961442D01*
X114808055Y-110961445D01*
X114957477Y-111199248D01*
X115132584Y-111418825D01*
X115331175Y-111617416D01*
X115550752Y-111792523D01*
X115788555Y-111941945D01*
X116041592Y-112063801D01*
X116240680Y-112133465D01*
X116306670Y-112156556D01*
X116306682Y-112156560D01*
X116580491Y-112219055D01*
X116580497Y-112219055D01*
X116580505Y-112219057D01*
X116766547Y-112240018D01*
X116859569Y-112250499D01*
X116859572Y-112250500D01*
X116859575Y-112250500D01*
X117140428Y-112250500D01*
X117140429Y-112250499D01*
X117283055Y-112234429D01*
X117419494Y-112219057D01*
X117419499Y-112219056D01*
X117419509Y-112219055D01*
X117693318Y-112156560D01*
X117958408Y-112063801D01*
X118211445Y-111941945D01*
X118449248Y-111792523D01*
X118668825Y-111617416D01*
X118867416Y-111418825D01*
X119042523Y-111199248D01*
X119191945Y-110961445D01*
X119313801Y-110708408D01*
X119406560Y-110443318D01*
X119469055Y-110169509D01*
X119470668Y-110155198D01*
X119493956Y-109948506D01*
X119500500Y-109890425D01*
X119500500Y-109609575D01*
X119488275Y-109501076D01*
X119469057Y-109330505D01*
X119469054Y-109330487D01*
X119406560Y-109056682D01*
X119406556Y-109056670D01*
X119370159Y-108952655D01*
X119313801Y-108791592D01*
X119191945Y-108538555D01*
X119042523Y-108300752D01*
X118867416Y-108081175D01*
X118668825Y-107882584D01*
X118449248Y-107707477D01*
X118260703Y-107589006D01*
X118211442Y-107558053D01*
X117958411Y-107436200D01*
X117693329Y-107343443D01*
X117693317Y-107343439D01*
X117419512Y-107280945D01*
X117419494Y-107280942D01*
X117140431Y-107249500D01*
X117140425Y-107249500D01*
X116859575Y-107249500D01*
X116859568Y-107249500D01*
X116580505Y-107280942D01*
X116580487Y-107280945D01*
X116306682Y-107343439D01*
X116306670Y-107343443D01*
X116041588Y-107436200D01*
X115788557Y-107558053D01*
X115550753Y-107707476D01*
X115331175Y-107882583D01*
X115132583Y-108081175D01*
X114957476Y-108300753D01*
X114808053Y-108538557D01*
X114686200Y-108791588D01*
X114593443Y-109056670D01*
X114593439Y-109056682D01*
X114530945Y-109330487D01*
X114530942Y-109330505D01*
X114499500Y-109609568D01*
X108994717Y-109609568D01*
X108985059Y-109536208D01*
X108961993Y-109361007D01*
X108885639Y-109076048D01*
X108877382Y-109056115D01*
X108788490Y-108841510D01*
X108772743Y-108803493D01*
X108769950Y-108798656D01*
X108625238Y-108548006D01*
X108445647Y-108313959D01*
X108445641Y-108313952D01*
X108237047Y-108105358D01*
X108237040Y-108105352D01*
X108002993Y-107925761D01*
X107747510Y-107778258D01*
X107747500Y-107778254D01*
X107474961Y-107665364D01*
X107474954Y-107665362D01*
X107474952Y-107665361D01*
X107189993Y-107589007D01*
X107189987Y-107589006D01*
X107189982Y-107589005D01*
X107079339Y-107574439D01*
X107015442Y-107546172D01*
X106976971Y-107487848D01*
X106976140Y-107417983D01*
X107013212Y-107358760D01*
X107076418Y-107328981D01*
X107079339Y-107328561D01*
X107189993Y-107313993D01*
X107474952Y-107237639D01*
X107747507Y-107124743D01*
X108002994Y-106977238D01*
X108237042Y-106797646D01*
X108445646Y-106589042D01*
X108625238Y-106354994D01*
X108772743Y-106099507D01*
X108885639Y-105826952D01*
X108961993Y-105541993D01*
X109000500Y-105249506D01*
X109000500Y-104954494D01*
X108961993Y-104662007D01*
X108885639Y-104377048D01*
X108885055Y-104375639D01*
X108810564Y-104195802D01*
X108772743Y-104104493D01*
X108726848Y-104025001D01*
X108625238Y-103849006D01*
X108445647Y-103614959D01*
X108445641Y-103614952D01*
X108237047Y-103406358D01*
X108237040Y-103406352D01*
X108002993Y-103226761D01*
X107747510Y-103079258D01*
X107747500Y-103079254D01*
X107474961Y-102966364D01*
X107474954Y-102966362D01*
X107474952Y-102966361D01*
X107189993Y-102890007D01*
X107141113Y-102883571D01*
X106897513Y-102851500D01*
X106897506Y-102851500D01*
X106602494Y-102851500D01*
X106602486Y-102851500D01*
X106324085Y-102888153D01*
X106310007Y-102890007D01*
X106125792Y-102939367D01*
X106025048Y-102966361D01*
X106025038Y-102966364D01*
X105752499Y-103079254D01*
X105752489Y-103079258D01*
X105497006Y-103226761D01*
X105262959Y-103406352D01*
X105262952Y-103406358D01*
X105054358Y-103614952D01*
X105054352Y-103614959D01*
X104874761Y-103849006D01*
X104727258Y-104104489D01*
X104727254Y-104104499D01*
X104614364Y-104377038D01*
X104614361Y-104377048D01*
X104560961Y-104576343D01*
X104538008Y-104662004D01*
X104538006Y-104662015D01*
X104499500Y-104954486D01*
X104499500Y-105249513D01*
X104531571Y-105493113D01*
X104538007Y-105541993D01*
X104614361Y-105826951D01*
X104614364Y-105826961D01*
X104727254Y-106099500D01*
X104727258Y-106099510D01*
X104874761Y-106354993D01*
X105054352Y-106589040D01*
X105054358Y-106589047D01*
X105262952Y-106797641D01*
X105262959Y-106797647D01*
X105497006Y-106977238D01*
X105752489Y-107124741D01*
X105752490Y-107124741D01*
X105752493Y-107124743D01*
X106025048Y-107237639D01*
X106310007Y-107313993D01*
X106420661Y-107328561D01*
X106484557Y-107356828D01*
X106523028Y-107415152D01*
X106523859Y-107485017D01*
X106486787Y-107544240D01*
X106423581Y-107574019D01*
X106420661Y-107574438D01*
X106310007Y-107589007D01*
X106181079Y-107623553D01*
X106025048Y-107665361D01*
X106025038Y-107665364D01*
X105752499Y-107778254D01*
X105752489Y-107778258D01*
X105497006Y-107925761D01*
X105262960Y-108105351D01*
X105120718Y-108247593D01*
X105059395Y-108281077D01*
X104989703Y-108276093D01*
X104945356Y-108247592D01*
X101736819Y-105039055D01*
X101703334Y-104977732D01*
X101700500Y-104951374D01*
X101700500Y-93155513D01*
X101670940Y-92968881D01*
X101612545Y-92789163D01*
X101526759Y-92620800D01*
X101491748Y-92572611D01*
X101415690Y-92467926D01*
X100509652Y-91561888D01*
X102444300Y-91561888D01*
X102444300Y-91859711D01*
X102477641Y-92155628D01*
X102477644Y-92155642D01*
X102543913Y-92445988D01*
X102642273Y-92727085D01*
X102771486Y-92995399D01*
X102788294Y-93022149D01*
X102929933Y-93247565D01*
X103039021Y-93384356D01*
X103091368Y-93449998D01*
X103115615Y-93480402D01*
X103326198Y-93690985D01*
X103559035Y-93876667D01*
X103811198Y-94035112D01*
X104079516Y-94164327D01*
X104360611Y-94262686D01*
X104360613Y-94262686D01*
X104360614Y-94262687D01*
X104650957Y-94328956D01*
X104650966Y-94328957D01*
X104650971Y-94328958D01*
X104848249Y-94351185D01*
X104946889Y-94362299D01*
X104946892Y-94362300D01*
X104946895Y-94362300D01*
X105244708Y-94362300D01*
X105244709Y-94362299D01*
X105429143Y-94341519D01*
X105540628Y-94328958D01*
X105540631Y-94328957D01*
X105540643Y-94328956D01*
X105830986Y-94262687D01*
X106112084Y-94164327D01*
X106380402Y-94035112D01*
X106632565Y-93876667D01*
X106865402Y-93690985D01*
X107075985Y-93480402D01*
X107261667Y-93247565D01*
X107420112Y-92995402D01*
X107549327Y-92727084D01*
X107647687Y-92445986D01*
X107713956Y-92155643D01*
X107747300Y-91859705D01*
X107747300Y-91561895D01*
X107727628Y-91387300D01*
X107713958Y-91265971D01*
X107713957Y-91265966D01*
X107713956Y-91265957D01*
X107647687Y-90975614D01*
X107549327Y-90694516D01*
X107420112Y-90426198D01*
X107261667Y-90174035D01*
X107075985Y-89941198D01*
X106865402Y-89730615D01*
X106632565Y-89544933D01*
X106380402Y-89386488D01*
X106380399Y-89386486D01*
X106112085Y-89257273D01*
X105830987Y-89158913D01*
X105830989Y-89158913D01*
X105613228Y-89109211D01*
X105540643Y-89092644D01*
X105540640Y-89092643D01*
X105540628Y-89092641D01*
X105244711Y-89059300D01*
X105244705Y-89059300D01*
X104946895Y-89059300D01*
X104946888Y-89059300D01*
X104650971Y-89092641D01*
X104650957Y-89092644D01*
X104360611Y-89158913D01*
X104079514Y-89257273D01*
X103811200Y-89386486D01*
X103559036Y-89544932D01*
X103326198Y-89730614D01*
X103115614Y-89941198D01*
X102929932Y-90174036D01*
X102771486Y-90426200D01*
X102642273Y-90694514D01*
X102543913Y-90975611D01*
X102477644Y-91265957D01*
X102477641Y-91265971D01*
X102444300Y-91561888D01*
X100509652Y-91561888D01*
X98218874Y-89271110D01*
X98065999Y-89160040D01*
X98063787Y-89158913D01*
X97897636Y-89074254D01*
X97717918Y-89015859D01*
X97531286Y-88986300D01*
X97531281Y-88986300D01*
X93985158Y-88986300D01*
X93918119Y-88966615D01*
X93912272Y-88962618D01*
X93821427Y-88896615D01*
X93609867Y-88788819D01*
X93384041Y-88715443D01*
X93149527Y-88678300D01*
X93149522Y-88678300D01*
X92912078Y-88678300D01*
X92912073Y-88678300D01*
X92677558Y-88715443D01*
X92451732Y-88788819D01*
X92240172Y-88896615D01*
X92048075Y-89036182D01*
X91880182Y-89204075D01*
X91880175Y-89204084D01*
X91861117Y-89230315D01*
X91805787Y-89272981D01*
X91736174Y-89278959D01*
X91674379Y-89246353D01*
X91660483Y-89230315D01*
X91641424Y-89204084D01*
X91641420Y-89204078D01*
X91473522Y-89036180D01*
X91281427Y-88896615D01*
X91277304Y-88894514D01*
X91069867Y-88788819D01*
X90844041Y-88715443D01*
X90609527Y-88678300D01*
X90609522Y-88678300D01*
X90372078Y-88678300D01*
X90372073Y-88678300D01*
X90137558Y-88715443D01*
X89911732Y-88788819D01*
X89700172Y-88896615D01*
X89508075Y-89036182D01*
X89340182Y-89204075D01*
X89200615Y-89396172D01*
X89092819Y-89607732D01*
X89019443Y-89833558D01*
X88982300Y-90068072D01*
X88982300Y-90305527D01*
X89019443Y-90540041D01*
X89092819Y-90765867D01*
X89154708Y-90887329D01*
X89167604Y-90955998D01*
X89141328Y-91020739D01*
X89084221Y-91060996D01*
X89014416Y-91063988D01*
X89005224Y-91061332D01*
X89002697Y-91060494D01*
X89002690Y-91060493D01*
X88899986Y-91050000D01*
X88750000Y-91050000D01*
X88250000Y-91050000D01*
X88100027Y-91050000D01*
X88100012Y-91050001D01*
X87997302Y-91060494D01*
X87830880Y-91115641D01*
X87830875Y-91115643D01*
X87681654Y-91207684D01*
X87562181Y-91327158D01*
X87500858Y-91360643D01*
X87431166Y-91355659D01*
X87375233Y-91313787D01*
X87350816Y-91248323D01*
X87350500Y-91239477D01*
X87350500Y-86837965D01*
X87370185Y-86770926D01*
X87386819Y-86750284D01*
X92450284Y-81686819D01*
X92511607Y-81653334D01*
X92537965Y-81650500D01*
X100459308Y-81650500D01*
X100459309Y-81650500D01*
X100549673Y-81626286D01*
X100573887Y-81619799D01*
X100676614Y-81560489D01*
X105110489Y-77126614D01*
X105169799Y-77023887D01*
X105169800Y-77023884D01*
X105183330Y-76973389D01*
X105183330Y-76973388D01*
X105186958Y-76959846D01*
X105200500Y-76909309D01*
X105200500Y-72690691D01*
X105169799Y-72576114D01*
X105126697Y-72501459D01*
X105110489Y-72473386D01*
X101526614Y-68889511D01*
X101467302Y-68855267D01*
X101423888Y-68830201D01*
X101411780Y-68826957D01*
X101399673Y-68823713D01*
X101399670Y-68823712D01*
X101361478Y-68813478D01*
X101309309Y-68799500D01*
X98440691Y-68799500D01*
X98371944Y-68817920D01*
X98326112Y-68830201D01*
X98326107Y-68830204D01*
X98282695Y-68855267D01*
X98282696Y-68855268D01*
X98223389Y-68889508D01*
X98223383Y-68889513D01*
X97084716Y-70028181D01*
X97023393Y-70061666D01*
X96997035Y-70064500D01*
X96906903Y-70064500D01*
X96673631Y-70101446D01*
X96449003Y-70174433D01*
X96238566Y-70281657D01*
X96155047Y-70342338D01*
X96047490Y-70420483D01*
X96047488Y-70420485D01*
X96047487Y-70420485D01*
X95880484Y-70587488D01*
X95855318Y-70622127D01*
X95799987Y-70664792D01*
X95730374Y-70670771D01*
X95668579Y-70638165D01*
X95654682Y-70622127D01*
X95629517Y-70587490D01*
X95462510Y-70420483D01*
X95271433Y-70281657D01*
X95060996Y-70174433D01*
X94836368Y-70101446D01*
X94603097Y-70064500D01*
X94603092Y-70064500D01*
X94366908Y-70064500D01*
X94366903Y-70064500D01*
X94133631Y-70101446D01*
X93909003Y-70174433D01*
X93698566Y-70281657D01*
X93615047Y-70342338D01*
X93507490Y-70420483D01*
X93507488Y-70420485D01*
X93507487Y-70420485D01*
X93340482Y-70587490D01*
X93297451Y-70646717D01*
X93242120Y-70689382D01*
X93187405Y-70697448D01*
X93167658Y-70695893D01*
X92427962Y-71435590D01*
X92410925Y-71372007D01*
X92345099Y-71257993D01*
X92252007Y-71164901D01*
X92137993Y-71099075D01*
X92074409Y-71082037D01*
X92814105Y-70342340D01*
X92814104Y-70342338D01*
X92731174Y-70282087D01*
X92520802Y-70174897D01*
X92296247Y-70101934D01*
X92296248Y-70101934D01*
X92063052Y-70065000D01*
X91826948Y-70065000D01*
X91593752Y-70101934D01*
X91369197Y-70174897D01*
X91158830Y-70282084D01*
X91075894Y-70342340D01*
X91815591Y-71082037D01*
X91752007Y-71099075D01*
X91637993Y-71164901D01*
X91544901Y-71257993D01*
X91479075Y-71372007D01*
X91462037Y-71435590D01*
X90722340Y-70695893D01*
X90702593Y-70697448D01*
X90698860Y-70696663D01*
X90695222Y-70697808D01*
X90664936Y-70689537D01*
X90634215Y-70683084D01*
X90630429Y-70680114D01*
X90627821Y-70679402D01*
X90618431Y-70670701D01*
X90600712Y-70656800D01*
X90596370Y-70651978D01*
X90549517Y-70587490D01*
X90382510Y-70420483D01*
X90191433Y-70281657D01*
X89980996Y-70174433D01*
X89756368Y-70101446D01*
X89523097Y-70064500D01*
X89523092Y-70064500D01*
X89286908Y-70064500D01*
X89286903Y-70064500D01*
X89053631Y-70101446D01*
X88829003Y-70174433D01*
X88618566Y-70281657D01*
X88535047Y-70342338D01*
X88427490Y-70420483D01*
X88427488Y-70420485D01*
X88427487Y-70420485D01*
X88260482Y-70587490D01*
X88217451Y-70646717D01*
X88162120Y-70689382D01*
X88107405Y-70697448D01*
X88087658Y-70695893D01*
X87347962Y-71435590D01*
X87330925Y-71372007D01*
X87265099Y-71257993D01*
X87172007Y-71164901D01*
X87057993Y-71099075D01*
X86994409Y-71082037D01*
X87734105Y-70342340D01*
X87734104Y-70342338D01*
X87651174Y-70282087D01*
X87440802Y-70174897D01*
X87216247Y-70101934D01*
X87216248Y-70101934D01*
X86983052Y-70065000D01*
X86746948Y-70065000D01*
X86513752Y-70101934D01*
X86289197Y-70174897D01*
X86078830Y-70282084D01*
X85995894Y-70342340D01*
X86735591Y-71082037D01*
X86672007Y-71099075D01*
X86557993Y-71164901D01*
X86464901Y-71257993D01*
X86399075Y-71372007D01*
X86382037Y-71435590D01*
X85642340Y-70695893D01*
X85622593Y-70697448D01*
X85618860Y-70696663D01*
X85615222Y-70697808D01*
X85584936Y-70689537D01*
X85554215Y-70683084D01*
X85550429Y-70680114D01*
X85547821Y-70679402D01*
X85538431Y-70670701D01*
X85520712Y-70656800D01*
X85516370Y-70651978D01*
X85469517Y-70587490D01*
X85302510Y-70420483D01*
X85111433Y-70281657D01*
X84900996Y-70174433D01*
X84676368Y-70101446D01*
X84443097Y-70064500D01*
X84443092Y-70064500D01*
X84206908Y-70064500D01*
X84206903Y-70064500D01*
X83973631Y-70101446D01*
X83749003Y-70174433D01*
X83538566Y-70281657D01*
X83455047Y-70342338D01*
X83347490Y-70420483D01*
X83347488Y-70420485D01*
X83347487Y-70420485D01*
X83180484Y-70587488D01*
X83155318Y-70622127D01*
X83099987Y-70664792D01*
X83030374Y-70670771D01*
X82968579Y-70638165D01*
X82954682Y-70622127D01*
X82929517Y-70587490D01*
X82762510Y-70420483D01*
X82571433Y-70281657D01*
X82360996Y-70174433D01*
X82136368Y-70101446D01*
X81903097Y-70064500D01*
X81903092Y-70064500D01*
X81666908Y-70064500D01*
X81666903Y-70064500D01*
X81433631Y-70101446D01*
X81209003Y-70174433D01*
X80998566Y-70281657D01*
X80915047Y-70342338D01*
X80807490Y-70420483D01*
X80807488Y-70420485D01*
X80807487Y-70420485D01*
X80640484Y-70587488D01*
X80615318Y-70622127D01*
X80559987Y-70664792D01*
X80490374Y-70670771D01*
X80428579Y-70638165D01*
X80414682Y-70622127D01*
X80389517Y-70587490D01*
X80222510Y-70420483D01*
X80031433Y-70281657D01*
X79820996Y-70174433D01*
X79596368Y-70101446D01*
X79363097Y-70064500D01*
X79363092Y-70064500D01*
X79126908Y-70064500D01*
X79126903Y-70064500D01*
X78893631Y-70101446D01*
X78669003Y-70174433D01*
X78458566Y-70281657D01*
X78375047Y-70342338D01*
X78267490Y-70420483D01*
X78267488Y-70420485D01*
X78267487Y-70420485D01*
X78100484Y-70587488D01*
X78075318Y-70622127D01*
X78019987Y-70664792D01*
X77950374Y-70670771D01*
X77888579Y-70638165D01*
X77874682Y-70622127D01*
X77849517Y-70587490D01*
X77682510Y-70420483D01*
X77491433Y-70281657D01*
X77280996Y-70174433D01*
X77056368Y-70101446D01*
X76823097Y-70064500D01*
X76823092Y-70064500D01*
X76586908Y-70064500D01*
X76586903Y-70064500D01*
X76353631Y-70101446D01*
X76129003Y-70174433D01*
X75918566Y-70281657D01*
X75835047Y-70342338D01*
X75727490Y-70420483D01*
X75727488Y-70420485D01*
X75727487Y-70420485D01*
X75560482Y-70587490D01*
X75517451Y-70646717D01*
X75462120Y-70689382D01*
X75407405Y-70697448D01*
X75387658Y-70695893D01*
X74647962Y-71435590D01*
X74630925Y-71372007D01*
X74565099Y-71257993D01*
X74472007Y-71164901D01*
X74357993Y-71099075D01*
X74294409Y-71082037D01*
X75034105Y-70342340D01*
X75034104Y-70342338D01*
X74951174Y-70282087D01*
X74740802Y-70174897D01*
X74516247Y-70101934D01*
X74516248Y-70101934D01*
X74283052Y-70065000D01*
X74046948Y-70065000D01*
X73813752Y-70101934D01*
X73589197Y-70174897D01*
X73378830Y-70282084D01*
X73295894Y-70342340D01*
X74035591Y-71082037D01*
X73972007Y-71099075D01*
X73857993Y-71164901D01*
X73764901Y-71257993D01*
X73699075Y-71372007D01*
X73682037Y-71435590D01*
X72942340Y-70695893D01*
X72922593Y-70697448D01*
X72918860Y-70696663D01*
X72915222Y-70697808D01*
X72884936Y-70689537D01*
X72854215Y-70683084D01*
X72850429Y-70680114D01*
X72847821Y-70679402D01*
X72838431Y-70670701D01*
X72820712Y-70656800D01*
X72816370Y-70651978D01*
X72769517Y-70587490D01*
X72602510Y-70420483D01*
X72411433Y-70281657D01*
X72200996Y-70174433D01*
X71976368Y-70101446D01*
X71743097Y-70064500D01*
X71743092Y-70064500D01*
X71506908Y-70064500D01*
X71506903Y-70064500D01*
X71273631Y-70101446D01*
X71049003Y-70174433D01*
X70838566Y-70281657D01*
X70755047Y-70342338D01*
X70647490Y-70420483D01*
X70647488Y-70420485D01*
X70647487Y-70420485D01*
X70480484Y-70587488D01*
X70455318Y-70622127D01*
X70399987Y-70664792D01*
X70330374Y-70670771D01*
X70268579Y-70638165D01*
X70254682Y-70622127D01*
X70229517Y-70587490D01*
X70062510Y-70420483D01*
X69871433Y-70281657D01*
X69660996Y-70174433D01*
X69436368Y-70101446D01*
X69203097Y-70064500D01*
X69203092Y-70064500D01*
X68966908Y-70064500D01*
X68966903Y-70064500D01*
X68733631Y-70101446D01*
X68509003Y-70174433D01*
X68298566Y-70281657D01*
X68215047Y-70342338D01*
X68107490Y-70420483D01*
X68107488Y-70420485D01*
X68107487Y-70420485D01*
X67940482Y-70587490D01*
X67897451Y-70646717D01*
X67842120Y-70689382D01*
X67787405Y-70697448D01*
X67767658Y-70695893D01*
X67027962Y-71435590D01*
X67010925Y-71372007D01*
X66945099Y-71257993D01*
X66852007Y-71164901D01*
X66737993Y-71099075D01*
X66674409Y-71082037D01*
X67414105Y-70342340D01*
X67414104Y-70342338D01*
X67331174Y-70282087D01*
X67120802Y-70174897D01*
X66896247Y-70101934D01*
X66896248Y-70101934D01*
X66663052Y-70065000D01*
X66426948Y-70065000D01*
X66193752Y-70101934D01*
X65969197Y-70174897D01*
X65758830Y-70282084D01*
X65675894Y-70342340D01*
X66415591Y-71082037D01*
X66352007Y-71099075D01*
X66237993Y-71164901D01*
X66144901Y-71257993D01*
X66079075Y-71372007D01*
X66062037Y-71435590D01*
X65322340Y-70695893D01*
X65302593Y-70697448D01*
X65298860Y-70696663D01*
X65295222Y-70697808D01*
X65264936Y-70689537D01*
X65234215Y-70683084D01*
X65230429Y-70680114D01*
X65227821Y-70679402D01*
X65218431Y-70670701D01*
X65200712Y-70656800D01*
X65196370Y-70651978D01*
X65149517Y-70587490D01*
X64982510Y-70420483D01*
X64791433Y-70281657D01*
X64580996Y-70174433D01*
X64356368Y-70101446D01*
X64123097Y-70064500D01*
X64123092Y-70064500D01*
X63886908Y-70064500D01*
X63886901Y-70064500D01*
X63882044Y-70064882D01*
X63881884Y-70062854D01*
X63821069Y-70054983D01*
X63767626Y-70009976D01*
X63747000Y-69943220D01*
X63765740Y-69875910D01*
X63783302Y-69853799D01*
X68649284Y-64987819D01*
X68710607Y-64954334D01*
X68736965Y-64951500D01*
X98263035Y-64951500D01*
X98330074Y-64971185D01*
X98350716Y-64987819D01*
X134803386Y-101440489D01*
X134906113Y-101499799D01*
X134930321Y-101506284D01*
X134930324Y-101506286D01*
X134930325Y-101506286D01*
X134960447Y-101514357D01*
X135020691Y-101530500D01*
X138698566Y-101530500D01*
X138765605Y-101550185D01*
X138811360Y-101602989D01*
X138816497Y-101616181D01*
X138829433Y-101655996D01*
X138922483Y-101838615D01*
X138936657Y-101866433D01*
X139075483Y-102057510D01*
X139242490Y-102224517D01*
X139301716Y-102267547D01*
X139344381Y-102322875D01*
X139352448Y-102377593D01*
X139350893Y-102397340D01*
X140090591Y-103137037D01*
X140027007Y-103154075D01*
X139912993Y-103219901D01*
X139819901Y-103312993D01*
X139754075Y-103427007D01*
X139737037Y-103490591D01*
X138997340Y-102750894D01*
X138937084Y-102833830D01*
X138829897Y-103044197D01*
X138756934Y-103268752D01*
X138720000Y-103501947D01*
X138720000Y-103738052D01*
X138756934Y-103971247D01*
X138829897Y-104195802D01*
X138937087Y-104406174D01*
X138997338Y-104489104D01*
X138997340Y-104489105D01*
X139737037Y-103749408D01*
X139754075Y-103812993D01*
X139819901Y-103927007D01*
X139912993Y-104020099D01*
X140027007Y-104085925D01*
X140090590Y-104102962D01*
X139350893Y-104842658D01*
X139352448Y-104862405D01*
X139338084Y-104930783D01*
X139301717Y-104972451D01*
X139242490Y-105015482D01*
X139075485Y-105182487D01*
X139075485Y-105182488D01*
X139075483Y-105182490D01*
X139026798Y-105249499D01*
X138936657Y-105373566D01*
X138829433Y-105584003D01*
X138756446Y-105808631D01*
X138719500Y-106041902D01*
X138719500Y-106278097D01*
X138756446Y-106511368D01*
X138829433Y-106735996D01*
X138903256Y-106880880D01*
X138936657Y-106946433D01*
X139075483Y-107137510D01*
X139242490Y-107304517D01*
X139433567Y-107443343D01*
X139514301Y-107484479D01*
X139644003Y-107550566D01*
X139644005Y-107550566D01*
X139644008Y-107550568D01*
X139762305Y-107589005D01*
X139868631Y-107623553D01*
X140101903Y-107660500D01*
X140101908Y-107660500D01*
X140338097Y-107660500D01*
X140571368Y-107623553D01*
X140597771Y-107614974D01*
X140795992Y-107550568D01*
X140796126Y-107550500D01*
X140830734Y-107532866D01*
X141006433Y-107443343D01*
X141197510Y-107304517D01*
X141364517Y-107137510D01*
X141503343Y-106946433D01*
X141610568Y-106735992D01*
X141683553Y-106511368D01*
X141689313Y-106474999D01*
X141720500Y-106278097D01*
X141720500Y-106041902D01*
X141683553Y-105808631D01*
X141649689Y-105704412D01*
X141610568Y-105584008D01*
X141610566Y-105584005D01*
X141610566Y-105584003D01*
X141503342Y-105373566D01*
X141364517Y-105182490D01*
X141197510Y-105015483D01*
X141138282Y-104972451D01*
X141095617Y-104917122D01*
X141087550Y-104862404D01*
X141089104Y-104842657D01*
X140349408Y-104102962D01*
X140412993Y-104085925D01*
X140527007Y-104020099D01*
X140620099Y-103927007D01*
X140685925Y-103812993D01*
X140702962Y-103749409D01*
X141442658Y-104489105D01*
X141442658Y-104489104D01*
X141502914Y-104406169D01*
X141502918Y-104406163D01*
X141610102Y-104195802D01*
X141683065Y-103971247D01*
X141720000Y-103738052D01*
X141720000Y-103501947D01*
X141683065Y-103268752D01*
X141610102Y-103044197D01*
X141511147Y-102849986D01*
X149700001Y-102849986D01*
X149710494Y-102952697D01*
X149765641Y-103119119D01*
X149765643Y-103119124D01*
X149857684Y-103268345D01*
X149981654Y-103392315D01*
X150130875Y-103484356D01*
X150130880Y-103484358D01*
X150297302Y-103539505D01*
X150297309Y-103539506D01*
X150400019Y-103549999D01*
X150749999Y-103549999D01*
X151250000Y-103549999D01*
X151599972Y-103549999D01*
X151599986Y-103549998D01*
X151702697Y-103539505D01*
X151869119Y-103484358D01*
X151869124Y-103484356D01*
X152018345Y-103392315D01*
X152142315Y-103268345D01*
X152234356Y-103119124D01*
X152234358Y-103119119D01*
X152289505Y-102952697D01*
X152289506Y-102952690D01*
X152299999Y-102849986D01*
X152300000Y-102849973D01*
X152300000Y-101550000D01*
X151250000Y-101550000D01*
X151250000Y-103549999D01*
X150749999Y-103549999D01*
X150750000Y-103549998D01*
X150750000Y-101550000D01*
X149700001Y-101550000D01*
X149700001Y-102849986D01*
X141511147Y-102849986D01*
X141502914Y-102833828D01*
X141442658Y-102750894D01*
X141442658Y-102750893D01*
X140702962Y-103490590D01*
X140685925Y-103427007D01*
X140620099Y-103312993D01*
X140527007Y-103219901D01*
X140412993Y-103154075D01*
X140349409Y-103137037D01*
X141089105Y-102397340D01*
X141087551Y-102377594D01*
X141101915Y-102309216D01*
X141138284Y-102267547D01*
X141197510Y-102224517D01*
X141364517Y-102057510D01*
X141503343Y-101866433D01*
X141610568Y-101655992D01*
X141680590Y-101440489D01*
X141683551Y-101431375D01*
X141683551Y-101431373D01*
X141683553Y-101431368D01*
X141713936Y-101239537D01*
X141720500Y-101198097D01*
X141720500Y-100961902D01*
X141683553Y-100728631D01*
X141626533Y-100553143D01*
X141610568Y-100504008D01*
X141610566Y-100504005D01*
X141610566Y-100504003D01*
X141519023Y-100324341D01*
X141503343Y-100293567D01*
X141364517Y-100102490D01*
X141197510Y-99935483D01*
X141162872Y-99910317D01*
X141148360Y-99891497D01*
X141130597Y-99875705D01*
X141127415Y-99864337D01*
X141120207Y-99854989D01*
X141118173Y-99831308D01*
X141111768Y-99808420D01*
X141115238Y-99797135D01*
X141114228Y-99785375D01*
X141125318Y-99764355D01*
X141129729Y-99750013D01*
X149700000Y-99750013D01*
X149700000Y-101050000D01*
X150750000Y-101050000D01*
X151250000Y-101050000D01*
X152299999Y-101050000D01*
X152299999Y-99750028D01*
X152299998Y-99750013D01*
X152289505Y-99647302D01*
X152234358Y-99480880D01*
X152234356Y-99480875D01*
X152142315Y-99331654D01*
X152018345Y-99207684D01*
X151869124Y-99115643D01*
X151869119Y-99115641D01*
X151702697Y-99060494D01*
X151702690Y-99060493D01*
X151599986Y-99050000D01*
X151250000Y-99050000D01*
X151250000Y-101050000D01*
X150750000Y-101050000D01*
X150750000Y-99050000D01*
X150400028Y-99050000D01*
X150400012Y-99050001D01*
X150297302Y-99060494D01*
X150130880Y-99115641D01*
X150130875Y-99115643D01*
X149981654Y-99207684D01*
X149857684Y-99331654D01*
X149765643Y-99480875D01*
X149765641Y-99480880D01*
X149710494Y-99647302D01*
X149710493Y-99647309D01*
X149700000Y-99750013D01*
X141129729Y-99750013D01*
X141132305Y-99741637D01*
X141143456Y-99729979D01*
X141146833Y-99723580D01*
X141155756Y-99715260D01*
X141159206Y-99712346D01*
X141197510Y-99684517D01*
X141364517Y-99517510D01*
X141503343Y-99326433D01*
X141610568Y-99115992D01*
X141683553Y-98891368D01*
X141689957Y-98850934D01*
X141720500Y-98658097D01*
X141720500Y-98524986D01*
X144275001Y-98524986D01*
X144285494Y-98627697D01*
X144340641Y-98794119D01*
X144340643Y-98794124D01*
X144432684Y-98943345D01*
X144556654Y-99067315D01*
X144705875Y-99159356D01*
X144705880Y-99159358D01*
X144872302Y-99214505D01*
X144872309Y-99214506D01*
X144975019Y-99224999D01*
X145249999Y-99224999D01*
X145750000Y-99224999D01*
X146024972Y-99224999D01*
X146024986Y-99224998D01*
X146127697Y-99214505D01*
X146294119Y-99159358D01*
X146294124Y-99159356D01*
X146443345Y-99067315D01*
X146567315Y-98943345D01*
X146659356Y-98794124D01*
X146659358Y-98794119D01*
X146714505Y-98627697D01*
X146714506Y-98627690D01*
X146724999Y-98524986D01*
X146725000Y-98524973D01*
X146725000Y-98387500D01*
X145750000Y-98387500D01*
X145750000Y-99224999D01*
X145249999Y-99224999D01*
X145250000Y-99224998D01*
X145250000Y-98387500D01*
X144275001Y-98387500D01*
X144275001Y-98524986D01*
X141720500Y-98524986D01*
X141720500Y-98421903D01*
X141709988Y-98355537D01*
X141709988Y-98355536D01*
X141701968Y-98304900D01*
X141683553Y-98188632D01*
X141610568Y-97964008D01*
X141610566Y-97964005D01*
X141610566Y-97964003D01*
X141503342Y-97753566D01*
X141502033Y-97751764D01*
X141364517Y-97562490D01*
X141205924Y-97403897D01*
X141172439Y-97342574D01*
X141177423Y-97272882D01*
X141219295Y-97216949D01*
X141269413Y-97194599D01*
X141298231Y-97188867D01*
X141364552Y-97144552D01*
X141408867Y-97078231D01*
X141408867Y-97078229D01*
X141408868Y-97078229D01*
X141420499Y-97019752D01*
X141420500Y-97019750D01*
X141420500Y-96940746D01*
X141440185Y-96873707D01*
X141444173Y-96867871D01*
X141503343Y-96786433D01*
X141610568Y-96575992D01*
X141623503Y-96536179D01*
X141662941Y-96478506D01*
X141727300Y-96451308D01*
X141741434Y-96450500D01*
X144477404Y-96450500D01*
X144544443Y-96470185D01*
X144590198Y-96522989D01*
X144594445Y-96533544D01*
X144609300Y-96575996D01*
X144622207Y-96612882D01*
X144702850Y-96722150D01*
X144812118Y-96802793D01*
X144876033Y-96825158D01*
X144932807Y-96865878D01*
X144958555Y-96930830D01*
X144945099Y-96999392D01*
X144896712Y-97049795D01*
X144874082Y-97059904D01*
X144705878Y-97115642D01*
X144705875Y-97115643D01*
X144556654Y-97207684D01*
X144432684Y-97331654D01*
X144340643Y-97480875D01*
X144340641Y-97480880D01*
X144285494Y-97647302D01*
X144285493Y-97647309D01*
X144275000Y-97750013D01*
X144275000Y-97887500D01*
X146724999Y-97887500D01*
X146724999Y-97750028D01*
X146724998Y-97750013D01*
X146714505Y-97647302D01*
X146659358Y-97480880D01*
X146659356Y-97480875D01*
X146567315Y-97331654D01*
X146443345Y-97207684D01*
X146294124Y-97115643D01*
X146294119Y-97115641D01*
X146125917Y-97059905D01*
X146068472Y-97020133D01*
X146041649Y-96955617D01*
X146053964Y-96886841D01*
X146101507Y-96835641D01*
X146123966Y-96825158D01*
X146123972Y-96825156D01*
X146187882Y-96802793D01*
X146297150Y-96722150D01*
X146377793Y-96612882D01*
X146404632Y-96536181D01*
X146422646Y-96484701D01*
X146422646Y-96484699D01*
X146424689Y-96462921D01*
X146450547Y-96398013D01*
X146507393Y-96357388D01*
X146548147Y-96350500D01*
X149875500Y-96350500D01*
X149942539Y-96370185D01*
X149988294Y-96422989D01*
X149999500Y-96474500D01*
X149999500Y-97454268D01*
X150002353Y-97484699D01*
X150002353Y-97484701D01*
X150047103Y-97612586D01*
X150047207Y-97612882D01*
X150127850Y-97722150D01*
X150237118Y-97802793D01*
X150279845Y-97817744D01*
X150365299Y-97847646D01*
X150395730Y-97850500D01*
X150395734Y-97850500D01*
X151604270Y-97850500D01*
X151634699Y-97847646D01*
X151634701Y-97847646D01*
X151698790Y-97825219D01*
X151762882Y-97802793D01*
X151872150Y-97722150D01*
X151952793Y-97612882D01*
X151990491Y-97505147D01*
X151997646Y-97484701D01*
X151997646Y-97484699D01*
X152000500Y-97454268D01*
X152000500Y-94345730D01*
X151997646Y-94315300D01*
X151997646Y-94315298D01*
X151952793Y-94187119D01*
X151952792Y-94187117D01*
X151950335Y-94183788D01*
X151872150Y-94077850D01*
X151762882Y-93997207D01*
X151762880Y-93997206D01*
X151634700Y-93952353D01*
X151604270Y-93949500D01*
X151604266Y-93949500D01*
X150395734Y-93949500D01*
X150395730Y-93949500D01*
X150365300Y-93952353D01*
X150365298Y-93952353D01*
X150237119Y-93997206D01*
X150237117Y-93997207D01*
X150127850Y-94077850D01*
X150047207Y-94187117D01*
X150047206Y-94187119D01*
X150002353Y-94315298D01*
X150002353Y-94315300D01*
X149999500Y-94345730D01*
X149999500Y-95325500D01*
X149979815Y-95392539D01*
X149927011Y-95438294D01*
X149875500Y-95449500D01*
X146394177Y-95449500D01*
X146327138Y-95429815D01*
X146304524Y-95408617D01*
X146303721Y-95409421D01*
X146297151Y-95402851D01*
X146289502Y-95397206D01*
X146187882Y-95322207D01*
X146187880Y-95322206D01*
X146059700Y-95277353D01*
X146029270Y-95274500D01*
X146029266Y-95274500D01*
X144970734Y-95274500D01*
X144970730Y-95274500D01*
X144940300Y-95277353D01*
X144940298Y-95277353D01*
X144812119Y-95322206D01*
X144812117Y-95322207D01*
X144702848Y-95402851D01*
X144631790Y-95499133D01*
X144576143Y-95541384D01*
X144532020Y-95549500D01*
X141741434Y-95549500D01*
X141674395Y-95529815D01*
X141628640Y-95477011D01*
X141623503Y-95463819D01*
X141618850Y-95449500D01*
X141610568Y-95424008D01*
X141610566Y-95424005D01*
X141610566Y-95424003D01*
X141535844Y-95277354D01*
X141503343Y-95213567D01*
X141444182Y-95132138D01*
X141420702Y-95066332D01*
X141420500Y-95059253D01*
X141420500Y-94980249D01*
X141420499Y-94980247D01*
X141408868Y-94921770D01*
X141408867Y-94921769D01*
X141364552Y-94855447D01*
X141298230Y-94811132D01*
X141298229Y-94811131D01*
X141239752Y-94799500D01*
X141239748Y-94799500D01*
X141160747Y-94799500D01*
X141093708Y-94779815D01*
X141087862Y-94775818D01*
X141006436Y-94716659D01*
X141006435Y-94716658D01*
X141006433Y-94716657D01*
X140940715Y-94683172D01*
X140795996Y-94609433D01*
X140571368Y-94536446D01*
X140338097Y-94499500D01*
X140338092Y-94499500D01*
X140101908Y-94499500D01*
X140101903Y-94499500D01*
X139868631Y-94536446D01*
X139644003Y-94609433D01*
X139433563Y-94716659D01*
X139352138Y-94775818D01*
X139286332Y-94799298D01*
X139279253Y-94799500D01*
X139200247Y-94799500D01*
X139141770Y-94811131D01*
X139141769Y-94811132D01*
X139075447Y-94855447D01*
X139031132Y-94921769D01*
X139031131Y-94921770D01*
X139019500Y-94980247D01*
X139019500Y-95059253D01*
X138999815Y-95126292D01*
X138995818Y-95132138D01*
X138936659Y-95213563D01*
X138829433Y-95424003D01*
X138816497Y-95463819D01*
X138777059Y-95521494D01*
X138712700Y-95548692D01*
X138698566Y-95549500D01*
X136487965Y-95549500D01*
X136420926Y-95529815D01*
X136400284Y-95513181D01*
X120239589Y-79352486D01*
X148849500Y-79352486D01*
X148849500Y-79647513D01*
X148881571Y-79891113D01*
X148888007Y-79939993D01*
X148964360Y-80224949D01*
X148964361Y-80224951D01*
X148964361Y-80224952D01*
X149077254Y-80497500D01*
X149077258Y-80497510D01*
X149224761Y-80752993D01*
X149404352Y-80987040D01*
X149404358Y-80987047D01*
X149612952Y-81195641D01*
X149612959Y-81195647D01*
X149847006Y-81375238D01*
X150102489Y-81522741D01*
X150102490Y-81522741D01*
X150102493Y-81522743D01*
X150313296Y-81610060D01*
X150352472Y-81626288D01*
X150375048Y-81635639D01*
X150660007Y-81711993D01*
X150952494Y-81750500D01*
X150952501Y-81750500D01*
X151247499Y-81750500D01*
X151247506Y-81750500D01*
X151539993Y-81711993D01*
X151824952Y-81635639D01*
X152097507Y-81522743D01*
X152352994Y-81375238D01*
X152587042Y-81195646D01*
X152795646Y-80987042D01*
X152975238Y-80752994D01*
X153122743Y-80497507D01*
X153235639Y-80224952D01*
X153311993Y-79939993D01*
X153350500Y-79647506D01*
X153350500Y-79352494D01*
X153350499Y-79352486D01*
X191849500Y-79352486D01*
X191849500Y-79647513D01*
X191881571Y-79891113D01*
X191888007Y-79939993D01*
X191964360Y-80224949D01*
X191964361Y-80224951D01*
X191964361Y-80224952D01*
X192077254Y-80497500D01*
X192077258Y-80497510D01*
X192224761Y-80752993D01*
X192404352Y-80987040D01*
X192404358Y-80987047D01*
X192612952Y-81195641D01*
X192612959Y-81195647D01*
X192847006Y-81375238D01*
X193102489Y-81522741D01*
X193102490Y-81522741D01*
X193102493Y-81522743D01*
X193313296Y-81610060D01*
X193352472Y-81626288D01*
X193375048Y-81635639D01*
X193660007Y-81711993D01*
X193952494Y-81750500D01*
X193952501Y-81750500D01*
X194247499Y-81750500D01*
X194247506Y-81750500D01*
X194539993Y-81711993D01*
X194824952Y-81635639D01*
X195097507Y-81522743D01*
X195352994Y-81375238D01*
X195587042Y-81195646D01*
X195795646Y-80987042D01*
X195975238Y-80752994D01*
X196122743Y-80497507D01*
X196235639Y-80224952D01*
X196311993Y-79939993D01*
X196350500Y-79647506D01*
X196350500Y-79352494D01*
X196311993Y-79060007D01*
X196235639Y-78775048D01*
X196122743Y-78502493D01*
X195975238Y-78247006D01*
X195960278Y-78227510D01*
X195795647Y-78012959D01*
X195795641Y-78012952D01*
X195587047Y-77804358D01*
X195587040Y-77804352D01*
X195352993Y-77624761D01*
X195097510Y-77477258D01*
X195097500Y-77477254D01*
X194824961Y-77364364D01*
X194824954Y-77364362D01*
X194824952Y-77364361D01*
X194539993Y-77288007D01*
X194491113Y-77281571D01*
X194247513Y-77249500D01*
X194247506Y-77249500D01*
X193952494Y-77249500D01*
X193952486Y-77249500D01*
X193674085Y-77286153D01*
X193660007Y-77288007D01*
X193375048Y-77364361D01*
X193375038Y-77364364D01*
X193102499Y-77477254D01*
X193102489Y-77477258D01*
X192847006Y-77624761D01*
X192612959Y-77804352D01*
X192612952Y-77804358D01*
X192404358Y-78012952D01*
X192404352Y-78012959D01*
X192224761Y-78247006D01*
X192077258Y-78502489D01*
X192077254Y-78502499D01*
X191964364Y-78775038D01*
X191964361Y-78775048D01*
X191888008Y-79060004D01*
X191888006Y-79060015D01*
X191849500Y-79352486D01*
X153350499Y-79352486D01*
X153311993Y-79060007D01*
X153235639Y-78775048D01*
X153122743Y-78502493D01*
X152975238Y-78247006D01*
X152960278Y-78227510D01*
X152795647Y-78012959D01*
X152795641Y-78012952D01*
X152587047Y-77804358D01*
X152587040Y-77804352D01*
X152352993Y-77624761D01*
X152097510Y-77477258D01*
X152097500Y-77477254D01*
X151824961Y-77364364D01*
X151824954Y-77364362D01*
X151824952Y-77364361D01*
X151539993Y-77288007D01*
X151491113Y-77281571D01*
X151247513Y-77249500D01*
X151247506Y-77249500D01*
X150952494Y-77249500D01*
X150952486Y-77249500D01*
X150674085Y-77286153D01*
X150660007Y-77288007D01*
X150375048Y-77364361D01*
X150375038Y-77364364D01*
X150102499Y-77477254D01*
X150102489Y-77477258D01*
X149847006Y-77624761D01*
X149612959Y-77804352D01*
X149612952Y-77804358D01*
X149404358Y-78012952D01*
X149404352Y-78012959D01*
X149224761Y-78247006D01*
X149077258Y-78502489D01*
X149077254Y-78502499D01*
X148964364Y-78775038D01*
X148964361Y-78775048D01*
X148888008Y-79060004D01*
X148888006Y-79060015D01*
X148849500Y-79352486D01*
X120239589Y-79352486D01*
X118511634Y-77624531D01*
X118478149Y-77563208D01*
X118476842Y-77517457D01*
X118500500Y-77368092D01*
X118500500Y-77131908D01*
X118500500Y-77131902D01*
X118463553Y-76898631D01*
X118390566Y-76674003D01*
X118283342Y-76463566D01*
X118283340Y-76463563D01*
X118181130Y-76322883D01*
X118157651Y-76257080D01*
X118173476Y-76189026D01*
X118181123Y-76177125D01*
X118283343Y-76036433D01*
X118378827Y-75849034D01*
X118426800Y-75798239D01*
X118494621Y-75781444D01*
X118560756Y-75803981D01*
X118576992Y-75817649D01*
X119553453Y-76794111D01*
X119553454Y-76794112D01*
X119668192Y-76870777D01*
X119795667Y-76923578D01*
X119795672Y-76923580D01*
X119795676Y-76923580D01*
X119795677Y-76923581D01*
X119931003Y-76950500D01*
X119931006Y-76950500D01*
X147835746Y-76950500D01*
X147926790Y-76932389D01*
X147971078Y-76923580D01*
X148034819Y-76897177D01*
X148098557Y-76870777D01*
X148098558Y-76870776D01*
X148098561Y-76870775D01*
X148213293Y-76794114D01*
X151220587Y-73786818D01*
X151281910Y-73753334D01*
X151308268Y-73750500D01*
X152821020Y-73750500D01*
X152851449Y-73747646D01*
X152851451Y-73747646D01*
X152915540Y-73725219D01*
X152979632Y-73702793D01*
X153088900Y-73622150D01*
X153169543Y-73512882D01*
X153208943Y-73400284D01*
X153214396Y-73384701D01*
X153214396Y-73384699D01*
X153217250Y-73354269D01*
X153217250Y-73349986D01*
X154416751Y-73349986D01*
X154427244Y-73452697D01*
X154482391Y-73619119D01*
X154482393Y-73619124D01*
X154574434Y-73768345D01*
X154698404Y-73892315D01*
X154847625Y-73984356D01*
X154847630Y-73984358D01*
X155014052Y-74039505D01*
X155014059Y-74039506D01*
X155116769Y-74049999D01*
X156416749Y-74049999D01*
X156916750Y-74049999D01*
X158216722Y-74049999D01*
X158216736Y-74049998D01*
X158319447Y-74039505D01*
X158485869Y-73984358D01*
X158485874Y-73984356D01*
X158635095Y-73892315D01*
X158759065Y-73768345D01*
X158851106Y-73619124D01*
X158851108Y-73619119D01*
X158906255Y-73452697D01*
X158906256Y-73452690D01*
X158916749Y-73349986D01*
X158916750Y-73349973D01*
X158916750Y-73000000D01*
X156916750Y-73000000D01*
X156916750Y-74049999D01*
X156416749Y-74049999D01*
X156416750Y-74049998D01*
X156416750Y-73000000D01*
X154416751Y-73000000D01*
X154416751Y-73349986D01*
X153217250Y-73349986D01*
X153217250Y-72165542D01*
X153217250Y-72150013D01*
X154416750Y-72150013D01*
X154416750Y-72500000D01*
X156416750Y-72500000D01*
X156916750Y-72500000D01*
X158916749Y-72500000D01*
X158916749Y-72150028D01*
X158916748Y-72150013D01*
X158906255Y-72047302D01*
X158851108Y-71880880D01*
X158851106Y-71880875D01*
X158759065Y-71731654D01*
X158635095Y-71607684D01*
X158485874Y-71515643D01*
X158485869Y-71515641D01*
X158319447Y-71460494D01*
X158319440Y-71460493D01*
X158216736Y-71450000D01*
X156916750Y-71450000D01*
X156916750Y-72500000D01*
X156416750Y-72500000D01*
X156416750Y-71450000D01*
X155116778Y-71450000D01*
X155116762Y-71450001D01*
X155014052Y-71460494D01*
X154847630Y-71515641D01*
X154847625Y-71515643D01*
X154698404Y-71607684D01*
X154574434Y-71731654D01*
X154482393Y-71880875D01*
X154482391Y-71880880D01*
X154427244Y-72047302D01*
X154427243Y-72047309D01*
X154416750Y-72150013D01*
X153217250Y-72150013D01*
X153217250Y-72145734D01*
X153214396Y-72115301D01*
X153169543Y-71987118D01*
X153157012Y-71970139D01*
X153150803Y-71949997D01*
X153150605Y-71935289D01*
X153145559Y-71921474D01*
X153150145Y-71901059D01*
X153149864Y-71880133D01*
X153157650Y-71867651D01*
X153160874Y-71853303D01*
X153181615Y-71825790D01*
X154794114Y-70213293D01*
X154870775Y-70098561D01*
X154884677Y-70065000D01*
X154923578Y-69971082D01*
X154923580Y-69971078D01*
X154933173Y-69922853D01*
X154950500Y-69835746D01*
X154950500Y-69045528D01*
X190849500Y-69045528D01*
X190849500Y-69354471D01*
X190884086Y-69661437D01*
X190884089Y-69661455D01*
X190952831Y-69962635D01*
X190952835Y-69962647D01*
X191054862Y-70254222D01*
X191054868Y-70254236D01*
X191188903Y-70532562D01*
X191188905Y-70532565D01*
X191353265Y-70794143D01*
X191545880Y-71035674D01*
X191764326Y-71254120D01*
X192005857Y-71446735D01*
X192267435Y-71611095D01*
X192545771Y-71745135D01*
X192566399Y-71752353D01*
X192837352Y-71847164D01*
X192837364Y-71847168D01*
X193138548Y-71915911D01*
X193138554Y-71915911D01*
X193138562Y-71915913D01*
X193310533Y-71935289D01*
X193445529Y-71950499D01*
X193445532Y-71950500D01*
X193445535Y-71950500D01*
X193754468Y-71950500D01*
X193754469Y-71950499D01*
X193911356Y-71932822D01*
X194061437Y-71915913D01*
X194061442Y-71915912D01*
X194061452Y-71915911D01*
X194362636Y-71847168D01*
X194654229Y-71745135D01*
X194932565Y-71611095D01*
X195194143Y-71446735D01*
X195435674Y-71254120D01*
X195654120Y-71035674D01*
X195846735Y-70794143D01*
X196011095Y-70532565D01*
X196145135Y-70254229D01*
X196247168Y-69962636D01*
X196315911Y-69661452D01*
X196350500Y-69354465D01*
X196350500Y-69045535D01*
X196315911Y-68738548D01*
X196247168Y-68437364D01*
X196145135Y-68145771D01*
X196011095Y-67867435D01*
X195846735Y-67605857D01*
X195654120Y-67364326D01*
X195435674Y-67145880D01*
X195194143Y-66953265D01*
X194932565Y-66788905D01*
X194932562Y-66788903D01*
X194654236Y-66654868D01*
X194654222Y-66654862D01*
X194362647Y-66552835D01*
X194362635Y-66552831D01*
X194061455Y-66484089D01*
X194061437Y-66484086D01*
X193754471Y-66449500D01*
X193754465Y-66449500D01*
X193445535Y-66449500D01*
X193445528Y-66449500D01*
X193138562Y-66484086D01*
X193138544Y-66484089D01*
X192837364Y-66552831D01*
X192837352Y-66552835D01*
X192545777Y-66654862D01*
X192545763Y-66654868D01*
X192267437Y-66788903D01*
X192005858Y-66953264D01*
X191764326Y-67145879D01*
X191545879Y-67364326D01*
X191353264Y-67605858D01*
X191188903Y-67867437D01*
X191054868Y-68145763D01*
X191054862Y-68145777D01*
X190952835Y-68437352D01*
X190952831Y-68437364D01*
X190884089Y-68738544D01*
X190884086Y-68738562D01*
X190849500Y-69045528D01*
X154950500Y-69045528D01*
X154950500Y-67403115D01*
X154970185Y-67336076D01*
X155018205Y-67292630D01*
X155036433Y-67283343D01*
X155227510Y-67144517D01*
X155394517Y-66977510D01*
X155441370Y-66913022D01*
X155445713Y-66908199D01*
X155470150Y-66893142D01*
X155492877Y-66875618D01*
X155500393Y-66874509D01*
X155505199Y-66871549D01*
X155518730Y-66871806D01*
X155547594Y-66867551D01*
X155567340Y-66869105D01*
X156307037Y-66129408D01*
X156324075Y-66192993D01*
X156389901Y-66307007D01*
X156482993Y-66400099D01*
X156597007Y-66465925D01*
X156660590Y-66482962D01*
X155920893Y-67222658D01*
X156003828Y-67282914D01*
X156214197Y-67390102D01*
X156438752Y-67463065D01*
X156438751Y-67463065D01*
X156671948Y-67500000D01*
X156908052Y-67500000D01*
X157141247Y-67463065D01*
X157365802Y-67390102D01*
X157576163Y-67282918D01*
X157576169Y-67282914D01*
X157659104Y-67222658D01*
X157659105Y-67222658D01*
X156919408Y-66482962D01*
X156982993Y-66465925D01*
X157097007Y-66400099D01*
X157190099Y-66307007D01*
X157255925Y-66192993D01*
X157272962Y-66129409D01*
X158012658Y-66869105D01*
X158012658Y-66869104D01*
X158072914Y-66786169D01*
X158072918Y-66786163D01*
X158180102Y-66575802D01*
X158253065Y-66351247D01*
X158290000Y-66118052D01*
X158290000Y-65881947D01*
X158253065Y-65648752D01*
X158180102Y-65424197D01*
X158072914Y-65213828D01*
X158012658Y-65130894D01*
X158012658Y-65130893D01*
X157272962Y-65870590D01*
X157255925Y-65807007D01*
X157190099Y-65692993D01*
X157097007Y-65599901D01*
X156982993Y-65534075D01*
X156919409Y-65517037D01*
X157659105Y-64777340D01*
X157659104Y-64777338D01*
X157576174Y-64717087D01*
X157365802Y-64609897D01*
X157141247Y-64536934D01*
X157141248Y-64536934D01*
X156908052Y-64500000D01*
X156671948Y-64500000D01*
X156438752Y-64536934D01*
X156214197Y-64609897D01*
X156003830Y-64717084D01*
X155920894Y-64777340D01*
X156660591Y-65517037D01*
X156597007Y-65534075D01*
X156482993Y-65599901D01*
X156389901Y-65692993D01*
X156324075Y-65807007D01*
X156307037Y-65870590D01*
X155567340Y-65130893D01*
X155547593Y-65132448D01*
X155543860Y-65131663D01*
X155540222Y-65132808D01*
X155509936Y-65124537D01*
X155479215Y-65118084D01*
X155475429Y-65115114D01*
X155472821Y-65114402D01*
X155463431Y-65105701D01*
X155445712Y-65091800D01*
X155441370Y-65086978D01*
X155394517Y-65022490D01*
X155227510Y-64855483D01*
X155036433Y-64716657D01*
X154825996Y-64609433D01*
X154601368Y-64536446D01*
X154368097Y-64499500D01*
X154368092Y-64499500D01*
X154131908Y-64499500D01*
X154131903Y-64499500D01*
X153898631Y-64536446D01*
X153674003Y-64609433D01*
X153463566Y-64716657D01*
X153272491Y-64855482D01*
X153113897Y-65014076D01*
X153052574Y-65047560D01*
X152982882Y-65042576D01*
X152926949Y-65000704D01*
X152904598Y-64950583D01*
X152898867Y-64921769D01*
X152854577Y-64855485D01*
X152854552Y-64855447D01*
X152788230Y-64811132D01*
X152788229Y-64811131D01*
X152729752Y-64799500D01*
X152729748Y-64799500D01*
X152650747Y-64799500D01*
X152583708Y-64779815D01*
X152577862Y-64775818D01*
X152496436Y-64716659D01*
X152496435Y-64716658D01*
X152496433Y-64716657D01*
X152430715Y-64683172D01*
X152285996Y-64609433D01*
X152061368Y-64536446D01*
X151828097Y-64499500D01*
X151828092Y-64499500D01*
X151591908Y-64499500D01*
X151591903Y-64499500D01*
X151358631Y-64536446D01*
X151134003Y-64609433D01*
X150923563Y-64716659D01*
X150842138Y-64775818D01*
X150776332Y-64799298D01*
X150769253Y-64799500D01*
X150690247Y-64799500D01*
X150631770Y-64811131D01*
X150631769Y-64811132D01*
X150565447Y-64855447D01*
X150521132Y-64921769D01*
X150521131Y-64921770D01*
X150509500Y-64980247D01*
X150509500Y-65059253D01*
X150489815Y-65126292D01*
X150485818Y-65132138D01*
X150426659Y-65213563D01*
X150319433Y-65424003D01*
X150306497Y-65463819D01*
X150267059Y-65521494D01*
X150202700Y-65548692D01*
X150188566Y-65549500D01*
X108021434Y-65549500D01*
X107954395Y-65529815D01*
X107908640Y-65477011D01*
X107903503Y-65463819D01*
X107890566Y-65424003D01*
X107834002Y-65312991D01*
X107783343Y-65213567D01*
X107644517Y-65022490D01*
X107477510Y-64855483D01*
X107286433Y-64716657D01*
X107075996Y-64609433D01*
X106851368Y-64536446D01*
X106618097Y-64499500D01*
X106618092Y-64499500D01*
X106381908Y-64499500D01*
X106381903Y-64499500D01*
X106148631Y-64536446D01*
X105924003Y-64609433D01*
X105713566Y-64716657D01*
X105632139Y-64775818D01*
X105522490Y-64855483D01*
X105522488Y-64855485D01*
X105522487Y-64855485D01*
X105355485Y-65022487D01*
X105355485Y-65022488D01*
X105355483Y-65022490D01*
X105340890Y-65042576D01*
X105216657Y-65213566D01*
X105109433Y-65424003D01*
X105036446Y-65648631D01*
X104999500Y-65881902D01*
X104999500Y-66118097D01*
X105036446Y-66351368D01*
X105109433Y-66575996D01*
X105149621Y-66654868D01*
X105216657Y-66786433D01*
X105355483Y-66977510D01*
X105522490Y-67144517D01*
X105713567Y-67283343D01*
X105799500Y-67327128D01*
X105924003Y-67390566D01*
X105924005Y-67390566D01*
X105924008Y-67390568D01*
X105962624Y-67403115D01*
X106148631Y-67463553D01*
X106381903Y-67500500D01*
X106381908Y-67500500D01*
X106618097Y-67500500D01*
X106851368Y-67463553D01*
X106852870Y-67463065D01*
X107075992Y-67390568D01*
X107286433Y-67283343D01*
X107477510Y-67144517D01*
X107644517Y-66977510D01*
X107783343Y-66786433D01*
X107890568Y-66575992D01*
X107903503Y-66536179D01*
X107942941Y-66478506D01*
X108007300Y-66451308D01*
X108021434Y-66450500D01*
X150188566Y-66450500D01*
X150255605Y-66470185D01*
X150301360Y-66522989D01*
X150306497Y-66536181D01*
X150319433Y-66575996D01*
X150359621Y-66654868D01*
X150426657Y-66786433D01*
X150485818Y-66867861D01*
X150509298Y-66933666D01*
X150509500Y-66940746D01*
X150509500Y-67019752D01*
X150521131Y-67078229D01*
X150521132Y-67078230D01*
X150565447Y-67144552D01*
X150631769Y-67188867D01*
X150631770Y-67188868D01*
X150690247Y-67200499D01*
X150690250Y-67200500D01*
X150690252Y-67200500D01*
X150769253Y-67200500D01*
X150836292Y-67220185D01*
X150842138Y-67224182D01*
X150916221Y-67278006D01*
X150923567Y-67283343D01*
X151035946Y-67340603D01*
X151134003Y-67390566D01*
X151134005Y-67390566D01*
X151134008Y-67390568D01*
X151172624Y-67403115D01*
X151358631Y-67463553D01*
X151591903Y-67500500D01*
X151591908Y-67500500D01*
X151828097Y-67500500D01*
X152061368Y-67463553D01*
X152062870Y-67463065D01*
X152285992Y-67390568D01*
X152496433Y-67283343D01*
X152534238Y-67255875D01*
X152577862Y-67224182D01*
X152643668Y-67200702D01*
X152650747Y-67200500D01*
X152729750Y-67200500D01*
X152729751Y-67200499D01*
X152744568Y-67197552D01*
X152788229Y-67188868D01*
X152788229Y-67188867D01*
X152788231Y-67188867D01*
X152854552Y-67144552D01*
X152898867Y-67078231D01*
X152904599Y-67049413D01*
X152936982Y-66987504D01*
X152997697Y-66952929D01*
X153067467Y-66956667D01*
X153113897Y-66985924D01*
X153272490Y-67144517D01*
X153463567Y-67283343D01*
X153481794Y-67292630D01*
X153532590Y-67340603D01*
X153549500Y-67403115D01*
X153549500Y-69425231D01*
X153529815Y-69492270D01*
X153513181Y-69512912D01*
X151312912Y-71713181D01*
X151251589Y-71746666D01*
X151225231Y-71749500D01*
X149712480Y-71749500D01*
X149682050Y-71752353D01*
X149682048Y-71752353D01*
X149553869Y-71797206D01*
X149553867Y-71797207D01*
X149444600Y-71877850D01*
X149363957Y-71987117D01*
X149363956Y-71987119D01*
X149319103Y-72115298D01*
X149319103Y-72115300D01*
X149316250Y-72145730D01*
X149316250Y-73354269D01*
X149319103Y-73384696D01*
X149363957Y-73512882D01*
X149363958Y-73512883D01*
X149363970Y-73512900D01*
X149363977Y-73512920D01*
X149368298Y-73521095D01*
X149367179Y-73521686D01*
X149387940Y-73578530D01*
X149372622Y-73646700D01*
X149351879Y-73674212D01*
X147512912Y-75513181D01*
X147451589Y-75546666D01*
X147425231Y-75549500D01*
X141010159Y-75549500D01*
X140943120Y-75529815D01*
X140897365Y-75477011D01*
X140887421Y-75407853D01*
X140916446Y-75344297D01*
X140944187Y-75320506D01*
X140986581Y-75293868D01*
X141214039Y-75150946D01*
X141477523Y-74940825D01*
X141715825Y-74702523D01*
X141925946Y-74439039D01*
X142105246Y-74153686D01*
X142251469Y-73850051D01*
X142362776Y-73531954D01*
X142437767Y-73203394D01*
X142475500Y-72868504D01*
X142475500Y-72531496D01*
X142437767Y-72196606D01*
X142362776Y-71868046D01*
X142355470Y-71847168D01*
X142319768Y-71745137D01*
X142251469Y-71549949D01*
X142105246Y-71246314D01*
X141925946Y-70960961D01*
X141715825Y-70697477D01*
X141477523Y-70459175D01*
X141475298Y-70457401D01*
X141346200Y-70354449D01*
X141214039Y-70249054D01*
X140928686Y-70069754D01*
X140928683Y-70069752D01*
X140625054Y-69923532D01*
X140306965Y-69812227D01*
X140306953Y-69812223D01*
X139978397Y-69737233D01*
X139978381Y-69737231D01*
X139643508Y-69699500D01*
X139643504Y-69699500D01*
X139306496Y-69699500D01*
X139306491Y-69699500D01*
X138971618Y-69737231D01*
X138971602Y-69737233D01*
X138643046Y-69812223D01*
X138643034Y-69812227D01*
X138324945Y-69923532D01*
X138021316Y-70069752D01*
X137735962Y-70249053D01*
X137472477Y-70459174D01*
X137234174Y-70697477D01*
X137024053Y-70960962D01*
X136844752Y-71246316D01*
X136698532Y-71549945D01*
X136587227Y-71868034D01*
X136587223Y-71868046D01*
X136512233Y-72196602D01*
X136512231Y-72196618D01*
X136474500Y-72531491D01*
X136474500Y-72868508D01*
X136512231Y-73203381D01*
X136512233Y-73203397D01*
X136587223Y-73531953D01*
X136587227Y-73531965D01*
X136698532Y-73850054D01*
X136844752Y-74153683D01*
X136844754Y-74153686D01*
X137024054Y-74439039D01*
X137234175Y-74702523D01*
X137472477Y-74940825D01*
X137735961Y-75150946D01*
X137963419Y-75293868D01*
X138005813Y-75320506D01*
X138052104Y-75372841D01*
X138062752Y-75441894D01*
X138034377Y-75505743D01*
X137975987Y-75544115D01*
X137939841Y-75549500D01*
X120341519Y-75549500D01*
X120274480Y-75529815D01*
X120253838Y-75513181D01*
X118487480Y-73746823D01*
X118453995Y-73685500D01*
X118457230Y-73620825D01*
X118463553Y-73601368D01*
X118487100Y-73452697D01*
X118500500Y-73368097D01*
X118500500Y-73131902D01*
X118463553Y-72898631D01*
X118419563Y-72763245D01*
X118390568Y-72674008D01*
X118390566Y-72674005D01*
X118390566Y-72674003D01*
X118323564Y-72542506D01*
X118283343Y-72463567D01*
X118144517Y-72272490D01*
X117977510Y-72105483D01*
X117786433Y-71966657D01*
X117724870Y-71935289D01*
X117575996Y-71859433D01*
X117351368Y-71786446D01*
X117118097Y-71749500D01*
X117118092Y-71749500D01*
X116881908Y-71749500D01*
X116881903Y-71749500D01*
X116648631Y-71786446D01*
X116424003Y-71859433D01*
X116213566Y-71966657D01*
X116135464Y-72023402D01*
X116022490Y-72105483D01*
X116022488Y-72105485D01*
X116022487Y-72105485D01*
X115855485Y-72272487D01*
X115855485Y-72272488D01*
X115855483Y-72272490D01*
X115808902Y-72336603D01*
X115716657Y-72463566D01*
X115609433Y-72674003D01*
X115536446Y-72898631D01*
X115499500Y-73131902D01*
X115499500Y-73368097D01*
X115536446Y-73601368D01*
X115609433Y-73825996D01*
X115678715Y-73961967D01*
X115690123Y-73984358D01*
X115716659Y-74036436D01*
X115818868Y-74177115D01*
X115842348Y-74242921D01*
X115826523Y-74310975D01*
X115818868Y-74322885D01*
X115716659Y-74463563D01*
X115609433Y-74674003D01*
X115536446Y-74898631D01*
X115499500Y-75131902D01*
X115499500Y-75368097D01*
X115536446Y-75601368D01*
X115609433Y-75825996D01*
X115716659Y-76036436D01*
X115818868Y-76177115D01*
X115842348Y-76242921D01*
X115826523Y-76310975D01*
X115818868Y-76322885D01*
X115716659Y-76463563D01*
X115609433Y-76674003D01*
X115536446Y-76898631D01*
X115499500Y-77131902D01*
X115499500Y-77368097D01*
X115536446Y-77601368D01*
X115579372Y-77733477D01*
X115609432Y-77825992D01*
X115609433Y-77825995D01*
X115609434Y-77825996D01*
X115665731Y-77936486D01*
X115678627Y-78005156D01*
X115652350Y-78069896D01*
X115595244Y-78110153D01*
X115525438Y-78113145D01*
X115467565Y-78080462D01*
X100526616Y-63139513D01*
X100526614Y-63139511D01*
X100467302Y-63105267D01*
X100423888Y-63080201D01*
X100411780Y-63076957D01*
X100399673Y-63073713D01*
X100399670Y-63073712D01*
X100361478Y-63063478D01*
X100309309Y-63049500D01*
X66930691Y-63049500D01*
X66861944Y-63067920D01*
X66816112Y-63080201D01*
X66816107Y-63080204D01*
X66772695Y-63105267D01*
X66772696Y-63105268D01*
X66713389Y-63139508D01*
X66713383Y-63139513D01*
X59682264Y-70170631D01*
X59620941Y-70204116D01*
X59551249Y-70199132D01*
X59538288Y-70193435D01*
X59500996Y-70174434D01*
X59500995Y-70174433D01*
X59500992Y-70174432D01*
X59406686Y-70143790D01*
X59276368Y-70101446D01*
X59043097Y-70064500D01*
X59043092Y-70064500D01*
X58806908Y-70064500D01*
X58806903Y-70064500D01*
X58573631Y-70101446D01*
X58349003Y-70174433D01*
X58138566Y-70281657D01*
X58055047Y-70342338D01*
X57947490Y-70420483D01*
X57947488Y-70420485D01*
X57947487Y-70420485D01*
X57780482Y-70587490D01*
X57737451Y-70646717D01*
X57682120Y-70689382D01*
X57627405Y-70697448D01*
X57607658Y-70695893D01*
X56867962Y-71435590D01*
X56850925Y-71372007D01*
X56785099Y-71257993D01*
X56692007Y-71164901D01*
X56577993Y-71099075D01*
X56514409Y-71082037D01*
X57254105Y-70342340D01*
X57254104Y-70342338D01*
X57171174Y-70282087D01*
X56960802Y-70174897D01*
X56736247Y-70101934D01*
X56736248Y-70101934D01*
X56503052Y-70065000D01*
X56266948Y-70065000D01*
X56033752Y-70101934D01*
X55809197Y-70174897D01*
X55598830Y-70282084D01*
X55515894Y-70342340D01*
X56255591Y-71082037D01*
X56192007Y-71099075D01*
X56077993Y-71164901D01*
X55984901Y-71257993D01*
X55919075Y-71372007D01*
X55902037Y-71435590D01*
X55162340Y-70695893D01*
X55142593Y-70697448D01*
X55138860Y-70696663D01*
X55135222Y-70697808D01*
X55104936Y-70689537D01*
X55074215Y-70683084D01*
X55070429Y-70680114D01*
X55067821Y-70679402D01*
X55058431Y-70670701D01*
X55040712Y-70656800D01*
X55036370Y-70651978D01*
X54989517Y-70587490D01*
X54822510Y-70420483D01*
X54631433Y-70281657D01*
X54420996Y-70174433D01*
X54196368Y-70101446D01*
X53963097Y-70064500D01*
X53963092Y-70064500D01*
X53726908Y-70064500D01*
X53726903Y-70064500D01*
X53493631Y-70101446D01*
X53269003Y-70174433D01*
X53058566Y-70281657D01*
X52975047Y-70342338D01*
X52867490Y-70420483D01*
X52867488Y-70420485D01*
X52867487Y-70420485D01*
X52700484Y-70587488D01*
X52675318Y-70622127D01*
X52619987Y-70664792D01*
X52550374Y-70670771D01*
X52488579Y-70638165D01*
X52474682Y-70622127D01*
X52449517Y-70587490D01*
X52282510Y-70420483D01*
X52091433Y-70281657D01*
X51880996Y-70174433D01*
X51656368Y-70101446D01*
X51423097Y-70064500D01*
X51423092Y-70064500D01*
X51186908Y-70064500D01*
X51186903Y-70064500D01*
X50953631Y-70101446D01*
X50729003Y-70174433D01*
X50518566Y-70281657D01*
X50435047Y-70342338D01*
X50327490Y-70420483D01*
X50327488Y-70420485D01*
X50327487Y-70420485D01*
X50160485Y-70587487D01*
X50160485Y-70587488D01*
X50160483Y-70587490D01*
X50120407Y-70642650D01*
X50021657Y-70778566D01*
X49914433Y-70989005D01*
X49841446Y-71213634D01*
X49815800Y-71375553D01*
X49785870Y-71438687D01*
X49781008Y-71443835D01*
X48814442Y-72410401D01*
X48753119Y-72443886D01*
X48683427Y-72438902D01*
X48627494Y-72397030D01*
X48603541Y-72336603D01*
X48587769Y-72196619D01*
X48587766Y-72196602D01*
X48577132Y-72150013D01*
X48512776Y-71868046D01*
X48505470Y-71847168D01*
X48469768Y-71745137D01*
X48401469Y-71549949D01*
X48255246Y-71246314D01*
X48075946Y-70960961D01*
X47865825Y-70697477D01*
X47627523Y-70459175D01*
X47625298Y-70457401D01*
X47496200Y-70354449D01*
X47364039Y-70249054D01*
X47078686Y-70069754D01*
X47078683Y-70069752D01*
X46775054Y-69923532D01*
X46456965Y-69812227D01*
X46456953Y-69812223D01*
X46128397Y-69737233D01*
X46128381Y-69737231D01*
X45793508Y-69699500D01*
X45793504Y-69699500D01*
X45456496Y-69699500D01*
X45456491Y-69699500D01*
X45121618Y-69737231D01*
X45121602Y-69737233D01*
X44793046Y-69812223D01*
X44793034Y-69812227D01*
X44474945Y-69923532D01*
X44171316Y-70069752D01*
X43885962Y-70249053D01*
X43622477Y-70459174D01*
X43384174Y-70697477D01*
X43174053Y-70960962D01*
X42994752Y-71246316D01*
X42848532Y-71549945D01*
X42737227Y-71868034D01*
X42737223Y-71868046D01*
X42662233Y-72196602D01*
X42662231Y-72196618D01*
X42624500Y-72531491D01*
X35000500Y-72531491D01*
X35000500Y-59124038D01*
X115399500Y-59124038D01*
X115399500Y-59375961D01*
X115438910Y-59624786D01*
X115438910Y-59624789D01*
X115516757Y-59864376D01*
X115549177Y-59928004D01*
X115585985Y-60000244D01*
X115599500Y-60056537D01*
X115599500Y-60254257D01*
X115602354Y-60284698D01*
X115602354Y-60284699D01*
X115647206Y-60412881D01*
X115647207Y-60412882D01*
X115727850Y-60522150D01*
X115837118Y-60602793D01*
X115965302Y-60647646D01*
X115965301Y-60647646D01*
X115969867Y-60648074D01*
X115995735Y-60650500D01*
X116193460Y-60650499D01*
X116249756Y-60664014D01*
X116385616Y-60733239D01*
X116385618Y-60733239D01*
X116385621Y-60733241D01*
X116625215Y-60811090D01*
X116874038Y-60850500D01*
X116874039Y-60850500D01*
X117125961Y-60850500D01*
X117125962Y-60850500D01*
X117374785Y-60811090D01*
X117614379Y-60733241D01*
X117750244Y-60664013D01*
X117806539Y-60650499D01*
X118004258Y-60650499D01*
X118004264Y-60650499D01*
X118034698Y-60647646D01*
X118162882Y-60602793D01*
X118272150Y-60522150D01*
X118352793Y-60412882D01*
X118397646Y-60284698D01*
X118400500Y-60254265D01*
X118400499Y-60056535D01*
X118414014Y-60000242D01*
X118483241Y-59864379D01*
X118561090Y-59624785D01*
X118600500Y-59375962D01*
X118600500Y-59138575D01*
X122800000Y-59138575D01*
X122800000Y-59361424D01*
X122829085Y-59582354D01*
X122829088Y-59582367D01*
X122886763Y-59797618D01*
X122972045Y-60003502D01*
X122972054Y-60003520D01*
X123083464Y-60196491D01*
X123083473Y-60196504D01*
X123134040Y-60262403D01*
X123134043Y-60262403D01*
X123935387Y-59461059D01*
X123940889Y-59481591D01*
X124019881Y-59618408D01*
X124131592Y-59730119D01*
X124268409Y-59809111D01*
X124288940Y-59814612D01*
X123487595Y-60615955D01*
X123487595Y-60615956D01*
X123553507Y-60666533D01*
X123746485Y-60777949D01*
X123746497Y-60777954D01*
X123952381Y-60863236D01*
X124167632Y-60920911D01*
X124167645Y-60920914D01*
X124388575Y-60950000D01*
X124611425Y-60950000D01*
X124832354Y-60920914D01*
X124832367Y-60920911D01*
X125047618Y-60863236D01*
X125253502Y-60777954D01*
X125253514Y-60777949D01*
X125446498Y-60666530D01*
X125512403Y-60615957D01*
X125512404Y-60615956D01*
X124711059Y-59814612D01*
X124731591Y-59809111D01*
X124868408Y-59730119D01*
X124980119Y-59618408D01*
X125059111Y-59481591D01*
X125064612Y-59461059D01*
X125865956Y-60262404D01*
X125865957Y-60262403D01*
X125916530Y-60196498D01*
X126027949Y-60003514D01*
X126027954Y-60003502D01*
X126113236Y-59797618D01*
X126170911Y-59582367D01*
X126170914Y-59582354D01*
X126200000Y-59361424D01*
X126200000Y-59138575D01*
X126170914Y-58917645D01*
X126170911Y-58917632D01*
X126113236Y-58702381D01*
X126027954Y-58496497D01*
X126027949Y-58496485D01*
X125916533Y-58303507D01*
X125865956Y-58237595D01*
X125865955Y-58237595D01*
X125064612Y-59038939D01*
X125059111Y-59018409D01*
X124980119Y-58881592D01*
X124868408Y-58769881D01*
X124731591Y-58690889D01*
X124711058Y-58685387D01*
X125512403Y-57884043D01*
X125512403Y-57884040D01*
X125446504Y-57833473D01*
X125446491Y-57833464D01*
X125253520Y-57722054D01*
X125253502Y-57722045D01*
X125047618Y-57636763D01*
X124832367Y-57579088D01*
X124832354Y-57579085D01*
X124611425Y-57550000D01*
X124388575Y-57550000D01*
X124167645Y-57579085D01*
X124167632Y-57579088D01*
X123952381Y-57636763D01*
X123746497Y-57722045D01*
X123746479Y-57722054D01*
X123553511Y-57833462D01*
X123487595Y-57884042D01*
X124288941Y-58685387D01*
X124268409Y-58690889D01*
X124131592Y-58769881D01*
X124019881Y-58881592D01*
X123940889Y-59018409D01*
X123935387Y-59038940D01*
X123134042Y-58237595D01*
X123083462Y-58303511D01*
X122972054Y-58496479D01*
X122972045Y-58496497D01*
X122886763Y-58702381D01*
X122829088Y-58917632D01*
X122829085Y-58917645D01*
X122800000Y-59138575D01*
X118600500Y-59138575D01*
X118600500Y-59124038D01*
X118561090Y-58875215D01*
X118483241Y-58635621D01*
X118483239Y-58635618D01*
X118483238Y-58635613D01*
X118414014Y-58499753D01*
X118400499Y-58443459D01*
X118400499Y-58245741D01*
X118400499Y-58245736D01*
X118397646Y-58215302D01*
X118352793Y-58087118D01*
X118272150Y-57977850D01*
X118162882Y-57897207D01*
X118162881Y-57897206D01*
X118034695Y-57852353D01*
X118034698Y-57852353D01*
X118004269Y-57849500D01*
X118004265Y-57849500D01*
X117806537Y-57849500D01*
X117750242Y-57835985D01*
X117745294Y-57833464D01*
X117729021Y-57825172D01*
X117614383Y-57766760D01*
X117374785Y-57688910D01*
X117125962Y-57649500D01*
X116874038Y-57649500D01*
X116791097Y-57662636D01*
X116625213Y-57688910D01*
X116625210Y-57688910D01*
X116385622Y-57766758D01*
X116385621Y-57766758D01*
X116249754Y-57835985D01*
X116193461Y-57849500D01*
X115995742Y-57849500D01*
X115965301Y-57852354D01*
X115965300Y-57852354D01*
X115837118Y-57897206D01*
X115727850Y-57977850D01*
X115647206Y-58087118D01*
X115602353Y-58215302D01*
X115599500Y-58245731D01*
X115599500Y-58443461D01*
X115585985Y-58499755D01*
X115516761Y-58635613D01*
X115438910Y-58875214D01*
X115399500Y-59124038D01*
X35000500Y-59124038D01*
X35000500Y-56545528D01*
X190849500Y-56545528D01*
X190849500Y-56854471D01*
X190884086Y-57161437D01*
X190884089Y-57161455D01*
X190952831Y-57462635D01*
X190952835Y-57462647D01*
X191054862Y-57754222D01*
X191054868Y-57754236D01*
X191188903Y-58032562D01*
X191188905Y-58032565D01*
X191353265Y-58294143D01*
X191545880Y-58535674D01*
X191764326Y-58754120D01*
X192005857Y-58946735D01*
X192267435Y-59111095D01*
X192545771Y-59245135D01*
X192559677Y-59250001D01*
X192837352Y-59347164D01*
X192837364Y-59347168D01*
X193138548Y-59415911D01*
X193138554Y-59415911D01*
X193138562Y-59415913D01*
X193343206Y-59438970D01*
X193445529Y-59450499D01*
X193445532Y-59450500D01*
X193445535Y-59450500D01*
X193754468Y-59450500D01*
X193754469Y-59450499D01*
X193911356Y-59432822D01*
X194061437Y-59415913D01*
X194061442Y-59415912D01*
X194061452Y-59415911D01*
X194362636Y-59347168D01*
X194654229Y-59245135D01*
X194932565Y-59111095D01*
X195194143Y-58946735D01*
X195435674Y-58754120D01*
X195654120Y-58535674D01*
X195846735Y-58294143D01*
X196011095Y-58032565D01*
X196145135Y-57754229D01*
X196247168Y-57462636D01*
X196315911Y-57161452D01*
X196350500Y-56854465D01*
X196350500Y-56545535D01*
X196315911Y-56238548D01*
X196247168Y-55937364D01*
X196233101Y-55897164D01*
X196145137Y-55645777D01*
X196145135Y-55645771D01*
X196011095Y-55367435D01*
X195846735Y-55105857D01*
X195654120Y-54864326D01*
X195435674Y-54645880D01*
X195194143Y-54453265D01*
X194932565Y-54288905D01*
X194932562Y-54288903D01*
X194654236Y-54154868D01*
X194654222Y-54154862D01*
X194362647Y-54052835D01*
X194362635Y-54052831D01*
X194061455Y-53984089D01*
X194061437Y-53984086D01*
X193754471Y-53949500D01*
X193754465Y-53949500D01*
X193445535Y-53949500D01*
X193445528Y-53949500D01*
X193138562Y-53984086D01*
X193138544Y-53984089D01*
X192837364Y-54052831D01*
X192837352Y-54052835D01*
X192545777Y-54154862D01*
X192545763Y-54154868D01*
X192267437Y-54288903D01*
X192005858Y-54453264D01*
X191764326Y-54645879D01*
X191545879Y-54864326D01*
X191353264Y-55105858D01*
X191188903Y-55367437D01*
X191054868Y-55645763D01*
X191054862Y-55645777D01*
X190952835Y-55937352D01*
X190952831Y-55937364D01*
X190884089Y-56238544D01*
X190884086Y-56238562D01*
X190849500Y-56545528D01*
X35000500Y-56545528D01*
X35000500Y-50374613D01*
X35020185Y-50307574D01*
X35072989Y-50261819D01*
X35124609Y-50250613D01*
X38123322Y-50253332D01*
G37*
%TD.AperFunction*%
%TD*%
D34*
X33000000Y-48250000D02*
X35000000Y-48250000D01*
X142000000Y-150000000D02*
X142000000Y-128100000D01*
X42000000Y-150000000D02*
X33000000Y-150000000D01*
X33000000Y-150000000D02*
X33000000Y-48250000D01*
X42000000Y-128100000D02*
X42000000Y-150000000D01*
X200400000Y-48400000D02*
X200400000Y-150000000D01*
X142000000Y-150000000D02*
X200400000Y-150000000D01*
X142000000Y-128100000D02*
X42000000Y-128100000D01*
X200400000Y-48400000D02*
X35000000Y-48250000D01*
M02*
