M48
; DRILL file {KiCad 9.0.7} date 2026-02-17T17:32:53+0000
; FORMAT={-:-/ absolute / metric / decimal}
; #@! TF.CreationDate,2026-02-17T17:32:53+00:00
; #@! TF.GenerationSoftware,Kicad,Pcbnew,9.0.7
; #@! TF.FileFunction,Plated,1,2,PTH
FMAT,2
METRIC
; #@! TA.AperFunction,Plated,PTH,ViaDrill
T1C1.000
; #@! TA.AperFunction,Plated,PTH,ComponentDrill
T2C1.000
; #@! TA.AperFunction,Plated,PTH,ComponentDrill
T3C1.016
; #@! TA.AperFunction,Plated,PTH,ComponentDrill
T4C1.200
; #@! TA.AperFunction,Plated,PTH,ComponentDrill
T5C1.300
; #@! TA.AperFunction,Plated,PTH,ComponentDrill
T6C2.500
%
G90
G05
T1
X56.6Y-66.8
X66.5Y-87.75
X77.2Y-67.8
X81.6Y-78.4
X85.0Y-89.2
X97.4Y-85.0
X106.5Y-66.0
X112.4Y-90.6
X117.0Y-73.25
X117.0Y-75.25
X117.0Y-77.25
X125.4Y-96.4
X146.4Y-112.8
T2
X51.305Y-71.565
X51.305Y-74.105
X53.845Y-71.565
X53.845Y-74.105
X56.385Y-71.565
X56.385Y-74.105
X58.925Y-71.565
X58.925Y-74.105
X61.465Y-71.565
X61.465Y-74.105
X64.005Y-71.565
X64.005Y-74.105
X66.545Y-71.565
X66.545Y-74.105
X69.085Y-71.565
X69.085Y-74.105
X71.625Y-71.565
X71.625Y-74.105
X74.165Y-71.565
X74.165Y-74.105
X76.705Y-71.565
X76.705Y-74.105
X79.245Y-71.565
X79.245Y-74.105
X81.785Y-71.565
X81.785Y-74.105
X84.325Y-71.565
X84.325Y-74.105
X86.865Y-71.565
X86.865Y-74.105
X89.405Y-71.565
X89.405Y-74.105
X91.945Y-71.565
X91.945Y-74.105
X94.485Y-71.565
X94.485Y-74.105
X97.025Y-71.565
X97.025Y-74.105
X99.565Y-71.565
X99.565Y-74.105
X140.22Y-96.0
X140.22Y-98.54
X140.22Y-101.08
X140.22Y-103.62
X140.22Y-106.16
X146.42Y-145.75
X148.96Y-145.75
X151.5Y-145.75
X151.71Y-66.0
X154.25Y-66.0
X156.79Y-66.0
T3
X90.491Y-90.187
X93.031Y-90.187
T4
X117.0Y-59.25
X124.5Y-59.25
T5
X117.0Y-98.5
X117.0Y-121.0
T6
X106.75Y-105.102
X106.75Y-109.801
X106.75Y-114.5
M30
